<?xml version="1.0" encoding="utf-8" standalone="no"?>
<!DOCTYPE svg PUBLIC "-//W3C//DTD SVG 1.1//EN"
  "http://www.w3.org/Graphics/SVG/1.1/DTD/svg11.dtd">
<svg xmlns:xlink="http://www.w3.org/1999/xlink" width="488.704312pt" height="350.632031pt" viewBox="0 0 488.704312 350.632031" xmlns="http://www.w3.org/2000/svg" version="1.1">
 <metadata>
  <rdf:RDF xmlns:dc="http://purl.org/dc/elements/1.1/" xmlns:cc="http://creativecommons.org/ns#" xmlns:rdf="http://www.w3.org/1999/02/22-rdf-syntax-ns#">
   <cc:Work>
    <dc:type rdf:resource="http://purl.org/dc/dcmitype/StillImage"/>
    <dc:date>2026-03-18T11:03:48.238777</dc:date>
    <dc:format>image/svg+xml</dc:format>
    <dc:creator>
     <cc:Agent>
      <dc:title>Matplotlib v3.10.8, https://matplotlib.org/</dc:title>
     </cc:Agent>
    </dc:creator>
   </cc:Work>
  </rdf:RDF>
 </metadata>
 <defs>
  <style type="text/css">*{stroke-linejoin: round; stroke-linecap: butt}</style>
 </defs>
 <g id="figure_1">
  <g id="patch_1">
   <path d="M -0 350.632031 
L 488.704312 350.632031 
L 488.704312 0 
L -0 0 
z
" style="fill: #ffffff"/>
  </g>
  <g id="axes_1">
   <g id="patch_2">
    <path d="M 49.760313 325.57 
L 481.504312 325.57 
L 481.504312 67.786 
L 49.760313 67.786 
z
" style="fill: #ffffff"/>
   </g>
   <g id="matplotlib.axis_1">
    <g id="xtick_1">
     <g id="line2d_1">
      <defs>
       <path id="m2876e7559d" d="M 0 0 
L 0 4.2 
" style="stroke: #4b5563"/>
      </defs>
      <g>
       <use xlink:href="#m2876e7559d" x="125.455689" y="325.57" style="fill: #4b5563; stroke: #4b5563"/>
      </g>
     </g>
     <g id="text_1">
      <!-- Setosa -->
      <g style="fill: #4b5563" transform="translate(107.669673 341.248359) scale(0.105 -0.105)">
       <defs>
        <path id="DejaVuSans-53" d="M 3425 4513 
L 3425 3897 
Q 3066 4069 2747 4153 
Q 2428 4238 2131 4238 
Q 1616 4238 1336 4038 
Q 1056 3838 1056 3469 
Q 1056 3159 1242 3001 
Q 1428 2844 1947 2747 
L 2328 2669 
Q 3034 2534 3370 2195 
Q 3706 1856 3706 1288 
Q 3706 609 3251 259 
Q 2797 -91 1919 -91 
Q 1588 -91 1214 -16 
Q 841 59 441 206 
L 441 856 
Q 825 641 1194 531 
Q 1563 422 1919 422 
Q 2459 422 2753 634 
Q 3047 847 3047 1241 
Q 3047 1584 2836 1778 
Q 2625 1972 2144 2069 
L 1759 2144 
Q 1053 2284 737 2584 
Q 422 2884 422 3419 
Q 422 4038 858 4394 
Q 1294 4750 2059 4750 
Q 2388 4750 2728 4690 
Q 3069 4631 3425 4513 
z
" transform="scale(0.015625)"/>
        <path id="DejaVuSans-65" d="M 3597 1894 
L 3597 1613 
L 953 1613 
Q 991 1019 1311 708 
Q 1631 397 2203 397 
Q 2534 397 2845 478 
Q 3156 559 3463 722 
L 3463 178 
Q 3153 47 2828 -22 
Q 2503 -91 2169 -91 
Q 1331 -91 842 396 
Q 353 884 353 1716 
Q 353 2575 817 3079 
Q 1281 3584 2069 3584 
Q 2775 3584 3186 3129 
Q 3597 2675 3597 1894 
z
M 3022 2063 
Q 3016 2534 2758 2815 
Q 2500 3097 2075 3097 
Q 1594 3097 1305 2825 
Q 1016 2553 972 2059 
L 3022 2063 
z
" transform="scale(0.015625)"/>
        <path id="DejaVuSans-74" d="M 1172 4494 
L 1172 3500 
L 2356 3500 
L 2356 3053 
L 1172 3053 
L 1172 1153 
Q 1172 725 1289 603 
Q 1406 481 1766 481 
L 2356 481 
L 2356 0 
L 1766 0 
Q 1100 0 847 248 
Q 594 497 594 1153 
L 594 3053 
L 172 3053 
L 172 3500 
L 594 3500 
L 594 4494 
L 1172 4494 
z
" transform="scale(0.015625)"/>
        <path id="DejaVuSans-6f" d="M 1959 3097 
Q 1497 3097 1228 2736 
Q 959 2375 959 1747 
Q 959 1119 1226 758 
Q 1494 397 1959 397 
Q 2419 397 2687 759 
Q 2956 1122 2956 1747 
Q 2956 2369 2687 2733 
Q 2419 3097 1959 3097 
z
M 1959 3584 
Q 2709 3584 3137 3096 
Q 3566 2609 3566 1747 
Q 3566 888 3137 398 
Q 2709 -91 1959 -91 
Q 1206 -91 779 398 
Q 353 888 353 1747 
Q 353 2609 779 3096 
Q 1206 3584 1959 3584 
z
" transform="scale(0.015625)"/>
        <path id="DejaVuSans-73" d="M 2834 3397 
L 2834 2853 
Q 2591 2978 2328 3040 
Q 2066 3103 1784 3103 
Q 1356 3103 1142 2972 
Q 928 2841 928 2578 
Q 928 2378 1081 2264 
Q 1234 2150 1697 2047 
L 1894 2003 
Q 2506 1872 2764 1633 
Q 3022 1394 3022 966 
Q 3022 478 2636 193 
Q 2250 -91 1575 -91 
Q 1294 -91 989 -36 
Q 684 19 347 128 
L 347 722 
Q 666 556 975 473 
Q 1284 391 1588 391 
Q 1994 391 2212 530 
Q 2431 669 2431 922 
Q 2431 1156 2273 1281 
Q 2116 1406 1581 1522 
L 1381 1569 
Q 847 1681 609 1914 
Q 372 2147 372 2553 
Q 372 3047 722 3315 
Q 1072 3584 1716 3584 
Q 2034 3584 2315 3537 
Q 2597 3491 2834 3397 
z
" transform="scale(0.015625)"/>
        <path id="DejaVuSans-61" d="M 2194 1759 
Q 1497 1759 1228 1600 
Q 959 1441 959 1056 
Q 959 750 1161 570 
Q 1363 391 1709 391 
Q 2188 391 2477 730 
Q 2766 1069 2766 1631 
L 2766 1759 
L 2194 1759 
z
M 3341 1997 
L 3341 0 
L 2766 0 
L 2766 531 
Q 2569 213 2275 61 
Q 1981 -91 1556 -91 
Q 1019 -91 701 211 
Q 384 513 384 1019 
Q 384 1609 779 1909 
Q 1175 2209 1959 2209 
L 2766 2209 
L 2766 2266 
Q 2766 2663 2505 2880 
Q 2244 3097 1772 3097 
Q 1472 3097 1187 3025 
Q 903 2953 641 2809 
L 641 3341 
Q 956 3463 1253 3523 
Q 1550 3584 1831 3584 
Q 2591 3584 2966 3190 
Q 3341 2797 3341 1997 
z
" transform="scale(0.015625)"/>
       </defs>
       <use xlink:href="#DejaVuSans-53"/>
       <use xlink:href="#DejaVuSans-65" transform="translate(63.476562 0)"/>
       <use xlink:href="#DejaVuSans-74" transform="translate(125 0)"/>
       <use xlink:href="#DejaVuSans-6f" transform="translate(164.208984 0)"/>
       <use xlink:href="#DejaVuSans-73" transform="translate(225.390625 0)"/>
       <use xlink:href="#DejaVuSans-61" transform="translate(277.490234 0)"/>
      </g>
     </g>
    </g>
    <g id="xtick_2">
     <g id="line2d_2">
      <g>
       <use xlink:href="#m2876e7559d" x="265.632312" y="325.57" style="fill: #4b5563; stroke: #4b5563"/>
      </g>
     </g>
     <g id="text_2">
      <!-- Versicolor -->
      <g style="fill: #4b5563" transform="translate(239.937664 341.248359) scale(0.105 -0.105)">
       <defs>
        <path id="DejaVuSans-56" d="M 1831 0 
L 50 4666 
L 709 4666 
L 2188 738 
L 3669 4666 
L 4325 4666 
L 2547 0 
L 1831 0 
z
" transform="scale(0.015625)"/>
        <path id="DejaVuSans-72" d="M 2631 2963 
Q 2534 3019 2420 3045 
Q 2306 3072 2169 3072 
Q 1681 3072 1420 2755 
Q 1159 2438 1159 1844 
L 1159 0 
L 581 0 
L 581 3500 
L 1159 3500 
L 1159 2956 
Q 1341 3275 1631 3429 
Q 1922 3584 2338 3584 
Q 2397 3584 2469 3576 
Q 2541 3569 2628 3553 
L 2631 2963 
z
" transform="scale(0.015625)"/>
        <path id="DejaVuSans-69" d="M 603 3500 
L 1178 3500 
L 1178 0 
L 603 0 
L 603 3500 
z
M 603 4863 
L 1178 4863 
L 1178 4134 
L 603 4134 
L 603 4863 
z
" transform="scale(0.015625)"/>
        <path id="DejaVuSans-63" d="M 3122 3366 
L 3122 2828 
Q 2878 2963 2633 3030 
Q 2388 3097 2138 3097 
Q 1578 3097 1268 2742 
Q 959 2388 959 1747 
Q 959 1106 1268 751 
Q 1578 397 2138 397 
Q 2388 397 2633 464 
Q 2878 531 3122 666 
L 3122 134 
Q 2881 22 2623 -34 
Q 2366 -91 2075 -91 
Q 1284 -91 818 406 
Q 353 903 353 1747 
Q 353 2603 823 3093 
Q 1294 3584 2113 3584 
Q 2378 3584 2631 3529 
Q 2884 3475 3122 3366 
z
" transform="scale(0.015625)"/>
        <path id="DejaVuSans-6c" d="M 603 4863 
L 1178 4863 
L 1178 0 
L 603 0 
L 603 4863 
z
" transform="scale(0.015625)"/>
       </defs>
       <use xlink:href="#DejaVuSans-56"/>
       <use xlink:href="#DejaVuSans-65" transform="translate(60.658203 0)"/>
       <use xlink:href="#DejaVuSans-72" transform="translate(122.181641 0)"/>
       <use xlink:href="#DejaVuSans-73" transform="translate(163.294922 0)"/>
       <use xlink:href="#DejaVuSans-69" transform="translate(215.394531 0)"/>
       <use xlink:href="#DejaVuSans-63" transform="translate(243.177734 0)"/>
       <use xlink:href="#DejaVuSans-6f" transform="translate(298.158203 0)"/>
       <use xlink:href="#DejaVuSans-6c" transform="translate(359.339844 0)"/>
       <use xlink:href="#DejaVuSans-6f" transform="translate(387.123047 0)"/>
       <use xlink:href="#DejaVuSans-72" transform="translate(448.304688 0)"/>
      </g>
     </g>
    </g>
    <g id="xtick_3">
     <g id="line2d_3">
      <g>
       <use xlink:href="#m2876e7559d" x="405.808936" y="325.57" style="fill: #4b5563; stroke: #4b5563"/>
      </g>
     </g>
     <g id="text_3">
      <!-- Virginica -->
      <g style="fill: #4b5563" transform="translate(383.129756 341.248359) scale(0.105 -0.105)">
       <defs>
        <path id="DejaVuSans-67" d="M 2906 1791 
Q 2906 2416 2648 2759 
Q 2391 3103 1925 3103 
Q 1463 3103 1205 2759 
Q 947 2416 947 1791 
Q 947 1169 1205 825 
Q 1463 481 1925 481 
Q 2391 481 2648 825 
Q 2906 1169 2906 1791 
z
M 3481 434 
Q 3481 -459 3084 -895 
Q 2688 -1331 1869 -1331 
Q 1566 -1331 1297 -1286 
Q 1028 -1241 775 -1147 
L 775 -588 
Q 1028 -725 1275 -790 
Q 1522 -856 1778 -856 
Q 2344 -856 2625 -561 
Q 2906 -266 2906 331 
L 2906 616 
Q 2728 306 2450 153 
Q 2172 0 1784 0 
Q 1141 0 747 490 
Q 353 981 353 1791 
Q 353 2603 747 3093 
Q 1141 3584 1784 3584 
Q 2172 3584 2450 3431 
Q 2728 3278 2906 2969 
L 2906 3500 
L 3481 3500 
L 3481 434 
z
" transform="scale(0.015625)"/>
        <path id="DejaVuSans-6e" d="M 3513 2113 
L 3513 0 
L 2938 0 
L 2938 2094 
Q 2938 2591 2744 2837 
Q 2550 3084 2163 3084 
Q 1697 3084 1428 2787 
Q 1159 2491 1159 1978 
L 1159 0 
L 581 0 
L 581 3500 
L 1159 3500 
L 1159 2956 
Q 1366 3272 1645 3428 
Q 1925 3584 2291 3584 
Q 2894 3584 3203 3211 
Q 3513 2838 3513 2113 
z
" transform="scale(0.015625)"/>
       </defs>
       <use xlink:href="#DejaVuSans-56"/>
       <use xlink:href="#DejaVuSans-69" transform="translate(66.158203 0)"/>
       <use xlink:href="#DejaVuSans-72" transform="translate(93.941406 0)"/>
       <use xlink:href="#DejaVuSans-67" transform="translate(133.304688 0)"/>
       <use xlink:href="#DejaVuSans-69" transform="translate(196.78125 0)"/>
       <use xlink:href="#DejaVuSans-6e" transform="translate(224.564453 0)"/>
       <use xlink:href="#DejaVuSans-69" transform="translate(287.943359 0)"/>
       <use xlink:href="#DejaVuSans-63" transform="translate(315.726562 0)"/>
       <use xlink:href="#DejaVuSans-61" transform="translate(370.707031 0)"/>
      </g>
     </g>
    </g>
   </g>
   <g id="matplotlib.axis_2">
    <g id="ytick_1">
     <g id="line2d_4">
      <path d="M 49.760313 300.833152 
L 481.504312 300.833152 
" clip-path="url(#pc371e9c11d)" style="fill: none; stroke: #e6ebf1; stroke-width: 0.9; stroke-linecap: square"/>
     </g>
     <g id="line2d_5">
      <defs>
       <path id="mc977d991a2" d="M 0 0 
L -4.2 0 
" style="stroke: #4b5563"/>
      </defs>
      <g>
       <use xlink:href="#mc977d991a2" x="49.760313" y="300.833152" style="fill: #4b5563; stroke: #4b5563"/>
      </g>
     </g>
     <g id="text_4">
      <!-- 4.5 -->
      <g style="fill: #4b5563" transform="translate(25.362031 304.822331) scale(0.105 -0.105)">
       <defs>
        <path id="DejaVuSans-34" d="M 2419 4116 
L 825 1625 
L 2419 1625 
L 2419 4116 
z
M 2253 4666 
L 3047 4666 
L 3047 1625 
L 3713 1625 
L 3713 1100 
L 3047 1100 
L 3047 0 
L 2419 0 
L 2419 1100 
L 313 1100 
L 313 1709 
L 2253 4666 
z
" transform="scale(0.015625)"/>
        <path id="DejaVuSans-2e" d="M 684 794 
L 1344 794 
L 1344 0 
L 684 0 
L 684 794 
z
" transform="scale(0.015625)"/>
        <path id="DejaVuSans-35" d="M 691 4666 
L 3169 4666 
L 3169 4134 
L 1269 4134 
L 1269 2991 
Q 1406 3038 1543 3061 
Q 1681 3084 1819 3084 
Q 2600 3084 3056 2656 
Q 3513 2228 3513 1497 
Q 3513 744 3044 326 
Q 2575 -91 1722 -91 
Q 1428 -91 1123 -41 
Q 819 9 494 109 
L 494 744 
Q 775 591 1075 516 
Q 1375 441 1709 441 
Q 2250 441 2565 725 
Q 2881 1009 2881 1497 
Q 2881 1984 2565 2268 
Q 2250 2553 1709 2553 
Q 1456 2553 1204 2497 
Q 953 2441 691 2322 
L 691 4666 
z
" transform="scale(0.015625)"/>
       </defs>
       <use xlink:href="#DejaVuSans-34"/>
       <use xlink:href="#DejaVuSans-2e" transform="translate(63.623047 0)"/>
       <use xlink:href="#DejaVuSans-35" transform="translate(95.410156 0)"/>
      </g>
     </g>
    </g>
    <g id="ytick_2">
     <g id="line2d_6">
      <path d="M 49.760313 268.284667 
L 481.504312 268.284667 
" clip-path="url(#pc371e9c11d)" style="fill: none; stroke: #e6ebf1; stroke-width: 0.9; stroke-linecap: square"/>
     </g>
     <g id="line2d_7">
      <g>
       <use xlink:href="#mc977d991a2" x="49.760313" y="268.284667" style="fill: #4b5563; stroke: #4b5563"/>
      </g>
     </g>
     <g id="text_5">
      <!-- 5.0 -->
      <g style="fill: #4b5563" transform="translate(25.362031 272.273846) scale(0.105 -0.105)">
       <defs>
        <path id="DejaVuSans-30" d="M 2034 4250 
Q 1547 4250 1301 3770 
Q 1056 3291 1056 2328 
Q 1056 1369 1301 889 
Q 1547 409 2034 409 
Q 2525 409 2770 889 
Q 3016 1369 3016 2328 
Q 3016 3291 2770 3770 
Q 2525 4250 2034 4250 
z
M 2034 4750 
Q 2819 4750 3233 4129 
Q 3647 3509 3647 2328 
Q 3647 1150 3233 529 
Q 2819 -91 2034 -91 
Q 1250 -91 836 529 
Q 422 1150 422 2328 
Q 422 3509 836 4129 
Q 1250 4750 2034 4750 
z
" transform="scale(0.015625)"/>
       </defs>
       <use xlink:href="#DejaVuSans-35"/>
       <use xlink:href="#DejaVuSans-2e" transform="translate(63.623047 0)"/>
       <use xlink:href="#DejaVuSans-30" transform="translate(95.410156 0)"/>
      </g>
     </g>
    </g>
    <g id="ytick_3">
     <g id="line2d_8">
      <path d="M 49.760313 235.736182 
L 481.504312 235.736182 
" clip-path="url(#pc371e9c11d)" style="fill: none; stroke: #e6ebf1; stroke-width: 0.9; stroke-linecap: square"/>
     </g>
     <g id="line2d_9">
      <g>
       <use xlink:href="#mc977d991a2" x="49.760313" y="235.736182" style="fill: #4b5563; stroke: #4b5563"/>
      </g>
     </g>
     <g id="text_6">
      <!-- 5.5 -->
      <g style="fill: #4b5563" transform="translate(25.362031 239.725362) scale(0.105 -0.105)">
       <use xlink:href="#DejaVuSans-35"/>
       <use xlink:href="#DejaVuSans-2e" transform="translate(63.623047 0)"/>
       <use xlink:href="#DejaVuSans-35" transform="translate(95.410156 0)"/>
      </g>
     </g>
    </g>
    <g id="ytick_4">
     <g id="line2d_10">
      <path d="M 49.760313 203.187697 
L 481.504312 203.187697 
" clip-path="url(#pc371e9c11d)" style="fill: none; stroke: #e6ebf1; stroke-width: 0.9; stroke-linecap: square"/>
     </g>
     <g id="line2d_11">
      <g>
       <use xlink:href="#mc977d991a2" x="49.760313" y="203.187697" style="fill: #4b5563; stroke: #4b5563"/>
      </g>
     </g>
     <g id="text_7">
      <!-- 6.0 -->
      <g style="fill: #4b5563" transform="translate(25.362031 207.176877) scale(0.105 -0.105)">
       <defs>
        <path id="DejaVuSans-36" d="M 2113 2584 
Q 1688 2584 1439 2293 
Q 1191 2003 1191 1497 
Q 1191 994 1439 701 
Q 1688 409 2113 409 
Q 2538 409 2786 701 
Q 3034 994 3034 1497 
Q 3034 2003 2786 2293 
Q 2538 2584 2113 2584 
z
M 3366 4563 
L 3366 3988 
Q 3128 4100 2886 4159 
Q 2644 4219 2406 4219 
Q 1781 4219 1451 3797 
Q 1122 3375 1075 2522 
Q 1259 2794 1537 2939 
Q 1816 3084 2150 3084 
Q 2853 3084 3261 2657 
Q 3669 2231 3669 1497 
Q 3669 778 3244 343 
Q 2819 -91 2113 -91 
Q 1303 -91 875 529 
Q 447 1150 447 2328 
Q 447 3434 972 4092 
Q 1497 4750 2381 4750 
Q 2619 4750 2861 4703 
Q 3103 4656 3366 4563 
z
" transform="scale(0.015625)"/>
       </defs>
       <use xlink:href="#DejaVuSans-36"/>
       <use xlink:href="#DejaVuSans-2e" transform="translate(63.623047 0)"/>
       <use xlink:href="#DejaVuSans-30" transform="translate(95.410156 0)"/>
      </g>
     </g>
    </g>
    <g id="ytick_5">
     <g id="line2d_12">
      <path d="M 49.760313 170.639212 
L 481.504312 170.639212 
" clip-path="url(#pc371e9c11d)" style="fill: none; stroke: #e6ebf1; stroke-width: 0.9; stroke-linecap: square"/>
     </g>
     <g id="line2d_13">
      <g>
       <use xlink:href="#mc977d991a2" x="49.760313" y="170.639212" style="fill: #4b5563; stroke: #4b5563"/>
      </g>
     </g>
     <g id="text_8">
      <!-- 6.5 -->
      <g style="fill: #4b5563" transform="translate(25.362031 174.628392) scale(0.105 -0.105)">
       <use xlink:href="#DejaVuSans-36"/>
       <use xlink:href="#DejaVuSans-2e" transform="translate(63.623047 0)"/>
       <use xlink:href="#DejaVuSans-35" transform="translate(95.410156 0)"/>
      </g>
     </g>
    </g>
    <g id="ytick_6">
     <g id="line2d_14">
      <path d="M 49.760313 138.090727 
L 481.504312 138.090727 
" clip-path="url(#pc371e9c11d)" style="fill: none; stroke: #e6ebf1; stroke-width: 0.9; stroke-linecap: square"/>
     </g>
     <g id="line2d_15">
      <g>
       <use xlink:href="#mc977d991a2" x="49.760313" y="138.090727" style="fill: #4b5563; stroke: #4b5563"/>
      </g>
     </g>
     <g id="text_9">
      <!-- 7.0 -->
      <g style="fill: #4b5563" transform="translate(25.362031 142.079907) scale(0.105 -0.105)">
       <defs>
        <path id="DejaVuSans-37" d="M 525 4666 
L 3525 4666 
L 3525 4397 
L 1831 0 
L 1172 0 
L 2766 4134 
L 525 4134 
L 525 4666 
z
" transform="scale(0.015625)"/>
       </defs>
       <use xlink:href="#DejaVuSans-37"/>
       <use xlink:href="#DejaVuSans-2e" transform="translate(63.623047 0)"/>
       <use xlink:href="#DejaVuSans-30" transform="translate(95.410156 0)"/>
      </g>
     </g>
    </g>
    <g id="ytick_7">
     <g id="line2d_16">
      <path d="M 49.760313 105.542242 
L 481.504312 105.542242 
" clip-path="url(#pc371e9c11d)" style="fill: none; stroke: #e6ebf1; stroke-width: 0.9; stroke-linecap: square"/>
     </g>
     <g id="line2d_17">
      <g>
       <use xlink:href="#mc977d991a2" x="49.760313" y="105.542242" style="fill: #4b5563; stroke: #4b5563"/>
      </g>
     </g>
     <g id="text_10">
      <!-- 7.5 -->
      <g style="fill: #4b5563" transform="translate(25.362031 109.531422) scale(0.105 -0.105)">
       <use xlink:href="#DejaVuSans-37"/>
       <use xlink:href="#DejaVuSans-2e" transform="translate(63.623047 0)"/>
       <use xlink:href="#DejaVuSans-35" transform="translate(95.410156 0)"/>
      </g>
     </g>
    </g>
    <g id="ytick_8">
     <g id="line2d_18">
      <path d="M 49.760313 72.993758 
L 481.504312 72.993758 
" clip-path="url(#pc371e9c11d)" style="fill: none; stroke: #e6ebf1; stroke-width: 0.9; stroke-linecap: square"/>
     </g>
     <g id="line2d_19">
      <g>
       <use xlink:href="#mc977d991a2" x="49.760313" y="72.993758" style="fill: #4b5563; stroke: #4b5563"/>
      </g>
     </g>
     <g id="text_11">
      <!-- 8.0 -->
      <g style="fill: #4b5563" transform="translate(25.362031 76.982937) scale(0.105 -0.105)">
       <defs>
        <path id="DejaVuSans-38" d="M 2034 2216 
Q 1584 2216 1326 1975 
Q 1069 1734 1069 1313 
Q 1069 891 1326 650 
Q 1584 409 2034 409 
Q 2484 409 2743 651 
Q 3003 894 3003 1313 
Q 3003 1734 2745 1975 
Q 2488 2216 2034 2216 
z
M 1403 2484 
Q 997 2584 770 2862 
Q 544 3141 544 3541 
Q 544 4100 942 4425 
Q 1341 4750 2034 4750 
Q 2731 4750 3128 4425 
Q 3525 4100 3525 3541 
Q 3525 3141 3298 2862 
Q 3072 2584 2669 2484 
Q 3125 2378 3379 2068 
Q 3634 1759 3634 1313 
Q 3634 634 3220 271 
Q 2806 -91 2034 -91 
Q 1263 -91 848 271 
Q 434 634 434 1313 
Q 434 1759 690 2068 
Q 947 2378 1403 2484 
z
M 1172 3481 
Q 1172 3119 1398 2916 
Q 1625 2713 2034 2713 
Q 2441 2713 2670 2916 
Q 2900 3119 2900 3481 
Q 2900 3844 2670 4047 
Q 2441 4250 2034 4250 
Q 1625 4250 1398 4047 
Q 1172 3844 1172 3481 
z
" transform="scale(0.015625)"/>
       </defs>
       <use xlink:href="#DejaVuSans-38"/>
       <use xlink:href="#DejaVuSans-2e" transform="translate(63.623047 0)"/>
       <use xlink:href="#DejaVuSans-30" transform="translate(95.410156 0)"/>
      </g>
     </g>
    </g>
    <g id="text_12">
     <!-- Sepal length -->
     <g style="fill: #252b33" transform="translate(15.178359 229.652922) rotate(-90) scale(0.105 -0.105)">
      <defs>
       <path id="DejaVuSans-70" d="M 1159 525 
L 1159 -1331 
L 581 -1331 
L 581 3500 
L 1159 3500 
L 1159 2969 
Q 1341 3281 1617 3432 
Q 1894 3584 2278 3584 
Q 2916 3584 3314 3078 
Q 3713 2572 3713 1747 
Q 3713 922 3314 415 
Q 2916 -91 2278 -91 
Q 1894 -91 1617 61 
Q 1341 213 1159 525 
z
M 3116 1747 
Q 3116 2381 2855 2742 
Q 2594 3103 2138 3103 
Q 1681 3103 1420 2742 
Q 1159 2381 1159 1747 
Q 1159 1113 1420 752 
Q 1681 391 2138 391 
Q 2594 391 2855 752 
Q 3116 1113 3116 1747 
z
" transform="scale(0.015625)"/>
       <path id="DejaVuSans-20" transform="scale(0.015625)"/>
       <path id="DejaVuSans-68" d="M 3513 2113 
L 3513 0 
L 2938 0 
L 2938 2094 
Q 2938 2591 2744 2837 
Q 2550 3084 2163 3084 
Q 1697 3084 1428 2787 
Q 1159 2491 1159 1978 
L 1159 0 
L 581 0 
L 581 4863 
L 1159 4863 
L 1159 2956 
Q 1366 3272 1645 3428 
Q 1925 3584 2291 3584 
Q 2894 3584 3203 3211 
Q 3513 2838 3513 2113 
z
" transform="scale(0.015625)"/>
      </defs>
      <use xlink:href="#DejaVuSans-53"/>
      <use xlink:href="#DejaVuSans-65" transform="translate(63.476562 0)"/>
      <use xlink:href="#DejaVuSans-70" transform="translate(125 0)"/>
      <use xlink:href="#DejaVuSans-61" transform="translate(188.476562 0)"/>
      <use xlink:href="#DejaVuSans-6c" transform="translate(249.755859 0)"/>
      <use xlink:href="#DejaVuSans-20" transform="translate(277.539062 0)"/>
      <use xlink:href="#DejaVuSans-6c" transform="translate(309.326172 0)"/>
      <use xlink:href="#DejaVuSans-65" transform="translate(337.109375 0)"/>
      <use xlink:href="#DejaVuSans-6e" transform="translate(398.632812 0)"/>
      <use xlink:href="#DejaVuSans-67" transform="translate(462.011719 0)"/>
      <use xlink:href="#DejaVuSans-74" transform="translate(525.488281 0)"/>
      <use xlink:href="#DejaVuSans-68" transform="translate(564.697266 0)"/>
     </g>
    </g>
   </g>
   <g id="FillBetweenPolyCollection_1">
    <defs>
     <path id="m36b65354db" d="M 137.319773 -36.779486 
L 113.591605 -36.779486 
L 112.702671 -37.765804 
L 111.810727 -38.752121 
L 110.920185 -39.738439 
L 110.034828 -40.724757 
L 109.157702 -41.711074 
L 108.291046 -42.697392 
L 107.436249 -43.68371 
L 106.593846 -44.670028 
L 105.76355 -45.656345 
L 104.944302 -46.642663 
L 104.13435 -47.628981 
L 103.331341 -48.615298 
L 102.532414 -49.601616 
L 101.734304 -50.587934 
L 100.93344 -51.574252 
L 100.126031 -52.560569 
L 99.308152 -53.546887 
L 98.475822 -54.533205 
L 97.625071 -55.519523 
L 96.75201 -56.50584 
L 95.852902 -57.492158 
L 94.924235 -58.478476 
L 93.962813 -59.464793 
L 92.965845 -60.451111 
L 91.931067 -61.437429 
L 90.856861 -62.423747 
L 89.742403 -63.410064 
L 88.587811 -64.396382 
L 87.394313 -65.3827 
L 86.164399 -66.369017 
L 84.901985 -67.355335 
L 83.61255 -68.341653 
L 82.303245 -69.327971 
L 80.982977 -70.314288 
L 79.662433 -71.300606 
L 78.354049 -72.286924 
L 77.071915 -73.273242 
L 75.83159 -74.259559 
L 74.649851 -75.245877 
L 73.544348 -76.232195 
L 72.533185 -77.218512 
L 71.634428 -78.20483 
L 70.865554 -79.191148 
L 70.242873 -80.177466 
L 69.780921 -81.163783 
L 69.49188 -82.150101 
L 69.38504 -83.136419 
L 69.466328 -84.122736 
L 69.737952 -85.109054 
L 70.198172 -86.095372 
L 70.841217 -87.08169 
L 71.657369 -88.068007 
L 72.633214 -89.054325 
L 73.752061 -90.040643 
L 74.994495 -91.026961 
L 76.339068 -92.013278 
L 77.763073 -92.999596 
L 79.243371 -93.985914 
L 80.757232 -94.972231 
L 82.283136 -95.958549 
L 83.801505 -96.944867 
L 85.295309 -97.931185 
L 86.750538 -98.917502 
L 88.156498 -99.90382 
L 89.505926 -100.890138 
L 90.79493 -101.876455 
L 92.02275 -102.862773 
L 93.19138 -103.849091 
L 94.305062 -104.835409 
L 95.369706 -105.821726 
L 96.392257 -106.808044 
L 97.380077 -107.794362 
L 98.340358 -108.78068 
L 99.279611 -109.766997 
L 100.203263 -110.753315 
L 101.115373 -111.739633 
L 102.018487 -112.72595 
L 102.913619 -113.712268 
L 103.80036 -114.698586 
L 104.677088 -115.684904 
L 105.541257 -116.671221 
L 106.389745 -117.657539 
L 107.219208 -118.643857 
L 108.026436 -119.630175 
L 108.808663 -120.616492 
L 109.563823 -121.60281 
L 110.290725 -122.589128 
L 110.989149 -123.575445 
L 111.659848 -124.561763 
L 112.304476 -125.548081 
L 112.925442 -126.534399 
L 113.525711 -127.520716 
L 114.108572 -128.507034 
L 114.677384 -129.493352 
L 115.235341 -130.479669 
L 115.785241 -131.465987 
L 116.329313 -132.452305 
L 116.869073 -133.438623 
L 117.405254 -134.42494 
L 133.506124 -134.42494 
L 133.506124 -134.42494 
L 134.042305 -133.438623 
L 134.582065 -132.452305 
L 135.126137 -131.465987 
L 135.676037 -130.479669 
L 136.233994 -129.493352 
L 136.802807 -128.507034 
L 137.385667 -127.520716 
L 137.985936 -126.534399 
L 138.606902 -125.548081 
L 139.25153 -124.561763 
L 139.922229 -123.575445 
L 140.620653 -122.589128 
L 141.347556 -121.60281 
L 142.102716 -120.616492 
L 142.884943 -119.630175 
L 143.69217 -118.643857 
L 144.521633 -117.657539 
L 145.370121 -116.671221 
L 146.234291 -115.684904 
L 147.111018 -114.698586 
L 147.997759 -113.712268 
L 148.892891 -112.72595 
L 149.796005 -111.739633 
L 150.708116 -110.753315 
L 151.631767 -109.766997 
L 152.57102 -108.78068 
L 153.531301 -107.794362 
L 154.519122 -106.808044 
L 155.541673 -105.821726 
L 156.606316 -104.835409 
L 157.719998 -103.849091 
L 158.888628 -102.862773 
L 160.116449 -101.876455 
L 161.405452 -100.890138 
L 162.75488 -99.90382 
L 164.16084 -98.917502 
L 165.616069 -97.931185 
L 167.109873 -96.944867 
L 168.628242 -95.958549 
L 170.154146 -94.972231 
L 171.668007 -93.985914 
L 173.148305 -92.999596 
L 174.57231 -92.013278 
L 175.916883 -91.026961 
L 177.159317 -90.040643 
L 178.278164 -89.054325 
L 179.25401 -88.068007 
L 180.070161 -87.08169 
L 180.713206 -86.095372 
L 181.173426 -85.109054 
L 181.445051 -84.122736 
L 181.526338 -83.136419 
L 181.419498 -82.150101 
L 181.130458 -81.163783 
L 180.668505 -80.177466 
L 180.045824 -79.191148 
L 179.276951 -78.20483 
L 178.378193 -77.218512 
L 177.36703 -76.232195 
L 176.261527 -75.245877 
L 175.079789 -74.259559 
L 173.839464 -73.273242 
L 172.557329 -72.286924 
L 171.248946 -71.300606 
L 169.928401 -70.314288 
L 168.608133 -69.327971 
L 167.298829 -68.341653 
L 166.009393 -67.355335 
L 164.746979 -66.369017 
L 163.517066 -65.3827 
L 162.323567 -64.396382 
L 161.168975 -63.410064 
L 160.054517 -62.423747 
L 158.980311 -61.437429 
L 157.945533 -60.451111 
L 156.948566 -59.464793 
L 155.987143 -58.478476 
L 155.058477 -57.492158 
L 154.159368 -56.50584 
L 153.286307 -55.519523 
L 152.435556 -54.533205 
L 151.603226 -53.546887 
L 150.785348 -52.560569 
L 149.977938 -51.574252 
L 149.177074 -50.587934 
L 148.378965 -49.601616 
L 147.580038 -48.615298 
L 146.777028 -47.628981 
L 145.967076 -46.642663 
L 145.147828 -45.656345 
L 144.317532 -44.670028 
L 143.475129 -43.68371 
L 142.620332 -42.697392 
L 141.753676 -41.711074 
L 140.876551 -40.724757 
L 139.991193 -39.738439 
L 139.100651 -38.752121 
L 138.208707 -37.765804 
L 137.319773 -36.779486 
z
" style="stroke: #4a7ebb; stroke-opacity: 0.35; stroke-width: 1.1"/>
    </defs>
    <g clip-path="url(#pc371e9c11d)">
     <use xlink:href="#m36b65354db" x="0" y="350.632031" style="fill: #4a7ebb; fill-opacity: 0.35; stroke: #4a7ebb; stroke-opacity: 0.35; stroke-width: 1.1"/>
    </g>
   </g>
   <g id="FillBetweenPolyCollection_2">
    <defs>
     <path id="m11be007a96" d="M 277.248821 -75.837668 
L 254.015804 -75.837668 
L 253.322593 -77.218512 
L 252.635965 -78.599357 
L 251.954773 -79.980202 
L 251.276175 -81.361047 
L 250.595582 -82.741892 
L 249.906703 -84.122736 
L 249.20167 -85.503581 
L 248.471258 -86.884426 
L 247.705192 -88.265271 
L 246.89254 -89.646116 
L 246.02217 -91.026961 
L 245.08326 -92.407805 
L 244.065836 -93.78865 
L 242.961321 -95.169495 
L 241.763062 -96.55034 
L 240.466807 -97.931185 
L 239.071116 -99.312029 
L 237.577672 -100.692874 
L 235.991477 -102.073719 
L 234.320918 -103.454564 
L 232.57769 -104.835409 
L 230.776583 -106.216253 
L 228.935126 -107.597098 
L 227.073113 -108.977943 
L 225.212011 -110.358788 
L 223.374304 -111.739633 
L 221.582767 -113.120478 
L 219.859733 -114.501322 
L 218.226367 -115.882167 
L 216.701994 -117.263012 
L 215.303498 -118.643857 
L 214.044834 -120.024702 
L 212.936661 -121.405546 
L 211.986124 -122.786391 
L 211.196775 -124.167236 
L 210.568656 -125.548081 
L 210.098507 -126.928926 
L 209.780113 -128.30977 
L 209.604741 -129.690615 
L 209.561663 -131.07146 
L 209.638723 -132.452305 
L 209.822918 -133.83315 
L 210.100965 -135.213995 
L 210.459835 -136.594839 
L 210.887208 -137.975684 
L 211.371855 -139.356529 
L 211.903913 -140.737374 
L 212.475063 -142.118219 
L 213.078598 -143.499063 
L 213.709391 -144.879908 
L 214.363785 -146.260753 
L 215.039391 -147.641598 
L 215.734855 -149.022443 
L 216.449568 -150.403287 
L 217.18338 -151.784132 
L 217.93631 -153.164977 
L 218.708282 -154.545822 
L 219.498901 -155.926667 
L 220.307278 -157.307512 
L 221.131914 -158.688356 
L 221.970642 -160.069201 
L 222.820636 -161.450046 
L 223.678473 -162.830891 
L 224.540252 -164.211736 
L 225.401745 -165.59258 
L 226.258591 -166.973425 
L 227.106502 -168.35427 
L 227.941477 -169.735115 
L 228.760006 -171.11596 
L 229.559268 -172.496804 
L 230.337281 -173.877649 
L 231.093034 -175.258494 
L 231.826558 -176.639339 
L 232.53896 -178.020184 
L 233.232401 -179.401028 
L 233.910019 -180.781873 
L 234.575816 -182.162718 
L 235.234494 -183.543563 
L 235.891262 -184.924408 
L 236.551619 -186.305253 
L 237.221124 -187.686097 
L 237.905158 -189.066942 
L 238.608706 -190.447787 
L 239.336144 -191.828632 
L 240.091068 -193.209477 
L 240.876146 -194.590321 
L 241.693017 -195.971166 
L 242.542232 -197.352011 
L 243.423234 -198.732856 
L 244.334385 -200.113701 
L 245.27303 -201.494545 
L 246.235588 -202.87539 
L 247.217679 -204.256235 
L 248.214261 -205.63708 
L 249.219789 -207.017925 
L 250.228371 -208.39877 
L 251.233931 -209.779614 
L 252.230362 -211.160459 
L 253.211669 -212.541304 
L 278.052956 -212.541304 
L 278.052956 -212.541304 
L 279.034263 -211.160459 
L 280.030694 -209.779614 
L 281.036254 -208.39877 
L 282.044836 -207.017925 
L 283.050364 -205.63708 
L 284.046946 -204.256235 
L 285.029037 -202.87539 
L 285.991595 -201.494545 
L 286.93024 -200.113701 
L 287.841391 -198.732856 
L 288.722393 -197.352011 
L 289.571608 -195.971166 
L 290.388479 -194.590321 
L 291.173557 -193.209477 
L 291.928481 -191.828632 
L 292.655919 -190.447787 
L 293.359467 -189.066942 
L 294.043501 -187.686097 
L 294.713006 -186.305253 
L 295.373363 -184.924408 
L 296.030131 -183.543563 
L 296.688809 -182.162718 
L 297.354606 -180.781873 
L 298.032224 -179.401028 
L 298.725665 -178.020184 
L 299.438067 -176.639339 
L 300.171591 -175.258494 
L 300.927344 -173.877649 
L 301.705357 -172.496804 
L 302.504619 -171.11596 
L 303.323148 -169.735115 
L 304.158123 -168.35427 
L 305.006034 -166.973425 
L 305.86288 -165.59258 
L 306.724373 -164.211736 
L 307.586152 -162.830891 
L 308.443989 -161.450046 
L 309.293983 -160.069201 
L 310.132711 -158.688356 
L 310.957347 -157.307512 
L 311.765724 -155.926667 
L 312.556343 -154.545822 
L 313.328315 -153.164977 
L 314.081245 -151.784132 
L 314.815057 -150.403287 
L 315.52977 -149.022443 
L 316.225234 -147.641598 
L 316.90084 -146.260753 
L 317.555234 -144.879908 
L 318.186027 -143.499063 
L 318.789562 -142.118219 
L 319.360712 -140.737374 
L 319.89277 -139.356529 
L 320.377417 -137.975684 
L 320.80479 -136.594839 
L 321.16366 -135.213995 
L 321.441707 -133.83315 
L 321.625902 -132.452305 
L 321.702962 -131.07146 
L 321.659884 -129.690615 
L 321.484512 -128.30977 
L 321.166118 -126.928926 
L 320.695969 -125.548081 
L 320.06785 -124.167236 
L 319.278501 -122.786391 
L 318.327964 -121.405546 
L 317.219791 -120.024702 
L 315.961127 -118.643857 
L 314.562631 -117.263012 
L 313.038258 -115.882167 
L 311.404892 -114.501322 
L 309.681858 -113.120478 
L 307.890321 -111.739633 
L 306.052614 -110.358788 
L 304.191512 -108.977943 
L 302.329499 -107.597098 
L 300.488042 -106.216253 
L 298.686935 -104.835409 
L 296.943707 -103.454564 
L 295.273148 -102.073719 
L 293.686953 -100.692874 
L 292.193509 -99.312029 
L 290.797818 -97.931185 
L 289.501563 -96.55034 
L 288.303304 -95.169495 
L 287.198789 -93.78865 
L 286.181365 -92.407805 
L 285.242455 -91.026961 
L 284.372085 -89.646116 
L 283.559433 -88.265271 
L 282.793367 -86.884426 
L 282.062955 -85.503581 
L 281.357922 -84.122736 
L 280.669043 -82.741892 
L 279.98845 -81.361047 
L 279.309852 -79.980202 
L 278.62866 -78.599357 
L 277.942032 -77.218512 
L 277.248821 -75.837668 
z
" style="stroke: #2f8f8b; stroke-opacity: 0.35; stroke-width: 1.1"/>
    </defs>
    <g clip-path="url(#pc371e9c11d)">
     <use xlink:href="#m11be007a96" x="0" y="350.632031" style="fill: #2f8f8b; fill-opacity: 0.35; stroke: #2f8f8b; stroke-opacity: 0.35; stroke-width: 1.1"/>
    </g>
   </g>
   <g id="FillBetweenPolyCollection_3">
    <defs>
     <path id="mb956299029" d="M 408.49122 -75.837668 
L 403.126651 -75.837668 
L 403.056872 -77.810303 
L 402.990797 -79.782939 
L 402.92266 -81.755574 
L 402.845409 -83.728209 
L 402.750853 -85.700845 
L 402.62987 -87.67348 
L 402.472676 -89.646116 
L 402.269126 -91.618751 
L 402.009063 -93.591387 
L 401.682666 -95.564022 
L 401.280808 -97.536658 
L 400.795393 -99.509293 
L 400.219661 -101.481928 
L 399.548435 -103.454564 
L 398.778312 -105.427199 
L 397.907764 -107.399835 
L 396.937161 -109.37247 
L 395.8687 -111.345106 
L 394.706242 -113.317741 
L 393.455067 -115.290377 
L 392.121561 -117.263012 
L 390.712849 -119.235647 
L 389.236408 -121.208283 
L 387.699679 -123.180918 
L 386.109723 -125.153554 
L 384.472939 -127.126189 
L 382.794879 -129.098825 
L 381.080187 -131.07146 
L 379.332668 -133.044096 
L 377.555498 -135.016731 
L 375.751558 -136.989366 
L 373.923877 -138.962002 
L 372.076148 -140.934637 
L 370.213268 -142.907273 
L 368.341861 -144.879908 
L 366.470723 -146.852544 
L 364.611135 -148.825179 
L 362.777021 -150.797815 
L 360.984893 -152.77045 
L 359.253586 -154.743085 
L 357.603784 -156.715721 
L 356.057355 -158.688356 
L 354.636532 -160.660992 
L 353.363009 -162.633627 
L 352.256989 -164.606263 
L 351.336283 -166.578898 
L 350.615495 -168.551534 
L 350.10537 -170.524169 
L 349.812339 -172.496804 
L 349.738287 -174.46944 
L 349.880552 -176.442075 
L 350.232145 -178.414711 
L 350.782151 -180.387346 
L 351.51629 -182.359982 
L 352.417568 -184.332617 
L 353.466984 -186.305253 
L 354.644233 -188.277888 
L 355.92837 -190.250523 
L 357.298404 -192.223159 
L 358.733803 -194.195794 
L 360.214896 -196.16843 
L 361.723183 -198.141065 
L 363.241555 -200.113701 
L 364.754441 -202.086336 
L 366.247892 -204.058972 
L 367.70962 -206.031607 
L 369.129002 -208.004242 
L 370.497052 -209.976878 
L 371.806381 -211.949513 
L 373.051124 -213.922149 
L 374.226869 -215.894784 
L 375.33056 -217.86742 
L 376.36041 -219.840055 
L 377.315805 -221.812691 
L 378.197228 -223.785326 
L 379.006193 -225.757961 
L 379.745219 -227.730597 
L 380.417813 -229.703232 
L 381.028498 -231.675868 
L 381.582839 -233.648503 
L 382.087486 -235.621139 
L 382.550192 -237.593774 
L 382.979793 -239.56641 
L 383.386138 -241.539045 
L 383.779933 -243.51168 
L 384.172507 -245.484316 
L 384.575487 -247.456951 
L 385.0004 -249.429587 
L 385.458206 -251.402222 
L 385.958811 -253.374858 
L 386.510575 -255.347493 
L 387.119863 -257.320129 
L 387.790675 -259.292764 
L 388.524384 -261.265399 
L 389.319609 -263.238035 
L 390.172237 -265.21067 
L 391.075591 -267.183306 
L 392.020743 -269.155941 
L 392.996933 -271.128577 
L 418.620938 -271.128577 
L 418.620938 -271.128577 
L 419.597129 -269.155941 
L 420.54228 -267.183306 
L 421.445635 -265.21067 
L 422.298263 -263.238035 
L 423.093488 -261.265399 
L 423.827197 -259.292764 
L 424.498009 -257.320129 
L 425.107297 -255.347493 
L 425.659061 -253.374858 
L 426.159666 -251.402222 
L 426.617472 -249.429587 
L 427.042385 -247.456951 
L 427.445365 -245.484316 
L 427.837939 -243.51168 
L 428.231733 -241.539045 
L 428.638078 -239.56641 
L 429.06768 -237.593774 
L 429.530386 -235.621139 
L 430.035033 -233.648503 
L 430.589374 -231.675868 
L 431.200059 -229.703232 
L 431.872653 -227.730597 
L 432.611678 -225.757961 
L 433.420644 -223.785326 
L 434.302066 -221.812691 
L 435.257462 -219.840055 
L 436.287312 -217.86742 
L 437.391003 -215.894784 
L 438.566748 -213.922149 
L 439.811491 -211.949513 
L 441.120819 -209.976878 
L 442.48887 -208.004242 
L 443.908252 -206.031607 
L 445.36998 -204.058972 
L 446.863431 -202.086336 
L 448.376317 -200.113701 
L 449.894689 -198.141065 
L 451.402976 -196.16843 
L 452.884068 -194.195794 
L 454.319467 -192.223159 
L 455.689502 -190.250523 
L 456.973639 -188.277888 
L 458.150888 -186.305253 
L 459.200304 -184.332617 
L 460.101582 -182.359982 
L 460.835721 -180.387346 
L 461.385727 -178.414711 
L 461.737319 -176.442075 
L 461.879585 -174.46944 
L 461.805533 -172.496804 
L 461.512502 -170.524169 
L 461.002377 -168.551534 
L 460.281588 -166.578898 
L 459.360882 -164.606263 
L 458.254863 -162.633627 
L 456.981339 -160.660992 
L 455.560517 -158.688356 
L 454.014087 -156.715721 
L 452.364286 -154.743085 
L 450.632979 -152.77045 
L 448.84085 -150.797815 
L 447.006737 -148.825179 
L 445.147149 -146.852544 
L 443.27601 -144.879908 
L 441.404604 -142.907273 
L 439.541724 -140.934637 
L 437.693995 -138.962002 
L 435.866314 -136.989366 
L 434.062373 -135.016731 
L 432.285203 -133.044096 
L 430.537685 -131.07146 
L 428.822993 -129.098825 
L 427.144932 -127.126189 
L 425.508148 -125.153554 
L 423.918193 -123.180918 
L 422.381464 -121.208283 
L 420.905023 -119.235647 
L 419.49631 -117.263012 
L 418.162804 -115.290377 
L 416.91163 -113.317741 
L 415.749172 -111.345106 
L 414.680711 -109.37247 
L 413.710108 -107.399835 
L 412.83956 -105.427199 
L 412.069436 -103.454564 
L 411.398211 -101.481928 
L 410.822479 -99.509293 
L 410.337064 -97.536658 
L 409.935206 -95.564022 
L 409.608808 -93.591387 
L 409.348745 -91.618751 
L 409.145196 -89.646116 
L 408.988001 -87.67348 
L 408.867019 -85.700845 
L 408.772463 -83.728209 
L 408.695212 -81.755574 
L 408.627075 -79.782939 
L 408.561 -77.810303 
L 408.49122 -75.837668 
z
" style="stroke: #d56a4b; stroke-opacity: 0.35; stroke-width: 1.1"/>
    </defs>
    <g clip-path="url(#pc371e9c11d)">
     <use xlink:href="#mb956299029" x="0" y="350.632031" style="fill: #d56a4b; fill-opacity: 0.35; stroke: #d56a4b; stroke-opacity: 0.35; stroke-width: 1.1"/>
    </g>
   </g>
   <g id="PathCollection_1">
    <defs>
     <path id="mba3f99f3af" d="M 0 1.581139 
C 0.419323 1.581139 0.821528 1.41454 1.118034 1.118034 
C 1.41454 0.821528 1.581139 0.419323 1.581139 0 
C 1.581139 -0.419323 1.41454 -0.821528 1.118034 -1.118034 
C 0.821528 -1.41454 0.419323 -1.581139 0 -1.581139 
C -0.419323 -1.581139 -0.821528 -1.41454 -1.118034 -1.118034 
C -1.41454 -0.821528 -1.581139 -0.419323 -1.581139 0 
C -1.581139 0.419323 -1.41454 0.821528 -1.118034 1.118034 
C -0.821528 1.41454 -0.419323 1.581139 0 1.581139 
z
" style="stroke: #4a7ebb; stroke-opacity: 0.28"/>
    </defs>
    <g clip-path="url(#pc371e9c11d)">
     <use xlink:href="#mba3f99f3af" x="130.862502" y="261.77497" style="fill: #4a7ebb; fill-opacity: 0.28; stroke: #4a7ebb; stroke-opacity: 0.28"/>
     <use xlink:href="#mba3f99f3af" x="122.623549" y="274.794364" style="fill: #4a7ebb; fill-opacity: 0.28; stroke: #4a7ebb; stroke-opacity: 0.28"/>
     <use xlink:href="#mba3f99f3af" x="117.474204" y="287.813758" style="fill: #4a7ebb; fill-opacity: 0.28; stroke: #4a7ebb; stroke-opacity: 0.28"/>
     <use xlink:href="#mba3f99f3af" x="115.9294" y="294.323455" style="fill: #4a7ebb; fill-opacity: 0.28; stroke: #4a7ebb; stroke-opacity: 0.28"/>
     <use xlink:href="#mba3f99f3af" x="126.228091" y="268.284667" style="fill: #4a7ebb; fill-opacity: 0.28; stroke: #4a7ebb; stroke-opacity: 0.28"/>
     <use xlink:href="#mba3f99f3af" x="135.496913" y="242.245879" style="fill: #4a7ebb; fill-opacity: 0.28; stroke: #4a7ebb; stroke-opacity: 0.28"/>
     <use xlink:href="#mba3f99f3af" x="116.959269" y="294.323455" style="fill: #4a7ebb; fill-opacity: 0.28; stroke: #4a7ebb; stroke-opacity: 0.28"/>
     <use xlink:href="#mba3f99f3af" x="126.743025" y="268.284667" style="fill: #4a7ebb; fill-opacity: 0.28; stroke: #4a7ebb; stroke-opacity: 0.28"/>
     <use xlink:href="#mba3f99f3af" x="113.354728" y="307.342848" style="fill: #4a7ebb; fill-opacity: 0.28; stroke: #4a7ebb; stroke-opacity: 0.28"/>
     <use xlink:href="#mba3f99f3af" x="121.078746" y="274.794364" style="fill: #4a7ebb; fill-opacity: 0.28; stroke: #4a7ebb; stroke-opacity: 0.28"/>
     <use xlink:href="#mba3f99f3af" x="134.467043" y="242.245879" style="fill: #4a7ebb; fill-opacity: 0.28; stroke: #4a7ebb; stroke-opacity: 0.28"/>
     <use xlink:href="#mba3f99f3af" x="120.048877" y="281.304061" style="fill: #4a7ebb; fill-opacity: 0.28; stroke: #4a7ebb; stroke-opacity: 0.28"/>
     <use xlink:href="#mba3f99f3af" x="119.533942" y="281.304061" style="fill: #4a7ebb; fill-opacity: 0.28; stroke: #4a7ebb; stroke-opacity: 0.28"/>
     <use xlink:href="#mba3f99f3af" x="112.839793" y="313.852545" style="fill: #4a7ebb; fill-opacity: 0.28; stroke: #4a7ebb; stroke-opacity: 0.28"/>
     <use xlink:href="#mba3f99f3af" x="138.071585" y="216.207091" style="fill: #4a7ebb; fill-opacity: 0.28; stroke: #4a7ebb; stroke-opacity: 0.28"/>
     <use xlink:href="#mba3f99f3af" x="137.556651" y="222.716788" style="fill: #4a7ebb; fill-opacity: 0.28; stroke: #4a7ebb; stroke-opacity: 0.28"/>
     <use xlink:href="#mba3f99f3af" x="133.437174" y="242.245879" style="fill: #4a7ebb; fill-opacity: 0.28; stroke: #4a7ebb; stroke-opacity: 0.28"/>
     <use xlink:href="#mba3f99f3af" x="129.832633" y="261.77497" style="fill: #4a7ebb; fill-opacity: 0.28; stroke: #4a7ebb; stroke-opacity: 0.28"/>
     <use xlink:href="#mba3f99f3af" x="137.041716" y="222.716788" style="fill: #4a7ebb; fill-opacity: 0.28; stroke: #4a7ebb; stroke-opacity: 0.28"/>
     <use xlink:href="#mba3f99f3af" x="129.317698" y="261.77497" style="fill: #4a7ebb; fill-opacity: 0.28; stroke: #4a7ebb; stroke-opacity: 0.28"/>
     <use xlink:href="#mba3f99f3af" x="134.981978" y="242.245879" style="fill: #4a7ebb; fill-opacity: 0.28; stroke: #4a7ebb; stroke-opacity: 0.28"/>
     <use xlink:href="#mba3f99f3af" x="130.347567" y="261.77497" style="fill: #4a7ebb; fill-opacity: 0.28; stroke: #4a7ebb; stroke-opacity: 0.28"/>
     <use xlink:href="#mba3f99f3af" x="115.414466" y="294.323455" style="fill: #4a7ebb; fill-opacity: 0.28; stroke: #4a7ebb; stroke-opacity: 0.28"/>
     <use xlink:href="#mba3f99f3af" x="127.25796" y="261.77497" style="fill: #4a7ebb; fill-opacity: 0.28; stroke: #4a7ebb; stroke-opacity: 0.28"/>
     <use xlink:href="#mba3f99f3af" x="118.504073" y="281.304061" style="fill: #4a7ebb; fill-opacity: 0.28; stroke: #4a7ebb; stroke-opacity: 0.28"/>
     <use xlink:href="#mba3f99f3af" x="125.198222" y="268.284667" style="fill: #4a7ebb; fill-opacity: 0.28; stroke: #4a7ebb; stroke-opacity: 0.28"/>
     <use xlink:href="#mba3f99f3af" x="124.683287" y="268.284667" style="fill: #4a7ebb; fill-opacity: 0.28; stroke: #4a7ebb; stroke-opacity: 0.28"/>
     <use xlink:href="#mba3f99f3af" x="132.407305" y="255.265273" style="fill: #4a7ebb; fill-opacity: 0.28; stroke: #4a7ebb; stroke-opacity: 0.28"/>
     <use xlink:href="#mba3f99f3af" x="131.892371" y="255.265273" style="fill: #4a7ebb; fill-opacity: 0.28; stroke: #4a7ebb; stroke-opacity: 0.28"/>
     <use xlink:href="#mba3f99f3af" x="117.989138" y="287.813758" style="fill: #4a7ebb; fill-opacity: 0.28; stroke: #4a7ebb; stroke-opacity: 0.28"/>
     <use xlink:href="#mba3f99f3af" x="119.019007" y="281.304061" style="fill: #4a7ebb; fill-opacity: 0.28; stroke: #4a7ebb; stroke-opacity: 0.28"/>
     <use xlink:href="#mba3f99f3af" x="133.952109" y="242.245879" style="fill: #4a7ebb; fill-opacity: 0.28; stroke: #4a7ebb; stroke-opacity: 0.28"/>
     <use xlink:href="#mba3f99f3af" x="131.377436" y="255.265273" style="fill: #4a7ebb; fill-opacity: 0.28; stroke: #4a7ebb; stroke-opacity: 0.28"/>
     <use xlink:href="#mba3f99f3af" x="136.526782" y="235.736182" style="fill: #4a7ebb; fill-opacity: 0.28; stroke: #4a7ebb; stroke-opacity: 0.28"/>
     <use xlink:href="#mba3f99f3af" x="122.108615" y="274.794364" style="fill: #4a7ebb; fill-opacity: 0.28; stroke: #4a7ebb; stroke-opacity: 0.28"/>
     <use xlink:href="#mba3f99f3af" x="123.653418" y="268.284667" style="fill: #4a7ebb; fill-opacity: 0.28; stroke: #4a7ebb; stroke-opacity: 0.28"/>
     <use xlink:href="#mba3f99f3af" x="136.011847" y="235.736182" style="fill: #4a7ebb; fill-opacity: 0.28; stroke: #4a7ebb; stroke-opacity: 0.28"/>
     <use xlink:href="#mba3f99f3af" x="121.59368" y="274.794364" style="fill: #4a7ebb; fill-opacity: 0.28; stroke: #4a7ebb; stroke-opacity: 0.28"/>
     <use xlink:href="#mba3f99f3af" x="113.869662" y="307.342848" style="fill: #4a7ebb; fill-opacity: 0.28; stroke: #4a7ebb; stroke-opacity: 0.28"/>
     <use xlink:href="#mba3f99f3af" x="128.802764" y="261.77497" style="fill: #4a7ebb; fill-opacity: 0.28; stroke: #4a7ebb; stroke-opacity: 0.28"/>
     <use xlink:href="#mba3f99f3af" x="123.138484" y="268.284667" style="fill: #4a7ebb; fill-opacity: 0.28; stroke: #4a7ebb; stroke-opacity: 0.28"/>
     <use xlink:href="#mba3f99f3af" x="114.899531" y="300.833152" style="fill: #4a7ebb; fill-opacity: 0.28; stroke: #4a7ebb; stroke-opacity: 0.28"/>
     <use xlink:href="#mba3f99f3af" x="114.384597" y="307.342848" style="fill: #4a7ebb; fill-opacity: 0.28; stroke: #4a7ebb; stroke-opacity: 0.28"/>
     <use xlink:href="#mba3f99f3af" x="124.168353" y="268.284667" style="fill: #4a7ebb; fill-opacity: 0.28; stroke: #4a7ebb; stroke-opacity: 0.28"/>
     <use xlink:href="#mba3f99f3af" x="128.287829" y="261.77497" style="fill: #4a7ebb; fill-opacity: 0.28; stroke: #4a7ebb; stroke-opacity: 0.28"/>
     <use xlink:href="#mba3f99f3af" x="120.563811" y="281.304061" style="fill: #4a7ebb; fill-opacity: 0.28; stroke: #4a7ebb; stroke-opacity: 0.28"/>
     <use xlink:href="#mba3f99f3af" x="127.772895" y="261.77497" style="fill: #4a7ebb; fill-opacity: 0.28; stroke: #4a7ebb; stroke-opacity: 0.28"/>
     <use xlink:href="#mba3f99f3af" x="116.444335" y="294.323455" style="fill: #4a7ebb; fill-opacity: 0.28; stroke: #4a7ebb; stroke-opacity: 0.28"/>
     <use xlink:href="#mba3f99f3af" x="132.92224" y="248.755576" style="fill: #4a7ebb; fill-opacity: 0.28; stroke: #4a7ebb; stroke-opacity: 0.28"/>
     <use xlink:href="#mba3f99f3af" x="125.713156" y="268.284667" style="fill: #4a7ebb; fill-opacity: 0.28; stroke: #4a7ebb; stroke-opacity: 0.28"/>
    </g>
   </g>
   <g id="PathCollection_2">
    <defs>
     <path id="m812dffd599" d="M 0 1.581139 
C 0.419323 1.581139 0.821528 1.41454 1.118034 1.118034 
C 1.41454 0.821528 1.581139 0.419323 1.581139 0 
C 1.581139 -0.419323 1.41454 -0.821528 1.118034 -1.118034 
C 0.821528 -1.41454 0.419323 -1.581139 0 -1.581139 
C -0.419323 -1.581139 -0.821528 -1.41454 -1.118034 -1.118034 
C -1.41454 -0.821528 -1.581139 -0.419323 -1.581139 0 
C -1.581139 0.419323 -1.41454 0.821528 -1.118034 1.118034 
C -0.821528 1.41454 -0.419323 1.581139 0 1.581139 
z
" style="stroke: #2f8f8b; stroke-opacity: 0.28"/>
    </defs>
    <g clip-path="url(#pc371e9c11d)">
     <use xlink:href="#m812dffd599" x="278.248209" y="138.090727" style="fill: #2f8f8b; fill-opacity: 0.28; stroke: #2f8f8b; stroke-opacity: 0.28"/>
     <use xlink:href="#m812dffd599" x="273.613798" y="177.148909" style="fill: #2f8f8b; fill-opacity: 0.28; stroke: #2f8f8b; stroke-opacity: 0.28"/>
     <use xlink:href="#m812dffd599" x="277.733274" y="144.600424" style="fill: #2f8f8b; fill-opacity: 0.28; stroke: #2f8f8b; stroke-opacity: 0.28"/>
     <use xlink:href="#m812dffd599" x="256.620958" y="235.736182" style="fill: #2f8f8b; fill-opacity: 0.28; stroke: #2f8f8b; stroke-opacity: 0.28"/>
     <use xlink:href="#m812dffd599" x="274.128732" y="170.639212" style="fill: #2f8f8b; fill-opacity: 0.28; stroke: #2f8f8b; stroke-opacity: 0.28"/>
     <use xlink:href="#m812dffd599" x="262.800173" y="222.716788" style="fill: #2f8f8b; fill-opacity: 0.28; stroke: #2f8f8b; stroke-opacity: 0.28"/>
     <use xlink:href="#m812dffd599" x="271.55406" y="183.658606" style="fill: #2f8f8b; fill-opacity: 0.28; stroke: #2f8f8b; stroke-opacity: 0.28"/>
     <use xlink:href="#m812dffd599" x="253.016416" y="274.794364" style="fill: #2f8f8b; fill-opacity: 0.28; stroke: #2f8f8b; stroke-opacity: 0.28"/>
     <use xlink:href="#m812dffd599" x="275.158601" y="164.129515" style="fill: #2f8f8b; fill-opacity: 0.28; stroke: #2f8f8b; stroke-opacity: 0.28"/>
     <use xlink:href="#m812dffd599" x="255.076155" y="255.265273" style="fill: #2f8f8b; fill-opacity: 0.28; stroke: #2f8f8b; stroke-opacity: 0.28"/>
     <use xlink:href="#m812dffd599" x="253.531351" y="268.284667" style="fill: #2f8f8b; fill-opacity: 0.28; stroke: #2f8f8b; stroke-opacity: 0.28"/>
     <use xlink:href="#m812dffd599" x="265.374845" y="209.697394" style="fill: #2f8f8b; fill-opacity: 0.28; stroke: #2f8f8b; stroke-opacity: 0.28"/>
     <use xlink:href="#m812dffd599" x="267.434583" y="203.187697" style="fill: #2f8f8b; fill-opacity: 0.28; stroke: #2f8f8b; stroke-opacity: 0.28"/>
     <use xlink:href="#m812dffd599" x="268.464452" y="196.678" style="fill: #2f8f8b; fill-opacity: 0.28; stroke: #2f8f8b; stroke-opacity: 0.28"/>
     <use xlink:href="#m812dffd599" x="259.710565" y="229.226485" style="fill: #2f8f8b; fill-opacity: 0.28; stroke: #2f8f8b; stroke-opacity: 0.28"/>
     <use xlink:href="#m812dffd599" x="276.18847" y="157.619818" style="fill: #2f8f8b; fill-opacity: 0.28; stroke: #2f8f8b; stroke-opacity: 0.28"/>
     <use xlink:href="#m812dffd599" x="259.195631" y="229.226485" style="fill: #2f8f8b; fill-opacity: 0.28; stroke: #2f8f8b; stroke-opacity: 0.28"/>
     <use xlink:href="#m812dffd599" x="263.830042" y="216.207091" style="fill: #2f8f8b; fill-opacity: 0.28; stroke: #2f8f8b; stroke-opacity: 0.28"/>
     <use xlink:href="#m812dffd599" x="270.524191" y="190.168303" style="fill: #2f8f8b; fill-opacity: 0.28; stroke: #2f8f8b; stroke-opacity: 0.28"/>
     <use xlink:href="#m812dffd599" x="258.680696" y="229.226485" style="fill: #2f8f8b; fill-opacity: 0.28; stroke: #2f8f8b; stroke-opacity: 0.28"/>
     <use xlink:href="#m812dffd599" x="265.88978" y="209.697394" style="fill: #2f8f8b; fill-opacity: 0.28; stroke: #2f8f8b; stroke-opacity: 0.28"/>
     <use xlink:href="#m812dffd599" x="269.494322" y="196.678" style="fill: #2f8f8b; fill-opacity: 0.28; stroke: #2f8f8b; stroke-opacity: 0.28"/>
     <use xlink:href="#m812dffd599" x="272.068994" y="183.658606" style="fill: #2f8f8b; fill-opacity: 0.28; stroke: #2f8f8b; stroke-opacity: 0.28"/>
     <use xlink:href="#m812dffd599" x="268.979387" y="196.678" style="fill: #2f8f8b; fill-opacity: 0.28; stroke: #2f8f8b; stroke-opacity: 0.28"/>
     <use xlink:href="#m812dffd599" x="273.098863" y="177.148909" style="fill: #2f8f8b; fill-opacity: 0.28; stroke: #2f8f8b; stroke-opacity: 0.28"/>
     <use xlink:href="#m812dffd599" x="274.643667" y="164.129515" style="fill: #2f8f8b; fill-opacity: 0.28; stroke: #2f8f8b; stroke-opacity: 0.28"/>
     <use xlink:href="#m812dffd599" x="277.21834" y="151.110121" style="fill: #2f8f8b; fill-opacity: 0.28; stroke: #2f8f8b; stroke-opacity: 0.28"/>
     <use xlink:href="#m812dffd599" x="275.673536" y="157.619818" style="fill: #2f8f8b; fill-opacity: 0.28; stroke: #2f8f8b; stroke-opacity: 0.28"/>
     <use xlink:href="#m812dffd599" x="267.949518" y="203.187697" style="fill: #2f8f8b; fill-opacity: 0.28; stroke: #2f8f8b; stroke-opacity: 0.28"/>
     <use xlink:href="#m812dffd599" x="263.315107" y="222.716788" style="fill: #2f8f8b; fill-opacity: 0.28; stroke: #2f8f8b; stroke-opacity: 0.28"/>
     <use xlink:href="#m812dffd599" x="257.650827" y="235.736182" style="fill: #2f8f8b; fill-opacity: 0.28; stroke: #2f8f8b; stroke-opacity: 0.28"/>
     <use xlink:href="#m812dffd599" x="257.135893" y="235.736182" style="fill: #2f8f8b; fill-opacity: 0.28; stroke: #2f8f8b; stroke-opacity: 0.28"/>
     <use xlink:href="#m812dffd599" x="264.344976" y="216.207091" style="fill: #2f8f8b; fill-opacity: 0.28; stroke: #2f8f8b; stroke-opacity: 0.28"/>
     <use xlink:href="#m812dffd599" x="266.919649" y="203.187697" style="fill: #2f8f8b; fill-opacity: 0.28; stroke: #2f8f8b; stroke-opacity: 0.28"/>
     <use xlink:href="#m812dffd599" x="255.591089" y="242.245879" style="fill: #2f8f8b; fill-opacity: 0.28; stroke: #2f8f8b; stroke-opacity: 0.28"/>
     <use xlink:href="#m812dffd599" x="266.404714" y="203.187697" style="fill: #2f8f8b; fill-opacity: 0.28; stroke: #2f8f8b; stroke-opacity: 0.28"/>
     <use xlink:href="#m812dffd599" x="276.703405" y="157.619818" style="fill: #2f8f8b; fill-opacity: 0.28; stroke: #2f8f8b; stroke-opacity: 0.28"/>
     <use xlink:href="#m812dffd599" x="272.583929" y="183.658606" style="fill: #2f8f8b; fill-opacity: 0.28; stroke: #2f8f8b; stroke-opacity: 0.28"/>
     <use xlink:href="#m812dffd599" x="260.2255" y="229.226485" style="fill: #2f8f8b; fill-opacity: 0.28; stroke: #2f8f8b; stroke-opacity: 0.28"/>
     <use xlink:href="#m812dffd599" x="256.106024" y="235.736182" style="fill: #2f8f8b; fill-opacity: 0.28; stroke: #2f8f8b; stroke-opacity: 0.28"/>
     <use xlink:href="#m812dffd599" x="258.165762" y="235.736182" style="fill: #2f8f8b; fill-opacity: 0.28; stroke: #2f8f8b; stroke-opacity: 0.28"/>
     <use xlink:href="#m812dffd599" x="270.009256" y="196.678" style="fill: #2f8f8b; fill-opacity: 0.28; stroke: #2f8f8b; stroke-opacity: 0.28"/>
     <use xlink:href="#m812dffd599" x="264.859911" y="216.207091" style="fill: #2f8f8b; fill-opacity: 0.28; stroke: #2f8f8b; stroke-opacity: 0.28"/>
     <use xlink:href="#m812dffd599" x="254.046285" y="268.284667" style="fill: #2f8f8b; fill-opacity: 0.28; stroke: #2f8f8b; stroke-opacity: 0.28"/>
     <use xlink:href="#m812dffd599" x="260.740434" y="229.226485" style="fill: #2f8f8b; fill-opacity: 0.28; stroke: #2f8f8b; stroke-opacity: 0.28"/>
     <use xlink:href="#m812dffd599" x="262.285238" y="222.716788" style="fill: #2f8f8b; fill-opacity: 0.28; stroke: #2f8f8b; stroke-opacity: 0.28"/>
     <use xlink:href="#m812dffd599" x="261.770303" y="222.716788" style="fill: #2f8f8b; fill-opacity: 0.28; stroke: #2f8f8b; stroke-opacity: 0.28"/>
     <use xlink:href="#m812dffd599" x="271.039125" y="190.168303" style="fill: #2f8f8b; fill-opacity: 0.28; stroke: #2f8f8b; stroke-opacity: 0.28"/>
     <use xlink:href="#m812dffd599" x="254.56122" y="261.77497" style="fill: #2f8f8b; fill-opacity: 0.28; stroke: #2f8f8b; stroke-opacity: 0.28"/>
     <use xlink:href="#m812dffd599" x="261.255369" y="222.716788" style="fill: #2f8f8b; fill-opacity: 0.28; stroke: #2f8f8b; stroke-opacity: 0.28"/>
    </g>
   </g>
   <g id="PathCollection_3">
    <defs>
     <path id="meac264fab8" d="M 0 1.581139 
C 0.419323 1.581139 0.821528 1.41454 1.118034 1.118034 
C 1.41454 0.821528 1.581139 0.419323 1.581139 0 
C 1.581139 -0.419323 1.41454 -0.821528 1.118034 -1.118034 
C 0.821528 -1.41454 0.419323 -1.581139 0 -1.581139 
C -0.419323 -1.581139 -0.821528 -1.41454 -1.118034 -1.118034 
C -1.41454 -0.821528 -1.581139 -0.419323 -1.581139 0 
C -1.581139 0.419323 -1.41454 0.821528 -1.118034 1.118034 
C -0.821528 1.41454 -0.419323 1.581139 0 1.581139 
z
" style="stroke: #d56a4b; stroke-opacity: 0.28"/>
    </defs>
    <g clip-path="url(#pc371e9c11d)">
     <use xlink:href="#meac264fab8" x="401.946927" y="183.658606" style="fill: #d56a4b; fill-opacity: 0.28; stroke: #d56a4b; stroke-opacity: 0.28"/>
     <use xlink:href="#meac264fab8" x="394.737843" y="216.207091" style="fill: #d56a4b; fill-opacity: 0.28; stroke: #d56a4b; stroke-opacity: 0.28"/>
     <use xlink:href="#meac264fab8" x="412.760552" y="131.58103" style="fill: #d56a4b; fill-opacity: 0.28; stroke: #d56a4b; stroke-opacity: 0.28"/>
     <use xlink:href="#meac264fab8" x="402.461861" y="183.658606" style="fill: #d56a4b; fill-opacity: 0.28; stroke: #d56a4b; stroke-opacity: 0.28"/>
     <use xlink:href="#meac264fab8" x="407.096272" y="170.639212" style="fill: #d56a4b; fill-opacity: 0.28; stroke: #d56a4b; stroke-opacity: 0.28"/>
     <use xlink:href="#meac264fab8" x="415.850159" y="99.032545" style="fill: #d56a4b; fill-opacity: 0.28; stroke: #d56a4b; stroke-opacity: 0.28"/>
     <use xlink:href="#meac264fab8" x="393.19304" y="274.794364" style="fill: #d56a4b; fill-opacity: 0.28; stroke: #d56a4b; stroke-opacity: 0.28"/>
     <use xlink:href="#meac264fab8" x="414.82029" y="118.561636" style="fill: #d56a4b; fill-opacity: 0.28; stroke: #d56a4b; stroke-opacity: 0.28"/>
     <use xlink:href="#meac264fab8" x="407.611207" y="157.619818" style="fill: #d56a4b; fill-opacity: 0.28; stroke: #d56a4b; stroke-opacity: 0.28"/>
     <use xlink:href="#meac264fab8" x="413.790421" y="125.071333" style="fill: #d56a4b; fill-opacity: 0.28; stroke: #d56a4b; stroke-opacity: 0.28"/>
     <use xlink:href="#meac264fab8" x="406.581338" y="170.639212" style="fill: #d56a4b; fill-opacity: 0.28; stroke: #d56a4b; stroke-opacity: 0.28"/>
     <use xlink:href="#meac264fab8" x="403.49173" y="177.148909" style="fill: #d56a4b; fill-opacity: 0.28; stroke: #d56a4b; stroke-opacity: 0.28"/>
     <use xlink:href="#meac264fab8" x="410.700814" y="151.110121" style="fill: #d56a4b; fill-opacity: 0.28; stroke: #d56a4b; stroke-opacity: 0.28"/>
     <use xlink:href="#meac264fab8" x="394.222909" y="222.716788" style="fill: #d56a4b; fill-opacity: 0.28; stroke: #d56a4b; stroke-opacity: 0.28"/>
     <use xlink:href="#meac264fab8" x="395.252778" y="216.207091" style="fill: #d56a4b; fill-opacity: 0.28; stroke: #d56a4b; stroke-opacity: 0.28"/>
     <use xlink:href="#meac264fab8" x="402.976796" y="177.148909" style="fill: #d56a4b; fill-opacity: 0.28; stroke: #d56a4b; stroke-opacity: 0.28"/>
     <use xlink:href="#meac264fab8" x="405.551469" y="170.639212" style="fill: #d56a4b; fill-opacity: 0.28; stroke: #d56a4b; stroke-opacity: 0.28"/>
     <use xlink:href="#meac264fab8" x="416.365094" y="92.522848" style="fill: #d56a4b; fill-opacity: 0.28; stroke: #d56a4b; stroke-opacity: 0.28"/>
     <use xlink:href="#meac264fab8" x="417.909897" y="92.522848" style="fill: #d56a4b; fill-opacity: 0.28; stroke: #d56a4b; stroke-opacity: 0.28"/>
     <use xlink:href="#meac264fab8" x="396.797582" y="203.187697" style="fill: #d56a4b; fill-opacity: 0.28; stroke: #d56a4b; stroke-opacity: 0.28"/>
     <use xlink:href="#meac264fab8" x="411.730683" y="144.600424" style="fill: #d56a4b; fill-opacity: 0.28; stroke: #d56a4b; stroke-opacity: 0.28"/>
     <use xlink:href="#meac264fab8" x="393.707974" y="229.226485" style="fill: #d56a4b; fill-opacity: 0.28; stroke: #d56a4b; stroke-opacity: 0.28"/>
     <use xlink:href="#meac264fab8" x="417.394963" y="92.522848" style="fill: #d56a4b; fill-opacity: 0.28; stroke: #d56a4b; stroke-opacity: 0.28"/>
     <use xlink:href="#meac264fab8" x="400.402123" y="183.658606" style="fill: #d56a4b; fill-opacity: 0.28; stroke: #d56a4b; stroke-opacity: 0.28"/>
     <use xlink:href="#meac264fab8" x="409.670945" y="157.619818" style="fill: #d56a4b; fill-opacity: 0.28; stroke: #d56a4b; stroke-opacity: 0.28"/>
     <use xlink:href="#meac264fab8" x="414.305356" y="125.071333" style="fill: #d56a4b; fill-opacity: 0.28; stroke: #d56a4b; stroke-opacity: 0.28"/>
     <use xlink:href="#meac264fab8" x="398.85732" y="190.168303" style="fill: #d56a4b; fill-opacity: 0.28; stroke: #d56a4b; stroke-opacity: 0.28"/>
     <use xlink:href="#meac264fab8" x="397.827451" y="196.678" style="fill: #d56a4b; fill-opacity: 0.28; stroke: #d56a4b; stroke-opacity: 0.28"/>
     <use xlink:href="#meac264fab8" x="404.006665" y="177.148909" style="fill: #d56a4b; fill-opacity: 0.28; stroke: #d56a4b; stroke-opacity: 0.28"/>
     <use xlink:href="#meac264fab8" x="413.275487" y="125.071333" style="fill: #d56a4b; fill-opacity: 0.28; stroke: #d56a4b; stroke-opacity: 0.28"/>
     <use xlink:href="#meac264fab8" x="415.335225" y="112.051939" style="fill: #d56a4b; fill-opacity: 0.28; stroke: #d56a4b; stroke-opacity: 0.28"/>
     <use xlink:href="#meac264fab8" x="418.424832" y="79.503455" style="fill: #d56a4b; fill-opacity: 0.28; stroke: #d56a4b; stroke-opacity: 0.28"/>
     <use xlink:href="#meac264fab8" x="405.036534" y="177.148909" style="fill: #d56a4b; fill-opacity: 0.28; stroke: #d56a4b; stroke-opacity: 0.28"/>
     <use xlink:href="#meac264fab8" x="401.431992" y="183.658606" style="fill: #d56a4b; fill-opacity: 0.28; stroke: #d56a4b; stroke-opacity: 0.28"/>
     <use xlink:href="#meac264fab8" x="398.342385" y="196.678" style="fill: #d56a4b; fill-opacity: 0.28; stroke: #d56a4b; stroke-opacity: 0.28"/>
     <use xlink:href="#meac264fab8" x="416.880028" y="92.522848" style="fill: #d56a4b; fill-opacity: 0.28; stroke: #d56a4b; stroke-opacity: 0.28"/>
     <use xlink:href="#meac264fab8" x="399.887189" y="183.658606" style="fill: #d56a4b; fill-opacity: 0.28; stroke: #d56a4b; stroke-opacity: 0.28"/>
     <use xlink:href="#meac264fab8" x="404.5216" y="177.148909" style="fill: #d56a4b; fill-opacity: 0.28; stroke: #d56a4b; stroke-opacity: 0.28"/>
     <use xlink:href="#meac264fab8" x="397.312516" y="203.187697" style="fill: #d56a4b; fill-opacity: 0.28; stroke: #d56a4b; stroke-opacity: 0.28"/>
     <use xlink:href="#meac264fab8" x="412.245618" y="144.600424" style="fill: #d56a4b; fill-opacity: 0.28; stroke: #d56a4b; stroke-opacity: 0.28"/>
     <use xlink:href="#meac264fab8" x="409.15601" y="157.619818" style="fill: #d56a4b; fill-opacity: 0.28; stroke: #d56a4b; stroke-opacity: 0.28"/>
     <use xlink:href="#meac264fab8" x="411.215748" y="144.600424" style="fill: #d56a4b; fill-opacity: 0.28; stroke: #d56a4b; stroke-opacity: 0.28"/>
     <use xlink:href="#meac264fab8" x="395.767712" y="216.207091" style="fill: #d56a4b; fill-opacity: 0.28; stroke: #d56a4b; stroke-opacity: 0.28"/>
     <use xlink:href="#meac264fab8" x="410.185879" y="151.110121" style="fill: #d56a4b; fill-opacity: 0.28; stroke: #d56a4b; stroke-opacity: 0.28"/>
     <use xlink:href="#meac264fab8" x="408.641076" y="157.619818" style="fill: #d56a4b; fill-opacity: 0.28; stroke: #d56a4b; stroke-opacity: 0.28"/>
     <use xlink:href="#meac264fab8" x="408.126141" y="157.619818" style="fill: #d56a4b; fill-opacity: 0.28; stroke: #d56a4b; stroke-opacity: 0.28"/>
     <use xlink:href="#meac264fab8" x="400.917058" y="183.658606" style="fill: #d56a4b; fill-opacity: 0.28; stroke: #d56a4b; stroke-opacity: 0.28"/>
     <use xlink:href="#meac264fab8" x="406.066403" y="170.639212" style="fill: #d56a4b; fill-opacity: 0.28; stroke: #d56a4b; stroke-opacity: 0.28"/>
     <use xlink:href="#meac264fab8" x="399.372254" y="190.168303" style="fill: #d56a4b; fill-opacity: 0.28; stroke: #d56a4b; stroke-opacity: 0.28"/>
     <use xlink:href="#meac264fab8" x="396.282647" y="209.697394" style="fill: #d56a4b; fill-opacity: 0.28; stroke: #d56a4b; stroke-opacity: 0.28"/>
    </g>
   </g>
   <g id="LineCollection_1">
    <path d="M 97.420364 216.207091 
L 153.491014 216.207091 
" clip-path="url(#pc371e9c11d)" style="fill: none; stroke: #1f77b4; stroke-width: 1.5"/>
    <path d="M 237.596988 138.090727 
L 293.667637 138.090727 
" clip-path="url(#pc371e9c11d)" style="fill: none; stroke: #1f77b4; stroke-width: 1.5"/>
    <path d="M 377.773611 79.503455 
L 433.844261 79.503455 
" clip-path="url(#pc371e9c11d)" style="fill: none; stroke: #1f77b4; stroke-width: 1.5"/>
   </g>
   <g id="LineCollection_2">
    <path d="M 97.420364 313.852545 
L 153.491014 313.852545 
" clip-path="url(#pc371e9c11d)" style="fill: none; stroke: #1f77b4; stroke-width: 1.5"/>
    <path d="M 237.596988 274.794364 
L 293.667637 274.794364 
" clip-path="url(#pc371e9c11d)" style="fill: none; stroke: #1f77b4; stroke-width: 1.5"/>
    <path d="M 377.773611 274.794364 
L 433.844261 274.794364 
" clip-path="url(#pc371e9c11d)" style="fill: none; stroke: #1f77b4; stroke-width: 1.5"/>
   </g>
   <g id="LineCollection_3">
    <path d="M 125.455689 313.852545 
L 125.455689 216.207091 
" clip-path="url(#pc371e9c11d)" style="fill: none; stroke: #1f77b4; stroke-width: 1.5"/>
    <path d="M 265.632312 274.794364 
L 265.632312 138.090727 
" clip-path="url(#pc371e9c11d)" style="fill: none; stroke: #1f77b4; stroke-width: 1.5"/>
    <path d="M 405.808936 274.794364 
L 405.808936 79.503455 
" clip-path="url(#pc371e9c11d)" style="fill: none; stroke: #1f77b4; stroke-width: 1.5"/>
   </g>
   <g id="patch_3">
    <path d="M 49.760313 325.57 
L 49.760313 67.786 
" style="fill: none; stroke: #252b33; stroke-width: 1.1; stroke-linejoin: miter; stroke-linecap: square"/>
   </g>
   <g id="patch_4">
    <path d="M 49.760312 325.57 
L 481.504312 325.57 
" style="fill: none; stroke: #252b33; stroke-width: 1.1; stroke-linejoin: miter; stroke-linecap: square"/>
   </g>
   <g id="text_13">
    <g id="patch_5">
     <path d="M 375.965752 96.05458 
L 458.680252 96.05458 
Q 459.832252 96.05458 459.832252 94.90258 
L 459.832252 71.02168 
Q 459.832252 69.86968 458.680252 69.86968 
L 375.965752 69.86968 
Q 374.813752 69.86968 374.813752 71.02168 
L 374.813752 94.90258 
Q 374.813752 96.05458 375.965752 96.05458 
z
" style="fill: #f6f8fb; stroke: #d6dde6; stroke-width: 0.9; stroke-linejoin: miter"/>
    </g>
    <!-- ANOVA F 119.26 -->
    <g style="fill: #20252c" transform="translate(377.885752 80.23618) scale(0.096 -0.096)">
     <defs>
      <path id="DejaVuSans-41" d="M 2188 4044 
L 1331 1722 
L 3047 1722 
L 2188 4044 
z
M 1831 4666 
L 2547 4666 
L 4325 0 
L 3669 0 
L 3244 1197 
L 1141 1197 
L 716 0 
L 50 0 
L 1831 4666 
z
" transform="scale(0.015625)"/>
      <path id="DejaVuSans-4e" d="M 628 4666 
L 1478 4666 
L 3547 763 
L 3547 4666 
L 4159 4666 
L 4159 0 
L 3309 0 
L 1241 3903 
L 1241 0 
L 628 0 
L 628 4666 
z
" transform="scale(0.015625)"/>
      <path id="DejaVuSans-4f" d="M 2522 4238 
Q 1834 4238 1429 3725 
Q 1025 3213 1025 2328 
Q 1025 1447 1429 934 
Q 1834 422 2522 422 
Q 3209 422 3611 934 
Q 4013 1447 4013 2328 
Q 4013 3213 3611 3725 
Q 3209 4238 2522 4238 
z
M 2522 4750 
Q 3503 4750 4090 4092 
Q 4678 3434 4678 2328 
Q 4678 1225 4090 567 
Q 3503 -91 2522 -91 
Q 1538 -91 948 565 
Q 359 1222 359 2328 
Q 359 3434 948 4092 
Q 1538 4750 2522 4750 
z
" transform="scale(0.015625)"/>
      <path id="DejaVuSans-46" d="M 628 4666 
L 3309 4666 
L 3309 4134 
L 1259 4134 
L 1259 2759 
L 3109 2759 
L 3109 2228 
L 1259 2228 
L 1259 0 
L 628 0 
L 628 4666 
z
" transform="scale(0.015625)"/>
      <path id="DejaVuSans-31" d="M 794 531 
L 1825 531 
L 1825 4091 
L 703 3866 
L 703 4441 
L 1819 4666 
L 2450 4666 
L 2450 531 
L 3481 531 
L 3481 0 
L 794 0 
L 794 531 
z
" transform="scale(0.015625)"/>
      <path id="DejaVuSans-39" d="M 703 97 
L 703 672 
Q 941 559 1184 500 
Q 1428 441 1663 441 
Q 2288 441 2617 861 
Q 2947 1281 2994 2138 
Q 2813 1869 2534 1725 
Q 2256 1581 1919 1581 
Q 1219 1581 811 2004 
Q 403 2428 403 3163 
Q 403 3881 828 4315 
Q 1253 4750 1959 4750 
Q 2769 4750 3195 4129 
Q 3622 3509 3622 2328 
Q 3622 1225 3098 567 
Q 2575 -91 1691 -91 
Q 1453 -91 1209 -44 
Q 966 3 703 97 
z
M 1959 2075 
Q 2384 2075 2632 2365 
Q 2881 2656 2881 3163 
Q 2881 3666 2632 3958 
Q 2384 4250 1959 4250 
Q 1534 4250 1286 3958 
Q 1038 3666 1038 3163 
Q 1038 2656 1286 2365 
Q 1534 2075 1959 2075 
z
" transform="scale(0.015625)"/>
      <path id="DejaVuSans-32" d="M 1228 531 
L 3431 531 
L 3431 0 
L 469 0 
L 469 531 
Q 828 903 1448 1529 
Q 2069 2156 2228 2338 
Q 2531 2678 2651 2914 
Q 2772 3150 2772 3378 
Q 2772 3750 2511 3984 
Q 2250 4219 1831 4219 
Q 1534 4219 1204 4116 
Q 875 4013 500 3803 
L 500 4441 
Q 881 4594 1212 4672 
Q 1544 4750 1819 4750 
Q 2544 4750 2975 4387 
Q 3406 4025 3406 3419 
Q 3406 3131 3298 2873 
Q 3191 2616 2906 2266 
Q 2828 2175 2409 1742 
Q 1991 1309 1228 531 
z
" transform="scale(0.015625)"/>
     </defs>
     <use xlink:href="#DejaVuSans-41"/>
     <use xlink:href="#DejaVuSans-4e" transform="translate(68.408203 0)"/>
     <use xlink:href="#DejaVuSans-4f" transform="translate(143.212891 0)"/>
     <use xlink:href="#DejaVuSans-56" transform="translate(220.173828 0)"/>
     <use xlink:href="#DejaVuSans-41" transform="translate(282.207031 0)"/>
     <use xlink:href="#DejaVuSans-20" transform="translate(350.615234 0)"/>
     <use xlink:href="#DejaVuSans-46" transform="translate(382.402344 0)"/>
     <use xlink:href="#DejaVuSans-20" transform="translate(439.921875 0)"/>
     <use xlink:href="#DejaVuSans-31" transform="translate(471.708984 0)"/>
     <use xlink:href="#DejaVuSans-31" transform="translate(535.332031 0)"/>
     <use xlink:href="#DejaVuSans-39" transform="translate(598.955078 0)"/>
     <use xlink:href="#DejaVuSans-2e" transform="translate(662.578125 0)"/>
     <use xlink:href="#DejaVuSans-32" transform="translate(694.365234 0)"/>
     <use xlink:href="#DejaVuSans-36" transform="translate(757.988281 0)"/>
    </g>
    <!-- p &lt; 0.001 -->
    <g style="fill: #20252c" transform="translate(377.885752 90.98608) scale(0.096 -0.096)">
     <defs>
      <path id="DejaVuSans-3c" d="M 4684 3150 
L 1459 2003 
L 4684 863 
L 4684 294 
L 678 1747 
L 678 2266 
L 4684 3719 
L 4684 3150 
z
" transform="scale(0.015625)"/>
     </defs>
     <use xlink:href="#DejaVuSans-70"/>
     <use xlink:href="#DejaVuSans-20" transform="translate(63.476562 0)"/>
     <use xlink:href="#DejaVuSans-3c" transform="translate(95.263672 0)"/>
     <use xlink:href="#DejaVuSans-20" transform="translate(179.052734 0)"/>
     <use xlink:href="#DejaVuSans-30" transform="translate(210.839844 0)"/>
     <use xlink:href="#DejaVuSans-2e" transform="translate(274.462891 0)"/>
     <use xlink:href="#DejaVuSans-30" transform="translate(306.25 0)"/>
     <use xlink:href="#DejaVuSans-30" transform="translate(369.873047 0)"/>
     <use xlink:href="#DejaVuSans-31" transform="translate(433.496094 0)"/>
    </g>
   </g>
   <g id="text_14">
    <!-- Distribution shape matters -->
    <g transform="translate(49.760313 51.786) scale(0.145 -0.145)">
     <defs>
      <path id="DejaVuSans-Bold-44" d="M 1791 3756 
L 1791 909 
L 2222 909 
Q 2959 909 3348 1275 
Q 3738 1641 3738 2338 
Q 3738 3031 3350 3393 
Q 2963 3756 2222 3756 
L 1791 3756 
z
M 588 4666 
L 1856 4666 
Q 2919 4666 3439 4514 
Q 3959 4363 4331 4000 
Q 4659 3684 4818 3271 
Q 4978 2859 4978 2338 
Q 4978 1809 4818 1395 
Q 4659 981 4331 666 
Q 3956 303 3431 151 
Q 2906 0 1856 0 
L 588 0 
L 588 4666 
z
" transform="scale(0.015625)"/>
      <path id="DejaVuSans-Bold-69" d="M 538 3500 
L 1656 3500 
L 1656 0 
L 538 0 
L 538 3500 
z
M 538 4863 
L 1656 4863 
L 1656 3950 
L 538 3950 
L 538 4863 
z
" transform="scale(0.015625)"/>
      <path id="DejaVuSans-Bold-73" d="M 3272 3391 
L 3272 2541 
Q 2913 2691 2578 2766 
Q 2244 2841 1947 2841 
Q 1628 2841 1473 2761 
Q 1319 2681 1319 2516 
Q 1319 2381 1436 2309 
Q 1553 2238 1856 2203 
L 2053 2175 
Q 2913 2066 3209 1816 
Q 3506 1566 3506 1031 
Q 3506 472 3093 190 
Q 2681 -91 1863 -91 
Q 1516 -91 1145 -36 
Q 775 19 384 128 
L 384 978 
Q 719 816 1070 734 
Q 1422 653 1784 653 
Q 2113 653 2278 743 
Q 2444 834 2444 1013 
Q 2444 1163 2330 1236 
Q 2216 1309 1875 1350 
L 1678 1375 
Q 931 1469 631 1722 
Q 331 1975 331 2491 
Q 331 3047 712 3315 
Q 1094 3584 1881 3584 
Q 2191 3584 2531 3537 
Q 2872 3491 3272 3391 
z
" transform="scale(0.015625)"/>
      <path id="DejaVuSans-Bold-74" d="M 1759 4494 
L 1759 3500 
L 2913 3500 
L 2913 2700 
L 1759 2700 
L 1759 1216 
Q 1759 972 1856 886 
Q 1953 800 2241 800 
L 2816 800 
L 2816 0 
L 1856 0 
Q 1194 0 917 276 
Q 641 553 641 1216 
L 641 2700 
L 84 2700 
L 84 3500 
L 641 3500 
L 641 4494 
L 1759 4494 
z
" transform="scale(0.015625)"/>
      <path id="DejaVuSans-Bold-72" d="M 3138 2547 
Q 2991 2616 2845 2648 
Q 2700 2681 2553 2681 
Q 2122 2681 1889 2404 
Q 1656 2128 1656 1613 
L 1656 0 
L 538 0 
L 538 3500 
L 1656 3500 
L 1656 2925 
Q 1872 3269 2151 3426 
Q 2431 3584 2822 3584 
Q 2878 3584 2943 3579 
Q 3009 3575 3134 3559 
L 3138 2547 
z
" transform="scale(0.015625)"/>
      <path id="DejaVuSans-Bold-62" d="M 2400 722 
Q 2759 722 2948 984 
Q 3138 1247 3138 1747 
Q 3138 2247 2948 2509 
Q 2759 2772 2400 2772 
Q 2041 2772 1848 2508 
Q 1656 2244 1656 1747 
Q 1656 1250 1848 986 
Q 2041 722 2400 722 
z
M 1656 2988 
Q 1888 3294 2169 3439 
Q 2450 3584 2816 3584 
Q 3463 3584 3878 3070 
Q 4294 2556 4294 1747 
Q 4294 938 3878 423 
Q 3463 -91 2816 -91 
Q 2450 -91 2169 54 
Q 1888 200 1656 506 
L 1656 0 
L 538 0 
L 538 4863 
L 1656 4863 
L 1656 2988 
z
" transform="scale(0.015625)"/>
      <path id="DejaVuSans-Bold-75" d="M 500 1363 
L 500 3500 
L 1625 3500 
L 1625 3150 
Q 1625 2866 1622 2436 
Q 1619 2006 1619 1863 
Q 1619 1441 1641 1255 
Q 1663 1069 1716 984 
Q 1784 875 1895 815 
Q 2006 756 2150 756 
Q 2500 756 2700 1025 
Q 2900 1294 2900 1772 
L 2900 3500 
L 4019 3500 
L 4019 0 
L 2900 0 
L 2900 506 
Q 2647 200 2364 54 
Q 2081 -91 1741 -91 
Q 1134 -91 817 281 
Q 500 653 500 1363 
z
" transform="scale(0.015625)"/>
      <path id="DejaVuSans-Bold-6f" d="M 2203 2784 
Q 1831 2784 1636 2517 
Q 1441 2250 1441 1747 
Q 1441 1244 1636 976 
Q 1831 709 2203 709 
Q 2569 709 2762 976 
Q 2956 1244 2956 1747 
Q 2956 2250 2762 2517 
Q 2569 2784 2203 2784 
z
M 2203 3584 
Q 3106 3584 3614 3096 
Q 4122 2609 4122 1747 
Q 4122 884 3614 396 
Q 3106 -91 2203 -91 
Q 1297 -91 786 396 
Q 275 884 275 1747 
Q 275 2609 786 3096 
Q 1297 3584 2203 3584 
z
" transform="scale(0.015625)"/>
      <path id="DejaVuSans-Bold-6e" d="M 4056 2131 
L 4056 0 
L 2931 0 
L 2931 347 
L 2931 1631 
Q 2931 2084 2911 2256 
Q 2891 2428 2841 2509 
Q 2775 2619 2662 2680 
Q 2550 2741 2406 2741 
Q 2056 2741 1856 2470 
Q 1656 2200 1656 1722 
L 1656 0 
L 538 0 
L 538 3500 
L 1656 3500 
L 1656 2988 
Q 1909 3294 2193 3439 
Q 2478 3584 2822 3584 
Q 3428 3584 3742 3212 
Q 4056 2841 4056 2131 
z
" transform="scale(0.015625)"/>
      <path id="DejaVuSans-Bold-20" transform="scale(0.015625)"/>
      <path id="DejaVuSans-Bold-68" d="M 4056 2131 
L 4056 0 
L 2931 0 
L 2931 347 
L 2931 1625 
Q 2931 2084 2911 2256 
Q 2891 2428 2841 2509 
Q 2775 2619 2662 2680 
Q 2550 2741 2406 2741 
Q 2056 2741 1856 2470 
Q 1656 2200 1656 1722 
L 1656 0 
L 538 0 
L 538 4863 
L 1656 4863 
L 1656 2988 
Q 1909 3294 2193 3439 
Q 2478 3584 2822 3584 
Q 3428 3584 3742 3212 
Q 4056 2841 4056 2131 
z
" transform="scale(0.015625)"/>
      <path id="DejaVuSans-Bold-61" d="M 2106 1575 
Q 1756 1575 1579 1456 
Q 1403 1338 1403 1106 
Q 1403 894 1545 773 
Q 1688 653 1941 653 
Q 2256 653 2472 879 
Q 2688 1106 2688 1447 
L 2688 1575 
L 2106 1575 
z
M 3816 1997 
L 3816 0 
L 2688 0 
L 2688 519 
Q 2463 200 2181 54 
Q 1900 -91 1497 -91 
Q 953 -91 614 226 
Q 275 544 275 1050 
Q 275 1666 698 1953 
Q 1122 2241 2028 2241 
L 2688 2241 
L 2688 2328 
Q 2688 2594 2478 2717 
Q 2269 2841 1825 2841 
Q 1466 2841 1156 2769 
Q 847 2697 581 2553 
L 581 3406 
Q 941 3494 1303 3539 
Q 1666 3584 2028 3584 
Q 2975 3584 3395 3211 
Q 3816 2838 3816 1997 
z
" transform="scale(0.015625)"/>
      <path id="DejaVuSans-Bold-70" d="M 1656 506 
L 1656 -1331 
L 538 -1331 
L 538 3500 
L 1656 3500 
L 1656 2988 
Q 1888 3294 2169 3439 
Q 2450 3584 2816 3584 
Q 3463 3584 3878 3070 
Q 4294 2556 4294 1747 
Q 4294 938 3878 423 
Q 3463 -91 2816 -91 
Q 2450 -91 2169 54 
Q 1888 200 1656 506 
z
M 2400 2772 
Q 2041 2772 1848 2508 
Q 1656 2244 1656 1747 
Q 1656 1250 1848 986 
Q 2041 722 2400 722 
Q 2759 722 2948 984 
Q 3138 1247 3138 1747 
Q 3138 2247 2948 2509 
Q 2759 2772 2400 2772 
z
" transform="scale(0.015625)"/>
      <path id="DejaVuSans-Bold-65" d="M 4031 1759 
L 4031 1441 
L 1416 1441 
Q 1456 1047 1700 850 
Q 1944 653 2381 653 
Q 2734 653 3104 758 
Q 3475 863 3866 1075 
L 3866 213 
Q 3469 63 3072 -14 
Q 2675 -91 2278 -91 
Q 1328 -91 801 392 
Q 275 875 275 1747 
Q 275 2603 792 3093 
Q 1309 3584 2216 3584 
Q 3041 3584 3536 3087 
Q 4031 2591 4031 1759 
z
M 2881 2131 
Q 2881 2450 2695 2645 
Q 2509 2841 2209 2841 
Q 1884 2841 1681 2658 
Q 1478 2475 1428 2131 
L 2881 2131 
z
" transform="scale(0.015625)"/>
      <path id="DejaVuSans-Bold-6d" d="M 3781 2919 
Q 3994 3244 4286 3414 
Q 4578 3584 4928 3584 
Q 5531 3584 5847 3212 
Q 6163 2841 6163 2131 
L 6163 0 
L 5038 0 
L 5038 1825 
Q 5041 1866 5042 1909 
Q 5044 1953 5044 2034 
Q 5044 2406 4934 2573 
Q 4825 2741 4581 2741 
Q 4263 2741 4089 2478 
Q 3916 2216 3909 1719 
L 3909 0 
L 2784 0 
L 2784 1825 
Q 2784 2406 2684 2573 
Q 2584 2741 2328 2741 
Q 2006 2741 1831 2477 
Q 1656 2213 1656 1722 
L 1656 0 
L 531 0 
L 531 3500 
L 1656 3500 
L 1656 2988 
Q 1863 3284 2130 3434 
Q 2397 3584 2719 3584 
Q 3081 3584 3359 3409 
Q 3638 3234 3781 2919 
z
" transform="scale(0.015625)"/>
     </defs>
     <use xlink:href="#DejaVuSans-Bold-44"/>
     <use xlink:href="#DejaVuSans-Bold-69" transform="translate(83.007812 0)"/>
     <use xlink:href="#DejaVuSans-Bold-73" transform="translate(117.285156 0)"/>
     <use xlink:href="#DejaVuSans-Bold-74" transform="translate(176.806641 0)"/>
     <use xlink:href="#DejaVuSans-Bold-72" transform="translate(224.609375 0)"/>
     <use xlink:href="#DejaVuSans-Bold-69" transform="translate(273.925781 0)"/>
     <use xlink:href="#DejaVuSans-Bold-62" transform="translate(308.203125 0)"/>
     <use xlink:href="#DejaVuSans-Bold-75" transform="translate(379.785156 0)"/>
     <use xlink:href="#DejaVuSans-Bold-74" transform="translate(450.976562 0)"/>
     <use xlink:href="#DejaVuSans-Bold-69" transform="translate(498.779297 0)"/>
     <use xlink:href="#DejaVuSans-Bold-6f" transform="translate(533.056641 0)"/>
     <use xlink:href="#DejaVuSans-Bold-6e" transform="translate(601.757812 0)"/>
     <use xlink:href="#DejaVuSans-Bold-20" transform="translate(672.949219 0)"/>
     <use xlink:href="#DejaVuSans-Bold-73" transform="translate(707.763672 0)"/>
     <use xlink:href="#DejaVuSans-Bold-68" transform="translate(767.285156 0)"/>
     <use xlink:href="#DejaVuSans-Bold-61" transform="translate(838.476562 0)"/>
     <use xlink:href="#DejaVuSans-Bold-70" transform="translate(905.957031 0)"/>
     <use xlink:href="#DejaVuSans-Bold-65" transform="translate(977.539062 0)"/>
     <use xlink:href="#DejaVuSans-Bold-20" transform="translate(1045.361328 0)"/>
     <use xlink:href="#DejaVuSans-Bold-6d" transform="translate(1080.175781 0)"/>
     <use xlink:href="#DejaVuSans-Bold-61" transform="translate(1184.375 0)"/>
     <use xlink:href="#DejaVuSans-Bold-74" transform="translate(1251.855469 0)"/>
     <use xlink:href="#DejaVuSans-Bold-74" transform="translate(1299.658203 0)"/>
     <use xlink:href="#DejaVuSans-Bold-65" transform="translate(1347.460938 0)"/>
     <use xlink:href="#DejaVuSans-Bold-72" transform="translate(1415.283203 0)"/>
     <use xlink:href="#DejaVuSans-Bold-73" transform="translate(1464.599609 0)"/>
    </g>
   </g>
   <g id="LineCollection_4">
    <path d="M 125.455689 281.304061 
L 125.455689 255.265273 
" clip-path="url(#pc371e9c11d)" style="fill: none; stroke: #20252c; stroke-width: 2"/>
   </g>
   <g id="line2d_20">
    <path d="M 108.634494 268.284667 
L 142.276884 268.284667 
" clip-path="url(#pc371e9c11d)" style="fill: none; stroke: #20252c; stroke-width: 2.4; stroke-linecap: square"/>
   </g>
   <g id="LineCollection_5">
    <path d="M 265.632312 229.226485 
L 265.632312 183.658606 
" clip-path="url(#pc371e9c11d)" style="fill: none; stroke: #20252c; stroke-width: 2"/>
   </g>
   <g id="line2d_21">
    <path d="M 248.811118 209.697394 
L 282.453507 209.697394 
" clip-path="url(#pc371e9c11d)" style="fill: none; stroke: #20252c; stroke-width: 2.4; stroke-linecap: square"/>
   </g>
   <g id="LineCollection_6">
    <path d="M 405.808936 188.540879 
L 405.808936 144.600424 
" clip-path="url(#pc371e9c11d)" style="fill: none; stroke: #20252c; stroke-width: 2"/>
   </g>
   <g id="line2d_22">
    <path d="M 388.987741 170.639212 
L 422.630131 170.639212 
" clip-path="url(#pc371e9c11d)" style="fill: none; stroke: #20252c; stroke-width: 2.4; stroke-linecap: square"/>
   </g>
  </g>
  <g id="text_15">
   <!-- Distribution Comparison -->
   <g style="fill: #20252c" transform="translate(12.658313 19.3575) scale(0.16 -0.16)">
    <defs>
     <path id="DejaVuSans-Bold-43" d="M 4288 256 
Q 3956 84 3597 -3 
Q 3238 -91 2847 -91 
Q 1681 -91 1000 561 
Q 319 1213 319 2328 
Q 319 3447 1000 4098 
Q 1681 4750 2847 4750 
Q 3238 4750 3597 4662 
Q 3956 4575 4288 4403 
L 4288 3438 
Q 3953 3666 3628 3772 
Q 3303 3878 2944 3878 
Q 2300 3878 1931 3465 
Q 1563 3053 1563 2328 
Q 1563 1606 1931 1193 
Q 2300 781 2944 781 
Q 3303 781 3628 887 
Q 3953 994 4288 1222 
L 4288 256 
z
" transform="scale(0.015625)"/>
    </defs>
    <use xlink:href="#DejaVuSans-Bold-44"/>
    <use xlink:href="#DejaVuSans-Bold-69" transform="translate(83.007812 0)"/>
    <use xlink:href="#DejaVuSans-Bold-73" transform="translate(117.285156 0)"/>
    <use xlink:href="#DejaVuSans-Bold-74" transform="translate(176.806641 0)"/>
    <use xlink:href="#DejaVuSans-Bold-72" transform="translate(224.609375 0)"/>
    <use xlink:href="#DejaVuSans-Bold-69" transform="translate(273.925781 0)"/>
    <use xlink:href="#DejaVuSans-Bold-62" transform="translate(308.203125 0)"/>
    <use xlink:href="#DejaVuSans-Bold-75" transform="translate(379.785156 0)"/>
    <use xlink:href="#DejaVuSans-Bold-74" transform="translate(450.976562 0)"/>
    <use xlink:href="#DejaVuSans-Bold-69" transform="translate(498.779297 0)"/>
    <use xlink:href="#DejaVuSans-Bold-6f" transform="translate(533.056641 0)"/>
    <use xlink:href="#DejaVuSans-Bold-6e" transform="translate(601.757812 0)"/>
    <use xlink:href="#DejaVuSans-Bold-20" transform="translate(672.949219 0)"/>
    <use xlink:href="#DejaVuSans-Bold-43" transform="translate(707.763672 0)"/>
    <use xlink:href="#DejaVuSans-Bold-6f" transform="translate(781.152344 0)"/>
    <use xlink:href="#DejaVuSans-Bold-6d" transform="translate(849.853516 0)"/>
    <use xlink:href="#DejaVuSans-Bold-70" transform="translate(954.052734 0)"/>
    <use xlink:href="#DejaVuSans-Bold-61" transform="translate(1025.634766 0)"/>
    <use xlink:href="#DejaVuSans-Bold-72" transform="translate(1093.115234 0)"/>
    <use xlink:href="#DejaVuSans-Bold-69" transform="translate(1142.431641 0)"/>
    <use xlink:href="#DejaVuSans-Bold-73" transform="translate(1176.708984 0)"/>
    <use xlink:href="#DejaVuSans-Bold-6f" transform="translate(1236.230469 0)"/>
    <use xlink:href="#DejaVuSans-Bold-6e" transform="translate(1304.931641 0)"/>
   </g>
  </g>
  <g id="text_16">
   <!-- Violin plot with raw central tendency -->
   <g style="fill: #667085" transform="translate(12.658313 28.195331) scale(0.094 -0.094)">
    <defs>
     <path id="DejaVuSans-77" d="M 269 3500 
L 844 3500 
L 1563 769 
L 2278 3500 
L 2956 3500 
L 3675 769 
L 4391 3500 
L 4966 3500 
L 4050 0 
L 3372 0 
L 2619 2869 
L 1863 0 
L 1184 0 
L 269 3500 
z
" transform="scale(0.015625)"/>
     <path id="DejaVuSans-64" d="M 2906 2969 
L 2906 4863 
L 3481 4863 
L 3481 0 
L 2906 0 
L 2906 525 
Q 2725 213 2448 61 
Q 2172 -91 1784 -91 
Q 1150 -91 751 415 
Q 353 922 353 1747 
Q 353 2572 751 3078 
Q 1150 3584 1784 3584 
Q 2172 3584 2448 3432 
Q 2725 3281 2906 2969 
z
M 947 1747 
Q 947 1113 1208 752 
Q 1469 391 1925 391 
Q 2381 391 2643 752 
Q 2906 1113 2906 1747 
Q 2906 2381 2643 2742 
Q 2381 3103 1925 3103 
Q 1469 3103 1208 2742 
Q 947 2381 947 1747 
z
" transform="scale(0.015625)"/>
     <path id="DejaVuSans-79" d="M 2059 -325 
Q 1816 -950 1584 -1140 
Q 1353 -1331 966 -1331 
L 506 -1331 
L 506 -850 
L 844 -850 
Q 1081 -850 1212 -737 
Q 1344 -625 1503 -206 
L 1606 56 
L 191 3500 
L 800 3500 
L 1894 763 
L 2988 3500 
L 3597 3500 
L 2059 -325 
z
" transform="scale(0.015625)"/>
    </defs>
    <use xlink:href="#DejaVuSans-56"/>
    <use xlink:href="#DejaVuSans-69" transform="translate(66.158203 0)"/>
    <use xlink:href="#DejaVuSans-6f" transform="translate(93.941406 0)"/>
    <use xlink:href="#DejaVuSans-6c" transform="translate(155.123047 0)"/>
    <use xlink:href="#DejaVuSans-69" transform="translate(182.90625 0)"/>
    <use xlink:href="#DejaVuSans-6e" transform="translate(210.689453 0)"/>
    <use xlink:href="#DejaVuSans-20" transform="translate(274.068359 0)"/>
    <use xlink:href="#DejaVuSans-70" transform="translate(305.855469 0)"/>
    <use xlink:href="#DejaVuSans-6c" transform="translate(369.332031 0)"/>
    <use xlink:href="#DejaVuSans-6f" transform="translate(397.115234 0)"/>
    <use xlink:href="#DejaVuSans-74" transform="translate(458.296875 0)"/>
    <use xlink:href="#DejaVuSans-20" transform="translate(497.505859 0)"/>
    <use xlink:href="#DejaVuSans-77" transform="translate(529.292969 0)"/>
    <use xlink:href="#DejaVuSans-69" transform="translate(611.080078 0)"/>
    <use xlink:href="#DejaVuSans-74" transform="translate(638.863281 0)"/>
    <use xlink:href="#DejaVuSans-68" transform="translate(678.072266 0)"/>
    <use xlink:href="#DejaVuSans-20" transform="translate(741.451172 0)"/>
    <use xlink:href="#DejaVuSans-72" transform="translate(773.238281 0)"/>
    <use xlink:href="#DejaVuSans-61" transform="translate(814.351562 0)"/>
    <use xlink:href="#DejaVuSans-77" transform="translate(875.630859 0)"/>
    <use xlink:href="#DejaVuSans-20" transform="translate(957.417969 0)"/>
    <use xlink:href="#DejaVuSans-63" transform="translate(989.205078 0)"/>
    <use xlink:href="#DejaVuSans-65" transform="translate(1044.185547 0)"/>
    <use xlink:href="#DejaVuSans-6e" transform="translate(1105.708984 0)"/>
    <use xlink:href="#DejaVuSans-74" transform="translate(1169.087891 0)"/>
    <use xlink:href="#DejaVuSans-72" transform="translate(1208.296875 0)"/>
    <use xlink:href="#DejaVuSans-61" transform="translate(1249.410156 0)"/>
    <use xlink:href="#DejaVuSans-6c" transform="translate(1310.689453 0)"/>
    <use xlink:href="#DejaVuSans-20" transform="translate(1338.472656 0)"/>
    <use xlink:href="#DejaVuSans-74" transform="translate(1370.259766 0)"/>
    <use xlink:href="#DejaVuSans-65" transform="translate(1409.46875 0)"/>
    <use xlink:href="#DejaVuSans-6e" transform="translate(1470.992188 0)"/>
    <use xlink:href="#DejaVuSans-64" transform="translate(1534.371094 0)"/>
    <use xlink:href="#DejaVuSans-65" transform="translate(1597.847656 0)"/>
    <use xlink:href="#DejaVuSans-6e" transform="translate(1659.371094 0)"/>
    <use xlink:href="#DejaVuSans-63" transform="translate(1722.75 0)"/>
    <use xlink:href="#DejaVuSans-79" transform="translate(1777.730469 0)"/>
   </g>
  </g>
 </g>
 <defs>
  <clipPath id="pc371e9c11d">
   <rect x="49.760313" y="67.786" width="431.744" height="257.784"/>
  </clipPath>
 </defs>
</svg>
