<svg xmlns="http://www.w3.org/2000/svg" viewBox="0 0 64 64" fill="none">
  <rect width="64" height="64" rx="16" fill="#0F2747"/>
  <path d="M14 46L24 18H31L41 46H34.5L32.4 39.6H22.5L20.4 46H14ZM24.4 33.9H30.6L27.5 24.2L24.4 33.9Z" fill="#F8FBFF"/>
  <path d="M40 46V18H50.2C55.3 18 58.5 20.8 58.5 25.3C58.5 28.5 56.6 30.9 53.3 31.9C56.9 32.8 59 35.4 59 39C59 43.7 55.6 46 49.8 46H40ZM46.3 29.8H49.3C51.4 29.8 52.5 28.9 52.5 27.2C52.5 25.5 51.4 24.6 49.3 24.6H46.3V29.8ZM46.3 40.5H49.8C52.1 40.5 53.2 39.6 53.2 37.8C53.2 35.9 52 34.9 49.8 34.9H46.3V40.5Z" fill="#4DB1A8"/>
</svg>
