<?xml version="1.0" encoding="utf-8" standalone="no"?>
<!DOCTYPE svg PUBLIC "-//W3C//DTD SVG 1.1//EN"
  "http://www.w3.org/Graphics/SVG/1.1/DTD/svg11.dtd">
<svg xmlns:xlink="http://www.w3.org/1999/xlink" width="481.936312pt" height="337.312031pt" viewBox="0 0 481.936312 337.312031" xmlns="http://www.w3.org/2000/svg" version="1.1">
 <metadata>
  <rdf:RDF xmlns:dc="http://purl.org/dc/elements/1.1/" xmlns:cc="http://creativecommons.org/ns#" xmlns:rdf="http://www.w3.org/1999/02/22-rdf-syntax-ns#">
   <cc:Work>
    <dc:type rdf:resource="http://purl.org/dc/dcmitype/StillImage"/>
    <dc:date>2026-03-23T11:26:00.897349</dc:date>
    <dc:format>image/svg+xml</dc:format>
    <dc:creator>
     <cc:Agent>
      <dc:title>Matplotlib v3.10.8, https://matplotlib.org/</dc:title>
     </cc:Agent>
    </dc:creator>
   </cc:Work>
  </rdf:RDF>
 </metadata>
 <defs>
  <style type="text/css">*{stroke-linejoin: round; stroke-linecap: butt}</style>
 </defs>
 <g id="figure_1">
  <g id="patch_1">
   <path d="M 0 337.312031 
L 481.936312 337.312031 
L 481.936312 0 
L 0 0 
z
" style="fill: #ffffff"/>
  </g>
  <g id="axes_1">
   <g id="patch_2">
    <path d="M 49.760313 312.25 
L 474.736312 312.25 
L 474.736312 66.85 
L 49.760313 66.85 
z
" style="fill: #ffffff"/>
   </g>
   <g id="matplotlib.axis_1">
    <g id="xtick_1">
     <g id="line2d_1">
      <defs>
       <path id="m91252debe1" d="M 0 0 
L 0 4.2 
" style="stroke: #4b5563"/>
      </defs>
      <g>
       <use xlink:href="#m91252debe1" x="95.721667" y="312.25" style="fill: #4b5563; stroke: #4b5563"/>
      </g>
     </g>
     <g id="text_1">
      <!-- Control -->
      <g style="fill: #4b5563" transform="translate(76.747018 327.928359) scale(0.105 -0.105)">
       <defs>
        <path id="DejaVuSans-43" d="M 4122 4306 
L 4122 3641 
Q 3803 3938 3442 4084 
Q 3081 4231 2675 4231 
Q 1875 4231 1450 3742 
Q 1025 3253 1025 2328 
Q 1025 1406 1450 917 
Q 1875 428 2675 428 
Q 3081 428 3442 575 
Q 3803 722 4122 1019 
L 4122 359 
Q 3791 134 3420 21 
Q 3050 -91 2638 -91 
Q 1578 -91 968 557 
Q 359 1206 359 2328 
Q 359 3453 968 4101 
Q 1578 4750 2638 4750 
Q 3056 4750 3426 4639 
Q 3797 4528 4122 4306 
z
" transform="scale(0.015625)"/>
        <path id="DejaVuSans-6f" d="M 1959 3097 
Q 1497 3097 1228 2736 
Q 959 2375 959 1747 
Q 959 1119 1226 758 
Q 1494 397 1959 397 
Q 2419 397 2687 759 
Q 2956 1122 2956 1747 
Q 2956 2369 2687 2733 
Q 2419 3097 1959 3097 
z
M 1959 3584 
Q 2709 3584 3137 3096 
Q 3566 2609 3566 1747 
Q 3566 888 3137 398 
Q 2709 -91 1959 -91 
Q 1206 -91 779 398 
Q 353 888 353 1747 
Q 353 2609 779 3096 
Q 1206 3584 1959 3584 
z
" transform="scale(0.015625)"/>
        <path id="DejaVuSans-6e" d="M 3513 2113 
L 3513 0 
L 2938 0 
L 2938 2094 
Q 2938 2591 2744 2837 
Q 2550 3084 2163 3084 
Q 1697 3084 1428 2787 
Q 1159 2491 1159 1978 
L 1159 0 
L 581 0 
L 581 3500 
L 1159 3500 
L 1159 2956 
Q 1366 3272 1645 3428 
Q 1925 3584 2291 3584 
Q 2894 3584 3203 3211 
Q 3513 2838 3513 2113 
z
" transform="scale(0.015625)"/>
        <path id="DejaVuSans-74" d="M 1172 4494 
L 1172 3500 
L 2356 3500 
L 2356 3053 
L 1172 3053 
L 1172 1153 
Q 1172 725 1289 603 
Q 1406 481 1766 481 
L 2356 481 
L 2356 0 
L 1766 0 
Q 1100 0 847 248 
Q 594 497 594 1153 
L 594 3053 
L 172 3053 
L 172 3500 
L 594 3500 
L 594 4494 
L 1172 4494 
z
" transform="scale(0.015625)"/>
        <path id="DejaVuSans-72" d="M 2631 2963 
Q 2534 3019 2420 3045 
Q 2306 3072 2169 3072 
Q 1681 3072 1420 2755 
Q 1159 2438 1159 1844 
L 1159 0 
L 581 0 
L 581 3500 
L 1159 3500 
L 1159 2956 
Q 1341 3275 1631 3429 
Q 1922 3584 2338 3584 
Q 2397 3584 2469 3576 
Q 2541 3569 2628 3553 
L 2631 2963 
z
" transform="scale(0.015625)"/>
        <path id="DejaVuSans-6c" d="M 603 4863 
L 1178 4863 
L 1178 0 
L 603 0 
L 603 4863 
z
" transform="scale(0.015625)"/>
       </defs>
       <use xlink:href="#DejaVuSans-43"/>
       <use xlink:href="#DejaVuSans-6f" transform="translate(69.824219 0)"/>
       <use xlink:href="#DejaVuSans-6e" transform="translate(131.005859 0)"/>
       <use xlink:href="#DejaVuSans-74" transform="translate(194.384766 0)"/>
       <use xlink:href="#DejaVuSans-72" transform="translate(233.59375 0)"/>
       <use xlink:href="#DejaVuSans-6f" transform="translate(272.457031 0)"/>
       <use xlink:href="#DejaVuSans-6c" transform="translate(333.638672 0)"/>
      </g>
     </g>
    </g>
    <g id="xtick_2">
     <g id="line2d_2">
      <g>
       <use xlink:href="#m91252debe1" x="262.248312" y="312.25" style="fill: #4b5563; stroke: #4b5563"/>
      </g>
     </g>
     <g id="text_2">
      <!-- Treatment 1 -->
      <g style="fill: #4b5563" transform="translate(230.53175 327.928359) scale(0.105 -0.105)">
       <defs>
        <path id="DejaVuSans-54" d="M -19 4666 
L 3928 4666 
L 3928 4134 
L 2272 4134 
L 2272 0 
L 1638 0 
L 1638 4134 
L -19 4134 
L -19 4666 
z
" transform="scale(0.015625)"/>
        <path id="DejaVuSans-65" d="M 3597 1894 
L 3597 1613 
L 953 1613 
Q 991 1019 1311 708 
Q 1631 397 2203 397 
Q 2534 397 2845 478 
Q 3156 559 3463 722 
L 3463 178 
Q 3153 47 2828 -22 
Q 2503 -91 2169 -91 
Q 1331 -91 842 396 
Q 353 884 353 1716 
Q 353 2575 817 3079 
Q 1281 3584 2069 3584 
Q 2775 3584 3186 3129 
Q 3597 2675 3597 1894 
z
M 3022 2063 
Q 3016 2534 2758 2815 
Q 2500 3097 2075 3097 
Q 1594 3097 1305 2825 
Q 1016 2553 972 2059 
L 3022 2063 
z
" transform="scale(0.015625)"/>
        <path id="DejaVuSans-61" d="M 2194 1759 
Q 1497 1759 1228 1600 
Q 959 1441 959 1056 
Q 959 750 1161 570 
Q 1363 391 1709 391 
Q 2188 391 2477 730 
Q 2766 1069 2766 1631 
L 2766 1759 
L 2194 1759 
z
M 3341 1997 
L 3341 0 
L 2766 0 
L 2766 531 
Q 2569 213 2275 61 
Q 1981 -91 1556 -91 
Q 1019 -91 701 211 
Q 384 513 384 1019 
Q 384 1609 779 1909 
Q 1175 2209 1959 2209 
L 2766 2209 
L 2766 2266 
Q 2766 2663 2505 2880 
Q 2244 3097 1772 3097 
Q 1472 3097 1187 3025 
Q 903 2953 641 2809 
L 641 3341 
Q 956 3463 1253 3523 
Q 1550 3584 1831 3584 
Q 2591 3584 2966 3190 
Q 3341 2797 3341 1997 
z
" transform="scale(0.015625)"/>
        <path id="DejaVuSans-6d" d="M 3328 2828 
Q 3544 3216 3844 3400 
Q 4144 3584 4550 3584 
Q 5097 3584 5394 3201 
Q 5691 2819 5691 2113 
L 5691 0 
L 5113 0 
L 5113 2094 
Q 5113 2597 4934 2840 
Q 4756 3084 4391 3084 
Q 3944 3084 3684 2787 
Q 3425 2491 3425 1978 
L 3425 0 
L 2847 0 
L 2847 2094 
Q 2847 2600 2669 2842 
Q 2491 3084 2119 3084 
Q 1678 3084 1418 2786 
Q 1159 2488 1159 1978 
L 1159 0 
L 581 0 
L 581 3500 
L 1159 3500 
L 1159 2956 
Q 1356 3278 1631 3431 
Q 1906 3584 2284 3584 
Q 2666 3584 2933 3390 
Q 3200 3197 3328 2828 
z
" transform="scale(0.015625)"/>
        <path id="DejaVuSans-20" transform="scale(0.015625)"/>
        <path id="DejaVuSans-31" d="M 794 531 
L 1825 531 
L 1825 4091 
L 703 3866 
L 703 4441 
L 1819 4666 
L 2450 4666 
L 2450 531 
L 3481 531 
L 3481 0 
L 794 0 
L 794 531 
z
" transform="scale(0.015625)"/>
       </defs>
       <use xlink:href="#DejaVuSans-54"/>
       <use xlink:href="#DejaVuSans-72" transform="translate(46.333984 0)"/>
       <use xlink:href="#DejaVuSans-65" transform="translate(85.197266 0)"/>
       <use xlink:href="#DejaVuSans-61" transform="translate(146.720703 0)"/>
       <use xlink:href="#DejaVuSans-74" transform="translate(208 0)"/>
       <use xlink:href="#DejaVuSans-6d" transform="translate(247.208984 0)"/>
       <use xlink:href="#DejaVuSans-65" transform="translate(344.621094 0)"/>
       <use xlink:href="#DejaVuSans-6e" transform="translate(406.144531 0)"/>
       <use xlink:href="#DejaVuSans-74" transform="translate(469.523438 0)"/>
       <use xlink:href="#DejaVuSans-20" transform="translate(508.732422 0)"/>
       <use xlink:href="#DejaVuSans-31" transform="translate(540.519531 0)"/>
      </g>
     </g>
    </g>
    <g id="xtick_3">
     <g id="line2d_3">
      <g>
       <use xlink:href="#m91252debe1" x="428.774958" y="312.25" style="fill: #4b5563; stroke: #4b5563"/>
      </g>
     </g>
     <g id="text_3">
      <!-- Treatment 2 -->
      <g style="fill: #4b5563" transform="translate(397.058396 327.928359) scale(0.105 -0.105)">
       <defs>
        <path id="DejaVuSans-32" d="M 1228 531 
L 3431 531 
L 3431 0 
L 469 0 
L 469 531 
Q 828 903 1448 1529 
Q 2069 2156 2228 2338 
Q 2531 2678 2651 2914 
Q 2772 3150 2772 3378 
Q 2772 3750 2511 3984 
Q 2250 4219 1831 4219 
Q 1534 4219 1204 4116 
Q 875 4013 500 3803 
L 500 4441 
Q 881 4594 1212 4672 
Q 1544 4750 1819 4750 
Q 2544 4750 2975 4387 
Q 3406 4025 3406 3419 
Q 3406 3131 3298 2873 
Q 3191 2616 2906 2266 
Q 2828 2175 2409 1742 
Q 1991 1309 1228 531 
z
" transform="scale(0.015625)"/>
       </defs>
       <use xlink:href="#DejaVuSans-54"/>
       <use xlink:href="#DejaVuSans-72" transform="translate(46.333984 0)"/>
       <use xlink:href="#DejaVuSans-65" transform="translate(85.197266 0)"/>
       <use xlink:href="#DejaVuSans-61" transform="translate(146.720703 0)"/>
       <use xlink:href="#DejaVuSans-74" transform="translate(208 0)"/>
       <use xlink:href="#DejaVuSans-6d" transform="translate(247.208984 0)"/>
       <use xlink:href="#DejaVuSans-65" transform="translate(344.621094 0)"/>
       <use xlink:href="#DejaVuSans-6e" transform="translate(406.144531 0)"/>
       <use xlink:href="#DejaVuSans-74" transform="translate(469.523438 0)"/>
       <use xlink:href="#DejaVuSans-20" transform="translate(508.732422 0)"/>
       <use xlink:href="#DejaVuSans-32" transform="translate(540.519531 0)"/>
      </g>
     </g>
    </g>
   </g>
   <g id="matplotlib.axis_2">
    <g id="ytick_1">
     <g id="line2d_4">
      <path d="M 49.760313 304.793094 
L 474.736312 304.793094 
" clip-path="url(#pcd616148df)" style="fill: none; stroke: #e6ebf1; stroke-width: 0.9; stroke-linecap: square"/>
     </g>
     <g id="line2d_5">
      <defs>
       <path id="mb41e633e22" d="M 0 0 
L -4.2 0 
" style="stroke: #4b5563"/>
      </defs>
      <g>
       <use xlink:href="#mb41e633e22" x="49.760313" y="304.793094" style="fill: #4b5563; stroke: #4b5563"/>
      </g>
     </g>
     <g id="text_4">
      <!-- 3.5 -->
      <g style="fill: #4b5563" transform="translate(25.362031 308.782274) scale(0.105 -0.105)">
       <defs>
        <path id="DejaVuSans-33" d="M 2597 2516 
Q 3050 2419 3304 2112 
Q 3559 1806 3559 1356 
Q 3559 666 3084 287 
Q 2609 -91 1734 -91 
Q 1441 -91 1130 -33 
Q 819 25 488 141 
L 488 750 
Q 750 597 1062 519 
Q 1375 441 1716 441 
Q 2309 441 2620 675 
Q 2931 909 2931 1356 
Q 2931 1769 2642 2001 
Q 2353 2234 1838 2234 
L 1294 2234 
L 1294 2753 
L 1863 2753 
Q 2328 2753 2575 2939 
Q 2822 3125 2822 3475 
Q 2822 3834 2567 4026 
Q 2313 4219 1838 4219 
Q 1578 4219 1281 4162 
Q 984 4106 628 3988 
L 628 4550 
Q 988 4650 1302 4700 
Q 1616 4750 1894 4750 
Q 2613 4750 3031 4423 
Q 3450 4097 3450 3541 
Q 3450 3153 3228 2886 
Q 3006 2619 2597 2516 
z
" transform="scale(0.015625)"/>
        <path id="DejaVuSans-2e" d="M 684 794 
L 1344 794 
L 1344 0 
L 684 0 
L 684 794 
z
" transform="scale(0.015625)"/>
        <path id="DejaVuSans-35" d="M 691 4666 
L 3169 4666 
L 3169 4134 
L 1269 4134 
L 1269 2991 
Q 1406 3038 1543 3061 
Q 1681 3084 1819 3084 
Q 2600 3084 3056 2656 
Q 3513 2228 3513 1497 
Q 3513 744 3044 326 
Q 2575 -91 1722 -91 
Q 1428 -91 1123 -41 
Q 819 9 494 109 
L 494 744 
Q 775 591 1075 516 
Q 1375 441 1709 441 
Q 2250 441 2565 725 
Q 2881 1009 2881 1497 
Q 2881 1984 2565 2268 
Q 2250 2553 1709 2553 
Q 1456 2553 1204 2497 
Q 953 2441 691 2322 
L 691 4666 
z
" transform="scale(0.015625)"/>
       </defs>
       <use xlink:href="#DejaVuSans-33"/>
       <use xlink:href="#DejaVuSans-2e" transform="translate(63.623047 0)"/>
       <use xlink:href="#DejaVuSans-35" transform="translate(95.410156 0)"/>
      </g>
     </g>
    </g>
    <g id="ytick_2">
     <g id="line2d_6">
      <path d="M 49.760313 270.898066 
L 474.736312 270.898066 
" clip-path="url(#pcd616148df)" style="fill: none; stroke: #e6ebf1; stroke-width: 0.9; stroke-linecap: square"/>
     </g>
     <g id="line2d_7">
      <g>
       <use xlink:href="#mb41e633e22" x="49.760313" y="270.898066" style="fill: #4b5563; stroke: #4b5563"/>
      </g>
     </g>
     <g id="text_5">
      <!-- 4.0 -->
      <g style="fill: #4b5563" transform="translate(25.362031 274.887246) scale(0.105 -0.105)">
       <defs>
        <path id="DejaVuSans-34" d="M 2419 4116 
L 825 1625 
L 2419 1625 
L 2419 4116 
z
M 2253 4666 
L 3047 4666 
L 3047 1625 
L 3713 1625 
L 3713 1100 
L 3047 1100 
L 3047 0 
L 2419 0 
L 2419 1100 
L 313 1100 
L 313 1709 
L 2253 4666 
z
" transform="scale(0.015625)"/>
        <path id="DejaVuSans-30" d="M 2034 4250 
Q 1547 4250 1301 3770 
Q 1056 3291 1056 2328 
Q 1056 1369 1301 889 
Q 1547 409 2034 409 
Q 2525 409 2770 889 
Q 3016 1369 3016 2328 
Q 3016 3291 2770 3770 
Q 2525 4250 2034 4250 
z
M 2034 4750 
Q 2819 4750 3233 4129 
Q 3647 3509 3647 2328 
Q 3647 1150 3233 529 
Q 2819 -91 2034 -91 
Q 1250 -91 836 529 
Q 422 1150 422 2328 
Q 422 3509 836 4129 
Q 1250 4750 2034 4750 
z
" transform="scale(0.015625)"/>
       </defs>
       <use xlink:href="#DejaVuSans-34"/>
       <use xlink:href="#DejaVuSans-2e" transform="translate(63.623047 0)"/>
       <use xlink:href="#DejaVuSans-30" transform="translate(95.410156 0)"/>
      </g>
     </g>
    </g>
    <g id="ytick_3">
     <g id="line2d_8">
      <path d="M 49.760313 237.003039 
L 474.736312 237.003039 
" clip-path="url(#pcd616148df)" style="fill: none; stroke: #e6ebf1; stroke-width: 0.9; stroke-linecap: square"/>
     </g>
     <g id="line2d_9">
      <g>
       <use xlink:href="#mb41e633e22" x="49.760313" y="237.003039" style="fill: #4b5563; stroke: #4b5563"/>
      </g>
     </g>
     <g id="text_6">
      <!-- 4.5 -->
      <g style="fill: #4b5563" transform="translate(25.362031 240.992218) scale(0.105 -0.105)">
       <use xlink:href="#DejaVuSans-34"/>
       <use xlink:href="#DejaVuSans-2e" transform="translate(63.623047 0)"/>
       <use xlink:href="#DejaVuSans-35" transform="translate(95.410156 0)"/>
      </g>
     </g>
    </g>
    <g id="ytick_4">
     <g id="line2d_10">
      <path d="M 49.760313 203.108011 
L 474.736312 203.108011 
" clip-path="url(#pcd616148df)" style="fill: none; stroke: #e6ebf1; stroke-width: 0.9; stroke-linecap: square"/>
     </g>
     <g id="line2d_11">
      <g>
       <use xlink:href="#mb41e633e22" x="49.760313" y="203.108011" style="fill: #4b5563; stroke: #4b5563"/>
      </g>
     </g>
     <g id="text_7">
      <!-- 5.0 -->
      <g style="fill: #4b5563" transform="translate(25.362031 207.097191) scale(0.105 -0.105)">
       <use xlink:href="#DejaVuSans-35"/>
       <use xlink:href="#DejaVuSans-2e" transform="translate(63.623047 0)"/>
       <use xlink:href="#DejaVuSans-30" transform="translate(95.410156 0)"/>
      </g>
     </g>
    </g>
    <g id="ytick_5">
     <g id="line2d_12">
      <path d="M 49.760313 169.212983 
L 474.736312 169.212983 
" clip-path="url(#pcd616148df)" style="fill: none; stroke: #e6ebf1; stroke-width: 0.9; stroke-linecap: square"/>
     </g>
     <g id="line2d_13">
      <g>
       <use xlink:href="#mb41e633e22" x="49.760313" y="169.212983" style="fill: #4b5563; stroke: #4b5563"/>
      </g>
     </g>
     <g id="text_8">
      <!-- 5.5 -->
      <g style="fill: #4b5563" transform="translate(25.362031 173.202163) scale(0.105 -0.105)">
       <use xlink:href="#DejaVuSans-35"/>
       <use xlink:href="#DejaVuSans-2e" transform="translate(63.623047 0)"/>
       <use xlink:href="#DejaVuSans-35" transform="translate(95.410156 0)"/>
      </g>
     </g>
    </g>
    <g id="ytick_6">
     <g id="line2d_14">
      <path d="M 49.760313 135.317956 
L 474.736312 135.317956 
" clip-path="url(#pcd616148df)" style="fill: none; stroke: #e6ebf1; stroke-width: 0.9; stroke-linecap: square"/>
     </g>
     <g id="line2d_15">
      <g>
       <use xlink:href="#mb41e633e22" x="49.760313" y="135.317956" style="fill: #4b5563; stroke: #4b5563"/>
      </g>
     </g>
     <g id="text_9">
      <!-- 6.0 -->
      <g style="fill: #4b5563" transform="translate(25.362031 139.307135) scale(0.105 -0.105)">
       <defs>
        <path id="DejaVuSans-36" d="M 2113 2584 
Q 1688 2584 1439 2293 
Q 1191 2003 1191 1497 
Q 1191 994 1439 701 
Q 1688 409 2113 409 
Q 2538 409 2786 701 
Q 3034 994 3034 1497 
Q 3034 2003 2786 2293 
Q 2538 2584 2113 2584 
z
M 3366 4563 
L 3366 3988 
Q 3128 4100 2886 4159 
Q 2644 4219 2406 4219 
Q 1781 4219 1451 3797 
Q 1122 3375 1075 2522 
Q 1259 2794 1537 2939 
Q 1816 3084 2150 3084 
Q 2853 3084 3261 2657 
Q 3669 2231 3669 1497 
Q 3669 778 3244 343 
Q 2819 -91 2113 -91 
Q 1303 -91 875 529 
Q 447 1150 447 2328 
Q 447 3434 972 4092 
Q 1497 4750 2381 4750 
Q 2619 4750 2861 4703 
Q 3103 4656 3366 4563 
z
" transform="scale(0.015625)"/>
       </defs>
       <use xlink:href="#DejaVuSans-36"/>
       <use xlink:href="#DejaVuSans-2e" transform="translate(63.623047 0)"/>
       <use xlink:href="#DejaVuSans-30" transform="translate(95.410156 0)"/>
      </g>
     </g>
    </g>
    <g id="ytick_7">
     <g id="line2d_16">
      <path d="M 49.760313 101.422928 
L 474.736312 101.422928 
" clip-path="url(#pcd616148df)" style="fill: none; stroke: #e6ebf1; stroke-width: 0.9; stroke-linecap: square"/>
     </g>
     <g id="line2d_17">
      <g>
       <use xlink:href="#mb41e633e22" x="49.760313" y="101.422928" style="fill: #4b5563; stroke: #4b5563"/>
      </g>
     </g>
     <g id="text_10">
      <!-- 6.5 -->
      <g style="fill: #4b5563" transform="translate(25.362031 105.412108) scale(0.105 -0.105)">
       <use xlink:href="#DejaVuSans-36"/>
       <use xlink:href="#DejaVuSans-2e" transform="translate(63.623047 0)"/>
       <use xlink:href="#DejaVuSans-35" transform="translate(95.410156 0)"/>
      </g>
     </g>
    </g>
    <g id="ytick_8">
     <g id="line2d_18">
      <path d="M 49.760313 67.527901 
L 474.736312 67.527901 
" clip-path="url(#pcd616148df)" style="fill: none; stroke: #e6ebf1; stroke-width: 0.9; stroke-linecap: square"/>
     </g>
     <g id="line2d_19">
      <g>
       <use xlink:href="#mb41e633e22" x="49.760313" y="67.527901" style="fill: #4b5563; stroke: #4b5563"/>
      </g>
     </g>
     <g id="text_11">
      <!-- 7.0 -->
      <g style="fill: #4b5563" transform="translate(25.362031 71.51708) scale(0.105 -0.105)">
       <defs>
        <path id="DejaVuSans-37" d="M 525 4666 
L 3525 4666 
L 3525 4397 
L 1831 0 
L 1172 0 
L 2766 4134 
L 525 4134 
L 525 4666 
z
" transform="scale(0.015625)"/>
       </defs>
       <use xlink:href="#DejaVuSans-37"/>
       <use xlink:href="#DejaVuSans-2e" transform="translate(63.623047 0)"/>
       <use xlink:href="#DejaVuSans-30" transform="translate(95.410156 0)"/>
      </g>
     </g>
    </g>
    <g id="text_12">
     <!-- Dry weight -->
     <g style="fill: #252b33" transform="translate(15.178359 218.227305) rotate(-90) scale(0.105 -0.105)">
      <defs>
       <path id="DejaVuSans-44" d="M 1259 4147 
L 1259 519 
L 2022 519 
Q 2988 519 3436 956 
Q 3884 1394 3884 2338 
Q 3884 3275 3436 3711 
Q 2988 4147 2022 4147 
L 1259 4147 
z
M 628 4666 
L 1925 4666 
Q 3281 4666 3915 4102 
Q 4550 3538 4550 2338 
Q 4550 1131 3912 565 
Q 3275 0 1925 0 
L 628 0 
L 628 4666 
z
" transform="scale(0.015625)"/>
       <path id="DejaVuSans-79" d="M 2059 -325 
Q 1816 -950 1584 -1140 
Q 1353 -1331 966 -1331 
L 506 -1331 
L 506 -850 
L 844 -850 
Q 1081 -850 1212 -737 
Q 1344 -625 1503 -206 
L 1606 56 
L 191 3500 
L 800 3500 
L 1894 763 
L 2988 3500 
L 3597 3500 
L 2059 -325 
z
" transform="scale(0.015625)"/>
       <path id="DejaVuSans-77" d="M 269 3500 
L 844 3500 
L 1563 769 
L 2278 3500 
L 2956 3500 
L 3675 769 
L 4391 3500 
L 4966 3500 
L 4050 0 
L 3372 0 
L 2619 2869 
L 1863 0 
L 1184 0 
L 269 3500 
z
" transform="scale(0.015625)"/>
       <path id="DejaVuSans-69" d="M 603 3500 
L 1178 3500 
L 1178 0 
L 603 0 
L 603 3500 
z
M 603 4863 
L 1178 4863 
L 1178 4134 
L 603 4134 
L 603 4863 
z
" transform="scale(0.015625)"/>
       <path id="DejaVuSans-67" d="M 2906 1791 
Q 2906 2416 2648 2759 
Q 2391 3103 1925 3103 
Q 1463 3103 1205 2759 
Q 947 2416 947 1791 
Q 947 1169 1205 825 
Q 1463 481 1925 481 
Q 2391 481 2648 825 
Q 2906 1169 2906 1791 
z
M 3481 434 
Q 3481 -459 3084 -895 
Q 2688 -1331 1869 -1331 
Q 1566 -1331 1297 -1286 
Q 1028 -1241 775 -1147 
L 775 -588 
Q 1028 -725 1275 -790 
Q 1522 -856 1778 -856 
Q 2344 -856 2625 -561 
Q 2906 -266 2906 331 
L 2906 616 
Q 2728 306 2450 153 
Q 2172 0 1784 0 
Q 1141 0 747 490 
Q 353 981 353 1791 
Q 353 2603 747 3093 
Q 1141 3584 1784 3584 
Q 2172 3584 2450 3431 
Q 2728 3278 2906 2969 
L 2906 3500 
L 3481 3500 
L 3481 434 
z
" transform="scale(0.015625)"/>
       <path id="DejaVuSans-68" d="M 3513 2113 
L 3513 0 
L 2938 0 
L 2938 2094 
Q 2938 2591 2744 2837 
Q 2550 3084 2163 3084 
Q 1697 3084 1428 2787 
Q 1159 2491 1159 1978 
L 1159 0 
L 581 0 
L 581 4863 
L 1159 4863 
L 1159 2956 
Q 1366 3272 1645 3428 
Q 1925 3584 2291 3584 
Q 2894 3584 3203 3211 
Q 3513 2838 3513 2113 
z
" transform="scale(0.015625)"/>
      </defs>
      <use xlink:href="#DejaVuSans-44"/>
      <use xlink:href="#DejaVuSans-72" transform="translate(77.001953 0)"/>
      <use xlink:href="#DejaVuSans-79" transform="translate(118.115234 0)"/>
      <use xlink:href="#DejaVuSans-20" transform="translate(177.294922 0)"/>
      <use xlink:href="#DejaVuSans-77" transform="translate(209.082031 0)"/>
      <use xlink:href="#DejaVuSans-65" transform="translate(290.869141 0)"/>
      <use xlink:href="#DejaVuSans-69" transform="translate(352.392578 0)"/>
      <use xlink:href="#DejaVuSans-67" transform="translate(380.175781 0)"/>
      <use xlink:href="#DejaVuSans-68" transform="translate(443.652344 0)"/>
      <use xlink:href="#DejaVuSans-74" transform="translate(507.03125 0)"/>
     </g>
    </g>
   </g>
   <g id="line2d_20">
    <path d="M 95.721667 90.576519 
L 95.721667 81.987519 
L 428.774958 81.987519 
L 428.774958 90.576519 
" style="fill: none; stroke: #20252c; stroke-linecap: square"/>
   </g>
   <g id="patch_3">
    <path d="M 49.760313 312.25 
L 49.760313 66.85 
" style="fill: none; stroke: #252b33; stroke-width: 1.1; stroke-linejoin: miter; stroke-linecap: square"/>
   </g>
   <g id="patch_4">
    <path d="M 49.760313 312.25 
L 474.736312 312.25 
" style="fill: none; stroke: #252b33; stroke-width: 1.1; stroke-linejoin: miter; stroke-linecap: square"/>
   </g>
   <g id="PathCollection_1">
    <defs>
     <path id="m7000817fb0" d="M 0 3.316625 
C 0.879579 3.316625 1.723251 2.967164 2.345208 2.345208 
C 2.967164 1.723251 3.316625 0.879579 3.316625 0 
C 3.316625 -0.879579 2.967164 -1.723251 2.345208 -2.345208 
C 1.723251 -2.967164 0.879579 -3.316625 0 -3.316625 
C -0.879579 -3.316625 -1.723251 -2.967164 -2.345208 -2.345208 
C -2.967164 -1.723251 -3.316625 -0.879579 -3.316625 0 
C -3.316625 0.879579 -2.967164 1.723251 -2.345208 2.345208 
C -1.723251 2.967164 -0.879579 3.316625 0 3.316625 
z
" style="stroke: #ffffff; stroke-width: 0.8"/>
    </defs>
    <g clip-path="url(#pcd616148df)">
     <use xlink:href="#m7000817fb0" x="69.077403" y="259.373757" style="fill: #6b8c66; stroke: #ffffff; stroke-width: 0.8"/>
     <use xlink:href="#m7000817fb0" x="116.444983" y="163.789779" style="fill: #6b8c66; stroke: #ffffff; stroke-width: 0.8"/>
     <use xlink:href="#m7000817fb0" x="104.603088" y="190.905801" style="fill: #6b8c66; stroke: #ffffff; stroke-width: 0.8"/>
     <use xlink:href="#m7000817fb0" x="122.36593" y="127.86105" style="fill: #6b8c66; stroke: #ffffff; stroke-width: 0.8"/>
     <use xlink:href="#m7000817fb0" x="74.998351" y="237.003039" style="fill: #6b8c66; stroke: #ffffff; stroke-width: 0.8"/>
     <use xlink:href="#m7000817fb0" x="86.840246" y="229.546133" style="fill: #6b8c66; stroke: #ffffff; stroke-width: 0.8"/>
     <use xlink:href="#m7000817fb0" x="98.68214" y="191.583702" style="fill: #6b8c66; stroke: #ffffff; stroke-width: 0.8"/>
     <use xlink:href="#m7000817fb0" x="80.919298" y="234.969337" style="fill: #6b8c66; stroke: #ffffff; stroke-width: 0.8"/>
     <use xlink:href="#m7000817fb0" x="110.524035" y="180.737293" style="fill: #6b8c66; stroke: #ffffff; stroke-width: 0.8"/>
     <use xlink:href="#m7000817fb0" x="92.761193" y="193.617403" style="fill: #6b8c66; stroke: #ffffff; stroke-width: 0.8"/>
    </g>
   </g>
   <g id="PathCollection_2">
    <defs>
     <path id="ma19383b654" d="M 0 3.316625 
C 0.879579 3.316625 1.723251 2.967164 2.345208 2.345208 
C 2.967164 1.723251 3.316625 0.879579 3.316625 0 
C 3.316625 -0.879579 2.967164 -1.723251 2.345208 -2.345208 
C 1.723251 -2.967164 0.879579 -3.316625 0 -3.316625 
C -0.879579 -3.316625 -1.723251 -2.967164 -2.345208 -2.345208 
C -2.967164 -1.723251 -3.316625 -0.879579 -3.316625 0 
C -3.316625 0.879579 -2.967164 1.723251 -2.345208 2.345208 
C -1.723251 2.967164 -0.879579 3.316625 0 3.316625 
z
" style="stroke: #ffffff; stroke-width: 0.8"/>
    </defs>
    <g clip-path="url(#pcd616148df)">
     <use xlink:href="#ma19383b654" x="271.129734" y="215.988122" style="fill: #c4922f; stroke: #ffffff; stroke-width: 0.8"/>
     <use xlink:href="#ma19383b654" x="247.445944" y="259.373757" style="fill: #c4922f; stroke: #ffffff; stroke-width: 0.8"/>
     <use xlink:href="#ma19383b654" x="259.287839" y="243.104144" style="fill: #c4922f; stroke: #ffffff; stroke-width: 0.8"/>
     <use xlink:href="#ma19383b654" x="235.604049" y="298.691989" style="fill: #c4922f; stroke: #ffffff; stroke-width: 0.8"/>
     <use xlink:href="#ma19383b654" x="282.971628" y="144.130663" style="fill: #c4922f; stroke: #ffffff; stroke-width: 0.8"/>
     <use xlink:href="#ma19383b654" x="241.524997" y="282.422376" style="fill: #c4922f; stroke: #ffffff; stroke-width: 0.8"/>
     <use xlink:href="#ma19383b654" x="288.892576" y="133.284254" style="fill: #c4922f; stroke: #ffffff; stroke-width: 0.8"/>
     <use xlink:href="#ma19383b654" x="277.050681" y="210.564917" style="fill: #c4922f; stroke: #ffffff; stroke-width: 0.8"/>
     <use xlink:href="#ma19383b654" x="253.366891" y="249.205249" style="fill: #c4922f; stroke: #ffffff; stroke-width: 0.8"/>
     <use xlink:href="#ma19383b654" x="265.208786" y="224.122928" style="fill: #c4922f; stroke: #ffffff; stroke-width: 0.8"/>
    </g>
   </g>
   <g id="PathCollection_3">
    <defs>
     <path id="m7c55becbe3" d="M 0 3.316625 
C 0.879579 3.316625 1.723251 2.967164 2.345208 2.345208 
C 2.967164 1.723251 3.316625 0.879579 3.316625 0 
C 3.316625 -0.879579 2.967164 -1.723251 2.345208 -2.345208 
C 1.723251 -2.967164 0.879579 -3.316625 0 -3.316625 
C -0.879579 -3.316625 -1.723251 -2.967164 -2.345208 -2.345208 
C -2.967164 -1.723251 -3.316625 -0.879579 -3.316625 0 
C -3.316625 0.879579 -2.967164 1.723251 -2.345208 2.345208 
C -1.723251 2.967164 -0.879579 3.316625 0 3.316625 
z
" style="stroke: #ffffff; stroke-width: 0.8"/>
    </defs>
    <g clip-path="url(#pcd616148df)">
     <use xlink:href="#m7c55becbe3" x="455.419222" y="114.303039" style="fill: #c95f79; stroke: #ffffff; stroke-width: 0.8"/>
     <use xlink:href="#m7c55becbe3" x="408.051642" y="194.973204" style="fill: #c95f79; stroke: #ffffff; stroke-width: 0.8"/>
     <use xlink:href="#m7c55becbe3" x="437.656379" y="166.501381" style="fill: #c95f79; stroke: #ffffff; stroke-width: 0.8"/>
     <use xlink:href="#m7c55becbe3" x="431.735432" y="169.212983" style="fill: #c95f79; stroke: #ffffff; stroke-width: 0.8"/>
     <use xlink:href="#m7c55becbe3" x="425.814485" y="178.025691" style="fill: #c95f79; stroke: #ffffff; stroke-width: 0.8"/>
     <use xlink:href="#m7c55becbe3" x="419.893537" y="183.448895" style="fill: #c95f79; stroke: #ffffff; stroke-width: 0.8"/>
     <use xlink:href="#m7c55becbe3" x="402.130695" y="208.531215" style="fill: #c95f79; stroke: #ffffff; stroke-width: 0.8"/>
     <use xlink:href="#m7c55becbe3" x="449.498274" y="125.149448" style="fill: #c95f79; stroke: #ffffff; stroke-width: 0.8"/>
     <use xlink:href="#m7c55becbe3" x="443.577327" y="148.875967" style="fill: #c95f79; stroke: #ffffff; stroke-width: 0.8"/>
     <use xlink:href="#m7c55becbe3" x="413.97259" y="185.482597" style="fill: #c95f79; stroke: #ffffff; stroke-width: 0.8"/>
    </g>
   </g>
   <g id="text_13">
    <!-- *   ANOVA p 0.016 -->
    <g style="fill: #20252c" transform="translate(215.874172 78.577888) scale(0.102 -0.102)">
     <defs>
      <path id="DejaVuSans-2a" d="M 3009 3897 
L 1888 3291 
L 3009 2681 
L 2828 2375 
L 1778 3009 
L 1778 1831 
L 1422 1831 
L 1422 3009 
L 372 2375 
L 191 2681 
L 1313 3291 
L 191 3897 
L 372 4206 
L 1422 3572 
L 1422 4750 
L 1778 4750 
L 1778 3572 
L 2828 4206 
L 3009 3897 
z
" transform="scale(0.015625)"/>
      <path id="DejaVuSans-41" d="M 2188 4044 
L 1331 1722 
L 3047 1722 
L 2188 4044 
z
M 1831 4666 
L 2547 4666 
L 4325 0 
L 3669 0 
L 3244 1197 
L 1141 1197 
L 716 0 
L 50 0 
L 1831 4666 
z
" transform="scale(0.015625)"/>
      <path id="DejaVuSans-4e" d="M 628 4666 
L 1478 4666 
L 3547 763 
L 3547 4666 
L 4159 4666 
L 4159 0 
L 3309 0 
L 1241 3903 
L 1241 0 
L 628 0 
L 628 4666 
z
" transform="scale(0.015625)"/>
      <path id="DejaVuSans-4f" d="M 2522 4238 
Q 1834 4238 1429 3725 
Q 1025 3213 1025 2328 
Q 1025 1447 1429 934 
Q 1834 422 2522 422 
Q 3209 422 3611 934 
Q 4013 1447 4013 2328 
Q 4013 3213 3611 3725 
Q 3209 4238 2522 4238 
z
M 2522 4750 
Q 3503 4750 4090 4092 
Q 4678 3434 4678 2328 
Q 4678 1225 4090 567 
Q 3503 -91 2522 -91 
Q 1538 -91 948 565 
Q 359 1222 359 2328 
Q 359 3434 948 4092 
Q 1538 4750 2522 4750 
z
" transform="scale(0.015625)"/>
      <path id="DejaVuSans-56" d="M 1831 0 
L 50 4666 
L 709 4666 
L 2188 738 
L 3669 4666 
L 4325 4666 
L 2547 0 
L 1831 0 
z
" transform="scale(0.015625)"/>
      <path id="DejaVuSans-70" d="M 1159 525 
L 1159 -1331 
L 581 -1331 
L 581 3500 
L 1159 3500 
L 1159 2969 
Q 1341 3281 1617 3432 
Q 1894 3584 2278 3584 
Q 2916 3584 3314 3078 
Q 3713 2572 3713 1747 
Q 3713 922 3314 415 
Q 2916 -91 2278 -91 
Q 1894 -91 1617 61 
Q 1341 213 1159 525 
z
M 3116 1747 
Q 3116 2381 2855 2742 
Q 2594 3103 2138 3103 
Q 1681 3103 1420 2742 
Q 1159 2381 1159 1747 
Q 1159 1113 1420 752 
Q 1681 391 2138 391 
Q 2594 391 2855 752 
Q 3116 1113 3116 1747 
z
" transform="scale(0.015625)"/>
     </defs>
     <use xlink:href="#DejaVuSans-2a"/>
     <use xlink:href="#DejaVuSans-20" transform="translate(50 0)"/>
     <use xlink:href="#DejaVuSans-20" transform="translate(81.787109 0)"/>
     <use xlink:href="#DejaVuSans-20" transform="translate(113.574219 0)"/>
     <use xlink:href="#DejaVuSans-41" transform="translate(145.361328 0)"/>
     <use xlink:href="#DejaVuSans-4e" transform="translate(213.769531 0)"/>
     <use xlink:href="#DejaVuSans-4f" transform="translate(288.574219 0)"/>
     <use xlink:href="#DejaVuSans-56" transform="translate(365.535156 0)"/>
     <use xlink:href="#DejaVuSans-41" transform="translate(427.568359 0)"/>
     <use xlink:href="#DejaVuSans-20" transform="translate(495.976562 0)"/>
     <use xlink:href="#DejaVuSans-70" transform="translate(527.763672 0)"/>
     <use xlink:href="#DejaVuSans-20" transform="translate(591.240234 0)"/>
     <use xlink:href="#DejaVuSans-30" transform="translate(623.027344 0)"/>
     <use xlink:href="#DejaVuSans-2e" transform="translate(686.650391 0)"/>
     <use xlink:href="#DejaVuSans-30" transform="translate(718.4375 0)"/>
     <use xlink:href="#DejaVuSans-31" transform="translate(782.060547 0)"/>
     <use xlink:href="#DejaVuSans-36" transform="translate(845.683594 0)"/>
    </g>
   </g>
   <g id="text_14">
    <g id="patch_5">
     <path d="M 362.322552 94.8709 
L 448.584552 94.8709 
Q 449.736553 94.8709 449.736553 93.7189 
L 449.736553 69.838 
Q 449.736553 68.686 448.584552 68.686 
L 362.322552 68.686 
Q 361.170552 68.686 361.170552 69.838 
L 361.170552 93.7189 
Q 361.170552 94.8709 362.322552 94.8709 
z
" style="fill: #f6f8fb; stroke: #d6dde6; stroke-width: 0.9; stroke-linejoin: miter"/>
    </g>
    <!-- Control 5.03 -->
    <g style="fill: #20252c" transform="translate(364.242552 79.0525) scale(0.096 -0.096)">
     <use xlink:href="#DejaVuSans-43"/>
     <use xlink:href="#DejaVuSans-6f" transform="translate(69.824219 0)"/>
     <use xlink:href="#DejaVuSans-6e" transform="translate(131.005859 0)"/>
     <use xlink:href="#DejaVuSans-74" transform="translate(194.384766 0)"/>
     <use xlink:href="#DejaVuSans-72" transform="translate(233.59375 0)"/>
     <use xlink:href="#DejaVuSans-6f" transform="translate(272.457031 0)"/>
     <use xlink:href="#DejaVuSans-6c" transform="translate(333.638672 0)"/>
     <use xlink:href="#DejaVuSans-20" transform="translate(361.421875 0)"/>
     <use xlink:href="#DejaVuSans-35" transform="translate(393.208984 0)"/>
     <use xlink:href="#DejaVuSans-2e" transform="translate(456.832031 0)"/>
     <use xlink:href="#DejaVuSans-30" transform="translate(488.619141 0)"/>
     <use xlink:href="#DejaVuSans-33" transform="translate(552.242188 0)"/>
    </g>
    <!-- Treatment 2 5.53 -->
    <g style="fill: #20252c" transform="translate(364.242552 89.8024) scale(0.096 -0.096)">
     <use xlink:href="#DejaVuSans-54"/>
     <use xlink:href="#DejaVuSans-72" transform="translate(46.333984 0)"/>
     <use xlink:href="#DejaVuSans-65" transform="translate(85.197266 0)"/>
     <use xlink:href="#DejaVuSans-61" transform="translate(146.720703 0)"/>
     <use xlink:href="#DejaVuSans-74" transform="translate(208 0)"/>
     <use xlink:href="#DejaVuSans-6d" transform="translate(247.208984 0)"/>
     <use xlink:href="#DejaVuSans-65" transform="translate(344.621094 0)"/>
     <use xlink:href="#DejaVuSans-6e" transform="translate(406.144531 0)"/>
     <use xlink:href="#DejaVuSans-74" transform="translate(469.523438 0)"/>
     <use xlink:href="#DejaVuSans-20" transform="translate(508.732422 0)"/>
     <use xlink:href="#DejaVuSans-32" transform="translate(540.519531 0)"/>
     <use xlink:href="#DejaVuSans-20" transform="translate(604.142578 0)"/>
     <use xlink:href="#DejaVuSans-35" transform="translate(635.929688 0)"/>
     <use xlink:href="#DejaVuSans-2e" transform="translate(699.552734 0)"/>
     <use xlink:href="#DejaVuSans-35" transform="translate(731.339844 0)"/>
     <use xlink:href="#DejaVuSans-33" transform="translate(794.962891 0)"/>
    </g>
   </g>
   <g id="text_15">
    <!-- Treatment 2 separates best from control -->
    <g transform="translate(49.760313 50.85) scale(0.145 -0.145)">
     <defs>
      <path id="DejaVuSans-Bold-54" d="M 31 4666 
L 4331 4666 
L 4331 3756 
L 2784 3756 
L 2784 0 
L 1581 0 
L 1581 3756 
L 31 3756 
L 31 4666 
z
" transform="scale(0.015625)"/>
      <path id="DejaVuSans-Bold-72" d="M 3138 2547 
Q 2991 2616 2845 2648 
Q 2700 2681 2553 2681 
Q 2122 2681 1889 2404 
Q 1656 2128 1656 1613 
L 1656 0 
L 538 0 
L 538 3500 
L 1656 3500 
L 1656 2925 
Q 1872 3269 2151 3426 
Q 2431 3584 2822 3584 
Q 2878 3584 2943 3579 
Q 3009 3575 3134 3559 
L 3138 2547 
z
" transform="scale(0.015625)"/>
      <path id="DejaVuSans-Bold-65" d="M 4031 1759 
L 4031 1441 
L 1416 1441 
Q 1456 1047 1700 850 
Q 1944 653 2381 653 
Q 2734 653 3104 758 
Q 3475 863 3866 1075 
L 3866 213 
Q 3469 63 3072 -14 
Q 2675 -91 2278 -91 
Q 1328 -91 801 392 
Q 275 875 275 1747 
Q 275 2603 792 3093 
Q 1309 3584 2216 3584 
Q 3041 3584 3536 3087 
Q 4031 2591 4031 1759 
z
M 2881 2131 
Q 2881 2450 2695 2645 
Q 2509 2841 2209 2841 
Q 1884 2841 1681 2658 
Q 1478 2475 1428 2131 
L 2881 2131 
z
" transform="scale(0.015625)"/>
      <path id="DejaVuSans-Bold-61" d="M 2106 1575 
Q 1756 1575 1579 1456 
Q 1403 1338 1403 1106 
Q 1403 894 1545 773 
Q 1688 653 1941 653 
Q 2256 653 2472 879 
Q 2688 1106 2688 1447 
L 2688 1575 
L 2106 1575 
z
M 3816 1997 
L 3816 0 
L 2688 0 
L 2688 519 
Q 2463 200 2181 54 
Q 1900 -91 1497 -91 
Q 953 -91 614 226 
Q 275 544 275 1050 
Q 275 1666 698 1953 
Q 1122 2241 2028 2241 
L 2688 2241 
L 2688 2328 
Q 2688 2594 2478 2717 
Q 2269 2841 1825 2841 
Q 1466 2841 1156 2769 
Q 847 2697 581 2553 
L 581 3406 
Q 941 3494 1303 3539 
Q 1666 3584 2028 3584 
Q 2975 3584 3395 3211 
Q 3816 2838 3816 1997 
z
" transform="scale(0.015625)"/>
      <path id="DejaVuSans-Bold-74" d="M 1759 4494 
L 1759 3500 
L 2913 3500 
L 2913 2700 
L 1759 2700 
L 1759 1216 
Q 1759 972 1856 886 
Q 1953 800 2241 800 
L 2816 800 
L 2816 0 
L 1856 0 
Q 1194 0 917 276 
Q 641 553 641 1216 
L 641 2700 
L 84 2700 
L 84 3500 
L 641 3500 
L 641 4494 
L 1759 4494 
z
" transform="scale(0.015625)"/>
      <path id="DejaVuSans-Bold-6d" d="M 3781 2919 
Q 3994 3244 4286 3414 
Q 4578 3584 4928 3584 
Q 5531 3584 5847 3212 
Q 6163 2841 6163 2131 
L 6163 0 
L 5038 0 
L 5038 1825 
Q 5041 1866 5042 1909 
Q 5044 1953 5044 2034 
Q 5044 2406 4934 2573 
Q 4825 2741 4581 2741 
Q 4263 2741 4089 2478 
Q 3916 2216 3909 1719 
L 3909 0 
L 2784 0 
L 2784 1825 
Q 2784 2406 2684 2573 
Q 2584 2741 2328 2741 
Q 2006 2741 1831 2477 
Q 1656 2213 1656 1722 
L 1656 0 
L 531 0 
L 531 3500 
L 1656 3500 
L 1656 2988 
Q 1863 3284 2130 3434 
Q 2397 3584 2719 3584 
Q 3081 3584 3359 3409 
Q 3638 3234 3781 2919 
z
" transform="scale(0.015625)"/>
      <path id="DejaVuSans-Bold-6e" d="M 4056 2131 
L 4056 0 
L 2931 0 
L 2931 347 
L 2931 1631 
Q 2931 2084 2911 2256 
Q 2891 2428 2841 2509 
Q 2775 2619 2662 2680 
Q 2550 2741 2406 2741 
Q 2056 2741 1856 2470 
Q 1656 2200 1656 1722 
L 1656 0 
L 538 0 
L 538 3500 
L 1656 3500 
L 1656 2988 
Q 1909 3294 2193 3439 
Q 2478 3584 2822 3584 
Q 3428 3584 3742 3212 
Q 4056 2841 4056 2131 
z
" transform="scale(0.015625)"/>
      <path id="DejaVuSans-Bold-20" transform="scale(0.015625)"/>
      <path id="DejaVuSans-Bold-32" d="M 1844 884 
L 3897 884 
L 3897 0 
L 506 0 
L 506 884 
L 2209 2388 
Q 2438 2594 2547 2791 
Q 2656 2988 2656 3200 
Q 2656 3528 2436 3728 
Q 2216 3928 1850 3928 
Q 1569 3928 1234 3808 
Q 900 3688 519 3450 
L 519 4475 
Q 925 4609 1322 4679 
Q 1719 4750 2100 4750 
Q 2938 4750 3402 4381 
Q 3866 4013 3866 3353 
Q 3866 2972 3669 2642 
Q 3472 2313 2841 1759 
L 1844 884 
z
" transform="scale(0.015625)"/>
      <path id="DejaVuSans-Bold-73" d="M 3272 3391 
L 3272 2541 
Q 2913 2691 2578 2766 
Q 2244 2841 1947 2841 
Q 1628 2841 1473 2761 
Q 1319 2681 1319 2516 
Q 1319 2381 1436 2309 
Q 1553 2238 1856 2203 
L 2053 2175 
Q 2913 2066 3209 1816 
Q 3506 1566 3506 1031 
Q 3506 472 3093 190 
Q 2681 -91 1863 -91 
Q 1516 -91 1145 -36 
Q 775 19 384 128 
L 384 978 
Q 719 816 1070 734 
Q 1422 653 1784 653 
Q 2113 653 2278 743 
Q 2444 834 2444 1013 
Q 2444 1163 2330 1236 
Q 2216 1309 1875 1350 
L 1678 1375 
Q 931 1469 631 1722 
Q 331 1975 331 2491 
Q 331 3047 712 3315 
Q 1094 3584 1881 3584 
Q 2191 3584 2531 3537 
Q 2872 3491 3272 3391 
z
" transform="scale(0.015625)"/>
      <path id="DejaVuSans-Bold-70" d="M 1656 506 
L 1656 -1331 
L 538 -1331 
L 538 3500 
L 1656 3500 
L 1656 2988 
Q 1888 3294 2169 3439 
Q 2450 3584 2816 3584 
Q 3463 3584 3878 3070 
Q 4294 2556 4294 1747 
Q 4294 938 3878 423 
Q 3463 -91 2816 -91 
Q 2450 -91 2169 54 
Q 1888 200 1656 506 
z
M 2400 2772 
Q 2041 2772 1848 2508 
Q 1656 2244 1656 1747 
Q 1656 1250 1848 986 
Q 2041 722 2400 722 
Q 2759 722 2948 984 
Q 3138 1247 3138 1747 
Q 3138 2247 2948 2509 
Q 2759 2772 2400 2772 
z
" transform="scale(0.015625)"/>
      <path id="DejaVuSans-Bold-62" d="M 2400 722 
Q 2759 722 2948 984 
Q 3138 1247 3138 1747 
Q 3138 2247 2948 2509 
Q 2759 2772 2400 2772 
Q 2041 2772 1848 2508 
Q 1656 2244 1656 1747 
Q 1656 1250 1848 986 
Q 2041 722 2400 722 
z
M 1656 2988 
Q 1888 3294 2169 3439 
Q 2450 3584 2816 3584 
Q 3463 3584 3878 3070 
Q 4294 2556 4294 1747 
Q 4294 938 3878 423 
Q 3463 -91 2816 -91 
Q 2450 -91 2169 54 
Q 1888 200 1656 506 
L 1656 0 
L 538 0 
L 538 4863 
L 1656 4863 
L 1656 2988 
z
" transform="scale(0.015625)"/>
      <path id="DejaVuSans-Bold-66" d="M 2841 4863 
L 2841 4128 
L 2222 4128 
Q 1984 4128 1890 4042 
Q 1797 3956 1797 3744 
L 1797 3500 
L 2753 3500 
L 2753 2700 
L 1797 2700 
L 1797 0 
L 678 0 
L 678 2700 
L 122 2700 
L 122 3500 
L 678 3500 
L 678 3744 
Q 678 4316 997 4589 
Q 1316 4863 1984 4863 
L 2841 4863 
z
" transform="scale(0.015625)"/>
      <path id="DejaVuSans-Bold-6f" d="M 2203 2784 
Q 1831 2784 1636 2517 
Q 1441 2250 1441 1747 
Q 1441 1244 1636 976 
Q 1831 709 2203 709 
Q 2569 709 2762 976 
Q 2956 1244 2956 1747 
Q 2956 2250 2762 2517 
Q 2569 2784 2203 2784 
z
M 2203 3584 
Q 3106 3584 3614 3096 
Q 4122 2609 4122 1747 
Q 4122 884 3614 396 
Q 3106 -91 2203 -91 
Q 1297 -91 786 396 
Q 275 884 275 1747 
Q 275 2609 786 3096 
Q 1297 3584 2203 3584 
z
" transform="scale(0.015625)"/>
      <path id="DejaVuSans-Bold-63" d="M 3366 3391 
L 3366 2478 
Q 3138 2634 2908 2709 
Q 2678 2784 2431 2784 
Q 1963 2784 1702 2511 
Q 1441 2238 1441 1747 
Q 1441 1256 1702 982 
Q 1963 709 2431 709 
Q 2694 709 2930 787 
Q 3166 866 3366 1019 
L 3366 103 
Q 3103 6 2833 -42 
Q 2563 -91 2291 -91 
Q 1344 -91 809 395 
Q 275 881 275 1747 
Q 275 2613 809 3098 
Q 1344 3584 2291 3584 
Q 2566 3584 2833 3536 
Q 3100 3488 3366 3391 
z
" transform="scale(0.015625)"/>
      <path id="DejaVuSans-Bold-6c" d="M 538 4863 
L 1656 4863 
L 1656 0 
L 538 0 
L 538 4863 
z
" transform="scale(0.015625)"/>
     </defs>
     <use xlink:href="#DejaVuSans-Bold-54"/>
     <use xlink:href="#DejaVuSans-Bold-72" transform="translate(57.212891 0)"/>
     <use xlink:href="#DejaVuSans-Bold-65" transform="translate(106.529297 0)"/>
     <use xlink:href="#DejaVuSans-Bold-61" transform="translate(174.351562 0)"/>
     <use xlink:href="#DejaVuSans-Bold-74" transform="translate(241.832031 0)"/>
     <use xlink:href="#DejaVuSans-Bold-6d" transform="translate(289.634766 0)"/>
     <use xlink:href="#DejaVuSans-Bold-65" transform="translate(393.833984 0)"/>
     <use xlink:href="#DejaVuSans-Bold-6e" transform="translate(461.65625 0)"/>
     <use xlink:href="#DejaVuSans-Bold-74" transform="translate(532.847656 0)"/>
     <use xlink:href="#DejaVuSans-Bold-20" transform="translate(580.650391 0)"/>
     <use xlink:href="#DejaVuSans-Bold-32" transform="translate(615.464844 0)"/>
     <use xlink:href="#DejaVuSans-Bold-20" transform="translate(685.044922 0)"/>
     <use xlink:href="#DejaVuSans-Bold-73" transform="translate(719.859375 0)"/>
     <use xlink:href="#DejaVuSans-Bold-65" transform="translate(779.380859 0)"/>
     <use xlink:href="#DejaVuSans-Bold-70" transform="translate(847.203125 0)"/>
     <use xlink:href="#DejaVuSans-Bold-61" transform="translate(918.785156 0)"/>
     <use xlink:href="#DejaVuSans-Bold-72" transform="translate(986.265625 0)"/>
     <use xlink:href="#DejaVuSans-Bold-61" transform="translate(1035.582031 0)"/>
     <use xlink:href="#DejaVuSans-Bold-74" transform="translate(1103.0625 0)"/>
     <use xlink:href="#DejaVuSans-Bold-65" transform="translate(1150.865234 0)"/>
     <use xlink:href="#DejaVuSans-Bold-73" transform="translate(1218.6875 0)"/>
     <use xlink:href="#DejaVuSans-Bold-20" transform="translate(1278.208984 0)"/>
     <use xlink:href="#DejaVuSans-Bold-62" transform="translate(1313.023438 0)"/>
     <use xlink:href="#DejaVuSans-Bold-65" transform="translate(1384.605469 0)"/>
     <use xlink:href="#DejaVuSans-Bold-73" transform="translate(1452.427734 0)"/>
     <use xlink:href="#DejaVuSans-Bold-74" transform="translate(1511.949219 0)"/>
     <use xlink:href="#DejaVuSans-Bold-20" transform="translate(1559.751953 0)"/>
     <use xlink:href="#DejaVuSans-Bold-66" transform="translate(1594.566406 0)"/>
     <use xlink:href="#DejaVuSans-Bold-72" transform="translate(1638.072266 0)"/>
     <use xlink:href="#DejaVuSans-Bold-6f" transform="translate(1687.388672 0)"/>
     <use xlink:href="#DejaVuSans-Bold-6d" transform="translate(1756.089844 0)"/>
     <use xlink:href="#DejaVuSans-Bold-20" transform="translate(1860.289062 0)"/>
     <use xlink:href="#DejaVuSans-Bold-63" transform="translate(1895.103516 0)"/>
     <use xlink:href="#DejaVuSans-Bold-6f" transform="translate(1954.380859 0)"/>
     <use xlink:href="#DejaVuSans-Bold-6e" transform="translate(2023.082031 0)"/>
     <use xlink:href="#DejaVuSans-Bold-74" transform="translate(2094.273438 0)"/>
     <use xlink:href="#DejaVuSans-Bold-72" transform="translate(2142.076172 0)"/>
     <use xlink:href="#DejaVuSans-Bold-6f" transform="translate(2191.392578 0)"/>
     <use xlink:href="#DejaVuSans-Bold-6c" transform="translate(2260.09375 0)"/>
    </g>
   </g>
   <g id="LineCollection_1">
    <path d="M 95.721667 229.215212 
L 95.721667 172.662247 
" clip-path="url(#pcd616148df)" style="fill: none; stroke: #20252c; stroke-width: 1.6"/>
   </g>
   <g id="line2d_21">
    <path d="M 75.738469 200.938729 
L 115.704864 200.938729 
" clip-path="url(#pcd616148df)" style="fill: none; stroke: #20252c; stroke-width: 2; stroke-linecap: square"/>
   </g>
   <g id="LineCollection_2">
    <path d="M 262.248312 264.577416 
L 262.248312 187.600264 
" clip-path="url(#pcd616148df)" style="fill: none; stroke: #20252c; stroke-width: 1.6"/>
   </g>
   <g id="line2d_22">
    <path d="M 242.265115 226.08884 
L 282.23151 226.08884 
" clip-path="url(#pcd616148df)" style="fill: none; stroke: #20252c; stroke-width: 2; stroke-linecap: square"/>
   </g>
   <g id="LineCollection_3">
    <path d="M 428.774958 188.912628 
L 428.774958 145.988256 
" clip-path="url(#pcd616148df)" style="fill: none; stroke: #20252c; stroke-width: 1.6"/>
   </g>
   <g id="line2d_23">
    <path d="M 408.791761 167.450442 
L 448.758156 167.450442 
" clip-path="url(#pcd616148df)" style="fill: none; stroke: #20252c; stroke-width: 2; stroke-linecap: square"/>
   </g>
  </g>
  <g id="text_16">
   <!-- Three-Arm Compound Response Screen -->
   <g style="fill: #20252c" transform="translate(12.442312 19.3575) scale(0.16 -0.16)">
    <defs>
     <path id="DejaVuSans-Bold-68" d="M 4056 2131 
L 4056 0 
L 2931 0 
L 2931 347 
L 2931 1625 
Q 2931 2084 2911 2256 
Q 2891 2428 2841 2509 
Q 2775 2619 2662 2680 
Q 2550 2741 2406 2741 
Q 2056 2741 1856 2470 
Q 1656 2200 1656 1722 
L 1656 0 
L 538 0 
L 538 4863 
L 1656 4863 
L 1656 2988 
Q 1909 3294 2193 3439 
Q 2478 3584 2822 3584 
Q 3428 3584 3742 3212 
Q 4056 2841 4056 2131 
z
" transform="scale(0.015625)"/>
     <path id="DejaVuSans-Bold-2d" d="M 347 2297 
L 2309 2297 
L 2309 1388 
L 347 1388 
L 347 2297 
z
" transform="scale(0.015625)"/>
     <path id="DejaVuSans-Bold-41" d="M 3419 850 
L 1538 850 
L 1241 0 
L 31 0 
L 1759 4666 
L 3194 4666 
L 4922 0 
L 3713 0 
L 3419 850 
z
M 1838 1716 
L 3116 1716 
L 2478 3572 
L 1838 1716 
z
" transform="scale(0.015625)"/>
     <path id="DejaVuSans-Bold-43" d="M 4288 256 
Q 3956 84 3597 -3 
Q 3238 -91 2847 -91 
Q 1681 -91 1000 561 
Q 319 1213 319 2328 
Q 319 3447 1000 4098 
Q 1681 4750 2847 4750 
Q 3238 4750 3597 4662 
Q 3956 4575 4288 4403 
L 4288 3438 
Q 3953 3666 3628 3772 
Q 3303 3878 2944 3878 
Q 2300 3878 1931 3465 
Q 1563 3053 1563 2328 
Q 1563 1606 1931 1193 
Q 2300 781 2944 781 
Q 3303 781 3628 887 
Q 3953 994 4288 1222 
L 4288 256 
z
" transform="scale(0.015625)"/>
     <path id="DejaVuSans-Bold-75" d="M 500 1363 
L 500 3500 
L 1625 3500 
L 1625 3150 
Q 1625 2866 1622 2436 
Q 1619 2006 1619 1863 
Q 1619 1441 1641 1255 
Q 1663 1069 1716 984 
Q 1784 875 1895 815 
Q 2006 756 2150 756 
Q 2500 756 2700 1025 
Q 2900 1294 2900 1772 
L 2900 3500 
L 4019 3500 
L 4019 0 
L 2900 0 
L 2900 506 
Q 2647 200 2364 54 
Q 2081 -91 1741 -91 
Q 1134 -91 817 281 
Q 500 653 500 1363 
z
" transform="scale(0.015625)"/>
     <path id="DejaVuSans-Bold-64" d="M 2919 2988 
L 2919 4863 
L 4044 4863 
L 4044 0 
L 2919 0 
L 2919 506 
Q 2688 197 2409 53 
Q 2131 -91 1766 -91 
Q 1119 -91 703 423 
Q 288 938 288 1747 
Q 288 2556 703 3070 
Q 1119 3584 1766 3584 
Q 2128 3584 2408 3439 
Q 2688 3294 2919 2988 
z
M 2181 722 
Q 2541 722 2730 984 
Q 2919 1247 2919 1747 
Q 2919 2247 2730 2509 
Q 2541 2772 2181 2772 
Q 1825 2772 1636 2509 
Q 1447 2247 1447 1747 
Q 1447 1247 1636 984 
Q 1825 722 2181 722 
z
" transform="scale(0.015625)"/>
     <path id="DejaVuSans-Bold-52" d="M 2297 2597 
Q 2675 2597 2839 2737 
Q 3003 2878 3003 3200 
Q 3003 3519 2839 3656 
Q 2675 3794 2297 3794 
L 1791 3794 
L 1791 2597 
L 2297 2597 
z
M 1791 1766 
L 1791 0 
L 588 0 
L 588 4666 
L 2425 4666 
Q 3347 4666 3776 4356 
Q 4206 4047 4206 3378 
Q 4206 2916 3982 2619 
Q 3759 2322 3309 2181 
Q 3556 2125 3751 1926 
Q 3947 1728 4147 1325 
L 4800 0 
L 3519 0 
L 2950 1159 
Q 2778 1509 2601 1637 
Q 2425 1766 2131 1766 
L 1791 1766 
z
" transform="scale(0.015625)"/>
     <path id="DejaVuSans-Bold-53" d="M 3834 4519 
L 3834 3531 
Q 3450 3703 3084 3790 
Q 2719 3878 2394 3878 
Q 1963 3878 1756 3759 
Q 1550 3641 1550 3391 
Q 1550 3203 1689 3098 
Q 1828 2994 2194 2919 
L 2706 2816 
Q 3484 2659 3812 2340 
Q 4141 2022 4141 1434 
Q 4141 663 3683 286 
Q 3225 -91 2284 -91 
Q 1841 -91 1394 -6 
Q 947 78 500 244 
L 500 1259 
Q 947 1022 1364 901 
Q 1781 781 2169 781 
Q 2563 781 2772 912 
Q 2981 1044 2981 1288 
Q 2981 1506 2839 1625 
Q 2697 1744 2272 1838 
L 1806 1941 
Q 1106 2091 782 2419 
Q 459 2747 459 3303 
Q 459 4000 909 4375 
Q 1359 4750 2203 4750 
Q 2588 4750 2994 4692 
Q 3400 4634 3834 4519 
z
" transform="scale(0.015625)"/>
    </defs>
    <use xlink:href="#DejaVuSans-Bold-54"/>
    <use xlink:href="#DejaVuSans-Bold-68" transform="translate(68.212891 0)"/>
    <use xlink:href="#DejaVuSans-Bold-72" transform="translate(139.404297 0)"/>
    <use xlink:href="#DejaVuSans-Bold-65" transform="translate(188.720703 0)"/>
    <use xlink:href="#DejaVuSans-Bold-65" transform="translate(256.542969 0)"/>
    <use xlink:href="#DejaVuSans-Bold-2d" transform="translate(324.365234 0)"/>
    <use xlink:href="#DejaVuSans-Bold-41" transform="translate(365.869141 0)"/>
    <use xlink:href="#DejaVuSans-Bold-72" transform="translate(443.261719 0)"/>
    <use xlink:href="#DejaVuSans-Bold-6d" transform="translate(492.578125 0)"/>
    <use xlink:href="#DejaVuSans-Bold-20" transform="translate(596.777344 0)"/>
    <use xlink:href="#DejaVuSans-Bold-43" transform="translate(631.591797 0)"/>
    <use xlink:href="#DejaVuSans-Bold-6f" transform="translate(704.980469 0)"/>
    <use xlink:href="#DejaVuSans-Bold-6d" transform="translate(773.681641 0)"/>
    <use xlink:href="#DejaVuSans-Bold-70" transform="translate(877.880859 0)"/>
    <use xlink:href="#DejaVuSans-Bold-6f" transform="translate(949.462891 0)"/>
    <use xlink:href="#DejaVuSans-Bold-75" transform="translate(1018.164062 0)"/>
    <use xlink:href="#DejaVuSans-Bold-6e" transform="translate(1089.355469 0)"/>
    <use xlink:href="#DejaVuSans-Bold-64" transform="translate(1160.546875 0)"/>
    <use xlink:href="#DejaVuSans-Bold-20" transform="translate(1232.128906 0)"/>
    <use xlink:href="#DejaVuSans-Bold-52" transform="translate(1266.943359 0)"/>
    <use xlink:href="#DejaVuSans-Bold-65" transform="translate(1343.945312 0)"/>
    <use xlink:href="#DejaVuSans-Bold-73" transform="translate(1411.767578 0)"/>
    <use xlink:href="#DejaVuSans-Bold-70" transform="translate(1471.289062 0)"/>
    <use xlink:href="#DejaVuSans-Bold-6f" transform="translate(1542.871094 0)"/>
    <use xlink:href="#DejaVuSans-Bold-6e" transform="translate(1611.572266 0)"/>
    <use xlink:href="#DejaVuSans-Bold-73" transform="translate(1682.763672 0)"/>
    <use xlink:href="#DejaVuSans-Bold-65" transform="translate(1742.285156 0)"/>
    <use xlink:href="#DejaVuSans-Bold-20" transform="translate(1810.107422 0)"/>
    <use xlink:href="#DejaVuSans-Bold-53" transform="translate(1844.921875 0)"/>
    <use xlink:href="#DejaVuSans-Bold-63" transform="translate(1916.943359 0)"/>
    <use xlink:href="#DejaVuSans-Bold-72" transform="translate(1976.220703 0)"/>
    <use xlink:href="#DejaVuSans-Bold-65" transform="translate(2025.537109 0)"/>
    <use xlink:href="#DejaVuSans-Bold-65" transform="translate(2093.359375 0)"/>
    <use xlink:href="#DejaVuSans-Bold-6e" transform="translate(2161.181641 0)"/>
   </g>
  </g>
  <g id="text_17">
   <!-- Plant weight by treatment arm -->
   <g style="fill: #667085" transform="translate(12.442312 27.662531) scale(0.094 -0.094)">
    <defs>
     <path id="DejaVuSans-50" d="M 1259 4147 
L 1259 2394 
L 2053 2394 
Q 2494 2394 2734 2622 
Q 2975 2850 2975 3272 
Q 2975 3691 2734 3919 
Q 2494 4147 2053 4147 
L 1259 4147 
z
M 628 4666 
L 2053 4666 
Q 2838 4666 3239 4311 
Q 3641 3956 3641 3272 
Q 3641 2581 3239 2228 
Q 2838 1875 2053 1875 
L 1259 1875 
L 1259 0 
L 628 0 
L 628 4666 
z
" transform="scale(0.015625)"/>
     <path id="DejaVuSans-62" d="M 3116 1747 
Q 3116 2381 2855 2742 
Q 2594 3103 2138 3103 
Q 1681 3103 1420 2742 
Q 1159 2381 1159 1747 
Q 1159 1113 1420 752 
Q 1681 391 2138 391 
Q 2594 391 2855 752 
Q 3116 1113 3116 1747 
z
M 1159 2969 
Q 1341 3281 1617 3432 
Q 1894 3584 2278 3584 
Q 2916 3584 3314 3078 
Q 3713 2572 3713 1747 
Q 3713 922 3314 415 
Q 2916 -91 2278 -91 
Q 1894 -91 1617 61 
Q 1341 213 1159 525 
L 1159 0 
L 581 0 
L 581 4863 
L 1159 4863 
L 1159 2969 
z
" transform="scale(0.015625)"/>
    </defs>
    <use xlink:href="#DejaVuSans-50"/>
    <use xlink:href="#DejaVuSans-6c" transform="translate(60.302734 0)"/>
    <use xlink:href="#DejaVuSans-61" transform="translate(88.085938 0)"/>
    <use xlink:href="#DejaVuSans-6e" transform="translate(149.365234 0)"/>
    <use xlink:href="#DejaVuSans-74" transform="translate(212.744141 0)"/>
    <use xlink:href="#DejaVuSans-20" transform="translate(251.953125 0)"/>
    <use xlink:href="#DejaVuSans-77" transform="translate(283.740234 0)"/>
    <use xlink:href="#DejaVuSans-65" transform="translate(365.527344 0)"/>
    <use xlink:href="#DejaVuSans-69" transform="translate(427.050781 0)"/>
    <use xlink:href="#DejaVuSans-67" transform="translate(454.833984 0)"/>
    <use xlink:href="#DejaVuSans-68" transform="translate(518.310547 0)"/>
    <use xlink:href="#DejaVuSans-74" transform="translate(581.689453 0)"/>
    <use xlink:href="#DejaVuSans-20" transform="translate(620.898438 0)"/>
    <use xlink:href="#DejaVuSans-62" transform="translate(652.685547 0)"/>
    <use xlink:href="#DejaVuSans-79" transform="translate(716.162109 0)"/>
    <use xlink:href="#DejaVuSans-20" transform="translate(775.341797 0)"/>
    <use xlink:href="#DejaVuSans-74" transform="translate(807.128906 0)"/>
    <use xlink:href="#DejaVuSans-72" transform="translate(846.337891 0)"/>
    <use xlink:href="#DejaVuSans-65" transform="translate(885.201172 0)"/>
    <use xlink:href="#DejaVuSans-61" transform="translate(946.724609 0)"/>
    <use xlink:href="#DejaVuSans-74" transform="translate(1008.003906 0)"/>
    <use xlink:href="#DejaVuSans-6d" transform="translate(1047.212891 0)"/>
    <use xlink:href="#DejaVuSans-65" transform="translate(1144.625 0)"/>
    <use xlink:href="#DejaVuSans-6e" transform="translate(1206.148438 0)"/>
    <use xlink:href="#DejaVuSans-74" transform="translate(1269.527344 0)"/>
    <use xlink:href="#DejaVuSans-20" transform="translate(1308.736328 0)"/>
    <use xlink:href="#DejaVuSans-61" transform="translate(1340.523438 0)"/>
    <use xlink:href="#DejaVuSans-72" transform="translate(1401.802734 0)"/>
    <use xlink:href="#DejaVuSans-6d" transform="translate(1441.166016 0)"/>
   </g>
  </g>
 </g>
 <defs>
  <clipPath id="pcd616148df">
   <rect x="49.760313" y="66.85" width="424.976" height="245.4"/>
  </clipPath>
 </defs>
</svg>
