<?xml version="1.0" encoding="utf-8" standalone="no"?>
<!DOCTYPE svg PUBLIC "-//W3C//DTD SVG 1.1//EN"
  "http://www.w3.org/Graphics/SVG/1.1/DTD/svg11.dtd">
<svg xmlns:xlink="http://www.w3.org/1999/xlink" width="495.555281pt" height="336.674062pt" viewBox="0 0 495.555281 336.674062" xmlns="http://www.w3.org/2000/svg" version="1.1">
 <metadata>
  <rdf:RDF xmlns:dc="http://purl.org/dc/elements/1.1/" xmlns:cc="http://creativecommons.org/ns#" xmlns:rdf="http://www.w3.org/1999/02/22-rdf-syntax-ns#">
   <cc:Work>
    <dc:type rdf:resource="http://purl.org/dc/dcmitype/StillImage"/>
    <dc:date>2026-03-23T12:53:53.867371</dc:date>
    <dc:format>image/svg+xml</dc:format>
    <dc:creator>
     <cc:Agent>
      <dc:title>Matplotlib v3.10.8, https://matplotlib.org/</dc:title>
     </cc:Agent>
    </dc:creator>
   </cc:Work>
  </rdf:RDF>
 </metadata>
 <defs>
  <style type="text/css">*{stroke-linejoin: round; stroke-linecap: butt}</style>
 </defs>
 <g id="figure_1">
  <g id="patch_1">
   <path d="M 0 336.674062 
L 495.555281 336.674062 
L 495.555281 0 
L 0 0 
z
" style="fill: #ffffff"/>
  </g>
  <g id="axes_1">
   <g id="patch_2">
    <path d="M 46.423281 293.45 
L 488.355281 293.45 
L 488.355281 66.85 
L 46.423281 66.85 
z
" style="fill: #ffffff"/>
   </g>
   <g id="matplotlib.axis_1">
    <g id="xtick_1">
     <g id="line2d_1">
      <defs>
       <path id="m041322f7d3" d="M 0 0 
L 0 4.2 
" style="stroke: #4b5563"/>
      </defs>
      <g>
       <use xlink:href="#m041322f7d3" x="56.712164" y="293.45" style="fill: #4b5563; stroke: #4b5563"/>
      </g>
     </g>
     <g id="text_1">
      <!-- 8 -->
      <g style="fill: #4b5563" transform="translate(53.371851 309.128359) scale(0.105 -0.105)">
       <defs>
        <path id="DejaVuSans-38" d="M 2034 2216 
Q 1584 2216 1326 1975 
Q 1069 1734 1069 1313 
Q 1069 891 1326 650 
Q 1584 409 2034 409 
Q 2484 409 2743 651 
Q 3003 894 3003 1313 
Q 3003 1734 2745 1975 
Q 2488 2216 2034 2216 
z
M 1403 2484 
Q 997 2584 770 2862 
Q 544 3141 544 3541 
Q 544 4100 942 4425 
Q 1341 4750 2034 4750 
Q 2731 4750 3128 4425 
Q 3525 4100 3525 3541 
Q 3525 3141 3298 2862 
Q 3072 2584 2669 2484 
Q 3125 2378 3379 2068 
Q 3634 1759 3634 1313 
Q 3634 634 3220 271 
Q 2806 -91 2034 -91 
Q 1263 -91 848 271 
Q 434 634 434 1313 
Q 434 1759 690 2068 
Q 947 2378 1403 2484 
z
M 1172 3481 
Q 1172 3119 1398 2916 
Q 1625 2713 2034 2713 
Q 2441 2713 2670 2916 
Q 2900 3119 2900 3481 
Q 2900 3844 2670 4047 
Q 2441 4250 2034 4250 
Q 1625 4250 1398 4047 
Q 1172 3844 1172 3481 
z
" transform="scale(0.015625)"/>
       </defs>
       <use xlink:href="#DejaVuSans-38"/>
      </g>
     </g>
    </g>
    <g id="xtick_2">
     <g id="line2d_2">
      <g>
       <use xlink:href="#m041322f7d3" x="122.038402" y="293.45" style="fill: #4b5563; stroke: #4b5563"/>
      </g>
     </g>
     <g id="text_2">
      <!-- 10 -->
      <g style="fill: #4b5563" transform="translate(115.357777 309.128359) scale(0.105 -0.105)">
       <defs>
        <path id="DejaVuSans-31" d="M 794 531 
L 1825 531 
L 1825 4091 
L 703 3866 
L 703 4441 
L 1819 4666 
L 2450 4666 
L 2450 531 
L 3481 531 
L 3481 0 
L 794 0 
L 794 531 
z
" transform="scale(0.015625)"/>
        <path id="DejaVuSans-30" d="M 2034 4250 
Q 1547 4250 1301 3770 
Q 1056 3291 1056 2328 
Q 1056 1369 1301 889 
Q 1547 409 2034 409 
Q 2525 409 2770 889 
Q 3016 1369 3016 2328 
Q 3016 3291 2770 3770 
Q 2525 4250 2034 4250 
z
M 2034 4750 
Q 2819 4750 3233 4129 
Q 3647 3509 3647 2328 
Q 3647 1150 3233 529 
Q 2819 -91 2034 -91 
Q 1250 -91 836 529 
Q 422 1150 422 2328 
Q 422 3509 836 4129 
Q 1250 4750 2034 4750 
z
" transform="scale(0.015625)"/>
       </defs>
       <use xlink:href="#DejaVuSans-31"/>
       <use xlink:href="#DejaVuSans-30" transform="translate(63.623047 0)"/>
      </g>
     </g>
    </g>
    <g id="xtick_3">
     <g id="line2d_3">
      <g>
       <use xlink:href="#m041322f7d3" x="187.36464" y="293.45" style="fill: #4b5563; stroke: #4b5563"/>
      </g>
     </g>
     <g id="text_3">
      <!-- 12 -->
      <g style="fill: #4b5563" transform="translate(180.684015 309.128359) scale(0.105 -0.105)">
       <defs>
        <path id="DejaVuSans-32" d="M 1228 531 
L 3431 531 
L 3431 0 
L 469 0 
L 469 531 
Q 828 903 1448 1529 
Q 2069 2156 2228 2338 
Q 2531 2678 2651 2914 
Q 2772 3150 2772 3378 
Q 2772 3750 2511 3984 
Q 2250 4219 1831 4219 
Q 1534 4219 1204 4116 
Q 875 4013 500 3803 
L 500 4441 
Q 881 4594 1212 4672 
Q 1544 4750 1819 4750 
Q 2544 4750 2975 4387 
Q 3406 4025 3406 3419 
Q 3406 3131 3298 2873 
Q 3191 2616 2906 2266 
Q 2828 2175 2409 1742 
Q 1991 1309 1228 531 
z
" transform="scale(0.015625)"/>
       </defs>
       <use xlink:href="#DejaVuSans-31"/>
       <use xlink:href="#DejaVuSans-32" transform="translate(63.623047 0)"/>
      </g>
     </g>
    </g>
    <g id="xtick_4">
     <g id="line2d_4">
      <g>
       <use xlink:href="#m041322f7d3" x="252.690878" y="293.45" style="fill: #4b5563; stroke: #4b5563"/>
      </g>
     </g>
     <g id="text_4">
      <!-- 14 -->
      <g style="fill: #4b5563" transform="translate(246.010253 309.128359) scale(0.105 -0.105)">
       <defs>
        <path id="DejaVuSans-34" d="M 2419 4116 
L 825 1625 
L 2419 1625 
L 2419 4116 
z
M 2253 4666 
L 3047 4666 
L 3047 1625 
L 3713 1625 
L 3713 1100 
L 3047 1100 
L 3047 0 
L 2419 0 
L 2419 1100 
L 313 1100 
L 313 1709 
L 2253 4666 
z
" transform="scale(0.015625)"/>
       </defs>
       <use xlink:href="#DejaVuSans-31"/>
       <use xlink:href="#DejaVuSans-34" transform="translate(63.623047 0)"/>
      </g>
     </g>
    </g>
    <g id="xtick_5">
     <g id="line2d_5">
      <g>
       <use xlink:href="#m041322f7d3" x="318.017116" y="293.45" style="fill: #4b5563; stroke: #4b5563"/>
      </g>
     </g>
     <g id="text_5">
      <!-- 16 -->
      <g style="fill: #4b5563" transform="translate(311.336491 309.128359) scale(0.105 -0.105)">
       <defs>
        <path id="DejaVuSans-36" d="M 2113 2584 
Q 1688 2584 1439 2293 
Q 1191 2003 1191 1497 
Q 1191 994 1439 701 
Q 1688 409 2113 409 
Q 2538 409 2786 701 
Q 3034 994 3034 1497 
Q 3034 2003 2786 2293 
Q 2538 2584 2113 2584 
z
M 3366 4563 
L 3366 3988 
Q 3128 4100 2886 4159 
Q 2644 4219 2406 4219 
Q 1781 4219 1451 3797 
Q 1122 3375 1075 2522 
Q 1259 2794 1537 2939 
Q 1816 3084 2150 3084 
Q 2853 3084 3261 2657 
Q 3669 2231 3669 1497 
Q 3669 778 3244 343 
Q 2819 -91 2113 -91 
Q 1303 -91 875 529 
Q 447 1150 447 2328 
Q 447 3434 972 4092 
Q 1497 4750 2381 4750 
Q 2619 4750 2861 4703 
Q 3103 4656 3366 4563 
z
" transform="scale(0.015625)"/>
       </defs>
       <use xlink:href="#DejaVuSans-31"/>
       <use xlink:href="#DejaVuSans-36" transform="translate(63.623047 0)"/>
      </g>
     </g>
    </g>
    <g id="xtick_6">
     <g id="line2d_6">
      <g>
       <use xlink:href="#m041322f7d3" x="383.343354" y="293.45" style="fill: #4b5563; stroke: #4b5563"/>
      </g>
     </g>
     <g id="text_6">
      <!-- 18 -->
      <g style="fill: #4b5563" transform="translate(376.662729 309.128359) scale(0.105 -0.105)">
       <use xlink:href="#DejaVuSans-31"/>
       <use xlink:href="#DejaVuSans-38" transform="translate(63.623047 0)"/>
      </g>
     </g>
    </g>
    <g id="xtick_7">
     <g id="line2d_7">
      <g>
       <use xlink:href="#m041322f7d3" x="448.669592" y="293.45" style="fill: #4b5563; stroke: #4b5563"/>
      </g>
     </g>
     <g id="text_7">
      <!-- 20 -->
      <g style="fill: #4b5563" transform="translate(441.988967 309.128359) scale(0.105 -0.105)">
       <use xlink:href="#DejaVuSans-32"/>
       <use xlink:href="#DejaVuSans-30" transform="translate(63.623047 0)"/>
      </g>
     </g>
    </g>
    <g id="text_8">
     <!-- Girth -->
     <g style="fill: #252b33" transform="translate(254.319242 327.290391) scale(0.105 -0.105)">
      <defs>
       <path id="DejaVuSans-47" d="M 3809 666 
L 3809 1919 
L 2778 1919 
L 2778 2438 
L 4434 2438 
L 4434 434 
Q 4069 175 3628 42 
Q 3188 -91 2688 -91 
Q 1594 -91 976 548 
Q 359 1188 359 2328 
Q 359 3472 976 4111 
Q 1594 4750 2688 4750 
Q 3144 4750 3555 4637 
Q 3966 4525 4313 4306 
L 4313 3634 
Q 3963 3931 3569 4081 
Q 3175 4231 2741 4231 
Q 1884 4231 1454 3753 
Q 1025 3275 1025 2328 
Q 1025 1384 1454 906 
Q 1884 428 2741 428 
Q 3075 428 3337 486 
Q 3600 544 3809 666 
z
" transform="scale(0.015625)"/>
       <path id="DejaVuSans-69" d="M 603 3500 
L 1178 3500 
L 1178 0 
L 603 0 
L 603 3500 
z
M 603 4863 
L 1178 4863 
L 1178 4134 
L 603 4134 
L 603 4863 
z
" transform="scale(0.015625)"/>
       <path id="DejaVuSans-72" d="M 2631 2963 
Q 2534 3019 2420 3045 
Q 2306 3072 2169 3072 
Q 1681 3072 1420 2755 
Q 1159 2438 1159 1844 
L 1159 0 
L 581 0 
L 581 3500 
L 1159 3500 
L 1159 2956 
Q 1341 3275 1631 3429 
Q 1922 3584 2338 3584 
Q 2397 3584 2469 3576 
Q 2541 3569 2628 3553 
L 2631 2963 
z
" transform="scale(0.015625)"/>
       <path id="DejaVuSans-74" d="M 1172 4494 
L 1172 3500 
L 2356 3500 
L 2356 3053 
L 1172 3053 
L 1172 1153 
Q 1172 725 1289 603 
Q 1406 481 1766 481 
L 2356 481 
L 2356 0 
L 1766 0 
Q 1100 0 847 248 
Q 594 497 594 1153 
L 594 3053 
L 172 3053 
L 172 3500 
L 594 3500 
L 594 4494 
L 1172 4494 
z
" transform="scale(0.015625)"/>
       <path id="DejaVuSans-68" d="M 3513 2113 
L 3513 0 
L 2938 0 
L 2938 2094 
Q 2938 2591 2744 2837 
Q 2550 3084 2163 3084 
Q 1697 3084 1428 2787 
Q 1159 2491 1159 1978 
L 1159 0 
L 581 0 
L 581 4863 
L 1159 4863 
L 1159 2956 
Q 1366 3272 1645 3428 
Q 1925 3584 2291 3584 
Q 2894 3584 3203 3211 
Q 3513 2838 3513 2113 
z
" transform="scale(0.015625)"/>
      </defs>
      <use xlink:href="#DejaVuSans-47"/>
      <use xlink:href="#DejaVuSans-69" transform="translate(77.490234 0)"/>
      <use xlink:href="#DejaVuSans-72" transform="translate(105.273438 0)"/>
      <use xlink:href="#DejaVuSans-74" transform="translate(146.386719 0)"/>
      <use xlink:href="#DejaVuSans-68" transform="translate(185.595703 0)"/>
     </g>
    </g>
   </g>
   <g id="matplotlib.axis_2">
    <g id="ytick_1">
     <g id="line2d_8">
      <path d="M 46.423281 289.073663 
L 488.355281 289.073663 
" clip-path="url(#pa7a91c8af6)" style="fill: none; stroke: #e6ebf1; stroke-width: 0.9; stroke-linecap: square"/>
     </g>
     <g id="line2d_9">
      <defs>
       <path id="mc3ec9d6750" d="M 0 0 
L -4.2 0 
" style="stroke: #4b5563"/>
      </defs>
      <g>
       <use xlink:href="#mc3ec9d6750" x="46.423281" y="289.073663" style="fill: #4b5563; stroke: #4b5563"/>
      </g>
     </g>
     <g id="text_9">
      <!-- 0 -->
      <g style="fill: #4b5563" transform="translate(32.042656 293.062843) scale(0.105 -0.105)">
       <use xlink:href="#DejaVuSans-30"/>
      </g>
     </g>
    </g>
    <g id="ytick_2">
     <g id="line2d_10">
      <path d="M 46.423281 261.55111 
L 488.355281 261.55111 
" clip-path="url(#pa7a91c8af6)" style="fill: none; stroke: #e6ebf1; stroke-width: 0.9; stroke-linecap: square"/>
     </g>
     <g id="line2d_11">
      <g>
       <use xlink:href="#mc3ec9d6750" x="46.423281" y="261.55111" style="fill: #4b5563; stroke: #4b5563"/>
      </g>
     </g>
     <g id="text_10">
      <!-- 10 -->
      <g style="fill: #4b5563" transform="translate(25.362031 265.540289) scale(0.105 -0.105)">
       <use xlink:href="#DejaVuSans-31"/>
       <use xlink:href="#DejaVuSans-30" transform="translate(63.623047 0)"/>
      </g>
     </g>
    </g>
    <g id="ytick_3">
     <g id="line2d_12">
      <path d="M 46.423281 234.028556 
L 488.355281 234.028556 
" clip-path="url(#pa7a91c8af6)" style="fill: none; stroke: #e6ebf1; stroke-width: 0.9; stroke-linecap: square"/>
     </g>
     <g id="line2d_13">
      <g>
       <use xlink:href="#mc3ec9d6750" x="46.423281" y="234.028556" style="fill: #4b5563; stroke: #4b5563"/>
      </g>
     </g>
     <g id="text_11">
      <!-- 20 -->
      <g style="fill: #4b5563" transform="translate(25.362031 238.017736) scale(0.105 -0.105)">
       <use xlink:href="#DejaVuSans-32"/>
       <use xlink:href="#DejaVuSans-30" transform="translate(63.623047 0)"/>
      </g>
     </g>
    </g>
    <g id="ytick_4">
     <g id="line2d_14">
      <path d="M 46.423281 206.506002 
L 488.355281 206.506002 
" clip-path="url(#pa7a91c8af6)" style="fill: none; stroke: #e6ebf1; stroke-width: 0.9; stroke-linecap: square"/>
     </g>
     <g id="line2d_15">
      <g>
       <use xlink:href="#mc3ec9d6750" x="46.423281" y="206.506002" style="fill: #4b5563; stroke: #4b5563"/>
      </g>
     </g>
     <g id="text_12">
      <!-- 30 -->
      <g style="fill: #4b5563" transform="translate(25.362031 210.495182) scale(0.105 -0.105)">
       <defs>
        <path id="DejaVuSans-33" d="M 2597 2516 
Q 3050 2419 3304 2112 
Q 3559 1806 3559 1356 
Q 3559 666 3084 287 
Q 2609 -91 1734 -91 
Q 1441 -91 1130 -33 
Q 819 25 488 141 
L 488 750 
Q 750 597 1062 519 
Q 1375 441 1716 441 
Q 2309 441 2620 675 
Q 2931 909 2931 1356 
Q 2931 1769 2642 2001 
Q 2353 2234 1838 2234 
L 1294 2234 
L 1294 2753 
L 1863 2753 
Q 2328 2753 2575 2939 
Q 2822 3125 2822 3475 
Q 2822 3834 2567 4026 
Q 2313 4219 1838 4219 
Q 1578 4219 1281 4162 
Q 984 4106 628 3988 
L 628 4550 
Q 988 4650 1302 4700 
Q 1616 4750 1894 4750 
Q 2613 4750 3031 4423 
Q 3450 4097 3450 3541 
Q 3450 3153 3228 2886 
Q 3006 2619 2597 2516 
z
" transform="scale(0.015625)"/>
       </defs>
       <use xlink:href="#DejaVuSans-33"/>
       <use xlink:href="#DejaVuSans-30" transform="translate(63.623047 0)"/>
      </g>
     </g>
    </g>
    <g id="ytick_5">
     <g id="line2d_16">
      <path d="M 46.423281 178.983449 
L 488.355281 178.983449 
" clip-path="url(#pa7a91c8af6)" style="fill: none; stroke: #e6ebf1; stroke-width: 0.9; stroke-linecap: square"/>
     </g>
     <g id="line2d_17">
      <g>
       <use xlink:href="#mc3ec9d6750" x="46.423281" y="178.983449" style="fill: #4b5563; stroke: #4b5563"/>
      </g>
     </g>
     <g id="text_13">
      <!-- 40 -->
      <g style="fill: #4b5563" transform="translate(25.362031 182.972628) scale(0.105 -0.105)">
       <use xlink:href="#DejaVuSans-34"/>
       <use xlink:href="#DejaVuSans-30" transform="translate(63.623047 0)"/>
      </g>
     </g>
    </g>
    <g id="ytick_6">
     <g id="line2d_18">
      <path d="M 46.423281 151.460895 
L 488.355281 151.460895 
" clip-path="url(#pa7a91c8af6)" style="fill: none; stroke: #e6ebf1; stroke-width: 0.9; stroke-linecap: square"/>
     </g>
     <g id="line2d_19">
      <g>
       <use xlink:href="#mc3ec9d6750" x="46.423281" y="151.460895" style="fill: #4b5563; stroke: #4b5563"/>
      </g>
     </g>
     <g id="text_14">
      <!-- 50 -->
      <g style="fill: #4b5563" transform="translate(25.362031 155.450075) scale(0.105 -0.105)">
       <defs>
        <path id="DejaVuSans-35" d="M 691 4666 
L 3169 4666 
L 3169 4134 
L 1269 4134 
L 1269 2991 
Q 1406 3038 1543 3061 
Q 1681 3084 1819 3084 
Q 2600 3084 3056 2656 
Q 3513 2228 3513 1497 
Q 3513 744 3044 326 
Q 2575 -91 1722 -91 
Q 1428 -91 1123 -41 
Q 819 9 494 109 
L 494 744 
Q 775 591 1075 516 
Q 1375 441 1709 441 
Q 2250 441 2565 725 
Q 2881 1009 2881 1497 
Q 2881 1984 2565 2268 
Q 2250 2553 1709 2553 
Q 1456 2553 1204 2497 
Q 953 2441 691 2322 
L 691 4666 
z
" transform="scale(0.015625)"/>
       </defs>
       <use xlink:href="#DejaVuSans-35"/>
       <use xlink:href="#DejaVuSans-30" transform="translate(63.623047 0)"/>
      </g>
     </g>
    </g>
    <g id="ytick_7">
     <g id="line2d_20">
      <path d="M 46.423281 123.938341 
L 488.355281 123.938341 
" clip-path="url(#pa7a91c8af6)" style="fill: none; stroke: #e6ebf1; stroke-width: 0.9; stroke-linecap: square"/>
     </g>
     <g id="line2d_21">
      <g>
       <use xlink:href="#mc3ec9d6750" x="46.423281" y="123.938341" style="fill: #4b5563; stroke: #4b5563"/>
      </g>
     </g>
     <g id="text_15">
      <!-- 60 -->
      <g style="fill: #4b5563" transform="translate(25.362031 127.927521) scale(0.105 -0.105)">
       <use xlink:href="#DejaVuSans-36"/>
       <use xlink:href="#DejaVuSans-30" transform="translate(63.623047 0)"/>
      </g>
     </g>
    </g>
    <g id="ytick_8">
     <g id="line2d_22">
      <path d="M 46.423281 96.415788 
L 488.355281 96.415788 
" clip-path="url(#pa7a91c8af6)" style="fill: none; stroke: #e6ebf1; stroke-width: 0.9; stroke-linecap: square"/>
     </g>
     <g id="line2d_23">
      <g>
       <use xlink:href="#mc3ec9d6750" x="46.423281" y="96.415788" style="fill: #4b5563; stroke: #4b5563"/>
      </g>
     </g>
     <g id="text_16">
      <!-- 70 -->
      <g style="fill: #4b5563" transform="translate(25.362031 100.404967) scale(0.105 -0.105)">
       <defs>
        <path id="DejaVuSans-37" d="M 525 4666 
L 3525 4666 
L 3525 4397 
L 1831 0 
L 1172 0 
L 2766 4134 
L 525 4134 
L 525 4666 
z
" transform="scale(0.015625)"/>
       </defs>
       <use xlink:href="#DejaVuSans-37"/>
       <use xlink:href="#DejaVuSans-30" transform="translate(63.623047 0)"/>
      </g>
     </g>
    </g>
    <g id="ytick_9">
     <g id="line2d_24">
      <path d="M 46.423281 68.893234 
L 488.355281 68.893234 
" clip-path="url(#pa7a91c8af6)" style="fill: none; stroke: #e6ebf1; stroke-width: 0.9; stroke-linecap: square"/>
     </g>
     <g id="line2d_25">
      <g>
       <use xlink:href="#mc3ec9d6750" x="46.423281" y="68.893234" style="fill: #4b5563; stroke: #4b5563"/>
      </g>
     </g>
     <g id="text_17">
      <!-- 80 -->
      <g style="fill: #4b5563" transform="translate(25.362031 72.882414) scale(0.105 -0.105)">
       <use xlink:href="#DejaVuSans-38"/>
       <use xlink:href="#DejaVuSans-30" transform="translate(63.623047 0)"/>
      </g>
     </g>
    </g>
    <g id="text_18">
     <!-- Volume -->
     <g style="fill: #252b33" transform="translate(15.178359 199.676719) rotate(-90) scale(0.105 -0.105)">
      <defs>
       <path id="DejaVuSans-56" d="M 1831 0 
L 50 4666 
L 709 4666 
L 2188 738 
L 3669 4666 
L 4325 4666 
L 2547 0 
L 1831 0 
z
" transform="scale(0.015625)"/>
       <path id="DejaVuSans-6f" d="M 1959 3097 
Q 1497 3097 1228 2736 
Q 959 2375 959 1747 
Q 959 1119 1226 758 
Q 1494 397 1959 397 
Q 2419 397 2687 759 
Q 2956 1122 2956 1747 
Q 2956 2369 2687 2733 
Q 2419 3097 1959 3097 
z
M 1959 3584 
Q 2709 3584 3137 3096 
Q 3566 2609 3566 1747 
Q 3566 888 3137 398 
Q 2709 -91 1959 -91 
Q 1206 -91 779 398 
Q 353 888 353 1747 
Q 353 2609 779 3096 
Q 1206 3584 1959 3584 
z
" transform="scale(0.015625)"/>
       <path id="DejaVuSans-6c" d="M 603 4863 
L 1178 4863 
L 1178 0 
L 603 0 
L 603 4863 
z
" transform="scale(0.015625)"/>
       <path id="DejaVuSans-75" d="M 544 1381 
L 544 3500 
L 1119 3500 
L 1119 1403 
Q 1119 906 1312 657 
Q 1506 409 1894 409 
Q 2359 409 2629 706 
Q 2900 1003 2900 1516 
L 2900 3500 
L 3475 3500 
L 3475 0 
L 2900 0 
L 2900 538 
Q 2691 219 2414 64 
Q 2138 -91 1772 -91 
Q 1169 -91 856 284 
Q 544 659 544 1381 
z
M 1991 3584 
L 1991 3584 
z
" transform="scale(0.015625)"/>
       <path id="DejaVuSans-6d" d="M 3328 2828 
Q 3544 3216 3844 3400 
Q 4144 3584 4550 3584 
Q 5097 3584 5394 3201 
Q 5691 2819 5691 2113 
L 5691 0 
L 5113 0 
L 5113 2094 
Q 5113 2597 4934 2840 
Q 4756 3084 4391 3084 
Q 3944 3084 3684 2787 
Q 3425 2491 3425 1978 
L 3425 0 
L 2847 0 
L 2847 2094 
Q 2847 2600 2669 2842 
Q 2491 3084 2119 3084 
Q 1678 3084 1418 2786 
Q 1159 2488 1159 1978 
L 1159 0 
L 581 0 
L 581 3500 
L 1159 3500 
L 1159 2956 
Q 1356 3278 1631 3431 
Q 1906 3584 2284 3584 
Q 2666 3584 2933 3390 
Q 3200 3197 3328 2828 
z
" transform="scale(0.015625)"/>
       <path id="DejaVuSans-65" d="M 3597 1894 
L 3597 1613 
L 953 1613 
Q 991 1019 1311 708 
Q 1631 397 2203 397 
Q 2534 397 2845 478 
Q 3156 559 3463 722 
L 3463 178 
Q 3153 47 2828 -22 
Q 2503 -91 2169 -91 
Q 1331 -91 842 396 
Q 353 884 353 1716 
Q 353 2575 817 3079 
Q 1281 3584 2069 3584 
Q 2775 3584 3186 3129 
Q 3597 2675 3597 1894 
z
M 3022 2063 
Q 3016 2534 2758 2815 
Q 2500 3097 2075 3097 
Q 1594 3097 1305 2825 
Q 1016 2553 972 2059 
L 3022 2063 
z
" transform="scale(0.015625)"/>
      </defs>
      <use xlink:href="#DejaVuSans-56"/>
      <use xlink:href="#DejaVuSans-6f" transform="translate(60.658203 0)"/>
      <use xlink:href="#DejaVuSans-6c" transform="translate(121.839844 0)"/>
      <use xlink:href="#DejaVuSans-75" transform="translate(149.623047 0)"/>
      <use xlink:href="#DejaVuSans-6d" transform="translate(213.001953 0)"/>
      <use xlink:href="#DejaVuSans-65" transform="translate(310.414062 0)"/>
     </g>
    </g>
   </g>
   <g id="FillBetweenPolyCollection_1">
    <defs>
     <path id="m97e5fbbfb1" d="M 66.511099 -69.767076 
L 66.511099 -53.524062 
L 70.569245 -55.402574 
L 74.62739 -57.279995 
L 78.685535 -59.156263 
L 82.74368 -61.031313 
L 86.801825 -62.905074 
L 90.85997 -64.77747 
L 94.918115 -66.648422 
L 98.97626 -68.517842 
L 103.034405 -70.38564 
L 107.09255 -72.251716 
L 111.150695 -74.115966 
L 115.20884 -75.978278 
L 119.266986 -77.838533 
L 123.325131 -79.696602 
L 127.383276 -81.55235 
L 131.441421 -83.405633 
L 135.499566 -85.256297 
L 139.557711 -87.104181 
L 143.615856 -88.949111 
L 147.674001 -90.790906 
L 151.732146 -92.629376 
L 155.790291 -94.46432 
L 159.848436 -96.295528 
L 163.906582 -98.122784 
L 167.964727 -99.945862 
L 172.022872 -101.764531 
L 176.081017 -103.578554 
L 180.139162 -105.387693 
L 184.197307 -107.191706 
L 188.255452 -108.990356 
L 192.313597 -110.783408 
L 196.371742 -112.570635 
L 200.429887 -114.351822 
L 204.488032 -116.126768 
L 208.546177 -117.895291 
L 212.604323 -119.65723 
L 216.662468 -121.41245 
L 220.720613 -123.160842 
L 224.778758 -124.902331 
L 228.836903 -126.636871 
L 232.895048 -128.364452 
L 236.953193 -130.085096 
L 241.011338 -131.798859 
L 245.069483 -133.505828 
L 249.127628 -135.206122 
L 253.185773 -136.899884 
L 257.243919 -138.587283 
L 261.302064 -140.268508 
L 265.360209 -141.943765 
L 269.418354 -143.613275 
L 273.476499 -145.277266 
L 277.534644 -146.935975 
L 281.592789 -148.589641 
L 285.650934 -150.238505 
L 289.709079 -151.882805 
L 293.767224 -153.522775 
L 297.825369 -155.158646 
L 301.883514 -156.79064 
L 305.94166 -158.418971 
L 309.999805 -160.043846 
L 314.05795 -161.665462 
L 318.116095 -163.284006 
L 322.17424 -164.899658 
L 326.232385 -166.512585 
L 330.29053 -168.122947 
L 334.348675 -169.730894 
L 338.40682 -171.336568 
L 342.464965 -172.940102 
L 346.52311 -174.541619 
L 350.581256 -176.141238 
L 354.639401 -177.739067 
L 358.697546 -179.33521 
L 362.755691 -180.929761 
L 366.813836 -182.522813 
L 370.871981 -184.114447 
L 374.930126 -185.704743 
L 378.988271 -187.293775 
L 383.046416 -188.881612 
L 387.104561 -190.468318 
L 391.162706 -192.053953 
L 395.220851 -193.638575 
L 399.278997 -195.222236 
L 403.337142 -196.804986 
L 407.395287 -198.386871 
L 411.453432 -199.967935 
L 415.511577 -201.54822 
L 419.569722 -203.127764 
L 423.627867 -204.706602 
L 427.686012 -206.28477 
L 431.744157 -207.862299 
L 435.802302 -209.439219 
L 439.860447 -211.015559 
L 443.918593 -212.591345 
L 447.976738 -214.166602 
L 452.034883 -215.741355 
L 456.093028 -217.315625 
L 460.151173 -218.889435 
L 464.209318 -220.462803 
L 468.267463 -222.03575 
L 468.267463 -244.241639 
L 468.267463 -244.241639 
L 464.209318 -242.350078 
L 460.151173 -240.458939 
L 456.093028 -238.568241 
L 452.034883 -236.678004 
L 447.976738 -234.788249 
L 443.918593 -232.898999 
L 439.860447 -231.010277 
L 435.802302 -229.122109 
L 431.744157 -227.234522 
L 427.686012 -225.347543 
L 423.627867 -223.461203 
L 419.569722 -221.575534 
L 415.511577 -219.69057 
L 411.453432 -217.806347 
L 407.395287 -215.922904 
L 403.337142 -214.040282 
L 399.278997 -212.158524 
L 395.220851 -210.277677 
L 391.162706 -208.397792 
L 387.104561 -206.518919 
L 383.046416 -204.641118 
L 378.988271 -202.764447 
L 374.930126 -200.888971 
L 370.871981 -199.01476 
L 366.813836 -197.141887 
L 362.755691 -195.27043 
L 358.697546 -193.400475 
L 354.639401 -191.532109 
L 350.581256 -189.665431 
L 346.52311 -187.800542 
L 342.464965 -185.937552 
L 338.40682 -184.076578 
L 334.348675 -182.217745 
L 330.29053 -180.361184 
L 326.232385 -178.507039 
L 322.17424 -176.655458 
L 318.116095 -174.806602 
L 314.05795 -172.960639 
L 309.999805 -171.117747 
L 305.94166 -169.278115 
L 301.883514 -167.441938 
L 297.825369 -165.609424 
L 293.767224 -163.780787 
L 289.709079 -161.95625 
L 285.650934 -160.136043 
L 281.592789 -158.320399 
L 277.534644 -156.509558 
L 273.476499 -154.703759 
L 269.418354 -152.903243 
L 265.360209 -151.108245 
L 261.302064 -149.318995 
L 257.243919 -147.535712 
L 253.185773 -145.758603 
L 249.127628 -143.987858 
L 245.069483 -142.223643 
L 241.011338 -140.466105 
L 236.953193 -138.715361 
L 232.895048 -136.971497 
L 228.836903 -135.234571 
L 224.778758 -133.504603 
L 220.720613 -131.781584 
L 216.662468 -130.065469 
L 212.604323 -128.356181 
L 208.546177 -126.653612 
L 204.488032 -124.957628 
L 200.429887 -123.268066 
L 196.371742 -121.584746 
L 192.313597 -119.907466 
L 188.255452 -118.23601 
L 184.197307 -116.570152 
L 180.139162 -114.909658 
L 176.081017 -113.254289 
L 172.022872 -111.603804 
L 167.964727 -109.957966 
L 163.906582 -108.316536 
L 159.848436 -106.679284 
L 155.790291 -105.045985 
L 151.732146 -103.416422 
L 147.674001 -101.790384 
L 143.615856 -100.167671 
L 139.557711 -98.548094 
L 135.499566 -96.93147 
L 131.441421 -95.317626 
L 127.383276 -93.706402 
L 123.325131 -92.097643 
L 119.266986 -90.491204 
L 115.20884 -88.886951 
L 111.150695 -87.284755 
L 107.09255 -85.684498 
L 103.034405 -84.086067 
L 98.97626 -82.489357 
L 94.918115 -80.89427 
L 90.85997 -79.300714 
L 86.801825 -77.708602 
L 82.74368 -76.117856 
L 78.685535 -74.528398 
L 74.62739 -72.940159 
L 70.569245 -71.353072 
L 66.511099 -69.767076 
z
" style="stroke: #dbe8f6; stroke-opacity: 0.75"/>
    </defs>
    <g clip-path="url(#pa7a91c8af6)">
     <use xlink:href="#m97e5fbbfb1" x="0" y="336.674062" style="fill: #dbe8f6; fill-opacity: 0.75; stroke: #dbe8f6; stroke-opacity: 0.75"/>
    </g>
   </g>
   <g id="line2d_26">
    <path d="M 66.511099 275.028493 
L 70.569245 273.29624 
L 74.62739 271.563986 
L 78.685535 269.831732 
L 82.74368 268.099478 
L 86.801825 266.367224 
L 90.85997 264.634971 
L 94.918115 262.902717 
L 98.97626 261.170463 
L 103.034405 259.438209 
L 107.09255 257.705956 
L 111.150695 255.973702 
L 115.20884 254.241448 
L 119.266986 252.509194 
L 123.325131 250.77694 
L 127.383276 249.044687 
L 131.441421 247.312433 
L 135.499566 245.580179 
L 139.557711 243.847925 
L 143.615856 242.115671 
L 147.674001 240.383418 
L 151.732146 238.651164 
L 155.790291 236.91891 
L 159.848436 235.186656 
L 163.906582 233.454402 
L 167.964727 231.722149 
L 172.022872 229.989895 
L 176.081017 228.257641 
L 180.139162 226.525387 
L 184.197307 224.793133 
L 188.255452 223.06088 
L 192.313597 221.328626 
L 196.371742 219.596372 
L 200.429887 217.864118 
L 204.488032 216.131865 
L 208.546177 214.399611 
L 212.604323 212.667357 
L 216.662468 210.935103 
L 220.720613 209.202849 
L 224.778758 207.470596 
L 228.836903 205.738342 
L 232.895048 204.006088 
L 236.953193 202.273834 
L 241.011338 200.54158 
L 245.069483 198.809327 
L 249.127628 197.077073 
L 253.185773 195.344819 
L 257.243919 193.612565 
L 261.302064 191.880311 
L 265.360209 190.148058 
L 269.418354 188.415804 
L 273.476499 186.68355 
L 277.534644 184.951296 
L 281.592789 183.219042 
L 285.650934 181.486789 
L 289.709079 179.754535 
L 293.767224 178.022281 
L 297.825369 176.290027 
L 301.883514 174.557773 
L 305.94166 172.82552 
L 309.999805 171.093266 
L 314.05795 169.361012 
L 318.116095 167.628758 
L 322.17424 165.896505 
L 326.232385 164.164251 
L 330.29053 162.431997 
L 334.348675 160.699743 
L 338.40682 158.967489 
L 342.464965 157.235236 
L 346.52311 155.502982 
L 350.581256 153.770728 
L 354.639401 152.038474 
L 358.697546 150.30622 
L 362.755691 148.573967 
L 366.813836 146.841713 
L 370.871981 145.109459 
L 374.930126 143.377205 
L 378.988271 141.644951 
L 383.046416 139.912698 
L 387.104561 138.180444 
L 391.162706 136.44819 
L 395.220851 134.715936 
L 399.278997 132.983682 
L 403.337142 131.251429 
L 407.395287 129.519175 
L 411.453432 127.786921 
L 415.511577 126.054667 
L 419.569722 124.322414 
L 423.627867 122.59016 
L 427.686012 120.857906 
L 431.744157 119.125652 
L 435.802302 117.393398 
L 439.860447 115.661145 
L 443.918593 113.928891 
L 447.976738 112.196637 
L 452.034883 110.464383 
L 456.093028 108.732129 
L 460.151173 106.999876 
L 464.209318 105.267622 
L 468.267463 103.535368 
" clip-path="url(#pa7a91c8af6)" style="fill: none; stroke: #20252c; stroke-width: 2.6; stroke-linecap: square"/>
   </g>
   <g id="patch_3">
    <path d="M 46.423281 293.45 
L 46.423281 66.85 
" style="fill: none; stroke: #252b33; stroke-width: 1.1; stroke-linejoin: miter; stroke-linecap: square"/>
   </g>
   <g id="patch_4">
    <path d="M 46.423281 293.45 
L 488.355281 293.45 
" style="fill: none; stroke: #252b33; stroke-width: 1.1; stroke-linejoin: miter; stroke-linecap: square"/>
   </g>
   <g id="PathCollection_1">
    <defs>
     <path id="m9621831112" d="M 0 3.464102 
C 0.91869 3.464102 1.799877 3.099102 2.44949 2.44949 
C 3.099102 1.799877 3.464102 0.91869 3.464102 0 
C 3.464102 -0.91869 3.099102 -1.799877 2.44949 -2.44949 
C 1.799877 -3.099102 0.91869 -3.464102 0 -3.464102 
C -0.91869 -3.464102 -1.799877 -3.099102 -2.44949 -2.44949 
C -3.099102 -1.799877 -3.464102 -0.91869 -3.464102 0 
C -3.464102 0.91869 -3.099102 1.799877 -2.44949 2.44949 
C -1.799877 3.099102 -0.91869 3.464102 0 3.464102 
z
" style="stroke: #ffffff; stroke-width: 0.8"/>
    </defs>
    <g clip-path="url(#pa7a91c8af6)">
     <use xlink:href="#m9621831112" x="66.511099" y="260.725433" style="fill: #4a7ebb; stroke: #ffffff; stroke-width: 0.8"/>
     <use xlink:href="#m9621831112" x="76.310035" y="260.725433" style="fill: #4a7ebb; stroke: #ffffff; stroke-width: 0.8"/>
     <use xlink:href="#m9621831112" x="82.842659" y="261.000658" style="fill: #4a7ebb; stroke: #ffffff; stroke-width: 0.8"/>
     <use xlink:href="#m9621831112" x="138.369961" y="243.936675" style="fill: #4a7ebb; stroke: #ffffff; stroke-width: 0.8"/>
     <use xlink:href="#m9621831112" x="144.902585" y="237.331262" style="fill: #4a7ebb; stroke: #ffffff; stroke-width: 0.8"/>
     <use xlink:href="#m9621831112" x="148.168897" y="234.854232" style="fill: #4a7ebb; stroke: #ffffff; stroke-width: 0.8"/>
     <use xlink:href="#m9621831112" x="154.701521" y="246.138479" style="fill: #4a7ebb; stroke: #ffffff; stroke-width: 0.8"/>
     <use xlink:href="#m9621831112" x="154.701521" y="238.982616" style="fill: #4a7ebb; stroke: #ffffff; stroke-width: 0.8"/>
     <use xlink:href="#m9621831112" x="157.967833" y="226.872692" style="fill: #4a7ebb; stroke: #ffffff; stroke-width: 0.8"/>
     <use xlink:href="#m9621831112" x="161.234145" y="234.303781" style="fill: #4a7ebb; stroke: #ffffff; stroke-width: 0.8"/>
     <use xlink:href="#m9621831112" x="164.500456" y="222.469083" style="fill: #4a7ebb; stroke: #ffffff; stroke-width: 0.8"/>
     <use xlink:href="#m9621831112" x="167.766768" y="231.2763" style="fill: #4a7ebb; stroke: #ffffff; stroke-width: 0.8"/>
     <use xlink:href="#m9621831112" x="167.766768" y="230.175398" style="fill: #4a7ebb; stroke: #ffffff; stroke-width: 0.8"/>
     <use xlink:href="#m9621831112" x="177.565704" y="230.450624" style="fill: #4a7ebb; stroke: #ffffff; stroke-width: 0.8"/>
     <use xlink:href="#m9621831112" x="187.36464" y="236.505586" style="fill: #4a7ebb; stroke: #ffffff; stroke-width: 0.8"/>
     <use xlink:href="#m9621831112" x="216.761447" y="227.973594" style="fill: #4a7ebb; stroke: #ffffff; stroke-width: 0.8"/>
     <use xlink:href="#m9621831112" x="216.761447" y="196.047432" style="fill: #4a7ebb; stroke: #ffffff; stroke-width: 0.8"/>
     <use xlink:href="#m9621831112" x="229.826694" y="213.661866" style="fill: #4a7ebb; stroke: #ffffff; stroke-width: 0.8"/>
     <use xlink:href="#m9621831112" x="242.891942" y="218.3407" style="fill: #4a7ebb; stroke: #ffffff; stroke-width: 0.8"/>
     <use xlink:href="#m9621831112" x="246.158254" y="220.542505" style="fill: #4a7ebb; stroke: #ffffff; stroke-width: 0.8"/>
     <use xlink:href="#m9621831112" x="252.690878" y="194.120853" style="fill: #4a7ebb; stroke: #ffffff; stroke-width: 0.8"/>
     <use xlink:href="#m9621831112" x="259.223502" y="201.827168" style="fill: #4a7ebb; stroke: #ffffff; stroke-width: 0.8"/>
     <use xlink:href="#m9621831112" x="269.022437" y="189.166793" style="fill: #4a7ebb; stroke: #ffffff; stroke-width: 0.8"/>
     <use xlink:href="#m9621831112" x="318.017116" y="183.662283" style="fill: #4a7ebb; stroke: #ffffff; stroke-width: 0.8"/>
     <use xlink:href="#m9621831112" x="327.816051" y="171.827585" style="fill: #4a7ebb; stroke: #ffffff; stroke-width: 0.8"/>
     <use xlink:href="#m9621831112" x="360.47917" y="136.598716" style="fill: #4a7ebb; stroke: #ffffff; stroke-width: 0.8"/>
     <use xlink:href="#m9621831112" x="367.011794" y="135.773039" style="fill: #4a7ebb; stroke: #ffffff; stroke-width: 0.8"/>
     <use xlink:href="#m9621831112" x="380.077042" y="128.617175" style="fill: #4a7ebb; stroke: #ffffff; stroke-width: 0.8"/>
     <use xlink:href="#m9621831112" x="383.343354" y="147.332512" style="fill: #4a7ebb; stroke: #ffffff; stroke-width: 0.8"/>
     <use xlink:href="#m9621831112" x="383.343354" y="148.70864" style="fill: #4a7ebb; stroke: #ffffff; stroke-width: 0.8"/>
     <use xlink:href="#m9621831112" x="468.267463" y="77.15" style="fill: #4a7ebb; stroke: #ffffff; stroke-width: 0.8"/>
    </g>
   </g>
   <g id="text_19">
    <g id="patch_5">
     <path d="M 367.113641 105.2448 
L 422.016641 105.2448 
Q 423.168641 105.2448 423.168641 104.0928 
L 423.168641 69.462 
Q 423.168641 68.31 422.016641 68.31 
L 367.113641 68.31 
Q 365.961641 68.31 365.961641 69.462 
L 365.961641 104.0928 
Q 365.961641 105.2448 367.113641 105.2448 
z
" style="fill: #f6f8fb; stroke: #d6dde6; stroke-width: 0.9; stroke-linejoin: miter"/>
    </g>
    <!-- Slope 5.07 -->
    <g style="fill: #20252c" transform="translate(369.033641 78.6765) scale(0.096 -0.096)">
     <defs>
      <path id="DejaVuSans-53" d="M 3425 4513 
L 3425 3897 
Q 3066 4069 2747 4153 
Q 2428 4238 2131 4238 
Q 1616 4238 1336 4038 
Q 1056 3838 1056 3469 
Q 1056 3159 1242 3001 
Q 1428 2844 1947 2747 
L 2328 2669 
Q 3034 2534 3370 2195 
Q 3706 1856 3706 1288 
Q 3706 609 3251 259 
Q 2797 -91 1919 -91 
Q 1588 -91 1214 -16 
Q 841 59 441 206 
L 441 856 
Q 825 641 1194 531 
Q 1563 422 1919 422 
Q 2459 422 2753 634 
Q 3047 847 3047 1241 
Q 3047 1584 2836 1778 
Q 2625 1972 2144 2069 
L 1759 2144 
Q 1053 2284 737 2584 
Q 422 2884 422 3419 
Q 422 4038 858 4394 
Q 1294 4750 2059 4750 
Q 2388 4750 2728 4690 
Q 3069 4631 3425 4513 
z
" transform="scale(0.015625)"/>
      <path id="DejaVuSans-70" d="M 1159 525 
L 1159 -1331 
L 581 -1331 
L 581 3500 
L 1159 3500 
L 1159 2969 
Q 1341 3281 1617 3432 
Q 1894 3584 2278 3584 
Q 2916 3584 3314 3078 
Q 3713 2572 3713 1747 
Q 3713 922 3314 415 
Q 2916 -91 2278 -91 
Q 1894 -91 1617 61 
Q 1341 213 1159 525 
z
M 3116 1747 
Q 3116 2381 2855 2742 
Q 2594 3103 2138 3103 
Q 1681 3103 1420 2742 
Q 1159 2381 1159 1747 
Q 1159 1113 1420 752 
Q 1681 391 2138 391 
Q 2594 391 2855 752 
Q 3116 1113 3116 1747 
z
" transform="scale(0.015625)"/>
      <path id="DejaVuSans-20" transform="scale(0.015625)"/>
      <path id="DejaVuSans-2e" d="M 684 794 
L 1344 794 
L 1344 0 
L 684 0 
L 684 794 
z
" transform="scale(0.015625)"/>
     </defs>
     <use xlink:href="#DejaVuSans-53"/>
     <use xlink:href="#DejaVuSans-6c" transform="translate(63.476562 0)"/>
     <use xlink:href="#DejaVuSans-6f" transform="translate(91.259766 0)"/>
     <use xlink:href="#DejaVuSans-70" transform="translate(152.441406 0)"/>
     <use xlink:href="#DejaVuSans-65" transform="translate(215.917969 0)"/>
     <use xlink:href="#DejaVuSans-20" transform="translate(277.441406 0)"/>
     <use xlink:href="#DejaVuSans-35" transform="translate(309.228516 0)"/>
     <use xlink:href="#DejaVuSans-2e" transform="translate(372.851562 0)"/>
     <use xlink:href="#DejaVuSans-30" transform="translate(404.638672 0)"/>
     <use xlink:href="#DejaVuSans-37" transform="translate(468.261719 0)"/>
    </g>
    <!-- R² 0.935 -->
    <g style="fill: #20252c" transform="translate(369.033641 89.4264) scale(0.096 -0.096)">
     <defs>
      <path id="DejaVuSans-52" d="M 2841 2188 
Q 3044 2119 3236 1894 
Q 3428 1669 3622 1275 
L 4263 0 
L 3584 0 
L 2988 1197 
Q 2756 1666 2539 1819 
Q 2322 1972 1947 1972 
L 1259 1972 
L 1259 0 
L 628 0 
L 628 4666 
L 2053 4666 
Q 2853 4666 3247 4331 
Q 3641 3997 3641 3322 
Q 3641 2881 3436 2590 
Q 3231 2300 2841 2188 
z
M 1259 4147 
L 1259 2491 
L 2053 2491 
Q 2509 2491 2742 2702 
Q 2975 2913 2975 3322 
Q 2975 3731 2742 3939 
Q 2509 4147 2053 4147 
L 1259 4147 
z
" transform="scale(0.015625)"/>
      <path id="DejaVuSans-b2" d="M 838 2444 
L 2163 2444 
L 2163 2088 
L 294 2088 
L 294 2431 
Q 400 2528 597 2703 
Q 1672 3656 1672 3950 
Q 1672 4156 1509 4282 
Q 1347 4409 1081 4409 
Q 919 4409 728 4354 
Q 538 4300 313 4191 
L 313 4575 
Q 553 4663 761 4706 
Q 969 4750 1147 4750 
Q 1600 4750 1872 4544 
Q 2144 4338 2144 4000 
Q 2144 3566 1109 2678 
Q 934 2528 838 2444 
z
" transform="scale(0.015625)"/>
      <path id="DejaVuSans-39" d="M 703 97 
L 703 672 
Q 941 559 1184 500 
Q 1428 441 1663 441 
Q 2288 441 2617 861 
Q 2947 1281 2994 2138 
Q 2813 1869 2534 1725 
Q 2256 1581 1919 1581 
Q 1219 1581 811 2004 
Q 403 2428 403 3163 
Q 403 3881 828 4315 
Q 1253 4750 1959 4750 
Q 2769 4750 3195 4129 
Q 3622 3509 3622 2328 
Q 3622 1225 3098 567 
Q 2575 -91 1691 -91 
Q 1453 -91 1209 -44 
Q 966 3 703 97 
z
M 1959 2075 
Q 2384 2075 2632 2365 
Q 2881 2656 2881 3163 
Q 2881 3666 2632 3958 
Q 2384 4250 1959 4250 
Q 1534 4250 1286 3958 
Q 1038 3666 1038 3163 
Q 1038 2656 1286 2365 
Q 1534 2075 1959 2075 
z
" transform="scale(0.015625)"/>
     </defs>
     <use xlink:href="#DejaVuSans-52"/>
     <use xlink:href="#DejaVuSans-b2" transform="translate(69.482422 0)"/>
     <use xlink:href="#DejaVuSans-20" transform="translate(109.570312 0)"/>
     <use xlink:href="#DejaVuSans-30" transform="translate(141.357422 0)"/>
     <use xlink:href="#DejaVuSans-2e" transform="translate(204.980469 0)"/>
     <use xlink:href="#DejaVuSans-39" transform="translate(236.767578 0)"/>
     <use xlink:href="#DejaVuSans-33" transform="translate(300.390625 0)"/>
     <use xlink:href="#DejaVuSans-35" transform="translate(364.013672 0)"/>
    </g>
    <!-- p &lt; 0.001 -->
    <g style="fill: #20252c" transform="translate(369.033641 100.1763) scale(0.096 -0.096)">
     <defs>
      <path id="DejaVuSans-3c" d="M 4684 3150 
L 1459 2003 
L 4684 863 
L 4684 294 
L 678 1747 
L 678 2266 
L 4684 3719 
L 4684 3150 
z
" transform="scale(0.015625)"/>
     </defs>
     <use xlink:href="#DejaVuSans-70"/>
     <use xlink:href="#DejaVuSans-20" transform="translate(63.476562 0)"/>
     <use xlink:href="#DejaVuSans-3c" transform="translate(95.263672 0)"/>
     <use xlink:href="#DejaVuSans-20" transform="translate(179.052734 0)"/>
     <use xlink:href="#DejaVuSans-30" transform="translate(210.839844 0)"/>
     <use xlink:href="#DejaVuSans-2e" transform="translate(274.462891 0)"/>
     <use xlink:href="#DejaVuSans-30" transform="translate(306.25 0)"/>
     <use xlink:href="#DejaVuSans-30" transform="translate(369.873047 0)"/>
     <use xlink:href="#DejaVuSans-31" transform="translate(433.496094 0)"/>
    </g>
   </g>
   <g id="text_20">
    <!-- Linear fit with confidence band -->
    <g transform="translate(46.423281 50.85) scale(0.145 -0.145)">
     <defs>
      <path id="DejaVuSans-Bold-4c" d="M 588 4666 
L 1791 4666 
L 1791 909 
L 3903 909 
L 3903 0 
L 588 0 
L 588 4666 
z
" transform="scale(0.015625)"/>
      <path id="DejaVuSans-Bold-69" d="M 538 3500 
L 1656 3500 
L 1656 0 
L 538 0 
L 538 3500 
z
M 538 4863 
L 1656 4863 
L 1656 3950 
L 538 3950 
L 538 4863 
z
" transform="scale(0.015625)"/>
      <path id="DejaVuSans-Bold-6e" d="M 4056 2131 
L 4056 0 
L 2931 0 
L 2931 347 
L 2931 1631 
Q 2931 2084 2911 2256 
Q 2891 2428 2841 2509 
Q 2775 2619 2662 2680 
Q 2550 2741 2406 2741 
Q 2056 2741 1856 2470 
Q 1656 2200 1656 1722 
L 1656 0 
L 538 0 
L 538 3500 
L 1656 3500 
L 1656 2988 
Q 1909 3294 2193 3439 
Q 2478 3584 2822 3584 
Q 3428 3584 3742 3212 
Q 4056 2841 4056 2131 
z
" transform="scale(0.015625)"/>
      <path id="DejaVuSans-Bold-65" d="M 4031 1759 
L 4031 1441 
L 1416 1441 
Q 1456 1047 1700 850 
Q 1944 653 2381 653 
Q 2734 653 3104 758 
Q 3475 863 3866 1075 
L 3866 213 
Q 3469 63 3072 -14 
Q 2675 -91 2278 -91 
Q 1328 -91 801 392 
Q 275 875 275 1747 
Q 275 2603 792 3093 
Q 1309 3584 2216 3584 
Q 3041 3584 3536 3087 
Q 4031 2591 4031 1759 
z
M 2881 2131 
Q 2881 2450 2695 2645 
Q 2509 2841 2209 2841 
Q 1884 2841 1681 2658 
Q 1478 2475 1428 2131 
L 2881 2131 
z
" transform="scale(0.015625)"/>
      <path id="DejaVuSans-Bold-61" d="M 2106 1575 
Q 1756 1575 1579 1456 
Q 1403 1338 1403 1106 
Q 1403 894 1545 773 
Q 1688 653 1941 653 
Q 2256 653 2472 879 
Q 2688 1106 2688 1447 
L 2688 1575 
L 2106 1575 
z
M 3816 1997 
L 3816 0 
L 2688 0 
L 2688 519 
Q 2463 200 2181 54 
Q 1900 -91 1497 -91 
Q 953 -91 614 226 
Q 275 544 275 1050 
Q 275 1666 698 1953 
Q 1122 2241 2028 2241 
L 2688 2241 
L 2688 2328 
Q 2688 2594 2478 2717 
Q 2269 2841 1825 2841 
Q 1466 2841 1156 2769 
Q 847 2697 581 2553 
L 581 3406 
Q 941 3494 1303 3539 
Q 1666 3584 2028 3584 
Q 2975 3584 3395 3211 
Q 3816 2838 3816 1997 
z
" transform="scale(0.015625)"/>
      <path id="DejaVuSans-Bold-72" d="M 3138 2547 
Q 2991 2616 2845 2648 
Q 2700 2681 2553 2681 
Q 2122 2681 1889 2404 
Q 1656 2128 1656 1613 
L 1656 0 
L 538 0 
L 538 3500 
L 1656 3500 
L 1656 2925 
Q 1872 3269 2151 3426 
Q 2431 3584 2822 3584 
Q 2878 3584 2943 3579 
Q 3009 3575 3134 3559 
L 3138 2547 
z
" transform="scale(0.015625)"/>
      <path id="DejaVuSans-Bold-20" transform="scale(0.015625)"/>
      <path id="DejaVuSans-Bold-66" d="M 2841 4863 
L 2841 4128 
L 2222 4128 
Q 1984 4128 1890 4042 
Q 1797 3956 1797 3744 
L 1797 3500 
L 2753 3500 
L 2753 2700 
L 1797 2700 
L 1797 0 
L 678 0 
L 678 2700 
L 122 2700 
L 122 3500 
L 678 3500 
L 678 3744 
Q 678 4316 997 4589 
Q 1316 4863 1984 4863 
L 2841 4863 
z
" transform="scale(0.015625)"/>
      <path id="DejaVuSans-Bold-74" d="M 1759 4494 
L 1759 3500 
L 2913 3500 
L 2913 2700 
L 1759 2700 
L 1759 1216 
Q 1759 972 1856 886 
Q 1953 800 2241 800 
L 2816 800 
L 2816 0 
L 1856 0 
Q 1194 0 917 276 
Q 641 553 641 1216 
L 641 2700 
L 84 2700 
L 84 3500 
L 641 3500 
L 641 4494 
L 1759 4494 
z
" transform="scale(0.015625)"/>
      <path id="DejaVuSans-Bold-77" d="M 225 3500 
L 1313 3500 
L 1900 1088 
L 2491 3500 
L 3425 3500 
L 4013 1113 
L 4603 3500 
L 5691 3500 
L 4769 0 
L 3547 0 
L 2956 2406 
L 2369 0 
L 1147 0 
L 225 3500 
z
" transform="scale(0.015625)"/>
      <path id="DejaVuSans-Bold-68" d="M 4056 2131 
L 4056 0 
L 2931 0 
L 2931 347 
L 2931 1625 
Q 2931 2084 2911 2256 
Q 2891 2428 2841 2509 
Q 2775 2619 2662 2680 
Q 2550 2741 2406 2741 
Q 2056 2741 1856 2470 
Q 1656 2200 1656 1722 
L 1656 0 
L 538 0 
L 538 4863 
L 1656 4863 
L 1656 2988 
Q 1909 3294 2193 3439 
Q 2478 3584 2822 3584 
Q 3428 3584 3742 3212 
Q 4056 2841 4056 2131 
z
" transform="scale(0.015625)"/>
      <path id="DejaVuSans-Bold-63" d="M 3366 3391 
L 3366 2478 
Q 3138 2634 2908 2709 
Q 2678 2784 2431 2784 
Q 1963 2784 1702 2511 
Q 1441 2238 1441 1747 
Q 1441 1256 1702 982 
Q 1963 709 2431 709 
Q 2694 709 2930 787 
Q 3166 866 3366 1019 
L 3366 103 
Q 3103 6 2833 -42 
Q 2563 -91 2291 -91 
Q 1344 -91 809 395 
Q 275 881 275 1747 
Q 275 2613 809 3098 
Q 1344 3584 2291 3584 
Q 2566 3584 2833 3536 
Q 3100 3488 3366 3391 
z
" transform="scale(0.015625)"/>
      <path id="DejaVuSans-Bold-6f" d="M 2203 2784 
Q 1831 2784 1636 2517 
Q 1441 2250 1441 1747 
Q 1441 1244 1636 976 
Q 1831 709 2203 709 
Q 2569 709 2762 976 
Q 2956 1244 2956 1747 
Q 2956 2250 2762 2517 
Q 2569 2784 2203 2784 
z
M 2203 3584 
Q 3106 3584 3614 3096 
Q 4122 2609 4122 1747 
Q 4122 884 3614 396 
Q 3106 -91 2203 -91 
Q 1297 -91 786 396 
Q 275 884 275 1747 
Q 275 2609 786 3096 
Q 1297 3584 2203 3584 
z
" transform="scale(0.015625)"/>
      <path id="DejaVuSans-Bold-64" d="M 2919 2988 
L 2919 4863 
L 4044 4863 
L 4044 0 
L 2919 0 
L 2919 506 
Q 2688 197 2409 53 
Q 2131 -91 1766 -91 
Q 1119 -91 703 423 
Q 288 938 288 1747 
Q 288 2556 703 3070 
Q 1119 3584 1766 3584 
Q 2128 3584 2408 3439 
Q 2688 3294 2919 2988 
z
M 2181 722 
Q 2541 722 2730 984 
Q 2919 1247 2919 1747 
Q 2919 2247 2730 2509 
Q 2541 2772 2181 2772 
Q 1825 2772 1636 2509 
Q 1447 2247 1447 1747 
Q 1447 1247 1636 984 
Q 1825 722 2181 722 
z
" transform="scale(0.015625)"/>
      <path id="DejaVuSans-Bold-62" d="M 2400 722 
Q 2759 722 2948 984 
Q 3138 1247 3138 1747 
Q 3138 2247 2948 2509 
Q 2759 2772 2400 2772 
Q 2041 2772 1848 2508 
Q 1656 2244 1656 1747 
Q 1656 1250 1848 986 
Q 2041 722 2400 722 
z
M 1656 2988 
Q 1888 3294 2169 3439 
Q 2450 3584 2816 3584 
Q 3463 3584 3878 3070 
Q 4294 2556 4294 1747 
Q 4294 938 3878 423 
Q 3463 -91 2816 -91 
Q 2450 -91 2169 54 
Q 1888 200 1656 506 
L 1656 0 
L 538 0 
L 538 4863 
L 1656 4863 
L 1656 2988 
z
" transform="scale(0.015625)"/>
     </defs>
     <use xlink:href="#DejaVuSans-Bold-4c"/>
     <use xlink:href="#DejaVuSans-Bold-69" transform="translate(63.720703 0)"/>
     <use xlink:href="#DejaVuSans-Bold-6e" transform="translate(97.998047 0)"/>
     <use xlink:href="#DejaVuSans-Bold-65" transform="translate(169.189453 0)"/>
     <use xlink:href="#DejaVuSans-Bold-61" transform="translate(237.011719 0)"/>
     <use xlink:href="#DejaVuSans-Bold-72" transform="translate(304.492188 0)"/>
     <use xlink:href="#DejaVuSans-Bold-20" transform="translate(353.808594 0)"/>
     <use xlink:href="#DejaVuSans-Bold-66" transform="translate(388.623047 0)"/>
     <use xlink:href="#DejaVuSans-Bold-69" transform="translate(432.128906 0)"/>
     <use xlink:href="#DejaVuSans-Bold-74" transform="translate(466.40625 0)"/>
     <use xlink:href="#DejaVuSans-Bold-20" transform="translate(514.208984 0)"/>
     <use xlink:href="#DejaVuSans-Bold-77" transform="translate(549.023438 0)"/>
     <use xlink:href="#DejaVuSans-Bold-69" transform="translate(641.40625 0)"/>
     <use xlink:href="#DejaVuSans-Bold-74" transform="translate(675.683594 0)"/>
     <use xlink:href="#DejaVuSans-Bold-68" transform="translate(723.486328 0)"/>
     <use xlink:href="#DejaVuSans-Bold-20" transform="translate(794.677734 0)"/>
     <use xlink:href="#DejaVuSans-Bold-63" transform="translate(829.492188 0)"/>
     <use xlink:href="#DejaVuSans-Bold-6f" transform="translate(888.769531 0)"/>
     <use xlink:href="#DejaVuSans-Bold-6e" transform="translate(957.470703 0)"/>
     <use xlink:href="#DejaVuSans-Bold-66" transform="translate(1028.662109 0)"/>
     <use xlink:href="#DejaVuSans-Bold-69" transform="translate(1072.167969 0)"/>
     <use xlink:href="#DejaVuSans-Bold-64" transform="translate(1106.445312 0)"/>
     <use xlink:href="#DejaVuSans-Bold-65" transform="translate(1178.027344 0)"/>
     <use xlink:href="#DejaVuSans-Bold-6e" transform="translate(1245.849609 0)"/>
     <use xlink:href="#DejaVuSans-Bold-63" transform="translate(1317.041016 0)"/>
     <use xlink:href="#DejaVuSans-Bold-65" transform="translate(1376.318359 0)"/>
     <use xlink:href="#DejaVuSans-Bold-20" transform="translate(1444.140625 0)"/>
     <use xlink:href="#DejaVuSans-Bold-62" transform="translate(1478.955078 0)"/>
     <use xlink:href="#DejaVuSans-Bold-61" transform="translate(1550.537109 0)"/>
     <use xlink:href="#DejaVuSans-Bold-6e" transform="translate(1618.017578 0)"/>
     <use xlink:href="#DejaVuSans-Bold-64" transform="translate(1689.208984 0)"/>
    </g>
   </g>
  </g>
  <g id="text_21">
   <!-- Diameter-to-Volume Calibration Curve -->
   <g style="fill: #20252c" transform="translate(12.957281 19.3575) scale(0.16 -0.16)">
    <defs>
     <path id="DejaVuSans-Bold-44" d="M 1791 3756 
L 1791 909 
L 2222 909 
Q 2959 909 3348 1275 
Q 3738 1641 3738 2338 
Q 3738 3031 3350 3393 
Q 2963 3756 2222 3756 
L 1791 3756 
z
M 588 4666 
L 1856 4666 
Q 2919 4666 3439 4514 
Q 3959 4363 4331 4000 
Q 4659 3684 4818 3271 
Q 4978 2859 4978 2338 
Q 4978 1809 4818 1395 
Q 4659 981 4331 666 
Q 3956 303 3431 151 
Q 2906 0 1856 0 
L 588 0 
L 588 4666 
z
" transform="scale(0.015625)"/>
     <path id="DejaVuSans-Bold-6d" d="M 3781 2919 
Q 3994 3244 4286 3414 
Q 4578 3584 4928 3584 
Q 5531 3584 5847 3212 
Q 6163 2841 6163 2131 
L 6163 0 
L 5038 0 
L 5038 1825 
Q 5041 1866 5042 1909 
Q 5044 1953 5044 2034 
Q 5044 2406 4934 2573 
Q 4825 2741 4581 2741 
Q 4263 2741 4089 2478 
Q 3916 2216 3909 1719 
L 3909 0 
L 2784 0 
L 2784 1825 
Q 2784 2406 2684 2573 
Q 2584 2741 2328 2741 
Q 2006 2741 1831 2477 
Q 1656 2213 1656 1722 
L 1656 0 
L 531 0 
L 531 3500 
L 1656 3500 
L 1656 2988 
Q 1863 3284 2130 3434 
Q 2397 3584 2719 3584 
Q 3081 3584 3359 3409 
Q 3638 3234 3781 2919 
z
" transform="scale(0.015625)"/>
     <path id="DejaVuSans-Bold-2d" d="M 347 2297 
L 2309 2297 
L 2309 1388 
L 347 1388 
L 347 2297 
z
" transform="scale(0.015625)"/>
     <path id="DejaVuSans-Bold-56" d="M 31 4666 
L 1241 4666 
L 2478 1222 
L 3713 4666 
L 4922 4666 
L 3194 0 
L 1759 0 
L 31 4666 
z
" transform="scale(0.015625)"/>
     <path id="DejaVuSans-Bold-6c" d="M 538 4863 
L 1656 4863 
L 1656 0 
L 538 0 
L 538 4863 
z
" transform="scale(0.015625)"/>
     <path id="DejaVuSans-Bold-75" d="M 500 1363 
L 500 3500 
L 1625 3500 
L 1625 3150 
Q 1625 2866 1622 2436 
Q 1619 2006 1619 1863 
Q 1619 1441 1641 1255 
Q 1663 1069 1716 984 
Q 1784 875 1895 815 
Q 2006 756 2150 756 
Q 2500 756 2700 1025 
Q 2900 1294 2900 1772 
L 2900 3500 
L 4019 3500 
L 4019 0 
L 2900 0 
L 2900 506 
Q 2647 200 2364 54 
Q 2081 -91 1741 -91 
Q 1134 -91 817 281 
Q 500 653 500 1363 
z
" transform="scale(0.015625)"/>
     <path id="DejaVuSans-Bold-43" d="M 4288 256 
Q 3956 84 3597 -3 
Q 3238 -91 2847 -91 
Q 1681 -91 1000 561 
Q 319 1213 319 2328 
Q 319 3447 1000 4098 
Q 1681 4750 2847 4750 
Q 3238 4750 3597 4662 
Q 3956 4575 4288 4403 
L 4288 3438 
Q 3953 3666 3628 3772 
Q 3303 3878 2944 3878 
Q 2300 3878 1931 3465 
Q 1563 3053 1563 2328 
Q 1563 1606 1931 1193 
Q 2300 781 2944 781 
Q 3303 781 3628 887 
Q 3953 994 4288 1222 
L 4288 256 
z
" transform="scale(0.015625)"/>
     <path id="DejaVuSans-Bold-76" d="M 97 3500 
L 1216 3500 
L 2088 1081 
L 2956 3500 
L 4078 3500 
L 2700 0 
L 1472 0 
L 97 3500 
z
" transform="scale(0.015625)"/>
    </defs>
    <use xlink:href="#DejaVuSans-Bold-44"/>
    <use xlink:href="#DejaVuSans-Bold-69" transform="translate(83.007812 0)"/>
    <use xlink:href="#DejaVuSans-Bold-61" transform="translate(117.285156 0)"/>
    <use xlink:href="#DejaVuSans-Bold-6d" transform="translate(184.765625 0)"/>
    <use xlink:href="#DejaVuSans-Bold-65" transform="translate(288.964844 0)"/>
    <use xlink:href="#DejaVuSans-Bold-74" transform="translate(356.787109 0)"/>
    <use xlink:href="#DejaVuSans-Bold-65" transform="translate(404.589844 0)"/>
    <use xlink:href="#DejaVuSans-Bold-72" transform="translate(472.412109 0)"/>
    <use xlink:href="#DejaVuSans-Bold-2d" transform="translate(521.728516 0)"/>
    <use xlink:href="#DejaVuSans-Bold-74" transform="translate(563.232422 0)"/>
    <use xlink:href="#DejaVuSans-Bold-6f" transform="translate(611.035156 0)"/>
    <use xlink:href="#DejaVuSans-Bold-2d" transform="translate(679.736328 0)"/>
    <use xlink:href="#DejaVuSans-Bold-56" transform="translate(713.990234 0)"/>
    <use xlink:href="#DejaVuSans-Bold-6f" transform="translate(785.882812 0)"/>
    <use xlink:href="#DejaVuSans-Bold-6c" transform="translate(854.583984 0)"/>
    <use xlink:href="#DejaVuSans-Bold-75" transform="translate(888.861328 0)"/>
    <use xlink:href="#DejaVuSans-Bold-6d" transform="translate(960.052734 0)"/>
    <use xlink:href="#DejaVuSans-Bold-65" transform="translate(1064.251953 0)"/>
    <use xlink:href="#DejaVuSans-Bold-20" transform="translate(1132.074219 0)"/>
    <use xlink:href="#DejaVuSans-Bold-43" transform="translate(1166.888672 0)"/>
    <use xlink:href="#DejaVuSans-Bold-61" transform="translate(1240.277344 0)"/>
    <use xlink:href="#DejaVuSans-Bold-6c" transform="translate(1307.757812 0)"/>
    <use xlink:href="#DejaVuSans-Bold-69" transform="translate(1342.035156 0)"/>
    <use xlink:href="#DejaVuSans-Bold-62" transform="translate(1376.3125 0)"/>
    <use xlink:href="#DejaVuSans-Bold-72" transform="translate(1447.894531 0)"/>
    <use xlink:href="#DejaVuSans-Bold-61" transform="translate(1497.210938 0)"/>
    <use xlink:href="#DejaVuSans-Bold-74" transform="translate(1564.691406 0)"/>
    <use xlink:href="#DejaVuSans-Bold-69" transform="translate(1612.494141 0)"/>
    <use xlink:href="#DejaVuSans-Bold-6f" transform="translate(1646.771484 0)"/>
    <use xlink:href="#DejaVuSans-Bold-6e" transform="translate(1715.472656 0)"/>
    <use xlink:href="#DejaVuSans-Bold-20" transform="translate(1786.664062 0)"/>
    <use xlink:href="#DejaVuSans-Bold-43" transform="translate(1821.478516 0)"/>
    <use xlink:href="#DejaVuSans-Bold-75" transform="translate(1894.867188 0)"/>
    <use xlink:href="#DejaVuSans-Bold-72" transform="translate(1966.058594 0)"/>
    <use xlink:href="#DejaVuSans-Bold-76" transform="translate(2015.375 0)"/>
    <use xlink:href="#DejaVuSans-Bold-65" transform="translate(2080.560547 0)"/>
   </g>
  </g>
  <g id="text_22">
   <!-- Calibration-style regression -->
   <g style="fill: #667085" transform="translate(12.957281 27.662531) scale(0.094 -0.094)">
    <defs>
     <path id="DejaVuSans-43" d="M 4122 4306 
L 4122 3641 
Q 3803 3938 3442 4084 
Q 3081 4231 2675 4231 
Q 1875 4231 1450 3742 
Q 1025 3253 1025 2328 
Q 1025 1406 1450 917 
Q 1875 428 2675 428 
Q 3081 428 3442 575 
Q 3803 722 4122 1019 
L 4122 359 
Q 3791 134 3420 21 
Q 3050 -91 2638 -91 
Q 1578 -91 968 557 
Q 359 1206 359 2328 
Q 359 3453 968 4101 
Q 1578 4750 2638 4750 
Q 3056 4750 3426 4639 
Q 3797 4528 4122 4306 
z
" transform="scale(0.015625)"/>
     <path id="DejaVuSans-61" d="M 2194 1759 
Q 1497 1759 1228 1600 
Q 959 1441 959 1056 
Q 959 750 1161 570 
Q 1363 391 1709 391 
Q 2188 391 2477 730 
Q 2766 1069 2766 1631 
L 2766 1759 
L 2194 1759 
z
M 3341 1997 
L 3341 0 
L 2766 0 
L 2766 531 
Q 2569 213 2275 61 
Q 1981 -91 1556 -91 
Q 1019 -91 701 211 
Q 384 513 384 1019 
Q 384 1609 779 1909 
Q 1175 2209 1959 2209 
L 2766 2209 
L 2766 2266 
Q 2766 2663 2505 2880 
Q 2244 3097 1772 3097 
Q 1472 3097 1187 3025 
Q 903 2953 641 2809 
L 641 3341 
Q 956 3463 1253 3523 
Q 1550 3584 1831 3584 
Q 2591 3584 2966 3190 
Q 3341 2797 3341 1997 
z
" transform="scale(0.015625)"/>
     <path id="DejaVuSans-62" d="M 3116 1747 
Q 3116 2381 2855 2742 
Q 2594 3103 2138 3103 
Q 1681 3103 1420 2742 
Q 1159 2381 1159 1747 
Q 1159 1113 1420 752 
Q 1681 391 2138 391 
Q 2594 391 2855 752 
Q 3116 1113 3116 1747 
z
M 1159 2969 
Q 1341 3281 1617 3432 
Q 1894 3584 2278 3584 
Q 2916 3584 3314 3078 
Q 3713 2572 3713 1747 
Q 3713 922 3314 415 
Q 2916 -91 2278 -91 
Q 1894 -91 1617 61 
Q 1341 213 1159 525 
L 1159 0 
L 581 0 
L 581 4863 
L 1159 4863 
L 1159 2969 
z
" transform="scale(0.015625)"/>
     <path id="DejaVuSans-6e" d="M 3513 2113 
L 3513 0 
L 2938 0 
L 2938 2094 
Q 2938 2591 2744 2837 
Q 2550 3084 2163 3084 
Q 1697 3084 1428 2787 
Q 1159 2491 1159 1978 
L 1159 0 
L 581 0 
L 581 3500 
L 1159 3500 
L 1159 2956 
Q 1366 3272 1645 3428 
Q 1925 3584 2291 3584 
Q 2894 3584 3203 3211 
Q 3513 2838 3513 2113 
z
" transform="scale(0.015625)"/>
     <path id="DejaVuSans-2d" d="M 313 2009 
L 1997 2009 
L 1997 1497 
L 313 1497 
L 313 2009 
z
" transform="scale(0.015625)"/>
     <path id="DejaVuSans-73" d="M 2834 3397 
L 2834 2853 
Q 2591 2978 2328 3040 
Q 2066 3103 1784 3103 
Q 1356 3103 1142 2972 
Q 928 2841 928 2578 
Q 928 2378 1081 2264 
Q 1234 2150 1697 2047 
L 1894 2003 
Q 2506 1872 2764 1633 
Q 3022 1394 3022 966 
Q 3022 478 2636 193 
Q 2250 -91 1575 -91 
Q 1294 -91 989 -36 
Q 684 19 347 128 
L 347 722 
Q 666 556 975 473 
Q 1284 391 1588 391 
Q 1994 391 2212 530 
Q 2431 669 2431 922 
Q 2431 1156 2273 1281 
Q 2116 1406 1581 1522 
L 1381 1569 
Q 847 1681 609 1914 
Q 372 2147 372 2553 
Q 372 3047 722 3315 
Q 1072 3584 1716 3584 
Q 2034 3584 2315 3537 
Q 2597 3491 2834 3397 
z
" transform="scale(0.015625)"/>
     <path id="DejaVuSans-79" d="M 2059 -325 
Q 1816 -950 1584 -1140 
Q 1353 -1331 966 -1331 
L 506 -1331 
L 506 -850 
L 844 -850 
Q 1081 -850 1212 -737 
Q 1344 -625 1503 -206 
L 1606 56 
L 191 3500 
L 800 3500 
L 1894 763 
L 2988 3500 
L 3597 3500 
L 2059 -325 
z
" transform="scale(0.015625)"/>
     <path id="DejaVuSans-67" d="M 2906 1791 
Q 2906 2416 2648 2759 
Q 2391 3103 1925 3103 
Q 1463 3103 1205 2759 
Q 947 2416 947 1791 
Q 947 1169 1205 825 
Q 1463 481 1925 481 
Q 2391 481 2648 825 
Q 2906 1169 2906 1791 
z
M 3481 434 
Q 3481 -459 3084 -895 
Q 2688 -1331 1869 -1331 
Q 1566 -1331 1297 -1286 
Q 1028 -1241 775 -1147 
L 775 -588 
Q 1028 -725 1275 -790 
Q 1522 -856 1778 -856 
Q 2344 -856 2625 -561 
Q 2906 -266 2906 331 
L 2906 616 
Q 2728 306 2450 153 
Q 2172 0 1784 0 
Q 1141 0 747 490 
Q 353 981 353 1791 
Q 353 2603 747 3093 
Q 1141 3584 1784 3584 
Q 2172 3584 2450 3431 
Q 2728 3278 2906 2969 
L 2906 3500 
L 3481 3500 
L 3481 434 
z
" transform="scale(0.015625)"/>
    </defs>
    <use xlink:href="#DejaVuSans-43"/>
    <use xlink:href="#DejaVuSans-61" transform="translate(69.824219 0)"/>
    <use xlink:href="#DejaVuSans-6c" transform="translate(131.103516 0)"/>
    <use xlink:href="#DejaVuSans-69" transform="translate(158.886719 0)"/>
    <use xlink:href="#DejaVuSans-62" transform="translate(186.669922 0)"/>
    <use xlink:href="#DejaVuSans-72" transform="translate(250.146484 0)"/>
    <use xlink:href="#DejaVuSans-61" transform="translate(291.259766 0)"/>
    <use xlink:href="#DejaVuSans-74" transform="translate(352.539062 0)"/>
    <use xlink:href="#DejaVuSans-69" transform="translate(391.748047 0)"/>
    <use xlink:href="#DejaVuSans-6f" transform="translate(419.53125 0)"/>
    <use xlink:href="#DejaVuSans-6e" transform="translate(480.712891 0)"/>
    <use xlink:href="#DejaVuSans-2d" transform="translate(544.091797 0)"/>
    <use xlink:href="#DejaVuSans-73" transform="translate(580.175781 0)"/>
    <use xlink:href="#DejaVuSans-74" transform="translate(632.275391 0)"/>
    <use xlink:href="#DejaVuSans-79" transform="translate(671.484375 0)"/>
    <use xlink:href="#DejaVuSans-6c" transform="translate(730.664062 0)"/>
    <use xlink:href="#DejaVuSans-65" transform="translate(758.447266 0)"/>
    <use xlink:href="#DejaVuSans-20" transform="translate(819.970703 0)"/>
    <use xlink:href="#DejaVuSans-72" transform="translate(851.757812 0)"/>
    <use xlink:href="#DejaVuSans-65" transform="translate(890.621094 0)"/>
    <use xlink:href="#DejaVuSans-67" transform="translate(952.144531 0)"/>
    <use xlink:href="#DejaVuSans-72" transform="translate(1015.621094 0)"/>
    <use xlink:href="#DejaVuSans-65" transform="translate(1054.484375 0)"/>
    <use xlink:href="#DejaVuSans-73" transform="translate(1116.007812 0)"/>
    <use xlink:href="#DejaVuSans-73" transform="translate(1168.107422 0)"/>
    <use xlink:href="#DejaVuSans-69" transform="translate(1220.207031 0)"/>
    <use xlink:href="#DejaVuSans-6f" transform="translate(1247.990234 0)"/>
    <use xlink:href="#DejaVuSans-6e" transform="translate(1309.171875 0)"/>
   </g>
  </g>
 </g>
 <defs>
  <clipPath id="pa7a91c8af6">
   <rect x="46.423281" y="66.85" width="441.932" height="226.6"/>
  </clipPath>
 </defs>
</svg>
