<?xml version="1.0" encoding="utf-8" standalone="no"?>
<!DOCTYPE svg PUBLIC "-//W3C//DTD SVG 1.1//EN"
  "http://www.w3.org/Graphics/SVG/1.1/DTD/svg11.dtd">
<svg xmlns:xlink="http://www.w3.org/1999/xlink" width="550.410609pt" height="347.330063pt" viewBox="0 0 550.410609 347.330063" xmlns="http://www.w3.org/2000/svg" version="1.1">
 <metadata>
  <rdf:RDF xmlns:dc="http://purl.org/dc/elements/1.1/" xmlns:cc="http://creativecommons.org/ns#" xmlns:rdf="http://www.w3.org/1999/02/22-rdf-syntax-ns#">
   <cc:Work>
    <dc:type rdf:resource="http://purl.org/dc/dcmitype/StillImage"/>
    <dc:date>2026-03-18T11:03:51.742733</dc:date>
    <dc:format>image/svg+xml</dc:format>
    <dc:creator>
     <cc:Agent>
      <dc:title>Matplotlib v3.10.8, https://matplotlib.org/</dc:title>
     </cc:Agent>
    </dc:creator>
   </cc:Work>
  </rdf:RDF>
 </metadata>
 <defs>
  <style type="text/css">*{stroke-linejoin: round; stroke-linecap: butt}</style>
 </defs>
 <g id="figure_1">
  <g id="patch_1">
   <path d="M -0 347.330063 
L 550.410609 347.330063 
L 550.410609 0 
L -0 0 
z
" style="fill: #ffffff"/>
  </g>
  <g id="axes_1">
   <g id="patch_2">
    <path d="M 42.644609 308.106 
L 543.210609 308.106 
L 543.210609 67.786 
L 42.644609 67.786 
z
" style="fill: #ffffff"/>
   </g>
   <g id="matplotlib.axis_1">
    <g id="xtick_1">
     <g id="line2d_1">
      <path d="M 270.742304 308.106 
L 270.742304 67.786 
" clip-path="url(#pb5d0f868a3)" style="fill: none; stroke: #e6ebf1; stroke-width: 0.9; stroke-linecap: square"/>
     </g>
     <g id="line2d_2">
      <defs>
       <path id="m938f12d330" d="M 0 0 
L 0 4.2 
" style="stroke: #4b5563"/>
      </defs>
      <g>
       <use xlink:href="#m938f12d330" x="270.742304" y="308.106" style="fill: #4b5563; stroke: #4b5563"/>
      </g>
     </g>
     <g id="text_1">
      <!-- $\mathdefault{10^{0}}$ -->
      <g style="fill: #4b5563" transform="translate(261.502304 323.784359) scale(0.105 -0.105)">
       <defs>
        <path id="DejaVuSans-31" d="M 794 531 
L 1825 531 
L 1825 4091 
L 703 3866 
L 703 4441 
L 1819 4666 
L 2450 4666 
L 2450 531 
L 3481 531 
L 3481 0 
L 794 0 
L 794 531 
z
" transform="scale(0.015625)"/>
        <path id="DejaVuSans-30" d="M 2034 4250 
Q 1547 4250 1301 3770 
Q 1056 3291 1056 2328 
Q 1056 1369 1301 889 
Q 1547 409 2034 409 
Q 2525 409 2770 889 
Q 3016 1369 3016 2328 
Q 3016 3291 2770 3770 
Q 2525 4250 2034 4250 
z
M 2034 4750 
Q 2819 4750 3233 4129 
Q 3647 3509 3647 2328 
Q 3647 1150 3233 529 
Q 2819 -91 2034 -91 
Q 1250 -91 836 529 
Q 422 1150 422 2328 
Q 422 3509 836 4129 
Q 1250 4750 2034 4750 
z
" transform="scale(0.015625)"/>
       </defs>
       <use xlink:href="#DejaVuSans-31" transform="translate(0 0.765625)"/>
       <use xlink:href="#DejaVuSans-30" transform="translate(63.623047 0.765625)"/>
       <use xlink:href="#DejaVuSans-30" transform="translate(128.203125 39.046875) scale(0.7)"/>
      </g>
     </g>
    </g>
    <g id="xtick_2">
     <g id="line2d_3">
      <defs>
       <path id="mf990c820e0" d="M 0 0 
L 0 2 
" style="stroke: #4b5563; stroke-width: 0.6"/>
      </defs>
      <g>
       <use xlink:href="#mf990c820e0" x="82.100155" y="308.106" style="fill: #4b5563; stroke: #4b5563; stroke-width: 0.6"/>
      </g>
     </g>
    </g>
    <g id="xtick_3">
     <g id="line2d_4">
      <g>
       <use xlink:href="#mf990c820e0" x="131.719531" y="308.106" style="fill: #4b5563; stroke: #4b5563; stroke-width: 0.6"/>
      </g>
     </g>
     <g id="text_2">
      <!-- $\mathdefault{6\times10^{-1}}$ -->
      <g style="fill: #4b5563" transform="translate(109.617031 321.484359) scale(0.105 -0.105)">
       <defs>
        <path id="DejaVuSans-36" d="M 2113 2584 
Q 1688 2584 1439 2293 
Q 1191 2003 1191 1497 
Q 1191 994 1439 701 
Q 1688 409 2113 409 
Q 2538 409 2786 701 
Q 3034 994 3034 1497 
Q 3034 2003 2786 2293 
Q 2538 2584 2113 2584 
z
M 3366 4563 
L 3366 3988 
Q 3128 4100 2886 4159 
Q 2644 4219 2406 4219 
Q 1781 4219 1451 3797 
Q 1122 3375 1075 2522 
Q 1259 2794 1537 2939 
Q 1816 3084 2150 3084 
Q 2853 3084 3261 2657 
Q 3669 2231 3669 1497 
Q 3669 778 3244 343 
Q 2819 -91 2113 -91 
Q 1303 -91 875 529 
Q 447 1150 447 2328 
Q 447 3434 972 4092 
Q 1497 4750 2381 4750 
Q 2619 4750 2861 4703 
Q 3103 4656 3366 4563 
z
" transform="scale(0.015625)"/>
        <path id="DejaVuSans-d7" d="M 4488 3438 
L 3059 2003 
L 4488 575 
L 4116 197 
L 2681 1631 
L 1247 197 
L 878 575 
L 2303 2003 
L 878 3438 
L 1247 3816 
L 2681 2381 
L 4116 3816 
L 4488 3438 
z
" transform="scale(0.015625)"/>
        <path id="DejaVuSans-2212" d="M 678 2272 
L 4684 2272 
L 4684 1741 
L 678 1741 
L 678 2272 
z
" transform="scale(0.015625)"/>
       </defs>
       <use xlink:href="#DejaVuSans-36" transform="translate(0 0.684375)"/>
       <use xlink:href="#DejaVuSans-d7" transform="translate(83.105469 0.684375)"/>
       <use xlink:href="#DejaVuSans-31" transform="translate(186.376953 0.684375)"/>
       <use xlink:href="#DejaVuSans-30" transform="translate(250 0.684375)"/>
       <use xlink:href="#DejaVuSans-2212" transform="translate(314.580078 38.965625) scale(0.7)"/>
       <use xlink:href="#DejaVuSans-31" transform="translate(373.232422 38.965625) scale(0.7)"/>
      </g>
     </g>
    </g>
    <g id="xtick_4">
     <g id="line2d_5">
      <g>
       <use xlink:href="#mf990c820e0" x="173.672115" y="308.106" style="fill: #4b5563; stroke: #4b5563; stroke-width: 0.6"/>
      </g>
     </g>
    </g>
    <g id="xtick_5">
     <g id="line2d_6">
      <g>
       <use xlink:href="#mf990c820e0" x="210.013096" y="308.106" style="fill: #4b5563; stroke: #4b5563; stroke-width: 0.6"/>
      </g>
     </g>
    </g>
    <g id="xtick_6">
     <g id="line2d_7">
      <g>
       <use xlink:href="#mf990c820e0" x="242.068114" y="308.106" style="fill: #4b5563; stroke: #4b5563; stroke-width: 0.6"/>
      </g>
     </g>
    </g>
    <g id="xtick_7">
     <g id="line2d_8">
      <g>
       <use xlink:href="#mf990c820e0" x="459.384453" y="308.106" style="fill: #4b5563; stroke: #4b5563; stroke-width: 0.6"/>
      </g>
     </g>
     <g id="text_3">
      <!-- $\mathdefault{2\times10^{0}}$ -->
      <g style="fill: #4b5563" transform="translate(440.379453 321.484359) scale(0.105 -0.105)">
       <defs>
        <path id="DejaVuSans-32" d="M 1228 531 
L 3431 531 
L 3431 0 
L 469 0 
L 469 531 
Q 828 903 1448 1529 
Q 2069 2156 2228 2338 
Q 2531 2678 2651 2914 
Q 2772 3150 2772 3378 
Q 2772 3750 2511 3984 
Q 2250 4219 1831 4219 
Q 1534 4219 1204 4116 
Q 875 4013 500 3803 
L 500 4441 
Q 881 4594 1212 4672 
Q 1544 4750 1819 4750 
Q 2544 4750 2975 4387 
Q 3406 4025 3406 3419 
Q 3406 3131 3298 2873 
Q 3191 2616 2906 2266 
Q 2828 2175 2409 1742 
Q 1991 1309 1228 531 
z
" transform="scale(0.015625)"/>
       </defs>
       <use xlink:href="#DejaVuSans-32" transform="translate(0 0.765625)"/>
       <use xlink:href="#DejaVuSans-d7" transform="translate(83.105469 0.765625)"/>
       <use xlink:href="#DejaVuSans-31" transform="translate(186.376953 0.765625)"/>
       <use xlink:href="#DejaVuSans-30" transform="translate(250 0.765625)"/>
       <use xlink:href="#DejaVuSans-30" transform="translate(314.580078 39.046875) scale(0.7)"/>
      </g>
     </g>
    </g>
    <g id="text_4">
     <!-- Hazard ratio -->
     <g style="fill: #252b33" transform="translate(260.617141 337.946391) scale(0.105 -0.105)">
      <defs>
       <path id="DejaVuSans-48" d="M 628 4666 
L 1259 4666 
L 1259 2753 
L 3553 2753 
L 3553 4666 
L 4184 4666 
L 4184 0 
L 3553 0 
L 3553 2222 
L 1259 2222 
L 1259 0 
L 628 0 
L 628 4666 
z
" transform="scale(0.015625)"/>
       <path id="DejaVuSans-61" d="M 2194 1759 
Q 1497 1759 1228 1600 
Q 959 1441 959 1056 
Q 959 750 1161 570 
Q 1363 391 1709 391 
Q 2188 391 2477 730 
Q 2766 1069 2766 1631 
L 2766 1759 
L 2194 1759 
z
M 3341 1997 
L 3341 0 
L 2766 0 
L 2766 531 
Q 2569 213 2275 61 
Q 1981 -91 1556 -91 
Q 1019 -91 701 211 
Q 384 513 384 1019 
Q 384 1609 779 1909 
Q 1175 2209 1959 2209 
L 2766 2209 
L 2766 2266 
Q 2766 2663 2505 2880 
Q 2244 3097 1772 3097 
Q 1472 3097 1187 3025 
Q 903 2953 641 2809 
L 641 3341 
Q 956 3463 1253 3523 
Q 1550 3584 1831 3584 
Q 2591 3584 2966 3190 
Q 3341 2797 3341 1997 
z
" transform="scale(0.015625)"/>
       <path id="DejaVuSans-7a" d="M 353 3500 
L 3084 3500 
L 3084 2975 
L 922 459 
L 3084 459 
L 3084 0 
L 275 0 
L 275 525 
L 2438 3041 
L 353 3041 
L 353 3500 
z
" transform="scale(0.015625)"/>
       <path id="DejaVuSans-72" d="M 2631 2963 
Q 2534 3019 2420 3045 
Q 2306 3072 2169 3072 
Q 1681 3072 1420 2755 
Q 1159 2438 1159 1844 
L 1159 0 
L 581 0 
L 581 3500 
L 1159 3500 
L 1159 2956 
Q 1341 3275 1631 3429 
Q 1922 3584 2338 3584 
Q 2397 3584 2469 3576 
Q 2541 3569 2628 3553 
L 2631 2963 
z
" transform="scale(0.015625)"/>
       <path id="DejaVuSans-64" d="M 2906 2969 
L 2906 4863 
L 3481 4863 
L 3481 0 
L 2906 0 
L 2906 525 
Q 2725 213 2448 61 
Q 2172 -91 1784 -91 
Q 1150 -91 751 415 
Q 353 922 353 1747 
Q 353 2572 751 3078 
Q 1150 3584 1784 3584 
Q 2172 3584 2448 3432 
Q 2725 3281 2906 2969 
z
M 947 1747 
Q 947 1113 1208 752 
Q 1469 391 1925 391 
Q 2381 391 2643 752 
Q 2906 1113 2906 1747 
Q 2906 2381 2643 2742 
Q 2381 3103 1925 3103 
Q 1469 3103 1208 2742 
Q 947 2381 947 1747 
z
" transform="scale(0.015625)"/>
       <path id="DejaVuSans-20" transform="scale(0.015625)"/>
       <path id="DejaVuSans-74" d="M 1172 4494 
L 1172 3500 
L 2356 3500 
L 2356 3053 
L 1172 3053 
L 1172 1153 
Q 1172 725 1289 603 
Q 1406 481 1766 481 
L 2356 481 
L 2356 0 
L 1766 0 
Q 1100 0 847 248 
Q 594 497 594 1153 
L 594 3053 
L 172 3053 
L 172 3500 
L 594 3500 
L 594 4494 
L 1172 4494 
z
" transform="scale(0.015625)"/>
       <path id="DejaVuSans-69" d="M 603 3500 
L 1178 3500 
L 1178 0 
L 603 0 
L 603 3500 
z
M 603 4863 
L 1178 4863 
L 1178 4134 
L 603 4134 
L 603 4863 
z
" transform="scale(0.015625)"/>
       <path id="DejaVuSans-6f" d="M 1959 3097 
Q 1497 3097 1228 2736 
Q 959 2375 959 1747 
Q 959 1119 1226 758 
Q 1494 397 1959 397 
Q 2419 397 2687 759 
Q 2956 1122 2956 1747 
Q 2956 2369 2687 2733 
Q 2419 3097 1959 3097 
z
M 1959 3584 
Q 2709 3584 3137 3096 
Q 3566 2609 3566 1747 
Q 3566 888 3137 398 
Q 2709 -91 1959 -91 
Q 1206 -91 779 398 
Q 353 888 353 1747 
Q 353 2609 779 3096 
Q 1206 3584 1959 3584 
z
" transform="scale(0.015625)"/>
      </defs>
      <use xlink:href="#DejaVuSans-48"/>
      <use xlink:href="#DejaVuSans-61" transform="translate(75.195312 0)"/>
      <use xlink:href="#DejaVuSans-7a" transform="translate(136.474609 0)"/>
      <use xlink:href="#DejaVuSans-61" transform="translate(188.964844 0)"/>
      <use xlink:href="#DejaVuSans-72" transform="translate(250.244141 0)"/>
      <use xlink:href="#DejaVuSans-64" transform="translate(289.607422 0)"/>
      <use xlink:href="#DejaVuSans-20" transform="translate(353.083984 0)"/>
      <use xlink:href="#DejaVuSans-72" transform="translate(384.871094 0)"/>
      <use xlink:href="#DejaVuSans-61" transform="translate(425.984375 0)"/>
      <use xlink:href="#DejaVuSans-74" transform="translate(487.263672 0)"/>
      <use xlink:href="#DejaVuSans-69" transform="translate(526.472656 0)"/>
      <use xlink:href="#DejaVuSans-6f" transform="translate(554.255859 0)"/>
     </g>
    </g>
   </g>
   <g id="matplotlib.axis_2">
    <g id="ytick_1">
     <g id="line2d_9">
      <defs>
       <path id="m08b6a20241" d="M 0 0 
L -4.2 0 
" style="stroke: #4b5563"/>
      </defs>
      <g>
       <use xlink:href="#m08b6a20241" x="42.644609" y="297.182364" style="fill: #4b5563; stroke: #4b5563"/>
      </g>
     </g>
     <g id="text_5">
      <!-- race -->
      <g style="fill: #4b5563" transform="translate(11.959453 301.171543) scale(0.105 -0.105)">
       <defs>
        <path id="DejaVuSans-63" d="M 3122 3366 
L 3122 2828 
Q 2878 2963 2633 3030 
Q 2388 3097 2138 3097 
Q 1578 3097 1268 2742 
Q 959 2388 959 1747 
Q 959 1106 1268 751 
Q 1578 397 2138 397 
Q 2388 397 2633 464 
Q 2878 531 3122 666 
L 3122 134 
Q 2881 22 2623 -34 
Q 2366 -91 2075 -91 
Q 1284 -91 818 406 
Q 353 903 353 1747 
Q 353 2603 823 3093 
Q 1294 3584 2113 3584 
Q 2378 3584 2631 3529 
Q 2884 3475 3122 3366 
z
" transform="scale(0.015625)"/>
        <path id="DejaVuSans-65" d="M 3597 1894 
L 3597 1613 
L 953 1613 
Q 991 1019 1311 708 
Q 1631 397 2203 397 
Q 2534 397 2845 478 
Q 3156 559 3463 722 
L 3463 178 
Q 3153 47 2828 -22 
Q 2503 -91 2169 -91 
Q 1331 -91 842 396 
Q 353 884 353 1716 
Q 353 2575 817 3079 
Q 1281 3584 2069 3584 
Q 2775 3584 3186 3129 
Q 3597 2675 3597 1894 
z
M 3022 2063 
Q 3016 2534 2758 2815 
Q 2500 3097 2075 3097 
Q 1594 3097 1305 2825 
Q 1016 2553 972 2059 
L 3022 2063 
z
" transform="scale(0.015625)"/>
       </defs>
       <use xlink:href="#DejaVuSans-72"/>
       <use xlink:href="#DejaVuSans-61" transform="translate(41.113281 0)"/>
       <use xlink:href="#DejaVuSans-63" transform="translate(102.392578 0)"/>
       <use xlink:href="#DejaVuSans-65" transform="translate(157.373047 0)"/>
      </g>
     </g>
    </g>
    <g id="ytick_2">
     <g id="line2d_10">
      <g>
       <use xlink:href="#m08b6a20241" x="42.644609" y="253.487818" style="fill: #4b5563; stroke: #4b5563"/>
      </g>
     </g>
     <g id="text_6">
      <!-- prio -->
      <g style="fill: #4b5563" transform="translate(14.620547 257.476998) scale(0.105 -0.105)">
       <defs>
        <path id="DejaVuSans-70" d="M 1159 525 
L 1159 -1331 
L 581 -1331 
L 581 3500 
L 1159 3500 
L 1159 2969 
Q 1341 3281 1617 3432 
Q 1894 3584 2278 3584 
Q 2916 3584 3314 3078 
Q 3713 2572 3713 1747 
Q 3713 922 3314 415 
Q 2916 -91 2278 -91 
Q 1894 -91 1617 61 
Q 1341 213 1159 525 
z
M 3116 1747 
Q 3116 2381 2855 2742 
Q 2594 3103 2138 3103 
Q 1681 3103 1420 2742 
Q 1159 2381 1159 1747 
Q 1159 1113 1420 752 
Q 1681 391 2138 391 
Q 2594 391 2855 752 
Q 3116 1113 3116 1747 
z
" transform="scale(0.015625)"/>
       </defs>
       <use xlink:href="#DejaVuSans-70"/>
       <use xlink:href="#DejaVuSans-72" transform="translate(63.476562 0)"/>
       <use xlink:href="#DejaVuSans-69" transform="translate(104.589844 0)"/>
       <use xlink:href="#DejaVuSans-6f" transform="translate(132.373047 0)"/>
      </g>
     </g>
    </g>
    <g id="ytick_3">
     <g id="line2d_11">
      <g>
       <use xlink:href="#m08b6a20241" x="42.644609" y="209.793273" style="fill: #4b5563; stroke: #4b5563"/>
      </g>
     </g>
     <g id="text_7">
      <!-- age -->
      <g style="fill: #4b5563" transform="translate(15.383437 213.782452) scale(0.105 -0.105)">
       <defs>
        <path id="DejaVuSans-67" d="M 2906 1791 
Q 2906 2416 2648 2759 
Q 2391 3103 1925 3103 
Q 1463 3103 1205 2759 
Q 947 2416 947 1791 
Q 947 1169 1205 825 
Q 1463 481 1925 481 
Q 2391 481 2648 825 
Q 2906 1169 2906 1791 
z
M 3481 434 
Q 3481 -459 3084 -895 
Q 2688 -1331 1869 -1331 
Q 1566 -1331 1297 -1286 
Q 1028 -1241 775 -1147 
L 775 -588 
Q 1028 -725 1275 -790 
Q 1522 -856 1778 -856 
Q 2344 -856 2625 -561 
Q 2906 -266 2906 331 
L 2906 616 
Q 2728 306 2450 153 
Q 2172 0 1784 0 
Q 1141 0 747 490 
Q 353 981 353 1791 
Q 353 2603 747 3093 
Q 1141 3584 1784 3584 
Q 2172 3584 2450 3431 
Q 2728 3278 2906 2969 
L 2906 3500 
L 3481 3500 
L 3481 434 
z
" transform="scale(0.015625)"/>
       </defs>
       <use xlink:href="#DejaVuSans-61"/>
       <use xlink:href="#DejaVuSans-67" transform="translate(61.279297 0)"/>
       <use xlink:href="#DejaVuSans-65" transform="translate(124.755859 0)"/>
      </g>
     </g>
    </g>
    <g id="ytick_4">
     <g id="line2d_12">
      <g>
       <use xlink:href="#m08b6a20241" x="42.644609" y="166.098727" style="fill: #4b5563; stroke: #4b5563"/>
      </g>
     </g>
     <g id="text_8">
      <!-- paro -->
      <g style="fill: #4b5563" transform="translate(11.339297 170.087907) scale(0.105 -0.105)">
       <use xlink:href="#DejaVuSans-70"/>
       <use xlink:href="#DejaVuSans-61" transform="translate(63.476562 0)"/>
       <use xlink:href="#DejaVuSans-72" transform="translate(124.755859 0)"/>
       <use xlink:href="#DejaVuSans-6f" transform="translate(163.619141 0)"/>
      </g>
     </g>
    </g>
    <g id="ytick_5">
     <g id="line2d_13">
      <g>
       <use xlink:href="#m08b6a20241" x="42.644609" y="122.404182" style="fill: #4b5563; stroke: #4b5563"/>
      </g>
     </g>
     <g id="text_9">
      <!-- wexp -->
      <g style="fill: #4b5563" transform="translate(7.2 126.393362) scale(0.105 -0.105)">
       <defs>
        <path id="DejaVuSans-77" d="M 269 3500 
L 844 3500 
L 1563 769 
L 2278 3500 
L 2956 3500 
L 3675 769 
L 4391 3500 
L 4966 3500 
L 4050 0 
L 3372 0 
L 2619 2869 
L 1863 0 
L 1184 0 
L 269 3500 
z
" transform="scale(0.015625)"/>
        <path id="DejaVuSans-78" d="M 3513 3500 
L 2247 1797 
L 3578 0 
L 2900 0 
L 1881 1375 
L 863 0 
L 184 0 
L 1544 1831 
L 300 3500 
L 978 3500 
L 1906 2253 
L 2834 3500 
L 3513 3500 
z
" transform="scale(0.015625)"/>
       </defs>
       <use xlink:href="#DejaVuSans-77"/>
       <use xlink:href="#DejaVuSans-65" transform="translate(81.787109 0)"/>
       <use xlink:href="#DejaVuSans-78" transform="translate(141.560547 0)"/>
       <use xlink:href="#DejaVuSans-70" transform="translate(200.740234 0)"/>
      </g>
     </g>
    </g>
    <g id="ytick_6">
     <g id="line2d_14">
      <g>
       <use xlink:href="#m08b6a20241" x="42.644609" y="78.709636" style="fill: #4b5563; stroke: #4b5563"/>
      </g>
     </g>
     <g id="text_10">
      <!-- fin -->
      <g style="fill: #4b5563" transform="translate(21.676875 82.698816) scale(0.105 -0.105)">
       <defs>
        <path id="DejaVuSans-66" d="M 2375 4863 
L 2375 4384 
L 1825 4384 
Q 1516 4384 1395 4259 
Q 1275 4134 1275 3809 
L 1275 3500 
L 2222 3500 
L 2222 3053 
L 1275 3053 
L 1275 0 
L 697 0 
L 697 3053 
L 147 3053 
L 147 3500 
L 697 3500 
L 697 3744 
Q 697 4328 969 4595 
Q 1241 4863 1831 4863 
L 2375 4863 
z
" transform="scale(0.015625)"/>
        <path id="DejaVuSans-6e" d="M 3513 2113 
L 3513 0 
L 2938 0 
L 2938 2094 
Q 2938 2591 2744 2837 
Q 2550 3084 2163 3084 
Q 1697 3084 1428 2787 
Q 1159 2491 1159 1978 
L 1159 0 
L 581 0 
L 581 3500 
L 1159 3500 
L 1159 2956 
Q 1366 3272 1645 3428 
Q 1925 3584 2291 3584 
Q 2894 3584 3203 3211 
Q 3513 2838 3513 2113 
z
" transform="scale(0.015625)"/>
       </defs>
       <use xlink:href="#DejaVuSans-66"/>
       <use xlink:href="#DejaVuSans-69" transform="translate(35.205078 0)"/>
       <use xlink:href="#DejaVuSans-6e" transform="translate(62.988281 0)"/>
      </g>
     </g>
    </g>
   </g>
   <g id="LineCollection_1">
    <path d="M 191.884595 297.182364 
L 520.457609 297.182364 
" clip-path="url(#pb5d0f868a3)" style="fill: none; stroke: #c8d1dc; stroke-width: 3.6"/>
    <path d="M 280.362087 253.487818 
L 310.924948 253.487818 
" clip-path="url(#pb5d0f868a3)" style="fill: none; stroke: #c8d1dc; stroke-width: 3.6"/>
    <path d="M 243.375702 209.793273 
L 266.845189 209.793273 
" clip-path="url(#pb5d0f868a3)" style="fill: none; stroke: #c8d1dc; stroke-width: 3.6"/>
    <path d="M 143.22576 166.098727 
L 352.062994 166.098727 
" clip-path="url(#pb5d0f868a3)" style="fill: none; stroke: #c8d1dc; stroke-width: 3.6"/>
    <path d="M 116.772323 122.404182 
L 343.177558 122.404182 
" clip-path="url(#pb5d0f868a3)" style="fill: none; stroke: #c8d1dc; stroke-width: 3.6"/>
    <path d="M 65.397609 78.709636 
L 269.565167 78.709636 
" clip-path="url(#pb5d0f868a3)" style="fill: none; stroke: #c8d1dc; stroke-width: 3.6"/>
   </g>
   <g id="line2d_15">
    <path d="M 270.742304 308.106 
L 270.742304 67.786 
" clip-path="url(#pb5d0f868a3)" style="fill: none; stroke-dasharray: 3.7,1.6; stroke-dashoffset: 0; stroke: #20252c"/>
   </g>
   <g id="patch_3">
    <path d="M 42.644609 308.106 
L 42.644609 67.786 
" style="fill: none; stroke: #252b33; stroke-width: 1.1; stroke-linejoin: miter; stroke-linecap: square"/>
   </g>
   <g id="patch_4">
    <path d="M 42.644609 308.106 
L 543.210609 308.106 
" style="fill: none; stroke: #252b33; stroke-width: 1.1; stroke-linejoin: miter; stroke-linecap: square"/>
   </g>
   <g id="PathCollection_1">
    <defs>
     <path id="m73c9a9c467" d="M 0 3.807887 
C 1.009863 3.807887 1.978501 3.406664 2.692582 2.692582 
C 3.406664 1.978501 3.807887 1.009863 3.807887 0 
C 3.807887 -1.009863 3.406664 -1.978501 2.692582 -2.692582 
C 1.978501 -3.406664 1.009863 -3.807887 0 -3.807887 
C -1.009863 -3.807887 -1.978501 -3.406664 -2.692582 -2.692582 
C -3.406664 -1.978501 -3.807887 -1.009863 -3.807887 0 
C -3.807887 1.009863 -3.406664 1.978501 -2.692582 2.692582 
C -1.978501 3.406664 -1.009863 3.807887 0 3.807887 
z
" style="stroke: #4a7ebb"/>
    </defs>
    <g clip-path="url(#pb5d0f868a3)">
     <use xlink:href="#m73c9a9c467" x="356.171102" y="297.182364" style="fill: #4a7ebb; stroke: #4a7ebb"/>
     <use xlink:href="#m73c9a9c467" x="295.643518" y="253.487818" style="fill: #4a7ebb; stroke: #4a7ebb"/>
     <use xlink:href="#m73c9a9c467" x="255.110445" y="209.793273" style="fill: #4a7ebb; stroke: #4a7ebb"/>
     <use xlink:href="#m73c9a9c467" x="247.644377" y="166.098727" style="fill: #4a7ebb; stroke: #4a7ebb"/>
     <use xlink:href="#m73c9a9c467" x="229.97494" y="122.404182" style="fill: #4a7ebb; stroke: #4a7ebb"/>
     <use xlink:href="#m73c9a9c467" x="167.481388" y="78.709636" style="fill: #4a7ebb; stroke: #4a7ebb"/>
    </g>
   </g>
   <g id="text_11">
    <!-- Higher than 1 means higher hazard -->
    <g transform="translate(42.644609 51.786) scale(0.145 -0.145)">
     <defs>
      <path id="DejaVuSans-Bold-48" d="M 588 4666 
L 1791 4666 
L 1791 2888 
L 3566 2888 
L 3566 4666 
L 4769 4666 
L 4769 0 
L 3566 0 
L 3566 1978 
L 1791 1978 
L 1791 0 
L 588 0 
L 588 4666 
z
" transform="scale(0.015625)"/>
      <path id="DejaVuSans-Bold-69" d="M 538 3500 
L 1656 3500 
L 1656 0 
L 538 0 
L 538 3500 
z
M 538 4863 
L 1656 4863 
L 1656 3950 
L 538 3950 
L 538 4863 
z
" transform="scale(0.015625)"/>
      <path id="DejaVuSans-Bold-67" d="M 2919 594 
Q 2688 288 2409 144 
Q 2131 0 1766 0 
Q 1125 0 706 504 
Q 288 1009 288 1791 
Q 288 2575 706 3076 
Q 1125 3578 1766 3578 
Q 2131 3578 2409 3434 
Q 2688 3291 2919 2981 
L 2919 3500 
L 4044 3500 
L 4044 353 
Q 4044 -491 3511 -936 
Q 2978 -1381 1966 -1381 
Q 1638 -1381 1331 -1331 
Q 1025 -1281 716 -1178 
L 716 -306 
Q 1009 -475 1290 -558 
Q 1572 -641 1856 -641 
Q 2406 -641 2662 -400 
Q 2919 -159 2919 353 
L 2919 594 
z
M 2181 2772 
Q 1834 2772 1640 2515 
Q 1447 2259 1447 1791 
Q 1447 1309 1634 1061 
Q 1822 813 2181 813 
Q 2531 813 2725 1069 
Q 2919 1325 2919 1791 
Q 2919 2259 2725 2515 
Q 2531 2772 2181 2772 
z
" transform="scale(0.015625)"/>
      <path id="DejaVuSans-Bold-68" d="M 4056 2131 
L 4056 0 
L 2931 0 
L 2931 347 
L 2931 1625 
Q 2931 2084 2911 2256 
Q 2891 2428 2841 2509 
Q 2775 2619 2662 2680 
Q 2550 2741 2406 2741 
Q 2056 2741 1856 2470 
Q 1656 2200 1656 1722 
L 1656 0 
L 538 0 
L 538 4863 
L 1656 4863 
L 1656 2988 
Q 1909 3294 2193 3439 
Q 2478 3584 2822 3584 
Q 3428 3584 3742 3212 
Q 4056 2841 4056 2131 
z
" transform="scale(0.015625)"/>
      <path id="DejaVuSans-Bold-65" d="M 4031 1759 
L 4031 1441 
L 1416 1441 
Q 1456 1047 1700 850 
Q 1944 653 2381 653 
Q 2734 653 3104 758 
Q 3475 863 3866 1075 
L 3866 213 
Q 3469 63 3072 -14 
Q 2675 -91 2278 -91 
Q 1328 -91 801 392 
Q 275 875 275 1747 
Q 275 2603 792 3093 
Q 1309 3584 2216 3584 
Q 3041 3584 3536 3087 
Q 4031 2591 4031 1759 
z
M 2881 2131 
Q 2881 2450 2695 2645 
Q 2509 2841 2209 2841 
Q 1884 2841 1681 2658 
Q 1478 2475 1428 2131 
L 2881 2131 
z
" transform="scale(0.015625)"/>
      <path id="DejaVuSans-Bold-72" d="M 3138 2547 
Q 2991 2616 2845 2648 
Q 2700 2681 2553 2681 
Q 2122 2681 1889 2404 
Q 1656 2128 1656 1613 
L 1656 0 
L 538 0 
L 538 3500 
L 1656 3500 
L 1656 2925 
Q 1872 3269 2151 3426 
Q 2431 3584 2822 3584 
Q 2878 3584 2943 3579 
Q 3009 3575 3134 3559 
L 3138 2547 
z
" transform="scale(0.015625)"/>
      <path id="DejaVuSans-Bold-20" transform="scale(0.015625)"/>
      <path id="DejaVuSans-Bold-74" d="M 1759 4494 
L 1759 3500 
L 2913 3500 
L 2913 2700 
L 1759 2700 
L 1759 1216 
Q 1759 972 1856 886 
Q 1953 800 2241 800 
L 2816 800 
L 2816 0 
L 1856 0 
Q 1194 0 917 276 
Q 641 553 641 1216 
L 641 2700 
L 84 2700 
L 84 3500 
L 641 3500 
L 641 4494 
L 1759 4494 
z
" transform="scale(0.015625)"/>
      <path id="DejaVuSans-Bold-61" d="M 2106 1575 
Q 1756 1575 1579 1456 
Q 1403 1338 1403 1106 
Q 1403 894 1545 773 
Q 1688 653 1941 653 
Q 2256 653 2472 879 
Q 2688 1106 2688 1447 
L 2688 1575 
L 2106 1575 
z
M 3816 1997 
L 3816 0 
L 2688 0 
L 2688 519 
Q 2463 200 2181 54 
Q 1900 -91 1497 -91 
Q 953 -91 614 226 
Q 275 544 275 1050 
Q 275 1666 698 1953 
Q 1122 2241 2028 2241 
L 2688 2241 
L 2688 2328 
Q 2688 2594 2478 2717 
Q 2269 2841 1825 2841 
Q 1466 2841 1156 2769 
Q 847 2697 581 2553 
L 581 3406 
Q 941 3494 1303 3539 
Q 1666 3584 2028 3584 
Q 2975 3584 3395 3211 
Q 3816 2838 3816 1997 
z
" transform="scale(0.015625)"/>
      <path id="DejaVuSans-Bold-6e" d="M 4056 2131 
L 4056 0 
L 2931 0 
L 2931 347 
L 2931 1631 
Q 2931 2084 2911 2256 
Q 2891 2428 2841 2509 
Q 2775 2619 2662 2680 
Q 2550 2741 2406 2741 
Q 2056 2741 1856 2470 
Q 1656 2200 1656 1722 
L 1656 0 
L 538 0 
L 538 3500 
L 1656 3500 
L 1656 2988 
Q 1909 3294 2193 3439 
Q 2478 3584 2822 3584 
Q 3428 3584 3742 3212 
Q 4056 2841 4056 2131 
z
" transform="scale(0.015625)"/>
      <path id="DejaVuSans-Bold-31" d="M 750 831 
L 1813 831 
L 1813 3847 
L 722 3622 
L 722 4441 
L 1806 4666 
L 2950 4666 
L 2950 831 
L 4013 831 
L 4013 0 
L 750 0 
L 750 831 
z
" transform="scale(0.015625)"/>
      <path id="DejaVuSans-Bold-6d" d="M 3781 2919 
Q 3994 3244 4286 3414 
Q 4578 3584 4928 3584 
Q 5531 3584 5847 3212 
Q 6163 2841 6163 2131 
L 6163 0 
L 5038 0 
L 5038 1825 
Q 5041 1866 5042 1909 
Q 5044 1953 5044 2034 
Q 5044 2406 4934 2573 
Q 4825 2741 4581 2741 
Q 4263 2741 4089 2478 
Q 3916 2216 3909 1719 
L 3909 0 
L 2784 0 
L 2784 1825 
Q 2784 2406 2684 2573 
Q 2584 2741 2328 2741 
Q 2006 2741 1831 2477 
Q 1656 2213 1656 1722 
L 1656 0 
L 531 0 
L 531 3500 
L 1656 3500 
L 1656 2988 
Q 1863 3284 2130 3434 
Q 2397 3584 2719 3584 
Q 3081 3584 3359 3409 
Q 3638 3234 3781 2919 
z
" transform="scale(0.015625)"/>
      <path id="DejaVuSans-Bold-73" d="M 3272 3391 
L 3272 2541 
Q 2913 2691 2578 2766 
Q 2244 2841 1947 2841 
Q 1628 2841 1473 2761 
Q 1319 2681 1319 2516 
Q 1319 2381 1436 2309 
Q 1553 2238 1856 2203 
L 2053 2175 
Q 2913 2066 3209 1816 
Q 3506 1566 3506 1031 
Q 3506 472 3093 190 
Q 2681 -91 1863 -91 
Q 1516 -91 1145 -36 
Q 775 19 384 128 
L 384 978 
Q 719 816 1070 734 
Q 1422 653 1784 653 
Q 2113 653 2278 743 
Q 2444 834 2444 1013 
Q 2444 1163 2330 1236 
Q 2216 1309 1875 1350 
L 1678 1375 
Q 931 1469 631 1722 
Q 331 1975 331 2491 
Q 331 3047 712 3315 
Q 1094 3584 1881 3584 
Q 2191 3584 2531 3537 
Q 2872 3491 3272 3391 
z
" transform="scale(0.015625)"/>
      <path id="DejaVuSans-Bold-7a" d="M 366 3500 
L 3419 3500 
L 3419 2719 
L 1575 800 
L 3419 800 
L 3419 0 
L 288 0 
L 288 781 
L 2131 2700 
L 366 2700 
L 366 3500 
z
" transform="scale(0.015625)"/>
      <path id="DejaVuSans-Bold-64" d="M 2919 2988 
L 2919 4863 
L 4044 4863 
L 4044 0 
L 2919 0 
L 2919 506 
Q 2688 197 2409 53 
Q 2131 -91 1766 -91 
Q 1119 -91 703 423 
Q 288 938 288 1747 
Q 288 2556 703 3070 
Q 1119 3584 1766 3584 
Q 2128 3584 2408 3439 
Q 2688 3294 2919 2988 
z
M 2181 722 
Q 2541 722 2730 984 
Q 2919 1247 2919 1747 
Q 2919 2247 2730 2509 
Q 2541 2772 2181 2772 
Q 1825 2772 1636 2509 
Q 1447 2247 1447 1747 
Q 1447 1247 1636 984 
Q 1825 722 2181 722 
z
" transform="scale(0.015625)"/>
     </defs>
     <use xlink:href="#DejaVuSans-Bold-48"/>
     <use xlink:href="#DejaVuSans-Bold-69" transform="translate(83.691406 0)"/>
     <use xlink:href="#DejaVuSans-Bold-67" transform="translate(117.96875 0)"/>
     <use xlink:href="#DejaVuSans-Bold-68" transform="translate(189.550781 0)"/>
     <use xlink:href="#DejaVuSans-Bold-65" transform="translate(260.742188 0)"/>
     <use xlink:href="#DejaVuSans-Bold-72" transform="translate(328.564453 0)"/>
     <use xlink:href="#DejaVuSans-Bold-20" transform="translate(377.880859 0)"/>
     <use xlink:href="#DejaVuSans-Bold-74" transform="translate(412.695312 0)"/>
     <use xlink:href="#DejaVuSans-Bold-68" transform="translate(460.498047 0)"/>
     <use xlink:href="#DejaVuSans-Bold-61" transform="translate(531.689453 0)"/>
     <use xlink:href="#DejaVuSans-Bold-6e" transform="translate(599.169922 0)"/>
     <use xlink:href="#DejaVuSans-Bold-20" transform="translate(670.361328 0)"/>
     <use xlink:href="#DejaVuSans-Bold-31" transform="translate(705.175781 0)"/>
     <use xlink:href="#DejaVuSans-Bold-20" transform="translate(774.755859 0)"/>
     <use xlink:href="#DejaVuSans-Bold-6d" transform="translate(809.570312 0)"/>
     <use xlink:href="#DejaVuSans-Bold-65" transform="translate(913.769531 0)"/>
     <use xlink:href="#DejaVuSans-Bold-61" transform="translate(981.591797 0)"/>
     <use xlink:href="#DejaVuSans-Bold-6e" transform="translate(1049.072266 0)"/>
     <use xlink:href="#DejaVuSans-Bold-73" transform="translate(1120.263672 0)"/>
     <use xlink:href="#DejaVuSans-Bold-20" transform="translate(1179.785156 0)"/>
     <use xlink:href="#DejaVuSans-Bold-68" transform="translate(1214.599609 0)"/>
     <use xlink:href="#DejaVuSans-Bold-69" transform="translate(1285.791016 0)"/>
     <use xlink:href="#DejaVuSans-Bold-67" transform="translate(1320.068359 0)"/>
     <use xlink:href="#DejaVuSans-Bold-68" transform="translate(1391.650391 0)"/>
     <use xlink:href="#DejaVuSans-Bold-65" transform="translate(1462.841797 0)"/>
     <use xlink:href="#DejaVuSans-Bold-72" transform="translate(1530.664062 0)"/>
     <use xlink:href="#DejaVuSans-Bold-20" transform="translate(1579.980469 0)"/>
     <use xlink:href="#DejaVuSans-Bold-68" transform="translate(1614.794922 0)"/>
     <use xlink:href="#DejaVuSans-Bold-61" transform="translate(1685.986328 0)"/>
     <use xlink:href="#DejaVuSans-Bold-7a" transform="translate(1753.466797 0)"/>
     <use xlink:href="#DejaVuSans-Bold-61" transform="translate(1811.669922 0)"/>
     <use xlink:href="#DejaVuSans-Bold-72" transform="translate(1879.150391 0)"/>
     <use xlink:href="#DejaVuSans-Bold-64" transform="translate(1928.466797 0)"/>
    </g>
   </g>
  </g>
  <g id="text_12">
   <!-- Hazard Modeling -->
   <g style="fill: #20252c" transform="translate(15.396609 19.3575) scale(0.16 -0.16)">
    <defs>
     <path id="DejaVuSans-Bold-4d" d="M 588 4666 
L 2119 4666 
L 3181 2169 
L 4250 4666 
L 5778 4666 
L 5778 0 
L 4641 0 
L 4641 3413 
L 3566 897 
L 2803 897 
L 1728 3413 
L 1728 0 
L 588 0 
L 588 4666 
z
" transform="scale(0.015625)"/>
     <path id="DejaVuSans-Bold-6f" d="M 2203 2784 
Q 1831 2784 1636 2517 
Q 1441 2250 1441 1747 
Q 1441 1244 1636 976 
Q 1831 709 2203 709 
Q 2569 709 2762 976 
Q 2956 1244 2956 1747 
Q 2956 2250 2762 2517 
Q 2569 2784 2203 2784 
z
M 2203 3584 
Q 3106 3584 3614 3096 
Q 4122 2609 4122 1747 
Q 4122 884 3614 396 
Q 3106 -91 2203 -91 
Q 1297 -91 786 396 
Q 275 884 275 1747 
Q 275 2609 786 3096 
Q 1297 3584 2203 3584 
z
" transform="scale(0.015625)"/>
     <path id="DejaVuSans-Bold-6c" d="M 538 4863 
L 1656 4863 
L 1656 0 
L 538 0 
L 538 4863 
z
" transform="scale(0.015625)"/>
    </defs>
    <use xlink:href="#DejaVuSans-Bold-48"/>
    <use xlink:href="#DejaVuSans-Bold-61" transform="translate(83.691406 0)"/>
    <use xlink:href="#DejaVuSans-Bold-7a" transform="translate(151.171875 0)"/>
    <use xlink:href="#DejaVuSans-Bold-61" transform="translate(209.375 0)"/>
    <use xlink:href="#DejaVuSans-Bold-72" transform="translate(276.855469 0)"/>
    <use xlink:href="#DejaVuSans-Bold-64" transform="translate(326.171875 0)"/>
    <use xlink:href="#DejaVuSans-Bold-20" transform="translate(397.753906 0)"/>
    <use xlink:href="#DejaVuSans-Bold-4d" transform="translate(432.568359 0)"/>
    <use xlink:href="#DejaVuSans-Bold-6f" transform="translate(532.080078 0)"/>
    <use xlink:href="#DejaVuSans-Bold-64" transform="translate(600.78125 0)"/>
    <use xlink:href="#DejaVuSans-Bold-65" transform="translate(672.363281 0)"/>
    <use xlink:href="#DejaVuSans-Bold-6c" transform="translate(740.185547 0)"/>
    <use xlink:href="#DejaVuSans-Bold-69" transform="translate(774.462891 0)"/>
    <use xlink:href="#DejaVuSans-Bold-6e" transform="translate(808.740234 0)"/>
    <use xlink:href="#DejaVuSans-Bold-67" transform="translate(879.931641 0)"/>
   </g>
  </g>
  <g id="text_13">
   <!-- Hazard ratios ranked by magnitude -->
   <g style="fill: #667085" transform="translate(15.396609 28.195331) scale(0.094 -0.094)">
    <defs>
     <path id="DejaVuSans-73" d="M 2834 3397 
L 2834 2853 
Q 2591 2978 2328 3040 
Q 2066 3103 1784 3103 
Q 1356 3103 1142 2972 
Q 928 2841 928 2578 
Q 928 2378 1081 2264 
Q 1234 2150 1697 2047 
L 1894 2003 
Q 2506 1872 2764 1633 
Q 3022 1394 3022 966 
Q 3022 478 2636 193 
Q 2250 -91 1575 -91 
Q 1294 -91 989 -36 
Q 684 19 347 128 
L 347 722 
Q 666 556 975 473 
Q 1284 391 1588 391 
Q 1994 391 2212 530 
Q 2431 669 2431 922 
Q 2431 1156 2273 1281 
Q 2116 1406 1581 1522 
L 1381 1569 
Q 847 1681 609 1914 
Q 372 2147 372 2553 
Q 372 3047 722 3315 
Q 1072 3584 1716 3584 
Q 2034 3584 2315 3537 
Q 2597 3491 2834 3397 
z
" transform="scale(0.015625)"/>
     <path id="DejaVuSans-6b" d="M 581 4863 
L 1159 4863 
L 1159 1991 
L 2875 3500 
L 3609 3500 
L 1753 1863 
L 3688 0 
L 2938 0 
L 1159 1709 
L 1159 0 
L 581 0 
L 581 4863 
z
" transform="scale(0.015625)"/>
     <path id="DejaVuSans-62" d="M 3116 1747 
Q 3116 2381 2855 2742 
Q 2594 3103 2138 3103 
Q 1681 3103 1420 2742 
Q 1159 2381 1159 1747 
Q 1159 1113 1420 752 
Q 1681 391 2138 391 
Q 2594 391 2855 752 
Q 3116 1113 3116 1747 
z
M 1159 2969 
Q 1341 3281 1617 3432 
Q 1894 3584 2278 3584 
Q 2916 3584 3314 3078 
Q 3713 2572 3713 1747 
Q 3713 922 3314 415 
Q 2916 -91 2278 -91 
Q 1894 -91 1617 61 
Q 1341 213 1159 525 
L 1159 0 
L 581 0 
L 581 4863 
L 1159 4863 
L 1159 2969 
z
" transform="scale(0.015625)"/>
     <path id="DejaVuSans-79" d="M 2059 -325 
Q 1816 -950 1584 -1140 
Q 1353 -1331 966 -1331 
L 506 -1331 
L 506 -850 
L 844 -850 
Q 1081 -850 1212 -737 
Q 1344 -625 1503 -206 
L 1606 56 
L 191 3500 
L 800 3500 
L 1894 763 
L 2988 3500 
L 3597 3500 
L 2059 -325 
z
" transform="scale(0.015625)"/>
     <path id="DejaVuSans-6d" d="M 3328 2828 
Q 3544 3216 3844 3400 
Q 4144 3584 4550 3584 
Q 5097 3584 5394 3201 
Q 5691 2819 5691 2113 
L 5691 0 
L 5113 0 
L 5113 2094 
Q 5113 2597 4934 2840 
Q 4756 3084 4391 3084 
Q 3944 3084 3684 2787 
Q 3425 2491 3425 1978 
L 3425 0 
L 2847 0 
L 2847 2094 
Q 2847 2600 2669 2842 
Q 2491 3084 2119 3084 
Q 1678 3084 1418 2786 
Q 1159 2488 1159 1978 
L 1159 0 
L 581 0 
L 581 3500 
L 1159 3500 
L 1159 2956 
Q 1356 3278 1631 3431 
Q 1906 3584 2284 3584 
Q 2666 3584 2933 3390 
Q 3200 3197 3328 2828 
z
" transform="scale(0.015625)"/>
     <path id="DejaVuSans-75" d="M 544 1381 
L 544 3500 
L 1119 3500 
L 1119 1403 
Q 1119 906 1312 657 
Q 1506 409 1894 409 
Q 2359 409 2629 706 
Q 2900 1003 2900 1516 
L 2900 3500 
L 3475 3500 
L 3475 0 
L 2900 0 
L 2900 538 
Q 2691 219 2414 64 
Q 2138 -91 1772 -91 
Q 1169 -91 856 284 
Q 544 659 544 1381 
z
M 1991 3584 
L 1991 3584 
z
" transform="scale(0.015625)"/>
    </defs>
    <use xlink:href="#DejaVuSans-48"/>
    <use xlink:href="#DejaVuSans-61" transform="translate(75.195312 0)"/>
    <use xlink:href="#DejaVuSans-7a" transform="translate(136.474609 0)"/>
    <use xlink:href="#DejaVuSans-61" transform="translate(188.964844 0)"/>
    <use xlink:href="#DejaVuSans-72" transform="translate(250.244141 0)"/>
    <use xlink:href="#DejaVuSans-64" transform="translate(289.607422 0)"/>
    <use xlink:href="#DejaVuSans-20" transform="translate(353.083984 0)"/>
    <use xlink:href="#DejaVuSans-72" transform="translate(384.871094 0)"/>
    <use xlink:href="#DejaVuSans-61" transform="translate(425.984375 0)"/>
    <use xlink:href="#DejaVuSans-74" transform="translate(487.263672 0)"/>
    <use xlink:href="#DejaVuSans-69" transform="translate(526.472656 0)"/>
    <use xlink:href="#DejaVuSans-6f" transform="translate(554.255859 0)"/>
    <use xlink:href="#DejaVuSans-73" transform="translate(615.4375 0)"/>
    <use xlink:href="#DejaVuSans-20" transform="translate(667.537109 0)"/>
    <use xlink:href="#DejaVuSans-72" transform="translate(699.324219 0)"/>
    <use xlink:href="#DejaVuSans-61" transform="translate(740.4375 0)"/>
    <use xlink:href="#DejaVuSans-6e" transform="translate(801.716797 0)"/>
    <use xlink:href="#DejaVuSans-6b" transform="translate(865.095703 0)"/>
    <use xlink:href="#DejaVuSans-65" transform="translate(919.380859 0)"/>
    <use xlink:href="#DejaVuSans-64" transform="translate(980.904297 0)"/>
    <use xlink:href="#DejaVuSans-20" transform="translate(1044.380859 0)"/>
    <use xlink:href="#DejaVuSans-62" transform="translate(1076.167969 0)"/>
    <use xlink:href="#DejaVuSans-79" transform="translate(1139.644531 0)"/>
    <use xlink:href="#DejaVuSans-20" transform="translate(1198.824219 0)"/>
    <use xlink:href="#DejaVuSans-6d" transform="translate(1230.611328 0)"/>
    <use xlink:href="#DejaVuSans-61" transform="translate(1328.023438 0)"/>
    <use xlink:href="#DejaVuSans-67" transform="translate(1389.302734 0)"/>
    <use xlink:href="#DejaVuSans-6e" transform="translate(1452.779297 0)"/>
    <use xlink:href="#DejaVuSans-69" transform="translate(1516.158203 0)"/>
    <use xlink:href="#DejaVuSans-74" transform="translate(1543.941406 0)"/>
    <use xlink:href="#DejaVuSans-75" transform="translate(1583.150391 0)"/>
    <use xlink:href="#DejaVuSans-64" transform="translate(1646.529297 0)"/>
    <use xlink:href="#DejaVuSans-65" transform="translate(1710.005859 0)"/>
   </g>
  </g>
 </g>
 <defs>
  <clipPath id="pb5d0f868a3">
   <rect x="42.644609" y="67.786" width="500.566" height="240.32"/>
  </clipPath>
 </defs>
</svg>
