<?xml version="1.0" encoding="utf-8" standalone="no"?>
<!DOCTYPE svg PUBLIC "-//W3C//DTD SVG 1.1//EN"
  "http://www.w3.org/Graphics/SVG/1.1/DTD/svg11.dtd">
<svg xmlns:xlink="http://www.w3.org/1999/xlink" width="488.835328pt" height="349.994063pt" viewBox="0 0 488.835328 349.994063" xmlns="http://www.w3.org/2000/svg" version="1.1">
 <metadata>
  <rdf:RDF xmlns:dc="http://purl.org/dc/elements/1.1/" xmlns:cc="http://creativecommons.org/ns#" xmlns:rdf="http://www.w3.org/1999/02/22-rdf-syntax-ns#">
   <cc:Work>
    <dc:type rdf:resource="http://purl.org/dc/dcmitype/StillImage"/>
    <dc:date>2026-03-23T15:19:26.042010</dc:date>
    <dc:format>image/svg+xml</dc:format>
    <dc:creator>
     <cc:Agent>
      <dc:title>Matplotlib v3.10.8, https://matplotlib.org/</dc:title>
     </cc:Agent>
    </dc:creator>
   </cc:Work>
  </rdf:RDF>
 </metadata>
 <defs>
  <style type="text/css">*{stroke-linejoin: round; stroke-linecap: butt}</style>
 </defs>
 <g id="figure_1">
  <g id="patch_1">
   <path d="M 0 349.994063 
L 488.835328 349.994063 
L 488.835328 0 
L 0 0 
z
" style="fill: #ffffff"/>
  </g>
  <g id="axes_1">
   <g id="patch_2">
    <path d="M 44.541328 310.77 
L 481.635328 310.77 
L 481.635328 67.786 
L 44.541328 67.786 
z
" style="fill: #ffffff"/>
   </g>
   <g id="matplotlib.axis_1">
    <g id="xtick_1">
     <g id="line2d_1">
      <path d="M 49.673759 310.77 
L 49.673759 67.786 
" clip-path="url(#p1b17dc72bf)" style="fill: none; stroke: #e6ebf1; stroke-width: 0.9; stroke-linecap: square"/>
     </g>
     <g id="line2d_2">
      <defs>
       <path id="ma8f45131b1" d="M 0 0 
L 0 4.2 
" style="stroke: #4b5563"/>
      </defs>
      <g>
       <use xlink:href="#ma8f45131b1" x="49.673759" y="310.77" style="fill: #4b5563; stroke: #4b5563"/>
      </g>
     </g>
     <g id="text_1">
      <!-- −3 -->
      <g style="fill: #4b5563" transform="translate(41.934111 326.448359) scale(0.105 -0.105)">
       <defs>
        <path id="DejaVuSans-2212" d="M 678 2272 
L 4684 2272 
L 4684 1741 
L 678 1741 
L 678 2272 
z
" transform="scale(0.015625)"/>
        <path id="DejaVuSans-33" d="M 2597 2516 
Q 3050 2419 3304 2112 
Q 3559 1806 3559 1356 
Q 3559 666 3084 287 
Q 2609 -91 1734 -91 
Q 1441 -91 1130 -33 
Q 819 25 488 141 
L 488 750 
Q 750 597 1062 519 
Q 1375 441 1716 441 
Q 2309 441 2620 675 
Q 2931 909 2931 1356 
Q 2931 1769 2642 2001 
Q 2353 2234 1838 2234 
L 1294 2234 
L 1294 2753 
L 1863 2753 
Q 2328 2753 2575 2939 
Q 2822 3125 2822 3475 
Q 2822 3834 2567 4026 
Q 2313 4219 1838 4219 
Q 1578 4219 1281 4162 
Q 984 4106 628 3988 
L 628 4550 
Q 988 4650 1302 4700 
Q 1616 4750 1894 4750 
Q 2613 4750 3031 4423 
Q 3450 4097 3450 3541 
Q 3450 3153 3228 2886 
Q 3006 2619 2597 2516 
z
" transform="scale(0.015625)"/>
       </defs>
       <use xlink:href="#DejaVuSans-2212"/>
       <use xlink:href="#DejaVuSans-33" transform="translate(83.789062 0)"/>
      </g>
     </g>
    </g>
    <g id="xtick_2">
     <g id="line2d_3">
      <path d="M 114.974589 310.77 
L 114.974589 67.786 
" clip-path="url(#p1b17dc72bf)" style="fill: none; stroke: #e6ebf1; stroke-width: 0.9; stroke-linecap: square"/>
     </g>
     <g id="line2d_4">
      <g>
       <use xlink:href="#ma8f45131b1" x="114.974589" y="310.77" style="fill: #4b5563; stroke: #4b5563"/>
      </g>
     </g>
     <g id="text_2">
      <!-- −2 -->
      <g style="fill: #4b5563" transform="translate(107.234941 326.448359) scale(0.105 -0.105)">
       <defs>
        <path id="DejaVuSans-32" d="M 1228 531 
L 3431 531 
L 3431 0 
L 469 0 
L 469 531 
Q 828 903 1448 1529 
Q 2069 2156 2228 2338 
Q 2531 2678 2651 2914 
Q 2772 3150 2772 3378 
Q 2772 3750 2511 3984 
Q 2250 4219 1831 4219 
Q 1534 4219 1204 4116 
Q 875 4013 500 3803 
L 500 4441 
Q 881 4594 1212 4672 
Q 1544 4750 1819 4750 
Q 2544 4750 2975 4387 
Q 3406 4025 3406 3419 
Q 3406 3131 3298 2873 
Q 3191 2616 2906 2266 
Q 2828 2175 2409 1742 
Q 1991 1309 1228 531 
z
" transform="scale(0.015625)"/>
       </defs>
       <use xlink:href="#DejaVuSans-2212"/>
       <use xlink:href="#DejaVuSans-32" transform="translate(83.789062 0)"/>
      </g>
     </g>
    </g>
    <g id="xtick_3">
     <g id="line2d_5">
      <path d="M 180.275419 310.77 
L 180.275419 67.786 
" clip-path="url(#p1b17dc72bf)" style="fill: none; stroke: #e6ebf1; stroke-width: 0.9; stroke-linecap: square"/>
     </g>
     <g id="line2d_6">
      <g>
       <use xlink:href="#ma8f45131b1" x="180.275419" y="310.77" style="fill: #4b5563; stroke: #4b5563"/>
      </g>
     </g>
     <g id="text_3">
      <!-- −1 -->
      <g style="fill: #4b5563" transform="translate(172.535771 326.448359) scale(0.105 -0.105)">
       <defs>
        <path id="DejaVuSans-31" d="M 794 531 
L 1825 531 
L 1825 4091 
L 703 3866 
L 703 4441 
L 1819 4666 
L 2450 4666 
L 2450 531 
L 3481 531 
L 3481 0 
L 794 0 
L 794 531 
z
" transform="scale(0.015625)"/>
       </defs>
       <use xlink:href="#DejaVuSans-2212"/>
       <use xlink:href="#DejaVuSans-31" transform="translate(83.789062 0)"/>
      </g>
     </g>
    </g>
    <g id="xtick_4">
     <g id="line2d_7">
      <path d="M 245.576249 310.77 
L 245.576249 67.786 
" clip-path="url(#p1b17dc72bf)" style="fill: none; stroke: #e6ebf1; stroke-width: 0.9; stroke-linecap: square"/>
     </g>
     <g id="line2d_8">
      <g>
       <use xlink:href="#ma8f45131b1" x="245.576249" y="310.77" style="fill: #4b5563; stroke: #4b5563"/>
      </g>
     </g>
     <g id="text_4">
      <!-- 0 -->
      <g style="fill: #4b5563" transform="translate(242.235937 326.448359) scale(0.105 -0.105)">
       <defs>
        <path id="DejaVuSans-30" d="M 2034 4250 
Q 1547 4250 1301 3770 
Q 1056 3291 1056 2328 
Q 1056 1369 1301 889 
Q 1547 409 2034 409 
Q 2525 409 2770 889 
Q 3016 1369 3016 2328 
Q 3016 3291 2770 3770 
Q 2525 4250 2034 4250 
z
M 2034 4750 
Q 2819 4750 3233 4129 
Q 3647 3509 3647 2328 
Q 3647 1150 3233 529 
Q 2819 -91 2034 -91 
Q 1250 -91 836 529 
Q 422 1150 422 2328 
Q 422 3509 836 4129 
Q 1250 4750 2034 4750 
z
" transform="scale(0.015625)"/>
       </defs>
       <use xlink:href="#DejaVuSans-30"/>
      </g>
     </g>
    </g>
    <g id="xtick_5">
     <g id="line2d_9">
      <path d="M 310.877079 310.77 
L 310.877079 67.786 
" clip-path="url(#p1b17dc72bf)" style="fill: none; stroke: #e6ebf1; stroke-width: 0.9; stroke-linecap: square"/>
     </g>
     <g id="line2d_10">
      <g>
       <use xlink:href="#ma8f45131b1" x="310.877079" y="310.77" style="fill: #4b5563; stroke: #4b5563"/>
      </g>
     </g>
     <g id="text_5">
      <!-- 1 -->
      <g style="fill: #4b5563" transform="translate(307.536767 326.448359) scale(0.105 -0.105)">
       <use xlink:href="#DejaVuSans-31"/>
      </g>
     </g>
    </g>
    <g id="xtick_6">
     <g id="line2d_11">
      <path d="M 376.177909 310.77 
L 376.177909 67.786 
" clip-path="url(#p1b17dc72bf)" style="fill: none; stroke: #e6ebf1; stroke-width: 0.9; stroke-linecap: square"/>
     </g>
     <g id="line2d_12">
      <g>
       <use xlink:href="#ma8f45131b1" x="376.177909" y="310.77" style="fill: #4b5563; stroke: #4b5563"/>
      </g>
     </g>
     <g id="text_6">
      <!-- 2 -->
      <g style="fill: #4b5563" transform="translate(372.837597 326.448359) scale(0.105 -0.105)">
       <use xlink:href="#DejaVuSans-32"/>
      </g>
     </g>
    </g>
    <g id="xtick_7">
     <g id="line2d_13">
      <path d="M 441.47874 310.77 
L 441.47874 67.786 
" clip-path="url(#p1b17dc72bf)" style="fill: none; stroke: #e6ebf1; stroke-width: 0.9; stroke-linecap: square"/>
     </g>
     <g id="line2d_14">
      <g>
       <use xlink:href="#ma8f45131b1" x="441.47874" y="310.77" style="fill: #4b5563; stroke: #4b5563"/>
      </g>
     </g>
     <g id="text_7">
      <!-- 3 -->
      <g style="fill: #4b5563" transform="translate(438.138427 326.448359) scale(0.105 -0.105)">
       <use xlink:href="#DejaVuSans-33"/>
      </g>
     </g>
    </g>
    <g id="text_8">
     <!-- PC1 (73.0% var) -->
     <g style="fill: #252b33" transform="translate(220.322156 340.610391) scale(0.105 -0.105)">
      <defs>
       <path id="DejaVuSans-50" d="M 1259 4147 
L 1259 2394 
L 2053 2394 
Q 2494 2394 2734 2622 
Q 2975 2850 2975 3272 
Q 2975 3691 2734 3919 
Q 2494 4147 2053 4147 
L 1259 4147 
z
M 628 4666 
L 2053 4666 
Q 2838 4666 3239 4311 
Q 3641 3956 3641 3272 
Q 3641 2581 3239 2228 
Q 2838 1875 2053 1875 
L 1259 1875 
L 1259 0 
L 628 0 
L 628 4666 
z
" transform="scale(0.015625)"/>
       <path id="DejaVuSans-43" d="M 4122 4306 
L 4122 3641 
Q 3803 3938 3442 4084 
Q 3081 4231 2675 4231 
Q 1875 4231 1450 3742 
Q 1025 3253 1025 2328 
Q 1025 1406 1450 917 
Q 1875 428 2675 428 
Q 3081 428 3442 575 
Q 3803 722 4122 1019 
L 4122 359 
Q 3791 134 3420 21 
Q 3050 -91 2638 -91 
Q 1578 -91 968 557 
Q 359 1206 359 2328 
Q 359 3453 968 4101 
Q 1578 4750 2638 4750 
Q 3056 4750 3426 4639 
Q 3797 4528 4122 4306 
z
" transform="scale(0.015625)"/>
       <path id="DejaVuSans-20" transform="scale(0.015625)"/>
       <path id="DejaVuSans-28" d="M 1984 4856 
Q 1566 4138 1362 3434 
Q 1159 2731 1159 2009 
Q 1159 1288 1364 580 
Q 1569 -128 1984 -844 
L 1484 -844 
Q 1016 -109 783 600 
Q 550 1309 550 2009 
Q 550 2706 781 3412 
Q 1013 4119 1484 4856 
L 1984 4856 
z
" transform="scale(0.015625)"/>
       <path id="DejaVuSans-37" d="M 525 4666 
L 3525 4666 
L 3525 4397 
L 1831 0 
L 1172 0 
L 2766 4134 
L 525 4134 
L 525 4666 
z
" transform="scale(0.015625)"/>
       <path id="DejaVuSans-2e" d="M 684 794 
L 1344 794 
L 1344 0 
L 684 0 
L 684 794 
z
" transform="scale(0.015625)"/>
       <path id="DejaVuSans-25" d="M 4653 2053 
Q 4381 2053 4226 1822 
Q 4072 1591 4072 1178 
Q 4072 772 4226 539 
Q 4381 306 4653 306 
Q 4919 306 5073 539 
Q 5228 772 5228 1178 
Q 5228 1588 5073 1820 
Q 4919 2053 4653 2053 
z
M 4653 2450 
Q 5147 2450 5437 2106 
Q 5728 1763 5728 1178 
Q 5728 594 5436 251 
Q 5144 -91 4653 -91 
Q 4153 -91 3862 251 
Q 3572 594 3572 1178 
Q 3572 1766 3864 2108 
Q 4156 2450 4653 2450 
z
M 1428 4353 
Q 1159 4353 1004 4120 
Q 850 3888 850 3481 
Q 850 3069 1003 2837 
Q 1156 2606 1428 2606 
Q 1700 2606 1854 2837 
Q 2009 3069 2009 3481 
Q 2009 3884 1853 4118 
Q 1697 4353 1428 4353 
z
M 4250 4750 
L 4750 4750 
L 1831 -91 
L 1331 -91 
L 4250 4750 
z
M 1428 4750 
Q 1922 4750 2215 4408 
Q 2509 4066 2509 3481 
Q 2509 2891 2217 2550 
Q 1925 2209 1428 2209 
Q 931 2209 642 2551 
Q 353 2894 353 3481 
Q 353 4063 643 4406 
Q 934 4750 1428 4750 
z
" transform="scale(0.015625)"/>
       <path id="DejaVuSans-76" d="M 191 3500 
L 800 3500 
L 1894 563 
L 2988 3500 
L 3597 3500 
L 2284 0 
L 1503 0 
L 191 3500 
z
" transform="scale(0.015625)"/>
       <path id="DejaVuSans-61" d="M 2194 1759 
Q 1497 1759 1228 1600 
Q 959 1441 959 1056 
Q 959 750 1161 570 
Q 1363 391 1709 391 
Q 2188 391 2477 730 
Q 2766 1069 2766 1631 
L 2766 1759 
L 2194 1759 
z
M 3341 1997 
L 3341 0 
L 2766 0 
L 2766 531 
Q 2569 213 2275 61 
Q 1981 -91 1556 -91 
Q 1019 -91 701 211 
Q 384 513 384 1019 
Q 384 1609 779 1909 
Q 1175 2209 1959 2209 
L 2766 2209 
L 2766 2266 
Q 2766 2663 2505 2880 
Q 2244 3097 1772 3097 
Q 1472 3097 1187 3025 
Q 903 2953 641 2809 
L 641 3341 
Q 956 3463 1253 3523 
Q 1550 3584 1831 3584 
Q 2591 3584 2966 3190 
Q 3341 2797 3341 1997 
z
" transform="scale(0.015625)"/>
       <path id="DejaVuSans-72" d="M 2631 2963 
Q 2534 3019 2420 3045 
Q 2306 3072 2169 3072 
Q 1681 3072 1420 2755 
Q 1159 2438 1159 1844 
L 1159 0 
L 581 0 
L 581 3500 
L 1159 3500 
L 1159 2956 
Q 1341 3275 1631 3429 
Q 1922 3584 2338 3584 
Q 2397 3584 2469 3576 
Q 2541 3569 2628 3553 
L 2631 2963 
z
" transform="scale(0.015625)"/>
       <path id="DejaVuSans-29" d="M 513 4856 
L 1013 4856 
Q 1481 4119 1714 3412 
Q 1947 2706 1947 2009 
Q 1947 1309 1714 600 
Q 1481 -109 1013 -844 
L 513 -844 
Q 928 -128 1133 580 
Q 1338 1288 1338 2009 
Q 1338 2731 1133 3434 
Q 928 4138 513 4856 
z
" transform="scale(0.015625)"/>
      </defs>
      <use xlink:href="#DejaVuSans-50"/>
      <use xlink:href="#DejaVuSans-43" transform="translate(60.302734 0)"/>
      <use xlink:href="#DejaVuSans-31" transform="translate(130.126953 0)"/>
      <use xlink:href="#DejaVuSans-20" transform="translate(193.75 0)"/>
      <use xlink:href="#DejaVuSans-28" transform="translate(225.537109 0)"/>
      <use xlink:href="#DejaVuSans-37" transform="translate(264.550781 0)"/>
      <use xlink:href="#DejaVuSans-33" transform="translate(328.173828 0)"/>
      <use xlink:href="#DejaVuSans-2e" transform="translate(391.796875 0)"/>
      <use xlink:href="#DejaVuSans-30" transform="translate(423.583984 0)"/>
      <use xlink:href="#DejaVuSans-25" transform="translate(487.207031 0)"/>
      <use xlink:href="#DejaVuSans-20" transform="translate(582.226562 0)"/>
      <use xlink:href="#DejaVuSans-76" transform="translate(614.013672 0)"/>
      <use xlink:href="#DejaVuSans-61" transform="translate(673.193359 0)"/>
      <use xlink:href="#DejaVuSans-72" transform="translate(734.472656 0)"/>
      <use xlink:href="#DejaVuSans-29" transform="translate(775.585938 0)"/>
     </g>
    </g>
   </g>
   <g id="matplotlib.axis_2">
    <g id="ytick_1">
     <g id="line2d_15">
      <path d="M 44.541328 272.670694 
L 481.635328 272.670694 
" clip-path="url(#p1b17dc72bf)" style="fill: none; stroke: #e6ebf1; stroke-width: 0.9; stroke-linecap: square"/>
     </g>
     <g id="line2d_16">
      <defs>
       <path id="m27268351ee" d="M 0 0 
L -4.2 0 
" style="stroke: #4b5563"/>
      </defs>
      <g>
       <use xlink:href="#m27268351ee" x="44.541328" y="272.670694" style="fill: #4b5563; stroke: #4b5563"/>
      </g>
     </g>
     <g id="text_9">
      <!-- −2 -->
      <g style="fill: #4b5563" transform="translate(21.362031 276.659874) scale(0.105 -0.105)">
       <use xlink:href="#DejaVuSans-2212"/>
       <use xlink:href="#DejaVuSans-32" transform="translate(83.789062 0)"/>
      </g>
     </g>
    </g>
    <g id="ytick_2">
     <g id="line2d_17">
      <path d="M 44.541328 231.307442 
L 481.635328 231.307442 
" clip-path="url(#p1b17dc72bf)" style="fill: none; stroke: #e6ebf1; stroke-width: 0.9; stroke-linecap: square"/>
     </g>
     <g id="line2d_18">
      <g>
       <use xlink:href="#m27268351ee" x="44.541328" y="231.307442" style="fill: #4b5563; stroke: #4b5563"/>
      </g>
     </g>
     <g id="text_10">
      <!-- −1 -->
      <g style="fill: #4b5563" transform="translate(21.362031 235.296621) scale(0.105 -0.105)">
       <use xlink:href="#DejaVuSans-2212"/>
       <use xlink:href="#DejaVuSans-31" transform="translate(83.789062 0)"/>
      </g>
     </g>
    </g>
    <g id="ytick_3">
     <g id="line2d_19">
      <path d="M 44.541328 189.94419 
L 481.635328 189.94419 
" clip-path="url(#p1b17dc72bf)" style="fill: none; stroke: #e6ebf1; stroke-width: 0.9; stroke-linecap: square"/>
     </g>
     <g id="line2d_20">
      <g>
       <use xlink:href="#m27268351ee" x="44.541328" y="189.94419" style="fill: #4b5563; stroke: #4b5563"/>
      </g>
     </g>
     <g id="text_11">
      <!-- 0 -->
      <g style="fill: #4b5563" transform="translate(30.160703 193.933369) scale(0.105 -0.105)">
       <use xlink:href="#DejaVuSans-30"/>
      </g>
     </g>
    </g>
    <g id="ytick_4">
     <g id="line2d_21">
      <path d="M 44.541328 148.580938 
L 481.635328 148.580938 
" clip-path="url(#p1b17dc72bf)" style="fill: none; stroke: #e6ebf1; stroke-width: 0.9; stroke-linecap: square"/>
     </g>
     <g id="line2d_22">
      <g>
       <use xlink:href="#m27268351ee" x="44.541328" y="148.580938" style="fill: #4b5563; stroke: #4b5563"/>
      </g>
     </g>
     <g id="text_12">
      <!-- 1 -->
      <g style="fill: #4b5563" transform="translate(30.160703 152.570117) scale(0.105 -0.105)">
       <use xlink:href="#DejaVuSans-31"/>
      </g>
     </g>
    </g>
    <g id="ytick_5">
     <g id="line2d_23">
      <path d="M 44.541328 107.217685 
L 481.635328 107.217685 
" clip-path="url(#p1b17dc72bf)" style="fill: none; stroke: #e6ebf1; stroke-width: 0.9; stroke-linecap: square"/>
     </g>
     <g id="line2d_24">
      <g>
       <use xlink:href="#m27268351ee" x="44.541328" y="107.217685" style="fill: #4b5563; stroke: #4b5563"/>
      </g>
     </g>
     <g id="text_13">
      <!-- 2 -->
      <g style="fill: #4b5563" transform="translate(30.160703 111.206865) scale(0.105 -0.105)">
       <use xlink:href="#DejaVuSans-32"/>
      </g>
     </g>
    </g>
    <g id="text_14">
     <!-- PC2 (22.9% var) -->
     <g style="fill: #252b33" transform="translate(15.178359 232.044172) rotate(-90) scale(0.105 -0.105)">
      <defs>
       <path id="DejaVuSans-39" d="M 703 97 
L 703 672 
Q 941 559 1184 500 
Q 1428 441 1663 441 
Q 2288 441 2617 861 
Q 2947 1281 2994 2138 
Q 2813 1869 2534 1725 
Q 2256 1581 1919 1581 
Q 1219 1581 811 2004 
Q 403 2428 403 3163 
Q 403 3881 828 4315 
Q 1253 4750 1959 4750 
Q 2769 4750 3195 4129 
Q 3622 3509 3622 2328 
Q 3622 1225 3098 567 
Q 2575 -91 1691 -91 
Q 1453 -91 1209 -44 
Q 966 3 703 97 
z
M 1959 2075 
Q 2384 2075 2632 2365 
Q 2881 2656 2881 3163 
Q 2881 3666 2632 3958 
Q 2384 4250 1959 4250 
Q 1534 4250 1286 3958 
Q 1038 3666 1038 3163 
Q 1038 2656 1286 2365 
Q 1534 2075 1959 2075 
z
" transform="scale(0.015625)"/>
      </defs>
      <use xlink:href="#DejaVuSans-50"/>
      <use xlink:href="#DejaVuSans-43" transform="translate(60.302734 0)"/>
      <use xlink:href="#DejaVuSans-32" transform="translate(130.126953 0)"/>
      <use xlink:href="#DejaVuSans-20" transform="translate(193.75 0)"/>
      <use xlink:href="#DejaVuSans-28" transform="translate(225.537109 0)"/>
      <use xlink:href="#DejaVuSans-32" transform="translate(264.550781 0)"/>
      <use xlink:href="#DejaVuSans-32" transform="translate(328.173828 0)"/>
      <use xlink:href="#DejaVuSans-2e" transform="translate(391.796875 0)"/>
      <use xlink:href="#DejaVuSans-39" transform="translate(423.583984 0)"/>
      <use xlink:href="#DejaVuSans-25" transform="translate(487.207031 0)"/>
      <use xlink:href="#DejaVuSans-20" transform="translate(582.226562 0)"/>
      <use xlink:href="#DejaVuSans-76" transform="translate(614.013672 0)"/>
      <use xlink:href="#DejaVuSans-61" transform="translate(673.193359 0)"/>
      <use xlink:href="#DejaVuSans-72" transform="translate(734.472656 0)"/>
      <use xlink:href="#DejaVuSans-29" transform="translate(775.585938 0)"/>
     </g>
    </g>
   </g>
   <g id="patch_3">
    <path d="M 124.448279 177.654792 
C 123.80385 159.203178 120.641105 141.540468 115.656602 128.55667 
C 110.672098 115.572871 104.2728 108.328053 97.868076 108.417803 
C 91.463353 108.507552 85.576123 115.924542 81.50298 129.035266 
C 77.429837 142.14599 75.503335 159.880016 76.147764 178.331629 
C 76.792192 196.783243 79.954937 214.445953 84.939441 227.429752 
C 89.923944 240.41355 96.323243 247.658368 102.727966 247.568619 
C 109.132689 247.478869 115.019919 240.061879 119.093063 226.951155 
C 123.166206 213.840431 125.092708 196.106406 124.448279 177.654792 
z
" clip-path="url(#p1b17dc72bf)" style="fill: #c4922f; opacity: 0.12; stroke: #c4922f; stroke-linejoin: miter"/>
   </g>
   <g id="PathCollection_1">
    <defs>
     <path id="me6b434f44a" d="M 0 3.082207 
C 0.817411 3.082207 1.601453 2.757446 2.179449 2.179449 
C 2.757446 1.601453 3.082207 0.817411 3.082207 0 
C 3.082207 -0.817411 2.757446 -1.601453 2.179449 -2.179449 
C 1.601453 -2.757446 0.817411 -3.082207 0 -3.082207 
C -0.817411 -3.082207 -1.601453 -2.757446 -2.179449 -2.179449 
C -2.757446 -1.601453 -3.082207 -0.817411 -3.082207 0 
C -3.082207 0.817411 -2.757446 1.601453 -2.179449 2.179449 
C -1.601453 2.757446 -0.817411 3.082207 0 3.082207 
z
" style="stroke: #ffffff; stroke-opacity: 0.88; stroke-width: 0.5"/>
    </defs>
    <g clip-path="url(#p1b17dc72bf)">
     <use xlink:href="#me6b434f44a" x="97.689276" y="170.088729" style="fill: #c4922f; fill-opacity: 0.88; stroke: #ffffff; stroke-opacity: 0.88; stroke-width: 0.5"/>
     <use xlink:href="#me6b434f44a" x="109.687759" y="217.828546" style="fill: #c4922f; fill-opacity: 0.88; stroke: #ffffff; stroke-opacity: 0.88; stroke-width: 0.5"/>
     <use xlink:href="#me6b434f44a" x="91.19013" y="204.086617" style="fill: #c4922f; fill-opacity: 0.88; stroke: #ffffff; stroke-opacity: 0.88; stroke-width: 0.5"/>
     <use xlink:href="#me6b434f44a" x="95.424551" y="214.654369" style="fill: #c4922f; fill-opacity: 0.88; stroke: #ffffff; stroke-opacity: 0.88; stroke-width: 0.5"/>
     <use xlink:href="#me6b434f44a" x="89.517572" y="163.188975" style="fill: #c4922f; fill-opacity: 0.88; stroke: #ffffff; stroke-opacity: 0.88; stroke-width: 0.5"/>
     <use xlink:href="#me6b434f44a" x="110.035825" y="128.346964" style="fill: #c4922f; fill-opacity: 0.88; stroke: #ffffff; stroke-opacity: 0.88; stroke-width: 0.5"/>
     <use xlink:href="#me6b434f44a" x="85.979138" y="187.973471" style="fill: #c4922f; fill-opacity: 0.88; stroke: #ffffff; stroke-opacity: 0.88; stroke-width: 0.5"/>
     <use xlink:href="#me6b434f44a" x="99.769476" y="180.71406" style="fill: #c4922f; fill-opacity: 0.88; stroke: #ffffff; stroke-opacity: 0.88; stroke-width: 0.5"/>
     <use xlink:href="#me6b434f44a" x="93.122288" y="236.077769" style="fill: #c4922f; fill-opacity: 0.88; stroke: #ffffff; stroke-opacity: 0.88; stroke-width: 0.5"/>
     <use xlink:href="#me6b434f44a" x="102.937806" y="209.344116" style="fill: #c4922f; fill-opacity: 0.88; stroke: #ffffff; stroke-opacity: 0.88; stroke-width: 0.5"/>
     <use xlink:href="#me6b434f44a" x="104.114401" y="146.77375" style="fill: #c4922f; fill-opacity: 0.88; stroke: #ffffff; stroke-opacity: 0.88; stroke-width: 0.5"/>
     <use xlink:href="#me6b434f44a" x="93.677973" y="184.439637" style="fill: #c4922f; fill-opacity: 0.88; stroke: #ffffff; stroke-opacity: 0.88; stroke-width: 0.5"/>
     <use xlink:href="#me6b434f44a" x="100.709564" y="220.084606" style="fill: #c4922f; fill-opacity: 0.88; stroke: #ffffff; stroke-opacity: 0.88; stroke-width: 0.5"/>
     <use xlink:href="#me6b434f44a" x="73.632588" y="229.715235" style="fill: #c4922f; fill-opacity: 0.88; stroke: #ffffff; stroke-opacity: 0.88; stroke-width: 0.5"/>
     <use xlink:href="#me6b434f44a" x="101.996663" y="113.006178" style="fill: #c4922f; fill-opacity: 0.88; stroke: #ffffff; stroke-opacity: 0.88; stroke-width: 0.5"/>
     <use xlink:href="#me6b434f44a" x="97.851763" y="78.830727" style="fill: #c4922f; fill-opacity: 0.88; stroke: #ffffff; stroke-opacity: 0.88; stroke-width: 0.5"/>
     <use xlink:href="#me6b434f44a" x="101.41894" y="128.577282" style="fill: #c4922f; fill-opacity: 0.88; stroke: #ffffff; stroke-opacity: 0.88; stroke-width: 0.5"/>
     <use xlink:href="#me6b434f44a" x="102.544608" y="169.724247" style="fill: #c4922f; fill-opacity: 0.88; stroke: #ffffff; stroke-opacity: 0.88; stroke-width: 0.5"/>
     <use xlink:href="#me6b434f44a" x="121.597922" y="131.828043" style="fill: #c4922f; fill-opacity: 0.88; stroke: #ffffff; stroke-opacity: 0.88; stroke-width: 0.5"/>
     <use xlink:href="#me6b434f44a" x="92.552305" y="143.292671" style="fill: #c4922f; fill-opacity: 0.88; stroke: #ffffff; stroke-opacity: 0.88; stroke-width: 0.5"/>
     <use xlink:href="#me6b434f44a" x="120.569369" y="173.032588" style="fill: #c4922f; fill-opacity: 0.88; stroke: #ffffff; stroke-opacity: 0.88; stroke-width: 0.5"/>
     <use xlink:href="#me6b434f44a" x="101.456479" y="151.719522" style="fill: #c4922f; fill-opacity: 0.88; stroke: #ffffff; stroke-opacity: 0.88; stroke-width: 0.5"/>
     <use xlink:href="#me6b434f44a" x="64.409237" y="170.985605" style="fill: #c4922f; fill-opacity: 0.88; stroke: #ffffff; stroke-opacity: 0.88; stroke-width: 0.5"/>
     <use xlink:href="#me6b434f44a" x="126.815619" y="186.405211" style="fill: #c4922f; fill-opacity: 0.88; stroke: #ffffff; stroke-opacity: 0.88; stroke-width: 0.5"/>
     <use xlink:href="#me6b434f44a" x="100.140637" y="184.266899" style="fill: #c4922f; fill-opacity: 0.88; stroke: #ffffff; stroke-opacity: 0.88; stroke-width: 0.5"/>
     <use xlink:href="#me6b434f44a" x="118.119064" y="215.821809" style="fill: #c4922f; fill-opacity: 0.88; stroke: #ffffff; stroke-opacity: 0.88; stroke-width: 0.5"/>
     <use xlink:href="#me6b434f44a" x="111.634362" y="179.927518" style="fill: #c4922f; fill-opacity: 0.88; stroke: #ffffff; stroke-opacity: 0.88; stroke-width: 0.5"/>
     <use xlink:href="#me6b434f44a" x="103.96636" y="168.139571" style="fill: #c4922f; fill-opacity: 0.88; stroke: #ffffff; stroke-opacity: 0.88; stroke-width: 0.5"/>
     <use xlink:href="#me6b434f44a" x="105.86098" y="176.988482" style="fill: #c4922f; fill-opacity: 0.88; stroke: #ffffff; stroke-opacity: 0.88; stroke-width: 0.5"/>
     <use xlink:href="#me6b434f44a" x="97.652793" y="203.91388" style="fill: #c4922f; fill-opacity: 0.88; stroke: #ffffff; stroke-opacity: 0.88; stroke-width: 0.5"/>
     <use xlink:href="#me6b434f44a" x="105.824497" y="210.813633" style="fill: #c4922f; fill-opacity: 0.88; stroke: #ffffff; stroke-opacity: 0.88; stroke-width: 0.5"/>
     <use xlink:href="#me6b434f44a" x="125.97159" y="172.418784" style="fill: #c4922f; fill-opacity: 0.88; stroke: #ffffff; stroke-opacity: 0.88; stroke-width: 0.5"/>
     <use xlink:href="#me6b434f44a" x="74.817978" y="115.756059" style="fill: #c4922f; fill-opacity: 0.88; stroke: #ffffff; stroke-opacity: 0.88; stroke-width: 0.5"/>
     <use xlink:href="#me6b434f44a" x="85.838835" y="100.98309" style="fill: #c4922f; fill-opacity: 0.88; stroke: #ffffff; stroke-opacity: 0.88; stroke-width: 0.5"/>
     <use xlink:href="#me6b434f44a" x="107.793138" y="208.979634" style="fill: #c4922f; fill-opacity: 0.88; stroke: #ffffff; stroke-opacity: 0.88; stroke-width: 0.5"/>
     <use xlink:href="#me6b434f44a" x="101.404495" y="198.469462" style="fill: #c4922f; fill-opacity: 0.88; stroke: #ffffff; stroke-opacity: 0.88; stroke-width: 0.5"/>
     <use xlink:href="#me6b434f44a" x="112.026504" y="162.579995" style="fill: #c4922f; fill-opacity: 0.88; stroke: #ffffff; stroke-opacity: 0.88; stroke-width: 0.5"/>
     <use xlink:href="#me6b434f44a" x="80.539377" y="165.445034" style="fill: #c4922f; fill-opacity: 0.88; stroke: #ffffff; stroke-opacity: 0.88; stroke-width: 0.5"/>
     <use xlink:href="#me6b434f44a" x="86.919225" y="227.344017" style="fill: #c4922f; fill-opacity: 0.88; stroke: #ffffff; stroke-opacity: 0.88; stroke-width: 0.5"/>
     <use xlink:href="#me6b434f44a" x="103.892339" y="178.822481" style="fill: #c4922f; fill-opacity: 0.88; stroke: #ffffff; stroke-opacity: 0.88; stroke-width: 0.5"/>
     <use xlink:href="#me6b434f44a" x="96.267524" y="171.673405" style="fill: #c4922f; fill-opacity: 0.88; stroke: #ffffff; stroke-opacity: 0.88; stroke-width: 0.5"/>
     <use xlink:href="#me6b434f44a" x="124.23931" y="286.627282" style="fill: #c4922f; fill-opacity: 0.88; stroke: #ffffff; stroke-opacity: 0.88; stroke-width: 0.5"/>
     <use xlink:href="#me6b434f44a" x="78.821542" y="209.761352" style="fill: #c4922f; fill-opacity: 0.88; stroke: #ffffff; stroke-opacity: 0.88; stroke-width: 0.5"/>
     <use xlink:href="#me6b434f44a" x="117.296185" y="170.407223" style="fill: #c4922f; fill-opacity: 0.88; stroke: #ffffff; stroke-opacity: 0.88; stroke-width: 0.5"/>
     <use xlink:href="#me6b434f44a" x="106.024522" y="142.697873" style="fill: #c4922f; fill-opacity: 0.88; stroke: #ffffff; stroke-opacity: 0.88; stroke-width: 0.5"/>
     <use xlink:href="#me6b434f44a" x="110.420228" y="219.355643" style="fill: #c4922f; fill-opacity: 0.88; stroke: #ffffff; stroke-opacity: 0.88; stroke-width: 0.5"/>
     <use xlink:href="#me6b434f44a" x="89.851194" y="143.599573" style="fill: #c4922f; fill-opacity: 0.88; stroke: #ffffff; stroke-opacity: 0.88; stroke-width: 0.5"/>
     <use xlink:href="#me6b434f44a" x="89.221488" y="205.920616" style="fill: #c4922f; fill-opacity: 0.88; stroke: #ffffff; stroke-opacity: 0.88; stroke-width: 0.5"/>
     <use xlink:href="#me6b434f44a" x="99.991539" y="148.665328" style="fill: #c4922f; fill-opacity: 0.88; stroke: #ffffff; stroke-opacity: 0.88; stroke-width: 0.5"/>
     <use xlink:href="#me6b434f44a" x="101.664097" y="189.562971" style="fill: #c4922f; fill-opacity: 0.88; stroke: #ffffff; stroke-opacity: 0.88; stroke-width: 0.5"/>
    </g>
   </g>
   <g id="patch_4">
    <path d="M 318.028779 222.431147 
C 327.868155 206.187966 333.087618 189.58265 332.537644 176.272328 
C 331.987669 162.962006 325.713159 154.033406 315.096002 151.452949 
C 304.478845 148.872492 290.385885 152.85086 275.920932 162.511865 
C 261.455979 172.17287 247.800033 186.727733 237.960657 202.970914 
C 228.121281 219.214095 222.901818 235.81941 223.451792 249.129732 
C 224.001767 262.440055 230.276277 271.368654 240.893434 273.949112 
C 251.510591 276.529569 265.603551 272.5512 280.068504 262.890195 
C 294.533457 253.229191 308.189403 238.674328 318.028779 222.431147 
z
" clip-path="url(#p1b17dc72bf)" style="fill: #2f8f8b; opacity: 0.12; stroke: #2f8f8b; stroke-linejoin: miter"/>
   </g>
   <g id="PathCollection_2">
    <defs>
     <path id="m9a2028193e" d="M 0 3.082207 
C 0.817411 3.082207 1.601453 2.757446 2.179449 2.179449 
C 2.757446 1.601453 3.082207 0.817411 3.082207 0 
C 3.082207 -0.817411 2.757446 -1.601453 2.179449 -2.179449 
C 1.601453 -2.757446 0.817411 -3.082207 0 -3.082207 
C -0.817411 -3.082207 -1.601453 -2.757446 -2.179449 -2.179449 
C -2.757446 -1.601453 -3.082207 -0.817411 -3.082207 0 
C -3.082207 0.817411 -2.757446 1.601453 -2.179449 2.179449 
C -1.601453 2.757446 -0.817411 3.082207 0 3.082207 
z
" style="stroke: #ffffff; stroke-opacity: 0.88; stroke-width: 0.5"/>
    </defs>
    <g clip-path="url(#p1b17dc72bf)">
     <use xlink:href="#m9a2028193e" x="317.523475" y="154.248844" style="fill: #2f8f8b; fill-opacity: 0.88; stroke: #ffffff; stroke-opacity: 0.88; stroke-width: 0.5"/>
     <use xlink:href="#m9a2028193e" x="293.33319" y="165.348991" style="fill: #2f8f8b; fill-opacity: 0.88; stroke: #ffffff; stroke-opacity: 0.88; stroke-width: 0.5"/>
     <use xlink:href="#m9a2028193e" x="326.613229" y="164.452114" style="fill: #2f8f8b; fill-opacity: 0.88; stroke: #ffffff; stroke-opacity: 0.88; stroke-width: 0.5"/>
     <use xlink:href="#m9a2028193e" x="272.185231" y="262.512044" style="fill: #2f8f8b; fill-opacity: 0.88; stroke: #ffffff; stroke-opacity: 0.88; stroke-width: 0.5"/>
     <use xlink:href="#m9a2028193e" x="315.80564" y="198.565162" style="fill: #2f8f8b; fill-opacity: 0.88; stroke: #ffffff; stroke-opacity: 0.88; stroke-width: 0.5"/>
     <use xlink:href="#m9a2028193e" x="270.957855" y="214.48433" style="fill: #2f8f8b; fill-opacity: 0.88; stroke: #ffffff; stroke-opacity: 0.88; stroke-width: 0.5"/>
     <use xlink:href="#m9a2028193e" x="294.325261" y="157.969597" style="fill: #2f8f8b; fill-opacity: 0.88; stroke: #ffffff; stroke-opacity: 0.88; stroke-width: 0.5"/>
     <use xlink:href="#m9a2028193e" x="213.75367" y="266.566681" style="fill: #2f8f8b; fill-opacity: 0.88; stroke: #ffffff; stroke-opacity: 0.88; stroke-width: 0.5"/>
     <use xlink:href="#m9a2028193e" x="306.168996" y="188.611214" style="fill: #2f8f8b; fill-opacity: 0.88; stroke: #ffffff; stroke-opacity: 0.88; stroke-width: 0.5"/>
     <use xlink:href="#m9a2028193e" x="246.322389" y="232.714548" style="fill: #2f8f8b; fill-opacity: 0.88; stroke: #ffffff; stroke-opacity: 0.88; stroke-width: 0.5"/>
     <use xlink:href="#m9a2028193e" x="238.380341" y="299.725273" style="fill: #2f8f8b; fill-opacity: 0.88; stroke: #ffffff; stroke-opacity: 0.88; stroke-width: 0.5"/>
     <use xlink:href="#m9a2028193e" x="274.353897" y="192.562284" style="fill: #2f8f8b; fill-opacity: 0.88; stroke: #ffffff; stroke-opacity: 0.88; stroke-width: 0.5"/>
     <use xlink:href="#m9a2028193e" x="282.282388" y="262.938929" style="fill: #2f8f8b; fill-opacity: 0.88; stroke: #ffffff; stroke-opacity: 0.88; stroke-width: 0.5"/>
     <use xlink:href="#m9a2028193e" x="292.564238" y="197.647045" style="fill: #2f8f8b; fill-opacity: 0.88; stroke: #ffffff; stroke-opacity: 0.88; stroke-width: 0.5"/>
     <use xlink:href="#m9a2028193e" x="243.398159" y="208.10279" style="fill: #2f8f8b; fill-opacity: 0.88; stroke: #ffffff; stroke-opacity: 0.88; stroke-width: 0.5"/>
     <use xlink:href="#m9a2028193e" x="302.741065" y="168.887649" style="fill: #2f8f8b; fill-opacity: 0.88; stroke: #ffffff; stroke-opacity: 0.88; stroke-width: 0.5"/>
     <use xlink:href="#m9a2028193e" x="268.447974" y="198.064281" style="fill: #2f8f8b; fill-opacity: 0.88; stroke: #ffffff; stroke-opacity: 0.88; stroke-width: 0.5"/>
     <use xlink:href="#m9a2028193e" x="255.946677" y="222.707846" style="fill: #2f8f8b; fill-opacity: 0.88; stroke: #ffffff; stroke-opacity: 0.88; stroke-width: 0.5"/>
     <use xlink:href="#m9a2028193e" x="325.57588" y="257.045469" style="fill: #2f8f8b; fill-opacity: 0.88; stroke: #ffffff; stroke-opacity: 0.88; stroke-width: 0.5"/>
     <use xlink:href="#m9a2028193e" x="256.345525" y="243.824344" style="fill: #2f8f8b; fill-opacity: 0.88; stroke: #ffffff; stroke-opacity: 0.88; stroke-width: 0.5"/>
     <use xlink:href="#m9a2028193e" x="293.747539" y="173.5407" style="fill: #2f8f8b; fill-opacity: 0.88; stroke: #ffffff; stroke-opacity: 0.88; stroke-width: 0.5"/>
     <use xlink:href="#m9a2028193e" x="276.678198" y="207.205914" style="fill: #2f8f8b; fill-opacity: 0.88; stroke: #ffffff; stroke-opacity: 0.88; stroke-width: 0.5"/>
     <use xlink:href="#m9a2028193e" x="326.169103" y="228.549577" style="fill: #2f8f8b; fill-opacity: 0.88; stroke: #ffffff; stroke-opacity: 0.88; stroke-width: 0.5"/>
     <use xlink:href="#m9a2028193e" x="286.902415" y="207.16734" style="fill: #2f8f8b; fill-opacity: 0.88; stroke: #ffffff; stroke-opacity: 0.88; stroke-width: 0.5"/>
     <use xlink:href="#m9a2028193e" x="291.460608" y="192.567109" style="fill: #2f8f8b; fill-opacity: 0.88; stroke: #ffffff; stroke-opacity: 0.88; stroke-width: 0.5"/>
     <use xlink:href="#m9a2028193e" x="302.667045" y="179.570559" style="fill: #2f8f8b; fill-opacity: 0.88; stroke: #ffffff; stroke-opacity: 0.88; stroke-width: 0.5"/>
     <use xlink:href="#m9a2028193e" x="327.627338" y="193.13975" style="fill: #2f8f8b; fill-opacity: 0.88; stroke: #ffffff; stroke-opacity: 0.88; stroke-width: 0.5"/>
     <use xlink:href="#m9a2028193e" x="334.281231" y="176.240061" style="fill: #2f8f8b; fill-opacity: 0.88; stroke: #ffffff; stroke-opacity: 0.88; stroke-width: 0.5"/>
     <use xlink:href="#m9a2028193e" x="288.988265" y="199.2893" style="fill: #2f8f8b; fill-opacity: 0.88; stroke: #ffffff; stroke-opacity: 0.88; stroke-width: 0.5"/>
     <use xlink:href="#m9a2028193e" x="242.947329" y="233.736232" style="fill: #2f8f8b; fill-opacity: 0.88; stroke: #ffffff; stroke-opacity: 0.88; stroke-width: 0.5"/>
     <use xlink:href="#m9a2028193e" x="254.117283" y="254.564833" style="fill: #2f8f8b; fill-opacity: 0.88; stroke: #ffffff; stroke-opacity: 0.88; stroke-width: 0.5"/>
     <use xlink:href="#m9a2028193e" x="247.107729" y="254.986894" style="fill: #2f8f8b; fill-opacity: 0.88; stroke: #ffffff; stroke-opacity: 0.88; stroke-width: 0.5"/>
     <use xlink:href="#m9a2028193e" x="261.348899" y="222.094041" style="fill: #2f8f8b; fill-opacity: 0.88; stroke: #ffffff; stroke-opacity: 0.88; stroke-width: 0.5"/>
     <use xlink:href="#m9a2028193e" x="314.866608" y="216.162008" style="fill: #2f8f8b; fill-opacity: 0.88; stroke: #ffffff; stroke-opacity: 0.88; stroke-width: 0.5"/>
     <use xlink:href="#m9a2028193e" x="260.202249" y="201.847438" style="fill: #2f8f8b; fill-opacity: 0.88; stroke: #ffffff; stroke-opacity: 0.88; stroke-width: 0.5"/>
     <use xlink:href="#m9a2028193e" x="273.59939" y="154.968158" style="fill: #2f8f8b; fill-opacity: 0.88; stroke: #ffffff; stroke-opacity: 0.88; stroke-width: 0.5"/>
     <use xlink:href="#m9a2028193e" x="314.059062" y="168.35043" style="fill: #2f8f8b; fill-opacity: 0.88; stroke: #ffffff; stroke-opacity: 0.88; stroke-width: 0.5"/>
     <use xlink:href="#m9a2028193e" x="313.785016" y="247.149101" style="fill: #2f8f8b; fill-opacity: 0.88; stroke: #ffffff; stroke-opacity: 0.88; stroke-width: 0.5"/>
     <use xlink:href="#m9a2028193e" x="250.120424" y="199.023561" style="fill: #2f8f8b; fill-opacity: 0.88; stroke: #ffffff; stroke-opacity: 0.88; stroke-width: 0.5"/>
     <use xlink:href="#m9a2028193e" x="264.087548" y="244.92938" style="fill: #2f8f8b; fill-opacity: 0.88; stroke: #ffffff; stroke-opacity: 0.88; stroke-width: 0.5"/>
     <use xlink:href="#m9a2028193e" x="263.80026" y="236.272212" style="fill: #2f8f8b; fill-opacity: 0.88; stroke: #ffffff; stroke-opacity: 0.88; stroke-width: 0.5"/>
     <use xlink:href="#m9a2028193e" x="286.361175" y="188.913292" style="fill: #2f8f8b; fill-opacity: 0.88; stroke: #ffffff; stroke-opacity: 0.88; stroke-width: 0.5"/>
     <use xlink:href="#m9a2028193e" x="267.551962" y="230.827794" style="fill: #2f8f8b; fill-opacity: 0.88; stroke: #ffffff; stroke-opacity: 0.88; stroke-width: 0.5"/>
     <use xlink:href="#m9a2028193e" x="221.925374" y="273.466435" style="fill: #2f8f8b; fill-opacity: 0.88; stroke: #ffffff; stroke-opacity: 0.88; stroke-width: 0.5"/>
     <use xlink:href="#m9a2028193e" x="264.42117" y="225.339979" style="fill: #2f8f8b; fill-opacity: 0.88; stroke: #ffffff; stroke-opacity: 0.88; stroke-width: 0.5"/>
     <use xlink:href="#m9a2028193e" x="251.542176" y="197.438885" style="fill: #2f8f8b; fill-opacity: 0.88; stroke: #ffffff; stroke-opacity: 0.88; stroke-width: 0.5"/>
     <use xlink:href="#m9a2028193e" x="260.44635" y="205.865736" style="fill: #2f8f8b; fill-opacity: 0.88; stroke: #ffffff; stroke-opacity: 0.88; stroke-width: 0.5"/>
     <use xlink:href="#m9a2028193e" x="283.214883" y="196.350265" style="fill: #2f8f8b; fill-opacity: 0.88; stroke: #ffffff; stroke-opacity: 0.88; stroke-width: 0.5"/>
     <use xlink:href="#m9a2028193e" x="216.343221" y="253.800449" style="fill: #2f8f8b; fill-opacity: 0.88; stroke: #ffffff; stroke-opacity: 0.88; stroke-width: 0.5"/>
     <use xlink:href="#m9a2028193e" x="262.34097" y="214.714647" style="fill: #2f8f8b; fill-opacity: 0.88; stroke: #ffffff; stroke-opacity: 0.88; stroke-width: 0.5"/>
    </g>
   </g>
   <g id="patch_5">
    <path d="M 404.868976 193.314047 
C 417.714869 176.431514 425.143888 158.74453 425.519875 144.148448 
C 425.895863 129.552365 419.188123 119.23889 406.873956 115.479445 
C 394.559789 111.720001 377.644593 114.821528 359.853744 124.100953 
C 342.062894 133.380378 324.848935 148.080076 312.003042 164.962609 
C 299.157148 181.845142 291.72813 199.532126 291.352142 214.128208 
C 290.976154 228.724291 297.683895 239.037766 309.998061 242.797211 
C 322.312228 246.556655 339.227424 243.455128 357.018274 234.175703 
C 374.809123 224.896278 392.023082 210.19658 404.868976 193.314047 
z
" clip-path="url(#p1b17dc72bf)" style="fill: #c95f79; opacity: 0.12; stroke: #c95f79; stroke-linejoin: miter"/>
   </g>
   <g id="PathCollection_3">
    <defs>
     <path id="m7e2b43be64" d="M 0 3.082207 
C 0.817411 3.082207 1.601453 2.757446 2.179449 2.179449 
C 2.757446 1.601453 3.082207 0.817411 3.082207 0 
C 3.082207 -0.817411 2.757446 -1.601453 2.179449 -2.179449 
C 1.601453 -2.757446 0.817411 -3.082207 0 -3.082207 
C -0.817411 -3.082207 -1.601453 -2.757446 -2.179449 -2.179449 
C -2.757446 -1.601453 -3.082207 -0.817411 -3.082207 0 
C -3.082207 0.817411 -2.757446 1.601453 -2.179449 2.179449 
C -1.601453 2.757446 -0.817411 3.082207 0 3.082207 
z
" style="stroke: #ffffff; stroke-opacity: 0.88; stroke-width: 0.5"/>
    </defs>
    <g clip-path="url(#p1b17dc72bf)">
     <use xlink:href="#m7e2b43be64" x="366.028127" y="153.940733" style="fill: #c95f79; fill-opacity: 0.88; stroke: #ffffff; stroke-opacity: 0.88; stroke-width: 0.5"/>
     <use xlink:href="#m7e2b43be64" x="321.18688" y="218.85172" style="fill: #c95f79; fill-opacity: 0.88; stroke: #ffffff; stroke-opacity: 0.88; stroke-width: 0.5"/>
     <use xlink:href="#m7e2b43be64" x="389.582001" y="166.697609" style="fill: #c95f79; fill-opacity: 0.88; stroke: #ffffff; stroke-opacity: 0.88; stroke-width: 0.5"/>
     <use xlink:href="#m7e2b43be64" x="339.619283" y="191.887749" style="fill: #c95f79; fill-opacity: 0.88; stroke: #ffffff; stroke-opacity: 0.88; stroke-width: 0.5"/>
     <use xlink:href="#m7e2b43be64" x="367.545938" y="177.740176" style="fill: #c95f79; fill-opacity: 0.88; stroke: #ffffff; stroke-opacity: 0.88; stroke-width: 0.5"/>
     <use xlink:href="#m7e2b43be64" x="425.275862" y="156.836662" style="fill: #c95f79; fill-opacity: 0.88; stroke: #ffffff; stroke-opacity: 0.88; stroke-width: 0.5"/>
     <use xlink:href="#m7e2b43be64" x="269.542809" y="254.533027" style="fill: #c95f79; fill-opacity: 0.88; stroke: #ffffff; stroke-opacity: 0.88; stroke-width: 0.5"/>
     <use xlink:href="#m7e2b43be64" x="395.927456" y="172.568911" style="fill: #c95f79; fill-opacity: 0.88; stroke: #ffffff; stroke-opacity: 0.88; stroke-width: 0.5"/>
     <use xlink:href="#m7e2b43be64" x="376.614541" y="219.371606" style="fill: #c95f79; fill-opacity: 0.88; stroke: #ffffff; stroke-opacity: 0.88; stroke-width: 0.5"/>
     <use xlink:href="#m7e2b43be64" x="393.141586" y="110.484953" style="fill: #c95f79; fill-opacity: 0.88; stroke: #ffffff; stroke-opacity: 0.88; stroke-width: 0.5"/>
     <use xlink:href="#m7e2b43be64" x="334.658041" y="161.28953" style="fill: #c95f79; fill-opacity: 0.88; stroke: #ffffff; stroke-opacity: 0.88; stroke-width: 0.5"/>
     <use xlink:href="#m7e2b43be64" x="350.232497" y="207.387092" style="fill: #c95f79; fill-opacity: 0.88; stroke: #ffffff; stroke-opacity: 0.88; stroke-width: 0.5"/>
     <use xlink:href="#m7e2b43be64" x="368.596529" y="172.602661" style="fill: #c95f79; fill-opacity: 0.88; stroke: #ffffff; stroke-opacity: 0.88; stroke-width: 0.5"/>
     <use xlink:href="#m7e2b43be64" x="327.862811" y="238.01906" style="fill: #c95f79; fill-opacity: 0.88; stroke: #ffffff; stroke-opacity: 0.88; stroke-width: 0.5"/>
     <use xlink:href="#m7e2b43be64" x="341.414699" y="208.237981" style="fill: #c95f79; fill-opacity: 0.88; stroke: #ffffff; stroke-opacity: 0.88; stroke-width: 0.5"/>
     <use xlink:href="#m7e2b43be64" x="349.409618" y="161.972505" style="fill: #c95f79; fill-opacity: 0.88; stroke: #ffffff; stroke-opacity: 0.88; stroke-width: 0.5"/>
     <use xlink:href="#m7e2b43be64" x="341.661945" y="179.37084" style="fill: #c95f79; fill-opacity: 0.88; stroke: #ffffff; stroke-opacity: 0.88; stroke-width: 0.5"/>
     <use xlink:href="#m7e2b43be64" x="404.017546" y="84.192366" style="fill: #c95f79; fill-opacity: 0.88; stroke: #ffffff; stroke-opacity: 0.88; stroke-width: 0.5"/>
     <use xlink:href="#m7e2b43be64" x="461.767419" y="189.208712" style="fill: #c95f79; fill-opacity: 0.88; stroke: #ffffff; stroke-opacity: 0.88; stroke-width: 0.5"/>
     <use xlink:href="#m7e2b43be64" x="328.101262" y="260.540729" style="fill: #c95f79; fill-opacity: 0.88; stroke: #ffffff; stroke-opacity: 0.88; stroke-width: 0.5"/>
     <use xlink:href="#m7e2b43be64" x="378.640815" y="152.284297" style="fill: #c95f79; fill-opacity: 0.88; stroke: #ffffff; stroke-opacity: 0.88; stroke-width: 0.5"/>
     <use xlink:href="#m7e2b43be64" x="309.439203" y="213.594222" style="fill: #c95f79; fill-opacity: 0.88; stroke: #ffffff; stroke-opacity: 0.88; stroke-width: 0.5"/>
     <use xlink:href="#m7e2b43be64" x="434.795297" y="172.83465" style="fill: #c95f79; fill-opacity: 0.88; stroke: #ffffff; stroke-opacity: 0.88; stroke-width: 0.5"/>
     <use xlink:href="#m7e2b43be64" x="332.637417" y="209.873469" style="fill: #c95f79; fill-opacity: 0.88; stroke: #ffffff; stroke-opacity: 0.88; stroke-width: 0.5"/>
     <use xlink:href="#m7e2b43be64" x="356.635585" y="148.005084" style="fill: #c95f79; fill-opacity: 0.88; stroke: #ffffff; stroke-opacity: 0.88; stroke-width: 0.5"/>
     <use xlink:href="#m7e2b43be64" x="373.195405" y="148.259231" style="fill: #c95f79; fill-opacity: 0.88; stroke: #ffffff; stroke-opacity: 0.88; stroke-width: 0.5"/>
     <use xlink:href="#m7e2b43be64" x="322.311492" y="203.031294" style="fill: #c95f79; fill-opacity: 0.88; stroke: #ffffff; stroke-opacity: 0.88; stroke-width: 0.5"/>
     <use xlink:href="#m7e2b43be64" x="312.245168" y="187.282629" style="fill: #c95f79; fill-opacity: 0.88; stroke: #ffffff; stroke-opacity: 0.88; stroke-width: 0.5"/>
     <use xlink:href="#m7e2b43be64" x="362.356984" y="197.694059" style="fill: #c95f79; fill-opacity: 0.88; stroke: #ffffff; stroke-opacity: 0.88; stroke-width: 0.5"/>
     <use xlink:href="#m7e2b43be64" x="367.273981" y="166.686017" style="fill: #c95f79; fill-opacity: 0.88; stroke: #ffffff; stroke-opacity: 0.88; stroke-width: 0.5"/>
     <use xlink:href="#m7e2b43be64" x="404.64605" y="179.219342" style="fill: #c95f79; fill-opacity: 0.88; stroke: #ffffff; stroke-opacity: 0.88; stroke-width: 0.5"/>
     <use xlink:href="#m7e2b43be64" x="396.089943" y="81.31091" style="fill: #c95f79; fill-opacity: 0.88; stroke: #ffffff; stroke-opacity: 0.88; stroke-width: 0.5"/>
     <use xlink:href="#m7e2b43be64" x="367.212316" y="197.329577" style="fill: #c95f79; fill-opacity: 0.88; stroke: #ffffff; stroke-opacity: 0.88; stroke-width: 0.5"/>
     <use xlink:href="#m7e2b43be64" x="318.331022" y="202.060422" style="fill: #c95f79; fill-opacity: 0.88; stroke: #ffffff; stroke-opacity: 0.88; stroke-width: 0.5"/>
     <use xlink:href="#m7e2b43be64" x="324.098754" y="223.502828" style="fill: #c95f79; fill-opacity: 0.88; stroke: #ffffff; stroke-opacity: 0.88; stroke-width: 0.5"/>
     <use xlink:href="#m7e2b43be64" x="428.338283" y="154.504018" style="fill: #c95f79; fill-opacity: 0.88; stroke: #ffffff; stroke-opacity: 0.88; stroke-width: 0.5"/>
     <use xlink:href="#m7e2b43be64" x="348.507069" y="145.7442" style="fill: #c95f79; fill-opacity: 0.88; stroke: #ffffff; stroke-opacity: 0.88; stroke-width: 0.5"/>
     <use xlink:href="#m7e2b43be64" x="333.490241" y="172.471086" style="fill: #c95f79; fill-opacity: 0.88; stroke: #ffffff; stroke-opacity: 0.88; stroke-width: 0.5"/>
     <use xlink:href="#m7e2b43be64" x="305.968084" y="189.231786" style="fill: #c95f79; fill-opacity: 0.88; stroke: #ffffff; stroke-opacity: 0.88; stroke-width: 0.5"/>
     <use xlink:href="#m7e2b43be64" x="366.516328" y="161.97733" style="fill: #c95f79; fill-opacity: 0.88; stroke: #ffffff; stroke-opacity: 0.88; stroke-width: 0.5"/>
     <use xlink:href="#m7e2b43be64" x="377.145043" y="164.551883" style="fill: #c95f79; fill-opacity: 0.88; stroke: #ffffff; stroke-opacity: 0.88; stroke-width: 0.5"/>
     <use xlink:href="#m7e2b43be64" x="369.764329" y="161.421105" style="fill: #c95f79; fill-opacity: 0.88; stroke: #ffffff; stroke-opacity: 0.88; stroke-width: 0.5"/>
     <use xlink:href="#m7e2b43be64" x="321.18688" y="218.85172" style="fill: #c95f79; fill-opacity: 0.88; stroke: #ffffff; stroke-opacity: 0.88; stroke-width: 0.5"/>
     <use xlink:href="#m7e2b43be64" x="378.826395" y="154.060716" style="fill: #c95f79; fill-opacity: 0.88; stroke: #ffffff; stroke-opacity: 0.88; stroke-width: 0.5"/>
     <use xlink:href="#m7e2b43be64" x="376.056913" y="146.547158" style="fill: #c95f79; fill-opacity: 0.88; stroke: #ffffff; stroke-opacity: 0.88; stroke-width: 0.5"/>
     <use xlink:href="#m7e2b43be64" x="367.721667" y="173.938014" style="fill: #c95f79; fill-opacity: 0.88; stroke: #ffffff; stroke-opacity: 0.88; stroke-width: 0.5"/>
     <use xlink:href="#m7e2b43be64" x="347.744654" y="227.034072" style="fill: #c95f79; fill-opacity: 0.88; stroke: #ffffff; stroke-opacity: 0.88; stroke-width: 0.5"/>
     <use xlink:href="#m7e2b43be64" x="344.909946" y="178.814615" style="fill: #c95f79; fill-opacity: 0.88; stroke: #ffffff; stroke-opacity: 0.88; stroke-width: 0.5"/>
     <use xlink:href="#m7e2b43be64" x="335.220431" y="148.115418" style="fill: #c95f79; fill-opacity: 0.88; stroke: #ffffff; stroke-opacity: 0.88; stroke-width: 0.5"/>
     <use xlink:href="#m7e2b43be64" x="308.307885" y="190.950627" style="fill: #c95f79; fill-opacity: 0.88; stroke: #ffffff; stroke-opacity: 0.88; stroke-width: 0.5"/>
    </g>
   </g>
   <g id="patch_6">
    <path d="M 44.541328 310.77 
L 44.541328 67.786 
" style="fill: none; stroke: #252b33; stroke-width: 1.1; stroke-linejoin: miter; stroke-linecap: square"/>
   </g>
   <g id="patch_7">
    <path d="M 44.541328 310.77 
L 481.635328 310.77 
" style="fill: none; stroke: #252b33; stroke-width: 1.1; stroke-linejoin: miter; stroke-linecap: square"/>
   </g>
   <g id="text_15">
    <!-- Species separate cleanly in PCA space -->
    <g transform="translate(44.541328 51.786) scale(0.145 -0.145)">
     <defs>
      <path id="DejaVuSans-Bold-53" d="M 3834 4519 
L 3834 3531 
Q 3450 3703 3084 3790 
Q 2719 3878 2394 3878 
Q 1963 3878 1756 3759 
Q 1550 3641 1550 3391 
Q 1550 3203 1689 3098 
Q 1828 2994 2194 2919 
L 2706 2816 
Q 3484 2659 3812 2340 
Q 4141 2022 4141 1434 
Q 4141 663 3683 286 
Q 3225 -91 2284 -91 
Q 1841 -91 1394 -6 
Q 947 78 500 244 
L 500 1259 
Q 947 1022 1364 901 
Q 1781 781 2169 781 
Q 2563 781 2772 912 
Q 2981 1044 2981 1288 
Q 2981 1506 2839 1625 
Q 2697 1744 2272 1838 
L 1806 1941 
Q 1106 2091 782 2419 
Q 459 2747 459 3303 
Q 459 4000 909 4375 
Q 1359 4750 2203 4750 
Q 2588 4750 2994 4692 
Q 3400 4634 3834 4519 
z
" transform="scale(0.015625)"/>
      <path id="DejaVuSans-Bold-70" d="M 1656 506 
L 1656 -1331 
L 538 -1331 
L 538 3500 
L 1656 3500 
L 1656 2988 
Q 1888 3294 2169 3439 
Q 2450 3584 2816 3584 
Q 3463 3584 3878 3070 
Q 4294 2556 4294 1747 
Q 4294 938 3878 423 
Q 3463 -91 2816 -91 
Q 2450 -91 2169 54 
Q 1888 200 1656 506 
z
M 2400 2772 
Q 2041 2772 1848 2508 
Q 1656 2244 1656 1747 
Q 1656 1250 1848 986 
Q 2041 722 2400 722 
Q 2759 722 2948 984 
Q 3138 1247 3138 1747 
Q 3138 2247 2948 2509 
Q 2759 2772 2400 2772 
z
" transform="scale(0.015625)"/>
      <path id="DejaVuSans-Bold-65" d="M 4031 1759 
L 4031 1441 
L 1416 1441 
Q 1456 1047 1700 850 
Q 1944 653 2381 653 
Q 2734 653 3104 758 
Q 3475 863 3866 1075 
L 3866 213 
Q 3469 63 3072 -14 
Q 2675 -91 2278 -91 
Q 1328 -91 801 392 
Q 275 875 275 1747 
Q 275 2603 792 3093 
Q 1309 3584 2216 3584 
Q 3041 3584 3536 3087 
Q 4031 2591 4031 1759 
z
M 2881 2131 
Q 2881 2450 2695 2645 
Q 2509 2841 2209 2841 
Q 1884 2841 1681 2658 
Q 1478 2475 1428 2131 
L 2881 2131 
z
" transform="scale(0.015625)"/>
      <path id="DejaVuSans-Bold-63" d="M 3366 3391 
L 3366 2478 
Q 3138 2634 2908 2709 
Q 2678 2784 2431 2784 
Q 1963 2784 1702 2511 
Q 1441 2238 1441 1747 
Q 1441 1256 1702 982 
Q 1963 709 2431 709 
Q 2694 709 2930 787 
Q 3166 866 3366 1019 
L 3366 103 
Q 3103 6 2833 -42 
Q 2563 -91 2291 -91 
Q 1344 -91 809 395 
Q 275 881 275 1747 
Q 275 2613 809 3098 
Q 1344 3584 2291 3584 
Q 2566 3584 2833 3536 
Q 3100 3488 3366 3391 
z
" transform="scale(0.015625)"/>
      <path id="DejaVuSans-Bold-69" d="M 538 3500 
L 1656 3500 
L 1656 0 
L 538 0 
L 538 3500 
z
M 538 4863 
L 1656 4863 
L 1656 3950 
L 538 3950 
L 538 4863 
z
" transform="scale(0.015625)"/>
      <path id="DejaVuSans-Bold-73" d="M 3272 3391 
L 3272 2541 
Q 2913 2691 2578 2766 
Q 2244 2841 1947 2841 
Q 1628 2841 1473 2761 
Q 1319 2681 1319 2516 
Q 1319 2381 1436 2309 
Q 1553 2238 1856 2203 
L 2053 2175 
Q 2913 2066 3209 1816 
Q 3506 1566 3506 1031 
Q 3506 472 3093 190 
Q 2681 -91 1863 -91 
Q 1516 -91 1145 -36 
Q 775 19 384 128 
L 384 978 
Q 719 816 1070 734 
Q 1422 653 1784 653 
Q 2113 653 2278 743 
Q 2444 834 2444 1013 
Q 2444 1163 2330 1236 
Q 2216 1309 1875 1350 
L 1678 1375 
Q 931 1469 631 1722 
Q 331 1975 331 2491 
Q 331 3047 712 3315 
Q 1094 3584 1881 3584 
Q 2191 3584 2531 3537 
Q 2872 3491 3272 3391 
z
" transform="scale(0.015625)"/>
      <path id="DejaVuSans-Bold-20" transform="scale(0.015625)"/>
      <path id="DejaVuSans-Bold-61" d="M 2106 1575 
Q 1756 1575 1579 1456 
Q 1403 1338 1403 1106 
Q 1403 894 1545 773 
Q 1688 653 1941 653 
Q 2256 653 2472 879 
Q 2688 1106 2688 1447 
L 2688 1575 
L 2106 1575 
z
M 3816 1997 
L 3816 0 
L 2688 0 
L 2688 519 
Q 2463 200 2181 54 
Q 1900 -91 1497 -91 
Q 953 -91 614 226 
Q 275 544 275 1050 
Q 275 1666 698 1953 
Q 1122 2241 2028 2241 
L 2688 2241 
L 2688 2328 
Q 2688 2594 2478 2717 
Q 2269 2841 1825 2841 
Q 1466 2841 1156 2769 
Q 847 2697 581 2553 
L 581 3406 
Q 941 3494 1303 3539 
Q 1666 3584 2028 3584 
Q 2975 3584 3395 3211 
Q 3816 2838 3816 1997 
z
" transform="scale(0.015625)"/>
      <path id="DejaVuSans-Bold-72" d="M 3138 2547 
Q 2991 2616 2845 2648 
Q 2700 2681 2553 2681 
Q 2122 2681 1889 2404 
Q 1656 2128 1656 1613 
L 1656 0 
L 538 0 
L 538 3500 
L 1656 3500 
L 1656 2925 
Q 1872 3269 2151 3426 
Q 2431 3584 2822 3584 
Q 2878 3584 2943 3579 
Q 3009 3575 3134 3559 
L 3138 2547 
z
" transform="scale(0.015625)"/>
      <path id="DejaVuSans-Bold-74" d="M 1759 4494 
L 1759 3500 
L 2913 3500 
L 2913 2700 
L 1759 2700 
L 1759 1216 
Q 1759 972 1856 886 
Q 1953 800 2241 800 
L 2816 800 
L 2816 0 
L 1856 0 
Q 1194 0 917 276 
Q 641 553 641 1216 
L 641 2700 
L 84 2700 
L 84 3500 
L 641 3500 
L 641 4494 
L 1759 4494 
z
" transform="scale(0.015625)"/>
      <path id="DejaVuSans-Bold-6c" d="M 538 4863 
L 1656 4863 
L 1656 0 
L 538 0 
L 538 4863 
z
" transform="scale(0.015625)"/>
      <path id="DejaVuSans-Bold-6e" d="M 4056 2131 
L 4056 0 
L 2931 0 
L 2931 347 
L 2931 1631 
Q 2931 2084 2911 2256 
Q 2891 2428 2841 2509 
Q 2775 2619 2662 2680 
Q 2550 2741 2406 2741 
Q 2056 2741 1856 2470 
Q 1656 2200 1656 1722 
L 1656 0 
L 538 0 
L 538 3500 
L 1656 3500 
L 1656 2988 
Q 1909 3294 2193 3439 
Q 2478 3584 2822 3584 
Q 3428 3584 3742 3212 
Q 4056 2841 4056 2131 
z
" transform="scale(0.015625)"/>
      <path id="DejaVuSans-Bold-79" d="M 78 3500 
L 1197 3500 
L 2138 1125 
L 2938 3500 
L 4056 3500 
L 2584 -331 
Q 2363 -916 2067 -1148 
Q 1772 -1381 1288 -1381 
L 641 -1381 
L 641 -647 
L 991 -647 
Q 1275 -647 1404 -556 
Q 1534 -466 1606 -231 
L 1638 -134 
L 78 3500 
z
" transform="scale(0.015625)"/>
      <path id="DejaVuSans-Bold-50" d="M 588 4666 
L 2584 4666 
Q 3475 4666 3951 4270 
Q 4428 3875 4428 3144 
Q 4428 2409 3951 2014 
Q 3475 1619 2584 1619 
L 1791 1619 
L 1791 0 
L 588 0 
L 588 4666 
z
M 1791 3794 
L 1791 2491 
L 2456 2491 
Q 2806 2491 2997 2661 
Q 3188 2831 3188 3144 
Q 3188 3456 2997 3625 
Q 2806 3794 2456 3794 
L 1791 3794 
z
" transform="scale(0.015625)"/>
      <path id="DejaVuSans-Bold-43" d="M 4288 256 
Q 3956 84 3597 -3 
Q 3238 -91 2847 -91 
Q 1681 -91 1000 561 
Q 319 1213 319 2328 
Q 319 3447 1000 4098 
Q 1681 4750 2847 4750 
Q 3238 4750 3597 4662 
Q 3956 4575 4288 4403 
L 4288 3438 
Q 3953 3666 3628 3772 
Q 3303 3878 2944 3878 
Q 2300 3878 1931 3465 
Q 1563 3053 1563 2328 
Q 1563 1606 1931 1193 
Q 2300 781 2944 781 
Q 3303 781 3628 887 
Q 3953 994 4288 1222 
L 4288 256 
z
" transform="scale(0.015625)"/>
      <path id="DejaVuSans-Bold-41" d="M 3419 850 
L 1538 850 
L 1241 0 
L 31 0 
L 1759 4666 
L 3194 4666 
L 4922 0 
L 3713 0 
L 3419 850 
z
M 1838 1716 
L 3116 1716 
L 2478 3572 
L 1838 1716 
z
" transform="scale(0.015625)"/>
     </defs>
     <use xlink:href="#DejaVuSans-Bold-53"/>
     <use xlink:href="#DejaVuSans-Bold-70" transform="translate(72.021484 0)"/>
     <use xlink:href="#DejaVuSans-Bold-65" transform="translate(143.603516 0)"/>
     <use xlink:href="#DejaVuSans-Bold-63" transform="translate(211.425781 0)"/>
     <use xlink:href="#DejaVuSans-Bold-69" transform="translate(270.703125 0)"/>
     <use xlink:href="#DejaVuSans-Bold-65" transform="translate(304.980469 0)"/>
     <use xlink:href="#DejaVuSans-Bold-73" transform="translate(372.802734 0)"/>
     <use xlink:href="#DejaVuSans-Bold-20" transform="translate(432.324219 0)"/>
     <use xlink:href="#DejaVuSans-Bold-73" transform="translate(467.138672 0)"/>
     <use xlink:href="#DejaVuSans-Bold-65" transform="translate(526.660156 0)"/>
     <use xlink:href="#DejaVuSans-Bold-70" transform="translate(594.482422 0)"/>
     <use xlink:href="#DejaVuSans-Bold-61" transform="translate(666.064453 0)"/>
     <use xlink:href="#DejaVuSans-Bold-72" transform="translate(733.544922 0)"/>
     <use xlink:href="#DejaVuSans-Bold-61" transform="translate(782.861328 0)"/>
     <use xlink:href="#DejaVuSans-Bold-74" transform="translate(850.341797 0)"/>
     <use xlink:href="#DejaVuSans-Bold-65" transform="translate(898.144531 0)"/>
     <use xlink:href="#DejaVuSans-Bold-20" transform="translate(965.966797 0)"/>
     <use xlink:href="#DejaVuSans-Bold-63" transform="translate(1000.78125 0)"/>
     <use xlink:href="#DejaVuSans-Bold-6c" transform="translate(1060.058594 0)"/>
     <use xlink:href="#DejaVuSans-Bold-65" transform="translate(1094.335938 0)"/>
     <use xlink:href="#DejaVuSans-Bold-61" transform="translate(1162.158203 0)"/>
     <use xlink:href="#DejaVuSans-Bold-6e" transform="translate(1229.638672 0)"/>
     <use xlink:href="#DejaVuSans-Bold-6c" transform="translate(1300.830078 0)"/>
     <use xlink:href="#DejaVuSans-Bold-79" transform="translate(1335.107422 0)"/>
     <use xlink:href="#DejaVuSans-Bold-20" transform="translate(1400.292969 0)"/>
     <use xlink:href="#DejaVuSans-Bold-69" transform="translate(1435.107422 0)"/>
     <use xlink:href="#DejaVuSans-Bold-6e" transform="translate(1469.384766 0)"/>
     <use xlink:href="#DejaVuSans-Bold-20" transform="translate(1540.576172 0)"/>
     <use xlink:href="#DejaVuSans-Bold-50" transform="translate(1575.390625 0)"/>
     <use xlink:href="#DejaVuSans-Bold-43" transform="translate(1648.681641 0)"/>
     <use xlink:href="#DejaVuSans-Bold-41" transform="translate(1722.070312 0)"/>
     <use xlink:href="#DejaVuSans-Bold-20" transform="translate(1799.462891 0)"/>
     <use xlink:href="#DejaVuSans-Bold-73" transform="translate(1834.277344 0)"/>
     <use xlink:href="#DejaVuSans-Bold-70" transform="translate(1893.798828 0)"/>
     <use xlink:href="#DejaVuSans-Bold-61" transform="translate(1965.380859 0)"/>
     <use xlink:href="#DejaVuSans-Bold-63" transform="translate(2032.861328 0)"/>
     <use xlink:href="#DejaVuSans-Bold-65" transform="translate(2092.138672 0)"/>
    </g>
   </g>
   <g id="legend_1">
    <g id="PathCollection_4">
     <g>
      <use xlink:href="#me6b434f44a" x="64.491328" y="82.458109" style="fill: #c4922f; fill-opacity: 0.88; stroke: #ffffff; stroke-opacity: 0.88; stroke-width: 0.5"/>
     </g>
    </g>
    <g id="text_16">
     <!-- setosa -->
     <g transform="translate(83.391328 85.214359) scale(0.105 -0.105)">
      <defs>
       <path id="DejaVuSans-73" d="M 2834 3397 
L 2834 2853 
Q 2591 2978 2328 3040 
Q 2066 3103 1784 3103 
Q 1356 3103 1142 2972 
Q 928 2841 928 2578 
Q 928 2378 1081 2264 
Q 1234 2150 1697 2047 
L 1894 2003 
Q 2506 1872 2764 1633 
Q 3022 1394 3022 966 
Q 3022 478 2636 193 
Q 2250 -91 1575 -91 
Q 1294 -91 989 -36 
Q 684 19 347 128 
L 347 722 
Q 666 556 975 473 
Q 1284 391 1588 391 
Q 1994 391 2212 530 
Q 2431 669 2431 922 
Q 2431 1156 2273 1281 
Q 2116 1406 1581 1522 
L 1381 1569 
Q 847 1681 609 1914 
Q 372 2147 372 2553 
Q 372 3047 722 3315 
Q 1072 3584 1716 3584 
Q 2034 3584 2315 3537 
Q 2597 3491 2834 3397 
z
" transform="scale(0.015625)"/>
       <path id="DejaVuSans-65" d="M 3597 1894 
L 3597 1613 
L 953 1613 
Q 991 1019 1311 708 
Q 1631 397 2203 397 
Q 2534 397 2845 478 
Q 3156 559 3463 722 
L 3463 178 
Q 3153 47 2828 -22 
Q 2503 -91 2169 -91 
Q 1331 -91 842 396 
Q 353 884 353 1716 
Q 353 2575 817 3079 
Q 1281 3584 2069 3584 
Q 2775 3584 3186 3129 
Q 3597 2675 3597 1894 
z
M 3022 2063 
Q 3016 2534 2758 2815 
Q 2500 3097 2075 3097 
Q 1594 3097 1305 2825 
Q 1016 2553 972 2059 
L 3022 2063 
z
" transform="scale(0.015625)"/>
       <path id="DejaVuSans-74" d="M 1172 4494 
L 1172 3500 
L 2356 3500 
L 2356 3053 
L 1172 3053 
L 1172 1153 
Q 1172 725 1289 603 
Q 1406 481 1766 481 
L 2356 481 
L 2356 0 
L 1766 0 
Q 1100 0 847 248 
Q 594 497 594 1153 
L 594 3053 
L 172 3053 
L 172 3500 
L 594 3500 
L 594 4494 
L 1172 4494 
z
" transform="scale(0.015625)"/>
       <path id="DejaVuSans-6f" d="M 1959 3097 
Q 1497 3097 1228 2736 
Q 959 2375 959 1747 
Q 959 1119 1226 758 
Q 1494 397 1959 397 
Q 2419 397 2687 759 
Q 2956 1122 2956 1747 
Q 2956 2369 2687 2733 
Q 2419 3097 1959 3097 
z
M 1959 3584 
Q 2709 3584 3137 3096 
Q 3566 2609 3566 1747 
Q 3566 888 3137 398 
Q 2709 -91 1959 -91 
Q 1206 -91 779 398 
Q 353 888 353 1747 
Q 353 2609 779 3096 
Q 1206 3584 1959 3584 
z
" transform="scale(0.015625)"/>
      </defs>
      <use xlink:href="#DejaVuSans-73"/>
      <use xlink:href="#DejaVuSans-65" transform="translate(52.099609 0)"/>
      <use xlink:href="#DejaVuSans-74" transform="translate(113.623047 0)"/>
      <use xlink:href="#DejaVuSans-6f" transform="translate(152.832031 0)"/>
      <use xlink:href="#DejaVuSans-73" transform="translate(214.013672 0)"/>
      <use xlink:href="#DejaVuSans-61" transform="translate(266.113281 0)"/>
     </g>
    </g>
    <g id="PathCollection_5">
     <g>
      <use xlink:href="#m9a2028193e" x="64.491328" y="97.870141" style="fill: #2f8f8b; fill-opacity: 0.88; stroke: #ffffff; stroke-opacity: 0.88; stroke-width: 0.5"/>
     </g>
    </g>
    <g id="text_17">
     <!-- versicolor -->
     <g transform="translate(83.391328 100.626391) scale(0.105 -0.105)">
      <defs>
       <path id="DejaVuSans-69" d="M 603 3500 
L 1178 3500 
L 1178 0 
L 603 0 
L 603 3500 
z
M 603 4863 
L 1178 4863 
L 1178 4134 
L 603 4134 
L 603 4863 
z
" transform="scale(0.015625)"/>
       <path id="DejaVuSans-63" d="M 3122 3366 
L 3122 2828 
Q 2878 2963 2633 3030 
Q 2388 3097 2138 3097 
Q 1578 3097 1268 2742 
Q 959 2388 959 1747 
Q 959 1106 1268 751 
Q 1578 397 2138 397 
Q 2388 397 2633 464 
Q 2878 531 3122 666 
L 3122 134 
Q 2881 22 2623 -34 
Q 2366 -91 2075 -91 
Q 1284 -91 818 406 
Q 353 903 353 1747 
Q 353 2603 823 3093 
Q 1294 3584 2113 3584 
Q 2378 3584 2631 3529 
Q 2884 3475 3122 3366 
z
" transform="scale(0.015625)"/>
       <path id="DejaVuSans-6c" d="M 603 4863 
L 1178 4863 
L 1178 0 
L 603 0 
L 603 4863 
z
" transform="scale(0.015625)"/>
      </defs>
      <use xlink:href="#DejaVuSans-76"/>
      <use xlink:href="#DejaVuSans-65" transform="translate(59.179688 0)"/>
      <use xlink:href="#DejaVuSans-72" transform="translate(120.703125 0)"/>
      <use xlink:href="#DejaVuSans-73" transform="translate(161.816406 0)"/>
      <use xlink:href="#DejaVuSans-69" transform="translate(213.916016 0)"/>
      <use xlink:href="#DejaVuSans-63" transform="translate(241.699219 0)"/>
      <use xlink:href="#DejaVuSans-6f" transform="translate(296.679688 0)"/>
      <use xlink:href="#DejaVuSans-6c" transform="translate(357.861328 0)"/>
      <use xlink:href="#DejaVuSans-6f" transform="translate(385.644531 0)"/>
      <use xlink:href="#DejaVuSans-72" transform="translate(446.826172 0)"/>
     </g>
    </g>
    <g id="PathCollection_6">
     <g>
      <use xlink:href="#m7e2b43be64" x="64.491328" y="113.282172" style="fill: #c95f79; fill-opacity: 0.88; stroke: #ffffff; stroke-opacity: 0.88; stroke-width: 0.5"/>
     </g>
    </g>
    <g id="text_18">
     <!-- virginica -->
     <g transform="translate(83.391328 116.038422) scale(0.105 -0.105)">
      <defs>
       <path id="DejaVuSans-67" d="M 2906 1791 
Q 2906 2416 2648 2759 
Q 2391 3103 1925 3103 
Q 1463 3103 1205 2759 
Q 947 2416 947 1791 
Q 947 1169 1205 825 
Q 1463 481 1925 481 
Q 2391 481 2648 825 
Q 2906 1169 2906 1791 
z
M 3481 434 
Q 3481 -459 3084 -895 
Q 2688 -1331 1869 -1331 
Q 1566 -1331 1297 -1286 
Q 1028 -1241 775 -1147 
L 775 -588 
Q 1028 -725 1275 -790 
Q 1522 -856 1778 -856 
Q 2344 -856 2625 -561 
Q 2906 -266 2906 331 
L 2906 616 
Q 2728 306 2450 153 
Q 2172 0 1784 0 
Q 1141 0 747 490 
Q 353 981 353 1791 
Q 353 2603 747 3093 
Q 1141 3584 1784 3584 
Q 2172 3584 2450 3431 
Q 2728 3278 2906 2969 
L 2906 3500 
L 3481 3500 
L 3481 434 
z
" transform="scale(0.015625)"/>
       <path id="DejaVuSans-6e" d="M 3513 2113 
L 3513 0 
L 2938 0 
L 2938 2094 
Q 2938 2591 2744 2837 
Q 2550 3084 2163 3084 
Q 1697 3084 1428 2787 
Q 1159 2491 1159 1978 
L 1159 0 
L 581 0 
L 581 3500 
L 1159 3500 
L 1159 2956 
Q 1366 3272 1645 3428 
Q 1925 3584 2291 3584 
Q 2894 3584 3203 3211 
Q 3513 2838 3513 2113 
z
" transform="scale(0.015625)"/>
      </defs>
      <use xlink:href="#DejaVuSans-76"/>
      <use xlink:href="#DejaVuSans-69" transform="translate(59.179688 0)"/>
      <use xlink:href="#DejaVuSans-72" transform="translate(86.962891 0)"/>
      <use xlink:href="#DejaVuSans-67" transform="translate(126.326172 0)"/>
      <use xlink:href="#DejaVuSans-69" transform="translate(189.802734 0)"/>
      <use xlink:href="#DejaVuSans-6e" transform="translate(217.585938 0)"/>
      <use xlink:href="#DejaVuSans-69" transform="translate(280.964844 0)"/>
      <use xlink:href="#DejaVuSans-63" transform="translate(308.748047 0)"/>
      <use xlink:href="#DejaVuSans-61" transform="translate(363.728516 0)"/>
     </g>
    </g>
   </g>
  </g>
  <g id="text_19">
   <!-- Phenotype Separation PCA Map -->
   <g style="fill: #20252c" transform="translate(12.789328 19.3575) scale(0.16 -0.16)">
    <defs>
     <path id="DejaVuSans-Bold-68" d="M 4056 2131 
L 4056 0 
L 2931 0 
L 2931 347 
L 2931 1625 
Q 2931 2084 2911 2256 
Q 2891 2428 2841 2509 
Q 2775 2619 2662 2680 
Q 2550 2741 2406 2741 
Q 2056 2741 1856 2470 
Q 1656 2200 1656 1722 
L 1656 0 
L 538 0 
L 538 4863 
L 1656 4863 
L 1656 2988 
Q 1909 3294 2193 3439 
Q 2478 3584 2822 3584 
Q 3428 3584 3742 3212 
Q 4056 2841 4056 2131 
z
" transform="scale(0.015625)"/>
     <path id="DejaVuSans-Bold-6f" d="M 2203 2784 
Q 1831 2784 1636 2517 
Q 1441 2250 1441 1747 
Q 1441 1244 1636 976 
Q 1831 709 2203 709 
Q 2569 709 2762 976 
Q 2956 1244 2956 1747 
Q 2956 2250 2762 2517 
Q 2569 2784 2203 2784 
z
M 2203 3584 
Q 3106 3584 3614 3096 
Q 4122 2609 4122 1747 
Q 4122 884 3614 396 
Q 3106 -91 2203 -91 
Q 1297 -91 786 396 
Q 275 884 275 1747 
Q 275 2609 786 3096 
Q 1297 3584 2203 3584 
z
" transform="scale(0.015625)"/>
     <path id="DejaVuSans-Bold-4d" d="M 588 4666 
L 2119 4666 
L 3181 2169 
L 4250 4666 
L 5778 4666 
L 5778 0 
L 4641 0 
L 4641 3413 
L 3566 897 
L 2803 897 
L 1728 3413 
L 1728 0 
L 588 0 
L 588 4666 
z
" transform="scale(0.015625)"/>
    </defs>
    <use xlink:href="#DejaVuSans-Bold-50"/>
    <use xlink:href="#DejaVuSans-Bold-68" transform="translate(73.291016 0)"/>
    <use xlink:href="#DejaVuSans-Bold-65" transform="translate(144.482422 0)"/>
    <use xlink:href="#DejaVuSans-Bold-6e" transform="translate(212.304688 0)"/>
    <use xlink:href="#DejaVuSans-Bold-6f" transform="translate(283.496094 0)"/>
    <use xlink:href="#DejaVuSans-Bold-74" transform="translate(352.197266 0)"/>
    <use xlink:href="#DejaVuSans-Bold-79" transform="translate(400 0)"/>
    <use xlink:href="#DejaVuSans-Bold-70" transform="translate(465.185547 0)"/>
    <use xlink:href="#DejaVuSans-Bold-65" transform="translate(536.767578 0)"/>
    <use xlink:href="#DejaVuSans-Bold-20" transform="translate(604.589844 0)"/>
    <use xlink:href="#DejaVuSans-Bold-53" transform="translate(639.404297 0)"/>
    <use xlink:href="#DejaVuSans-Bold-65" transform="translate(711.425781 0)"/>
    <use xlink:href="#DejaVuSans-Bold-70" transform="translate(779.248047 0)"/>
    <use xlink:href="#DejaVuSans-Bold-61" transform="translate(850.830078 0)"/>
    <use xlink:href="#DejaVuSans-Bold-72" transform="translate(918.310547 0)"/>
    <use xlink:href="#DejaVuSans-Bold-61" transform="translate(967.626953 0)"/>
    <use xlink:href="#DejaVuSans-Bold-74" transform="translate(1035.107422 0)"/>
    <use xlink:href="#DejaVuSans-Bold-69" transform="translate(1082.910156 0)"/>
    <use xlink:href="#DejaVuSans-Bold-6f" transform="translate(1117.1875 0)"/>
    <use xlink:href="#DejaVuSans-Bold-6e" transform="translate(1185.888672 0)"/>
    <use xlink:href="#DejaVuSans-Bold-20" transform="translate(1257.080078 0)"/>
    <use xlink:href="#DejaVuSans-Bold-50" transform="translate(1291.894531 0)"/>
    <use xlink:href="#DejaVuSans-Bold-43" transform="translate(1365.185547 0)"/>
    <use xlink:href="#DejaVuSans-Bold-41" transform="translate(1438.574219 0)"/>
    <use xlink:href="#DejaVuSans-Bold-20" transform="translate(1515.966797 0)"/>
    <use xlink:href="#DejaVuSans-Bold-4d" transform="translate(1550.78125 0)"/>
    <use xlink:href="#DejaVuSans-Bold-61" transform="translate(1650.292969 0)"/>
    <use xlink:href="#DejaVuSans-Bold-70" transform="translate(1717.773438 0)"/>
   </g>
  </g>
  <g id="text_20">
   <!-- Approachable dimensionality reduction -->
   <g style="fill: #667085" transform="translate(12.789328 28.195331) scale(0.094 -0.094)">
    <defs>
     <path id="DejaVuSans-41" d="M 2188 4044 
L 1331 1722 
L 3047 1722 
L 2188 4044 
z
M 1831 4666 
L 2547 4666 
L 4325 0 
L 3669 0 
L 3244 1197 
L 1141 1197 
L 716 0 
L 50 0 
L 1831 4666 
z
" transform="scale(0.015625)"/>
     <path id="DejaVuSans-70" d="M 1159 525 
L 1159 -1331 
L 581 -1331 
L 581 3500 
L 1159 3500 
L 1159 2969 
Q 1341 3281 1617 3432 
Q 1894 3584 2278 3584 
Q 2916 3584 3314 3078 
Q 3713 2572 3713 1747 
Q 3713 922 3314 415 
Q 2916 -91 2278 -91 
Q 1894 -91 1617 61 
Q 1341 213 1159 525 
z
M 3116 1747 
Q 3116 2381 2855 2742 
Q 2594 3103 2138 3103 
Q 1681 3103 1420 2742 
Q 1159 2381 1159 1747 
Q 1159 1113 1420 752 
Q 1681 391 2138 391 
Q 2594 391 2855 752 
Q 3116 1113 3116 1747 
z
" transform="scale(0.015625)"/>
     <path id="DejaVuSans-68" d="M 3513 2113 
L 3513 0 
L 2938 0 
L 2938 2094 
Q 2938 2591 2744 2837 
Q 2550 3084 2163 3084 
Q 1697 3084 1428 2787 
Q 1159 2491 1159 1978 
L 1159 0 
L 581 0 
L 581 4863 
L 1159 4863 
L 1159 2956 
Q 1366 3272 1645 3428 
Q 1925 3584 2291 3584 
Q 2894 3584 3203 3211 
Q 3513 2838 3513 2113 
z
" transform="scale(0.015625)"/>
     <path id="DejaVuSans-62" d="M 3116 1747 
Q 3116 2381 2855 2742 
Q 2594 3103 2138 3103 
Q 1681 3103 1420 2742 
Q 1159 2381 1159 1747 
Q 1159 1113 1420 752 
Q 1681 391 2138 391 
Q 2594 391 2855 752 
Q 3116 1113 3116 1747 
z
M 1159 2969 
Q 1341 3281 1617 3432 
Q 1894 3584 2278 3584 
Q 2916 3584 3314 3078 
Q 3713 2572 3713 1747 
Q 3713 922 3314 415 
Q 2916 -91 2278 -91 
Q 1894 -91 1617 61 
Q 1341 213 1159 525 
L 1159 0 
L 581 0 
L 581 4863 
L 1159 4863 
L 1159 2969 
z
" transform="scale(0.015625)"/>
     <path id="DejaVuSans-64" d="M 2906 2969 
L 2906 4863 
L 3481 4863 
L 3481 0 
L 2906 0 
L 2906 525 
Q 2725 213 2448 61 
Q 2172 -91 1784 -91 
Q 1150 -91 751 415 
Q 353 922 353 1747 
Q 353 2572 751 3078 
Q 1150 3584 1784 3584 
Q 2172 3584 2448 3432 
Q 2725 3281 2906 2969 
z
M 947 1747 
Q 947 1113 1208 752 
Q 1469 391 1925 391 
Q 2381 391 2643 752 
Q 2906 1113 2906 1747 
Q 2906 2381 2643 2742 
Q 2381 3103 1925 3103 
Q 1469 3103 1208 2742 
Q 947 2381 947 1747 
z
" transform="scale(0.015625)"/>
     <path id="DejaVuSans-6d" d="M 3328 2828 
Q 3544 3216 3844 3400 
Q 4144 3584 4550 3584 
Q 5097 3584 5394 3201 
Q 5691 2819 5691 2113 
L 5691 0 
L 5113 0 
L 5113 2094 
Q 5113 2597 4934 2840 
Q 4756 3084 4391 3084 
Q 3944 3084 3684 2787 
Q 3425 2491 3425 1978 
L 3425 0 
L 2847 0 
L 2847 2094 
Q 2847 2600 2669 2842 
Q 2491 3084 2119 3084 
Q 1678 3084 1418 2786 
Q 1159 2488 1159 1978 
L 1159 0 
L 581 0 
L 581 3500 
L 1159 3500 
L 1159 2956 
Q 1356 3278 1631 3431 
Q 1906 3584 2284 3584 
Q 2666 3584 2933 3390 
Q 3200 3197 3328 2828 
z
" transform="scale(0.015625)"/>
     <path id="DejaVuSans-79" d="M 2059 -325 
Q 1816 -950 1584 -1140 
Q 1353 -1331 966 -1331 
L 506 -1331 
L 506 -850 
L 844 -850 
Q 1081 -850 1212 -737 
Q 1344 -625 1503 -206 
L 1606 56 
L 191 3500 
L 800 3500 
L 1894 763 
L 2988 3500 
L 3597 3500 
L 2059 -325 
z
" transform="scale(0.015625)"/>
     <path id="DejaVuSans-75" d="M 544 1381 
L 544 3500 
L 1119 3500 
L 1119 1403 
Q 1119 906 1312 657 
Q 1506 409 1894 409 
Q 2359 409 2629 706 
Q 2900 1003 2900 1516 
L 2900 3500 
L 3475 3500 
L 3475 0 
L 2900 0 
L 2900 538 
Q 2691 219 2414 64 
Q 2138 -91 1772 -91 
Q 1169 -91 856 284 
Q 544 659 544 1381 
z
M 1991 3584 
L 1991 3584 
z
" transform="scale(0.015625)"/>
    </defs>
    <use xlink:href="#DejaVuSans-41"/>
    <use xlink:href="#DejaVuSans-70" transform="translate(68.408203 0)"/>
    <use xlink:href="#DejaVuSans-70" transform="translate(131.884766 0)"/>
    <use xlink:href="#DejaVuSans-72" transform="translate(195.361328 0)"/>
    <use xlink:href="#DejaVuSans-6f" transform="translate(234.224609 0)"/>
    <use xlink:href="#DejaVuSans-61" transform="translate(295.40625 0)"/>
    <use xlink:href="#DejaVuSans-63" transform="translate(356.685547 0)"/>
    <use xlink:href="#DejaVuSans-68" transform="translate(411.666016 0)"/>
    <use xlink:href="#DejaVuSans-61" transform="translate(475.044922 0)"/>
    <use xlink:href="#DejaVuSans-62" transform="translate(536.324219 0)"/>
    <use xlink:href="#DejaVuSans-6c" transform="translate(599.800781 0)"/>
    <use xlink:href="#DejaVuSans-65" transform="translate(627.583984 0)"/>
    <use xlink:href="#DejaVuSans-20" transform="translate(689.107422 0)"/>
    <use xlink:href="#DejaVuSans-64" transform="translate(720.894531 0)"/>
    <use xlink:href="#DejaVuSans-69" transform="translate(784.371094 0)"/>
    <use xlink:href="#DejaVuSans-6d" transform="translate(812.154297 0)"/>
    <use xlink:href="#DejaVuSans-65" transform="translate(909.566406 0)"/>
    <use xlink:href="#DejaVuSans-6e" transform="translate(971.089844 0)"/>
    <use xlink:href="#DejaVuSans-73" transform="translate(1034.46875 0)"/>
    <use xlink:href="#DejaVuSans-69" transform="translate(1086.568359 0)"/>
    <use xlink:href="#DejaVuSans-6f" transform="translate(1114.351562 0)"/>
    <use xlink:href="#DejaVuSans-6e" transform="translate(1175.533203 0)"/>
    <use xlink:href="#DejaVuSans-61" transform="translate(1238.912109 0)"/>
    <use xlink:href="#DejaVuSans-6c" transform="translate(1300.191406 0)"/>
    <use xlink:href="#DejaVuSans-69" transform="translate(1327.974609 0)"/>
    <use xlink:href="#DejaVuSans-74" transform="translate(1355.757812 0)"/>
    <use xlink:href="#DejaVuSans-79" transform="translate(1394.966797 0)"/>
    <use xlink:href="#DejaVuSans-20" transform="translate(1454.146484 0)"/>
    <use xlink:href="#DejaVuSans-72" transform="translate(1485.933594 0)"/>
    <use xlink:href="#DejaVuSans-65" transform="translate(1524.796875 0)"/>
    <use xlink:href="#DejaVuSans-64" transform="translate(1586.320312 0)"/>
    <use xlink:href="#DejaVuSans-75" transform="translate(1649.796875 0)"/>
    <use xlink:href="#DejaVuSans-63" transform="translate(1713.175781 0)"/>
    <use xlink:href="#DejaVuSans-74" transform="translate(1768.15625 0)"/>
    <use xlink:href="#DejaVuSans-69" transform="translate(1807.365234 0)"/>
    <use xlink:href="#DejaVuSans-6f" transform="translate(1835.148438 0)"/>
    <use xlink:href="#DejaVuSans-6e" transform="translate(1896.330078 0)"/>
   </g>
  </g>
 </g>
 <defs>
  <clipPath id="p1b17dc72bf">
   <rect x="44.541328" y="67.786" width="437.094" height="242.984"/>
  </clipPath>
 </defs>
</svg>
